{
    "asset" : {
        "generator" : "Khronos glTF Blender I/O v1.3.48",
        "version" : "2.0"
    },
    "scene" : 0,
    "scenes" : [
        {
            "name" : "Scene",
            "nodes" : [
                5
            ]
        }
    ],
    "nodes" : [
        {
            "name" : "Head",
            "translation" : [
                0,
                0.7289220094680786,
                0
            ]
        },
        {
            "children" : [
                0
            ],
            "name" : "Torse",
            "translation" : [
                0,
                1,
                0
            ]
        },
        {
            "children" : [
                1
            ],
            "name" : "Colonne"
        },
        {
            "mesh" : 0,
            "name" : "Body",
            "skin" : 0
        },
        {
            "mesh" : 1,
            "name" : "Head",
            "skin" : 0
        },
        {
            "children" : [
                3,
                4,
                2
            ],
            "name" : "Armature",
            "scale" : [
                4.973708629608154,
                4.973708629608154,
                4.973708629608154
            ],
            "translation" : [
                0,
                -10.886425018310547,
                0
            ]
        }
    ],
    "animations" : [
        {
            "channels" : [
                {
                    "sampler" : 0,
                    "target" : {
                        "node" : 2,
                        "path" : "translation"
                    }
                },
                {
                    "sampler" : 1,
                    "target" : {
                        "node" : 2,
                        "path" : "rotation"
                    }
                },
                {
                    "sampler" : 2,
                    "target" : {
                        "node" : 2,
                        "path" : "scale"
                    }
                },
                {
                    "sampler" : 3,
                    "target" : {
                        "node" : 1,
                        "path" : "translation"
                    }
                },
                {
                    "sampler" : 4,
                    "target" : {
                        "node" : 1,
                        "path" : "rotation"
                    }
                },
                {
                    "sampler" : 5,
                    "target" : {
                        "node" : 1,
                        "path" : "scale"
                    }
                },
                {
                    "sampler" : 6,
                    "target" : {
                        "node" : 0,
                        "path" : "translation"
                    }
                },
                {
                    "sampler" : 7,
                    "target" : {
                        "node" : 0,
                        "path" : "rotation"
                    }
                },
                {
                    "sampler" : 8,
                    "target" : {
                        "node" : 0,
                        "path" : "scale"
                    }
                }
            ],
            "name" : "ArmatureAction.005",
            "samplers" : [
                {
                    "input" : 25,
                    "interpolation" : "LINEAR",
                    "output" : 26
                },
                {
                    "input" : 25,
                    "interpolation" : "LINEAR",
                    "output" : 27
                },
                {
                    "input" : 25,
                    "interpolation" : "LINEAR",
                    "output" : 28
                },
                {
                    "input" : 25,
                    "interpolation" : "LINEAR",
                    "output" : 29
                },
                {
                    "input" : 25,
                    "interpolation" : "LINEAR",
                    "output" : 30
                },
                {
                    "input" : 25,
                    "interpolation" : "LINEAR",
                    "output" : 31
                },
                {
                    "input" : 25,
                    "interpolation" : "LINEAR",
                    "output" : 32
                },
                {
                    "input" : 25,
                    "interpolation" : "LINEAR",
                    "output" : 33
                },
                {
                    "input" : 25,
                    "interpolation" : "LINEAR",
                    "output" : 34
                }
            ]
        }
    ],
    "materials" : [
        {
            "doubleSided" : true,
            "emissiveFactor" : [
                0,
                0,
                0
            ],
            "name" : "Skin",
            "pbrMetallicRoughness" : {
                "baseColorFactor" : [
                    1,
                    1,
                    1,
                    1
                ],
                "metallicFactor" : 0,
                "roughnessFactor" : 0.5
            }
        },
        {
            "doubleSided" : true,
            "emissiveFactor" : [
                0,
                0,
                0
            ],
            "name" : "Hair",
            "pbrMetallicRoughness" : {
                "baseColorFactor" : [
                    0.10247394442558289,
                    0.10247394442558289,
                    0.10247394442558289,
                    1
                ],
                "metallicFactor" : 0,
                "roughnessFactor" : 0.5
            }
        }
    ],
    "meshes" : [
        {
            "name" : "Body",
            "primitives" : [
                {
                    "attributes" : {
                        "POSITION" : 0,
                        "NORMAL" : 1,
                        "TEXCOORD_0" : 2,
                        "JOINTS_0" : 3,
                        "WEIGHTS_0" : 4
                    },
                    "indices" : 5,
                    "material" : 0
                },
                {
                    "attributes" : {
                        "POSITION" : 6,
                        "NORMAL" : 7,
                        "TEXCOORD_0" : 8,
                        "JOINTS_0" : 9,
                        "WEIGHTS_0" : 10
                    },
                    "indices" : 11,
                    "material" : 1
                }
            ]
        },
        {
            "name" : "Head",
            "primitives" : [
                {
                    "attributes" : {
                        "POSITION" : 13,
                        "NORMAL" : 14,
                        "TEXCOORD_0" : 15,
                        "JOINTS_0" : 16,
                        "WEIGHTS_0" : 17
                    },
                    "indices" : 18,
                    "material" : 0
                },
                {
                    "attributes" : {
                        "POSITION" : 19,
                        "NORMAL" : 20,
                        "TEXCOORD_0" : 21,
                        "JOINTS_0" : 22,
                        "WEIGHTS_0" : 23
                    },
                    "indices" : 24,
                    "material" : 1
                }
            ]
        }
    ],
    "skins" : [
        {
            "inverseBindMatrices" : 12,
            "joints" : [
                2,
                1,
                0
            ],
            "name" : "Armature"
        }
    ],
    "accessors" : [
        {
            "bufferView" : 0,
            "componentType" : 5126,
            "count" : 765,
            "max" : [
                12.505755424499512,
                -0.8159542083740234,
                5.162856578826904
            ],
            "min" : [
                -12.505755424499512,
                -16.320953369140625,
                -3.0379486083984375
            ],
            "type" : "VEC3"
        },
        {
            "bufferView" : 1,
            "componentType" : 5126,
            "count" : 765,
            "type" : "VEC3"
        },
        {
            "bufferView" : 2,
            "componentType" : 5126,
            "count" : 765,
            "type" : "VEC2"
        },
        {
            "bufferView" : 3,
            "componentType" : 5123,
            "count" : 765,
            "type" : "VEC4"
        },
        {
            "bufferView" : 4,
            "componentType" : 5126,
            "count" : 765,
            "type" : "VEC4"
        },
        {
            "bufferView" : 5,
            "componentType" : 5123,
            "count" : 1203,
            "type" : "SCALAR"
        },
        {
            "bufferView" : 6,
            "componentType" : 5126,
            "count" : 156,
            "max" : [
                4.469085216522217,
                -9.399675369262695,
                5.277832508087158
            ],
            "min" : [
                -4.469085216522217,
                -11.211761474609375,
                -3.3896098136901855
            ],
            "type" : "VEC3"
        },
        {
            "bufferView" : 7,
            "componentType" : 5126,
            "count" : 156,
            "type" : "VEC3"
        },
        {
            "bufferView" : 8,
            "componentType" : 5126,
            "count" : 156,
            "type" : "VEC2"
        },
        {
            "bufferView" : 9,
            "componentType" : 5123,
            "count" : 156,
            "type" : "VEC4"
        },
        {
            "bufferView" : 10,
            "componentType" : 5126,
            "count" : 156,
            "type" : "VEC4"
        },
        {
            "bufferView" : 11,
            "componentType" : 5123,
            "count" : 240,
            "type" : "SCALAR"
        },
        {
            "bufferView" : 12,
            "componentType" : 5126,
            "count" : 3,
            "type" : "MAT4"
        },
        {
            "bufferView" : 13,
            "componentType" : 5126,
            "count" : 368,
            "max" : [
                2.742924690246582,
                1.6688727140426636,
                4.567249298095703
            ],
            "min" : [
                -2.742924690246582,
                -2.769637107849121,
                -2.6787900924682617
            ],
            "type" : "VEC3"
        },
        {
            "bufferView" : 14,
            "componentType" : 5126,
            "count" : 368,
            "type" : "VEC3"
        },
        {
            "bufferView" : 15,
            "componentType" : 5126,
            "count" : 368,
            "type" : "VEC2"
        },
        {
            "bufferView" : 16,
            "componentType" : 5123,
            "count" : 368,
            "type" : "VEC4"
        },
        {
            "bufferView" : 17,
            "componentType" : 5126,
            "count" : 368,
            "type" : "VEC4"
        },
        {
            "bufferView" : 18,
            "componentType" : 5123,
            "count" : 492,
            "type" : "SCALAR"
        },
        {
            "bufferView" : 19,
            "componentType" : 5126,
            "count" : 474,
            "max" : [
                3.5529236793518066,
                5.841457366943359,
                4.4229736328125
            ],
            "min" : [
                -3.5529236793518066,
                -1.141144871711731,
                -3.2617347240448
            ],
            "type" : "VEC3"
        },
        {
            "bufferView" : 20,
            "componentType" : 5126,
            "count" : 474,
            "type" : "VEC3"
        },
        {
            "bufferView" : 21,
            "componentType" : 5126,
            "count" : 474,
            "type" : "VEC2"
        },
        {
            "bufferView" : 22,
            "componentType" : 5123,
            "count" : 474,
            "type" : "VEC4"
        },
        {
            "bufferView" : 23,
            "componentType" : 5126,
            "count" : 474,
            "type" : "VEC4"
        },
        {
            "bufferView" : 24,
            "componentType" : 5123,
            "count" : 678,
            "type" : "SCALAR"
        },
        {
            "bufferView" : 25,
            "componentType" : 5126,
            "count" : 9,
            "max" : [
                0.375
            ],
            "min" : [
                0.041666666666666664
            ],
            "type" : "SCALAR"
        },
        {
            "bufferView" : 26,
            "componentType" : 5126,
            "count" : 9,
            "type" : "VEC3"
        },
        {
            "bufferView" : 27,
            "componentType" : 5126,
            "count" : 9,
            "type" : "VEC4"
        },
        {
            "bufferView" : 28,
            "componentType" : 5126,
            "count" : 9,
            "type" : "VEC3"
        },
        {
            "bufferView" : 29,
            "componentType" : 5126,
            "count" : 9,
            "type" : "VEC3"
        },
        {
            "bufferView" : 30,
            "componentType" : 5126,
            "count" : 9,
            "type" : "VEC4"
        },
        {
            "bufferView" : 31,
            "componentType" : 5126,
            "count" : 9,
            "type" : "VEC3"
        },
        {
            "bufferView" : 32,
            "componentType" : 5126,
            "count" : 9,
            "type" : "VEC3"
        },
        {
            "bufferView" : 33,
            "componentType" : 5126,
            "count" : 9,
            "type" : "VEC4"
        },
        {
            "bufferView" : 34,
            "componentType" : 5126,
            "count" : 9,
            "type" : "VEC3"
        }
    ],
    "bufferViews" : [
        {
            "buffer" : 0,
            "byteLength" : 9180,
            "byteOffset" : 0
        },
        {
            "buffer" : 0,
            "byteLength" : 9180,
            "byteOffset" : 9180
        },
        {
            "buffer" : 0,
            "byteLength" : 6120,
            "byteOffset" : 18360
        },
        {
            "buffer" : 0,
            "byteLength" : 6120,
            "byteOffset" : 24480
        },
        {
            "buffer" : 0,
            "byteLength" : 12240,
            "byteOffset" : 30600
        },
        {
            "buffer" : 0,
            "byteLength" : 2406,
            "byteOffset" : 42840
        },
        {
            "buffer" : 0,
            "byteLength" : 1872,
            "byteOffset" : 45248
        },
        {
            "buffer" : 0,
            "byteLength" : 1872,
            "byteOffset" : 47120
        },
        {
            "buffer" : 0,
            "byteLength" : 1248,
            "byteOffset" : 48992
        },
        {
            "buffer" : 0,
            "byteLength" : 1248,
            "byteOffset" : 50240
        },
        {
            "buffer" : 0,
            "byteLength" : 2496,
            "byteOffset" : 51488
        },
        {
            "buffer" : 0,
            "byteLength" : 480,
            "byteOffset" : 53984
        },
        {
            "buffer" : 0,
            "byteLength" : 192,
            "byteOffset" : 54464
        },
        {
            "buffer" : 0,
            "byteLength" : 4416,
            "byteOffset" : 54656
        },
        {
            "buffer" : 0,
            "byteLength" : 4416,
            "byteOffset" : 59072
        },
        {
            "buffer" : 0,
            "byteLength" : 2944,
            "byteOffset" : 63488
        },
        {
            "buffer" : 0,
            "byteLength" : 2944,
            "byteOffset" : 66432
        },
        {
            "buffer" : 0,
            "byteLength" : 5888,
            "byteOffset" : 69376
        },
        {
            "buffer" : 0,
            "byteLength" : 984,
            "byteOffset" : 75264
        },
        {
            "buffer" : 0,
            "byteLength" : 5688,
            "byteOffset" : 76248
        },
        {
            "buffer" : 0,
            "byteLength" : 5688,
            "byteOffset" : 81936
        },
        {
            "buffer" : 0,
            "byteLength" : 3792,
            "byteOffset" : 87624
        },
        {
            "buffer" : 0,
            "byteLength" : 3792,
            "byteOffset" : 91416
        },
        {
            "buffer" : 0,
            "byteLength" : 7584,
            "byteOffset" : 95208
        },
        {
            "buffer" : 0,
            "byteLength" : 1356,
            "byteOffset" : 102792
        },
        {
            "buffer" : 0,
            "byteLength" : 36,
            "byteOffset" : 104148
        },
        {
            "buffer" : 0,
            "byteLength" : 108,
            "byteOffset" : 104184
        },
        {
            "buffer" : 0,
            "byteLength" : 144,
            "byteOffset" : 104292
        },
        {
            "buffer" : 0,
            "byteLength" : 108,
            "byteOffset" : 104436
        },
        {
            "buffer" : 0,
            "byteLength" : 108,
            "byteOffset" : 104544
        },
        {
            "buffer" : 0,
            "byteLength" : 144,
            "byteOffset" : 104652
        },
        {
            "buffer" : 0,
            "byteLength" : 108,
            "byteOffset" : 104796
        },
        {
            "buffer" : 0,
            "byteLength" : 108,
            "byteOffset" : 104904
        },
        {
            "buffer" : 0,
            "byteLength" : 144,
            "byteOffset" : 105012
        },
        {
            "buffer" : 0,
            "byteLength" : 108,
            "byteOffset" : 105156
        }
    ],
    "buffers" : [
        {
            "byteLength" : 105264,
            "uri" : "data:application/octet-stream;base64,"
        }
    ]
}
