{
    "scene" : 0,
    "scenes" : [
        {
            "name" : "Scene",
            "nodes" : [
                0
            ]
        }
    ],
    "nodes" : [
        {
            "mesh" : 0,
            "name" : "TreeDiamondA",
            "scale" : [
                0.2287232130765915,
                0.2287232130765915,
                0.2287232130765915
            ]
        }
    ],
    "materials" : [
        {
            "name" : "Wood",
            "pbrMetallicRoughness" : {
                "baseColorFactor" : [
                    0.19598843157291412,
                    0.05099533125758171,
                    0.02796204201877117,
                    1
                ],
                "metallicFactor" : 0,
                "roughnessFactor" : 0.5
            }
        },
        {
            "name" : "Leafs",
            "pbrMetallicRoughness" : {
                "baseColorFactor" : [
                    0.42745098039215684, 0.4588235294117647, 0.22745098039215686,
                    1
                ],
                "metallicFactor" : 0,
                "roughnessFactor" : 0.5
            }
        }
    ],
    "meshes" : [
        {
            "name" : "Circle.001",
            "primitives" : [
                {
                    "attributes" : {
                        "POSITION" : 0,
                        "NORMAL" : 1,
                        "TEXCOORD_0" : 2,
                        "COLOR_0" : 3
                    },
                    "indices" : 4,
                    "material" : 0
                },
                {
                    "attributes" : {
                        "POSITION" : 5,
                        "NORMAL" : 6,
                        "TEXCOORD_0" : 7,
                        "COLOR_0" : 8
                    },
                    "indices" : 9,
                    "material" : 1
                }
            ]
        }
    ],
    "accessors" : [
        {
            "bufferView" : 0,
            "componentType" : 5126,
            "count" : 36,
            "max" : [
                0.2054200917482376,
                0.9437397122383118,
                0.17789901793003082
            ],
            "min" : [
                -0.20542006194591522,
                0,
                -0.17789900302886963
            ],
            "type" : "VEC3"
        },
        {
            "bufferView" : 1,
            "componentType" : 5126,
            "count" : 36,
            "type" : "VEC3"
        },
        {
            "bufferView" : 2,
            "componentType" : 5126,
            "count" : 36,
            "type" : "VEC2"
        },
        {
            "bufferView" : 3,
            "componentType" : 5126,
            "count" : 36,
            "type" : "VEC4"
        },
        {
            "bufferView" : 4,
            "componentType" : 5123,
            "count" : 36,
            "type" : "SCALAR"
        },
        {
            "bufferView" : 5,
            "componentType" : 5126,
            "count" : 312,
            "max" : [
                0.896685004234314,
                4.370429515838623,
                0.9255844950675964
            ],
            "min" : [
                -1.0334378480911255,
                0.831260621547699,
                -1.0045384168624878
            ],
            "type" : "VEC3"
        },
        {
            "bufferView" : 6,
            "componentType" : 5126,
            "count" : 312,
            "type" : "VEC3"
        },
        {
            "bufferView" : 7,
            "componentType" : 5126,
            "count" : 312,
            "type" : "VEC2"
        },
        {
            "bufferView" : 8,
            "componentType" : 5126,
            "count" : 312,
            "type" : "VEC4"
        },
        {
            "bufferView" : 9,
            "componentType" : 5123,
            "count" : 312,
            "type" : "SCALAR"
        }
    ],
    "bufferViews" : [
        {
            "buffer" : 0,
            "byteLength" : 432,
            "byteOffset" : 0
        },
        {
            "buffer" : 0,
            "byteLength" : 432,
            "byteOffset" : 432
        },
        {
            "buffer" : 0,
            "byteLength" : 288,
            "byteOffset" : 864
        },
        {
            "buffer" : 0,
            "byteLength" : 576,
            "byteOffset" : 1152
        },
        {
            "buffer" : 0,
            "byteLength" : 72,
            "byteOffset" : 1728
        },
        {
            "buffer" : 0,
            "byteLength" : 3744,
            "byteOffset" : 1800
        },
        {
            "buffer" : 0,
            "byteLength" : 3744,
            "byteOffset" : 5544
        },
        {
            "buffer" : 0,
            "byteLength" : 2496,
            "byteOffset" : 9288
        },
        {
            "buffer" : 0,
            "byteLength" : 4992,
            "byteOffset" : 11784
        },
        {
            "buffer" : 0,
            "byteLength" : 624,
            "byteOffset" : 16776
        }
    ],
    "buffers" : [
        {
            "byteLength" : 17400,
            "uri" : "data:application/octet-stream;base64,"
        }
    ]
}
