<svg width="130" height="50" version="1.1" xmlns="http://www.w3.org/2000/svg">
 <path d="m98.8 40a10 10 0 0 1 15 -8.66 10 10 0 0 1 0 17.3 10 10 0 0 1 -15 -8.66zm-88.8 0a10 10 0 0 1 15 -8.66 10 10 0 0 1 0 17.3 10 10 0 0 1 -15 -8.66m111 0h6.25a2.5 2.5 0 0 0 2.5 -2.5v-11.6a2.5 2.5 0 0 0 -2.09 -2.47l-35.4-5.9-16.8-16.8a2.5 2.5 0 0 0 -1.77 -.732h-48.1a2.5 2.5 0 0 0 -1.56 .548l-23.4 18.7a2.5 2.5 0 0 0 -.938 1.95v16.3a2.5 2.5 0 0 0 2.5 2.5h5a12.5 12.5 0 0 1 18.8 -10.8 12.5 12.5 0 0 1 6.25 10.8h63.8a12.5 12.5 0 0 1 18.8 -10.8 12.5 12.5 0 0 1 6.25 10.8zm-68.8-20h34.5a1.25 1.25 0 0 0 1.08 -1.88 1.25 1.25 0 0 0 -.199 -.259l-12.1-12.1a2.5 2.5 0 0 0 -1.77 -.732h-21.5zm-3.75 0v-15h-17.7a2.5 2.5 0 0 0 -1.77 .732l-10 10a2.5 2.5 0 0 0 1.12 4.18 2.5 2.5 0 0 0 .647 .0852z" style="fill-rule:evenodd"/>
</svg>
