<svg version="1.1" viewBox="0 0 30 27" xmlns="http://www.w3.org/2000/svg" fill="currentColor">
 <path class="logo-head" d="M11 1 L12 0 L15 3 L18 0 L19 1 L16 4 L20 8 L18 10 L18 8 L17 7 L16 8 L14 8 L13 7 L12 8 L12 10 L10 8 L14 4 z"/>
 <!-- <path class="logo-face" d="M12 8 L14 8 L15 9 L16 8 L18 8 L17 9 L18 10 L17 11 L13 11 L12 10 L13 9 z"/> -->
 <!-- <path class="logo-legs" d="M4 19 L6 19 L7 18 L8 19 L22 19 L23 18 L24 19 L26 19 L29 22 L24 27 L23 26 L23 25 L21 23 L9 23 L7 25 L7 26 L6 27 L1 22 z"/> -->
 <!-- <path class="logo-legs" d="M4 19 L26 19 L29 22 L24 27 L23 26 L23 25 L21 23 L9 23 L7 25 L7 26 L6 27 L1 22 z"/> -->
 <!-- <path class="logo-belt" d="M7 19 L23 19 L23 18 L7 18 z"/> -->
 <path class="logo-legs" d="M6 19 L24 19 L27 22 L22 27 L21 26 L21 25 L19 23 L11 23 L9 25 L9 26 L8 27 L3 22 z"/>
 <path class="logo-right-arm" d="M6 5 L11 5 L10 6 L10 10 L7 13 L7 18 L6 18 L0 12 L0 11 z"/>
 <path class="logo-left-arm" d="M19 5 L24 5 L30 11 L30 12 L24 18 L23 18 L23 13 L20 10 L20 6 z"/>
</svg>
