<svg fill="currentColor" version="1.1" viewBox="0 0 15.875 15.875" xmlns="http://www.w3.org/2000/svg">
  <path d="m4.72 3.79h-1.8l-2.86 2.86-.002.635 2.86 2.86h.637v-2.33l.529-.529v-2.86z" />
  <path d="m3.58 11.2-1.59 1.59 3.18 3.18.635-.635v-.423l1.27-1.27h1.88l1.27 1.27v.423l.635.635 3.18-3.18-1.59-1.59z" />
  <path d="m6.62.0908-.315.318 1.06 1.69-2.54 2.54v.635l1.06 1.06v-1.38l.739-.741.637.635h1.48l.633-.635.743.741v1.38l1.06-1.06v-.635l-2.54-2.54 1.06-1.69-.32-.318-1.38 1.38z"/>
  <path d="m11.3 3.79h1.8l2.86 2.86-.002.635-2.86 2.86h-.633v-2.33l-.529-.529v-2.86z" />
</svg>
