<svg fill="currentColor" version="1.1" viewBox="0 0 324 365.02499" xmlns="http://www.w3.org/2000/svg">
 <style type="text/css">.st0{fill:#539E43;}</style>
 <path class="st0" d="m162 365c-5 0-9.7-1.3-14.1-3.7l-44.6-26.5c-6.7-3.7-3.4-5-1.3-5.7 9.1-3 10.7-3.7 20.1-9.1 1-.7 2.3-.3 3.4.3l34.2 20.5c1.3.7 3 .7 4 0l134-77.5c1.3-.7 2-2 2-3.7v-154c0-1.7-.7-3-2-3.7l-134-77.1c-1.3-.7-3-.7-4 0l-134 77.1c-1.3.7-2 2.3-2 3.7v155c0 1.3.7 3 2 3.7l36.6 21.1c19.8 10.1 32.2-1.7 32.2-13.4v-153c0-2 1.7-4 4-4h17.1c2 0 4 1.7 4 4v153c0 26.5-14.4 41.9-39.6 41.9-7.7 0-13.7 0-30.8-8.4l-35.3-20.1c-8.7-5-14.1-14.4-14.1-24.5v-154c0-10.1 5.4-19.4 14.1-24.5l134-77.5c8.4-4.7 19.8-4.7 28.2 0l134 77.5c8.7 5 14.1 14.4 14.1 24.5v155c0 10.1-5.4 19.4-14.1 24.5l-134 77.5c-4.4 1.9-9.4 2.9-14.1 2.9zm41.2-106c-58.7 0-70.8-26.8-70.8-49.6 0-2 1.7-4 4-4h17.6c2 0 3.7 1.3 3.7 3.4 2.7 17.8 10.4 26.5 45.9 26.5 28.2 0 40.2-6.4 40.2-21.5 0-8.7-3.4-15.1-47.3-19.4-36.6-3.7-59.4-11.7-59.4-40.9 0-27.2 22.8-43.3 61-43.3 42.9 0 64 14.8 66.7 46.9 0 1-.3 2-1 3-.7.7-1.7 1.3-2.7 1.3h-17.4c-1.7 0-3.4-1.3-3.7-3-4-18.4-14.4-24.5-41.9-24.5-30.8 0-34.5 10.7-34.5 18.8 0 9.7 4.4 12.7 45.9 18.1 41.2 5.4 60.7 13.1 60.7 41.9-.2 29.5-24.4 46.3-67 46.3z" style="fill:#539e43"/>
</svg>
