# Blender v2.81 (sub 16) OBJ File: 'paysage3.blend'
# www.blender.org
mtllib plot.mtl
o cone_cone_Cube.009
v 0.001921 -0.035691 0.060780
v -0.061128 -0.041252 -0.002269
v 0.001921 -0.041252 0.060780
v -0.061128 -0.035691 -0.002269
v -0.002536 -0.041252 -0.060861
v -0.002536 -0.035691 -0.060861
v 0.060512 -0.041252 0.002188
v 0.060512 -0.035691 0.002188
v -0.007655 0.037245 -0.007714
v 0.001186 0.057887 -0.004163
v 0.002895 0.037245 -0.010541
v 0.010617 0.037245 -0.002818
v 0.004239 0.057887 -0.001109
v 0.007791 0.037245 0.007731
v -0.001050 0.057887 0.004180
v -0.002759 0.037245 0.010558
v 0.003122 0.057887 0.003062
v -0.002986 0.057887 -0.003045
v -0.010481 0.037245 0.002835
v -0.004103 0.057887 0.001126
v 0.025069 -0.039140 0.025009
v -0.009083 -0.039140 0.034160
v -0.034083 -0.039140 0.009160
v -0.028469 -0.020971 0.007655
v -0.024932 -0.039140 -0.024992
v -0.016477 0.017840 0.004442
v -0.016433 -0.001565 -0.016493
v -0.022473 -0.001565 0.006049
v -0.007578 -0.020971 0.028546
v -0.004365 0.017840 0.016554
v -0.005972 -0.001565 0.022550
v 0.016569 -0.001565 0.016510
v 0.028605 -0.020971 -0.007638
v 0.034219 -0.039140 -0.009142
v 0.016613 0.017840 -0.004425
v 0.022609 -0.001565 -0.006031
v 0.007715 -0.020971 -0.028528
v 0.009219 -0.039140 -0.034143
v 0.004501 0.017840 -0.016537
v 0.006108 -0.001565 -0.022532
v -0.020823 -0.020971 -0.020882
v -0.012044 0.017840 -0.012103
v 0.020959 -0.020971 0.020899
v 0.012180 0.017840 0.012121
vn 0.6815 0.2670 -0.6814
vn 0.6814 0.2670 -0.6814
vn -0.6815 0.2670 0.6814
vn -0.6814 0.2670 0.6814
vn -0.9309 0.2670 -0.2494
vn 0.9309 0.2670 0.2494
vn 0.2494 0.2670 0.9309
vn -0.2494 0.2670 -0.9309
vn -0.2495 0.2670 -0.9309
vn -0.0000 1.0000 0.0000
vn 0.7071 -0.0000 0.7071
vn -0.7071 0.0000 -0.7071
vn -0.7071 0.0000 0.7071
vn 0.0000 -1.0000 -0.0000
vn 0.9309 0.2670 0.2493
vn -0.6815 0.2670 0.6813
vn -0.9309 0.2670 -0.2493
vn 0.7071 0.0000 -0.7071
vn 0.6815 0.2670 -0.6813
vn -0.6816 0.2670 0.6813
usemtl White
s 1
f 11//1 35//2 39//2
f 16//3 26//4 30//4
f 27//5 24//5 28//5
f 14//6 35//6 12//6
f 31//4 24//4 29//4
f 36//6 43//6 33//6
f 14//7 30//7 44//7
f 36//2 37//2 40//2
f 27//8 37//8 41//8
f 9//8 39//8 42//9
f 32//7 29//7 43//7
f 19//5 42//5 26//5
f 11//1 12//1 35//2
f 16//3 19//3 26//4
f 27//5 41//5 24//5
f 14//6 44//6 35//6
f 31//4 28//4 24//4
f 36//6 32//6 43//6
f 14//7 16//7 30//7
f 36//2 33//2 37//2
f 27//8 40//8 37//8
f 9//8 11//8 39//8
f 32//7 31//7 29//7
f 19//5 9//5 42//5
usemtl Red
f 4//10 8//10 6//10
f 1//11 7//11 8//11
f 6//12 2//12 4//12
f 4//13 3//13 1//13
f 24//4 22//4 29//4
f 7//14 2//14 5//14
f 43//6 34//6 33//6
f 10//1 12//1 11//1
f 44//6 36//6 35//6
f 25//14 21//14 23//14
f 21//14 22//14 23//14
f 17//15 12//6 13//15
f 21//7 29//7 22//7
f 35//2 40//2 39//2
f 14//7 15//7 16//7
f 15//16 19//3 16//3
f 32//7 30//7 31//7
f 37//2 34//2 38//2
f 13//10 10//10 18//10
f 18//10 20//10 15//10
f 15//10 13//10 18//10
f 38//14 34//14 21//14
f 42//5 28//5 26//5
f 24//5 25//5 23//5
f 25//8 37//8 38//8
f 18//17 19//5 20//17
f 26//4 31//4 30//4
f 27//8 39//8 40//8
f 9//8 10//8 11//8
f 8//18 5//18 6//18
f 4//10 1//10 8//10
f 1//11 3//11 7//11
f 6//12 5//12 2//12
f 4//13 2//13 3//13
f 24//4 23//4 22//4
f 7//14 3//14 2//14
f 43//6 21//6 34//6
f 10//1 13//19 12//1
f 44//6 32//6 36//6
f 25//14 38//14 21//14
f 17//15 14//6 12//6
f 21//7 43//7 29//7
f 35//2 36//2 40//2
f 14//7 17//7 15//7
f 15//16 20//20 19//3
f 32//7 44//7 30//7
f 37//2 33//2 34//2
f 15//10 17//10 13//10
f 42//5 27//5 28//5
f 24//5 41//5 25//5
f 25//8 41//8 37//8
f 18//17 9//5 19//5
f 26//4 28//4 31//4
f 27//8 42//9 39//8
f 9//8 18//8 10//8
f 8//18 7//18 5//18
