<svg viewBox="0 0 370 342" xmlns="http://www.w3.org/2000/svg" fill="currentColor">
  <path d="M185.398 341.13l68.013-209.322H117.39L185.4 341.13z" fill="#E24329"></path> 
  <path d="M185.398 341.13l-68.013-209.322h-95.32L185.4 341.128z" fill="#FC6D26"></path> 
  <path d="M185.398 341.13l68.013-209.322h95.32L185.4 341.128z" fill="#FC6D26"></path> 
  <path d="M22.066 131.808l-20.67 63.61c-1.884 5.803.18 12.16 5.117 15.744L185.398 341.13 22.066 131.807z" fill="#FCA326" ></path> 
  <path d="M22.066 131.808h95.32L76.42 5.735c-2.107-6.487-11.284-6.487-13.39 0L22.065 131.808z" fill="#E24329"></path> 
  <path d="M348.73 131.808l20.67 63.61c1.884 5.803-.18 12.16-5.117 15.744L185.398 341.13 348.73 131.807z" fill="#FCA326" ></path> <path d="M348.73 131.808h-95.32L294.376 5.735c2.108-6.487 11.285-6.487 13.392 0l40.963 126.073z" fill="#E24329"></path>
</svg>