<svg
   viewBox="0 0 512 512"
   fill="currentColor"
   version="1.1" xmlns="http://www.w3.org/2000/svg">
  <path
     d="M 30 0 L 71 460 L 255 512 L 440 460 L 481 0 L 30 0 z M 114 94 L 255 94 L 256 94 L 397 94 L 396 109 L 393 138 L 392 150 L 256 150 L 255 150 L 176 150 L 181 208 L 255 208 L 256 208 L 371 208 L 387 208 L 385 223 L 372 372 L 371 382 L 256 413.72461 L 256 414 L 255 414 L 139 382 L 132 293 L 158 293 L 188 293 L 192 338 L 255 355 L 318 338 L 325 265 L 256 265 L 255 265 L 129 265 L 115 109 L 114 94 z" />
</svg>
