<svg fill="currentColor" version="1.1" viewBox="0 0 32 32" xmlns="http://www.w3.org/2000/svg">
 <path d="m11.7 2l3.6 10.6a3.24 3.24 0 0 0 -1 5.92 10.9 10.9 0 0 1 -1.57 1.85 9.83 9.83 0 0 1 -3.16 2.03 2.66 2.66 0 0 1 -1.13 -3.28l.0391-.0918.0742-.176a3.24 3.24 0 1 0 -3.34 -.754c-.108.231-.223.464-.34.705a14 14 0 0 0 -1.4 3.8c-.465 2.8.283 5.04 2.11 6.31a5.75 5.75 0 0 0 3.36 1.07c2.13 0 4.29-1.07 6.4-2.12a23.7 23.7 0 0 1 4.64 -1.92c.577-.142 1.17-.227 1.8-.318a9.98 9.98 0 0 0 3.68 -1.03 5.09 5.09 0 0 0 2.49 -3.53 5.26 5.26 0 0 0 -.691 -3.61 3.22 3.22 0 0 0 .475 -1.69 3.25 3.25 0 0 0 -2.64 -3.19l3.6-10.6h-17zm1.78 1.27h13.4l-3.17 9.36a3.2 3.2 0 0 0 -.4 .125l-3.13-6.4-3.14 6.36a3.2 3.2 0 0 0 -.42 -.115l-3.16-9.33zm6.72 5.97l2.06 4.2a3.24 3.24 0 0 0 4.09 5 3.96 3.96 0 0 1 .355 2.42l.00195-.00195a3.82 3.82 0 0 1 -1.87 2.65 8.9 8.9 0 0 1 -3.22 .869c-.632.091-1.28.184-1.92.342a24.6 24.6 0 0 0 -4.9 2.01c-3.16 1.57-5.9 2.93-8.47 1.14-1.89-1.31-1.8-3.73-1.58-5.05a12.8 12.8 0 0 1 1.28 -3.45c.092-.189.182-.377.27-.561a3.22 3.22 0 0 0 .838 .211 3.96 3.96 0 0 0 2.1 4.65l.246.127.26-.0918a11 11 0 0 0 3.88 -2.4 12.1 12.1 0 0 0 1.92 -2.32 3.24 3.24 0 0 0 2.64 -5.63l2.04-4.12zm-4.19 4.57a1.97 1.97 0 1 1 -1.97 1.97 1.97 1.97 0 0 1 1.97 -1.97zm8.47 0a1.97 1.97 0 0 1 .0234 0 1.97 1.97 0 0 1 1.97 1.97 1.97 1.97 0 1 1 -1.99 -1.97zm-17 .0137v.00586a1.97 1.97 0 1 1 -1.97 1.96 1.97 1.97 0 0 1 1.97 -1.97z"/>
</svg>
