<svg fill="currentColor" version="1.1" viewBox="0 0 49.95 49.92" xmlns="http://www.w3.org/2000/svg">
 <path d="m28.95 5.197c-1.816-3.013-6.185-3.013-8 0l-6.58 11.27c10.23 5.107 16.98 15.25 17.75 26.66h-4.62c-0.7645-9.778-6.646-18.42-15.46-22.72l-6.09 10.53c4.949 2.22 8.428 6.806 9.23 12.17h-10.61c-0.5462-0.03864-0.8735-0.6247-0.62-1.11l2.94-5c-0.9961-0.8311-2.134-1.475-3.36-1.9l-2.91 5c-1.275 2.187-0.5148 4.995 1.69 6.24 0.6901 0.3888 1.468 0.5953 2.26 0.6h14.53c0.5489-6.773-2.486-13.34-8-17.31l2.31-4c6.961 4.781 10.88 12.89 10.3 21.31h12.31c0.5834-12.77-5.667-24.88-16.41-31.8l4.67-8c0.2166-0.3629 0.6852-0.4834 1.05-0.27 0.53 0.29 20.29 34.77 20.66 35.17 0.286 0.5129-0.09289 1.143-0.68 1.13h-4.76c0.06 1.273 0.06 2.543 0 3.81h4.78c2.555 0.01672 4.631-2.055 4.62-4.61 5.95e-4 -0.8017-0.2135-1.589-0.62-2.28z" fill="#362d59"/>
</svg>
