<svg version="1.1" viewBox="0 0 52 64" xmlns="http://www.w3.org/2000/svg" xmlns:xlink="http://www.w3.org/1999/xlink">
 <path style="fill:#ff4785" d="m48.256 1.002c-0.10634-0.0040847-0.21376-0.0028056-0.32226 0.0039063l-3.4668 0.21484 0.26172 7.1543c0.009055 0.25666-0.19381 0.47151-0.45312 0.48047-0.11104 0.0038373-0.22132-0.031562-0.30859-0.099609l-2.3281-1.8164-2.7578 2.0703c-0.20672 0.15521-0.50139 0.11672-0.6582-0.087891l-0.042968-0.068359c-0.0371-0.071268-0.056135-0.15141-0.052735-0.23242l0.30078-7.0273-34.475 2.1328c-1.7055 0.1055-3.0153 1.5384-2.9512 3.2285l1.9414 51.176c0.061465 1.621 1.3686 2.9253 3.0059 2.998l42.039 1.8672c0.047072 0.0021 0.093505 0.003906 0.14062 0.003906 1.7394 0 3.1504-1.3956 3.1504-3.1172v-55.766c0-0.064862-0.00176-0.12862-0.005859-0.19336-0.10172-1.6108-1.4225-2.8606-3.0176-2.9219zm-21.168 10.547c8.1988 0 12.678 4.3409 12.678 12.6-1.108 0.85189-9.3633 1.4335-9.3633 0.2207 0.17444-4.6277-1.9191-4.832-3.082-4.832-1.1048 0-2.9648 0.33142-2.9648 2.8105 0 6.1152 15.932 5.7845 15.932 18.125 0 6.9415-5.6984 10.775-12.967 10.775-7.501 0-14.055-3.0025-13.314-13.416 0.29074-1.2228 9.8262-0.93221 9.8262 0-0.1163 4.2971 0.87272 5.5605 3.373 5.5605 1.9189 0 2.791-1.0457 2.791-2.8086 0-6.2804-15.699-6.5015-15.699-18.016 0-6.611 4.5923-11.02 12.791-11.02z"/>
</svg>
