<svg fill="currentColor" version="1.1" viewBox="0 0 157 157" xmlns="http://www.w3.org/2000/svg">
 <path d="m77.895 0.36035-30.76 17.77v9.4277l-36.5 21.873v37.053l-9.6094 5.5469v35.529l30.779 17.801 13.475-7.793 33.025 19.072 33.227-19.182 13.664 7.9023 30.779-17.77v-35.561l-10-5.7734v-36.826l-37.279-22.33v-8.9707zm0 9.2402 18.779 10.84-18.779 10.84-18.76-10.84zm-22.76 17.76 18.76 10.85v21.68l-18.76-10.84zm45.539 0v21.689l-18.76 10.83v-21.67zm8.0215 8.9922 29.279 17.697v27.588l-12.779-7.377-30.781 17.77v35.529l9.123 5.2754-25.232 14.564-25.031-14.455 9.3105-5.3848v-35.529l-30.779-17.77-13.17 7.6035v-27.814l28.5-17.25v16.871l30.779 17.77 30.781-17.77zm-76.891 47.139 18.779 10.869-18.779 10.82-18.779-10.82zm93.391 0.0293 18.779 10.84-18.779 10.85-18.781-10.85zm-116.17 17.74 18.779 10.84v21.689l-18.779-10.84zm45.559 0v21.689l-18.779 10.84v-21.689zm93.391 0v21.689l-18.779 10.871v-21.721zm-45.561 0.0293 18.781 10.84v21.691l-18.781-10.842z" />
</svg>
