<svg fill="currentColor" version="1.1" viewBox="0 0 341.29999 152.5" xmlns="http://www.w3.org/2000/svg">
  <style type="text/css">
    .st1 {
      fill: #ae132a
    }
  </style>
  <path class="st1"
    d="m269 107c-2.9 1.3-6 1.9-9.1 1.9-4.9 0-9.2-.8-13.1-2.5-3.7-1.6-7.1-4-9.8-7s-4.8-6.6-6.1-10.5c-1.4-4.2-2.2-8.5-2.1-13 0-4.5.7-9 2.1-13.2 1.3-3.9 3.4-7.5 6.1-10.6s6.1-5.5 9.8-7.1c3.9-1.7 8.2-2.6 13.1-2.6 3.2 0 6.4.5 9.4 1.5 3 .9 5.8 2.4 8.3 4.3 5.2 4 8.5 10.1 9 16.6h-13.3c-.8-3.6-2.4-6.2-4.8-8s-5.2-2.7-8.6-2.7c-3.1 0-5.8.6-8 1.8-2.1 1.2-4 2.9-5.3 4.9-1.4 2.1-2.4 4.5-3 7-.6 2.7-.9 5.4-.9 8.1 0 2.6.3 5.2.9 7.8.6 2.4 1.6 4.7 3 6.8 1.4 2 3.2 3.7 5.3 4.8 2.2 1.2 4.9 1.8 8 1.8 4.6 0 8.2-1.2 10.7-3.5s4-5.7 4.4-10.1h-14v-10.5h26.6v34.3h-8.9l-1.4-7.2c-2.5 3.4-5.3 5.6-8.3 6.9z"
    style="fill:#ae132a" />
  <polygon class="st1" transform="translate(-67.4 -174)" points="364 281 364 218 378 218 378 270 409 270 409 281"
    style="fill:#ae132a" />
  <path class="st1"
    d="m244 116c-21.3 12.9-53.2 20.3-88.8 20.3-64.1 0-116-26.7-116-59.6s52-59.6 116-59.6c35.7 0 67.7 7.5 89 20.5-23.2-21.8-64.9-37.2-113-37.2-73 0-132 34.1-132 76.2s59.2 76.3 132 76.3c47.6.1 89.1-15.2 112-36.9z"
    style="fill:#ae132a" />
  <polygon class="st1" transform="translate(-67.4 -174)"
    points="178 282 188 282 207 213 195 213 183 266 168 213 157 213 142 266 130 213 118 213 136 282 147 282 162 228"
    style="fill:#ae132a" />
  <path class="st1"
    d="m170 68.4c-1.6-2.3-3.8-4.2-6.3-5.5-2.8-1.3-5.8-2-8.8-1.9-3.7 0-7.1.7-9.9 2-2.7 1.2-5.1 3.1-6.9 5.5-3.5 4.4-5.3 10.7-5.3 18 0 3.1.5 6.2 1.4 9.1.9 2.7 2.2 5.2 4 7.3 3.7 4.3 9 6.6 15.3 6.6 3.3 0 6-.3 8.3-1.1 1.5-.5 3-1.2 4.3-2.1 1.4-.9 2.7-2 3.8-3.3 1-1.1 1.8-2.3 2.5-3.6 1.3-2.4 1.9-4.6 2.1-5.7l.1-.8h-9l-.1.6c-.2 2.9-4.1 8.2-10.9 8.2-9.8 0-12.1-7.1-12.3-13.3h32.8v-.7c0-3.7-.4-7.3-1.2-10.9-.9-3-2.2-5.8-3.9-8.4zm-16.2.7c7.3 0 11.1 3.9 11.8 11.9h-23.4c.3-6.5 5.5-11.9 11.6-11.9z"
    style="fill:#ae132a" />
  <path class="st1"
    d="m221 75c-.8-2.7-2.1-5.1-3.8-7.3-1.7-2.1-3.8-3.8-6.2-4.9-2.6-1.2-5.4-1.8-8.3-1.8-2.6 0-5.2.6-7.6 1.8-1.9 1-3.6 2.3-4.9 4v-21.2h-9v62.7h8.5v-4.3c.8 1.1 1.9 2.1 3 2.9 2.4 1.7 5.4 2.6 8.9 2.6 3.8 0 7.1-.8 9.9-2.5 2.6-1.5 4.8-3.7 6.4-6.3s2.7-5.4 3.4-8.3c.7-2.8 1-5.7 1-8.6 0-2.8-.4-5.8-1.3-8.8zm-8.1 10.2c0 4.9-1 9-2.9 11.9-2 3.1-4.9 4.6-8.6 4.6-5.4 0-11.6-3.8-11.6-14.3 0-5.1.6-9 1.9-11.9 1.9-4.3 5-6.3 9.6-6.3 4.9 0 8.1 1.9 9.9 5.8 1.5 3.2 1.7 7.2 1.7 10.2z"
    style="fill:#ae132a" />
</svg>