# Blender v2.81 (sub 16) OBJ File: 'paysage3.blend'
# www.blender.org
mtllib road.mtl
o trottoir_trottoir_Cube.005
v -0.569376 0.099551 0.490360
v -0.569376 0.079391 -0.876525
v -0.569376 0.079391 0.490360
v -0.467542 0.107773 -0.876525
v 0.847125 0.079391 -0.876525
v -0.467542 0.079391 -0.876525
v 0.847125 0.102422 0.490360
v 0.847125 0.079391 0.579247
v 0.847125 0.079391 0.490360
v -0.467542 0.079391 0.490360
v -0.467542 0.079391 0.579247
v -0.467542 0.107773 0.579247
v -0.467542 0.107773 0.490360
v -0.569376 0.104662 -0.876525
v 0.847125 0.101557 -0.876525
v 0.847125 0.096369 0.579247
v -0.467542 0.079391 -0.337340
v -0.467542 0.079391 -0.180852
v 0.847125 0.107773 -0.180852
v 0.847125 0.107773 -0.337340
v -0.562949 0.079391 -0.337340
v -0.569376 0.079391 -0.180852
v 0.847125 0.079391 -0.337340
v 0.847125 0.079391 -0.180852
v -0.467542 0.107773 -0.337340
v -0.467542 0.107773 -0.180852
v -0.569376 0.107773 -0.180852
v -0.562949 0.107773 -0.337340
v -1.074239 0.081635 0.891958
v -1.074239 0.000003 -1.108042
v -1.074239 0.000003 0.891957
v -0.641857 0.081635 -1.108042
v 1.481777 0.000003 -1.108042
v -0.641857 0.000003 -1.108042
v 1.481777 0.081635 -1.108042
v 1.481777 0.000002 0.891958
v -0.994137 0.081635 0.891958
v -0.994137 0.000003 0.891957
v -0.641857 0.000003 0.891957
v -1.074239 0.081635 -1.108042
v -0.994137 0.081635 -1.108042
v 1.481777 0.081635 0.891958
v -0.968526 0.081635 -1.108042
v -0.668262 0.081635 0.891958
v -0.668262 0.081635 -1.108042
v -0.994137 0.000003 -1.108042
v -0.968526 0.000003 -1.108042
v -0.668262 0.000003 -1.108042
v -0.968526 0.000003 0.891957
v -0.668262 0.000003 0.891957
v -0.641857 0.081635 0.891958
v -0.968526 0.081635 0.891958
v -0.994137 0.081635 0.646893
v -0.994137 0.081635 0.428439
v -0.994137 0.081635 0.209985
v -0.641857 0.000003 0.209985
v -0.641857 0.000003 0.428439
v -0.641857 0.000003 0.646893
v -1.074239 0.081635 0.646893
v -1.074239 0.081635 0.428439
v -1.074239 0.081635 0.209985
v -0.968526 0.000003 0.209985
v -0.968526 0.000003 0.428439
v -0.968526 0.000003 0.646893
v -1.074239 0.000003 0.209985
v -1.074239 0.000003 0.428439
v -1.074239 0.000003 0.646893
v -0.668262 0.081635 0.646893
v -0.668262 0.081635 0.428439
v -0.668262 0.081635 0.209985
v 1.481777 0.081635 0.209985
v 1.481777 0.081635 0.428439
v 1.481777 0.081635 0.646893
v -0.641857 0.081635 0.209985
v -0.641857 0.081635 0.428439
v -0.641857 0.081635 0.646893
v -0.968526 0.081635 0.209985
v -0.968526 0.081635 0.428439
v -0.968526 0.081635 0.646893
v -0.668262 0.000003 0.209985
v -0.668262 0.000003 0.428439
v -0.668262 0.000003 0.646893
v -0.994137 0.000003 0.646893
v -0.994137 0.000003 0.428439
v -0.994137 0.000003 0.209985
v 1.481777 0.000003 0.209985
v 1.481777 0.000003 0.428439
v 1.481777 0.000003 0.646893
v -0.818394 0.081635 0.891958
v -0.818394 0.081635 -1.108042
v -0.818394 0.000003 -1.108042
v -0.818394 0.000003 0.891957
v -0.818394 0.081635 0.209985
v -0.818394 0.081635 0.266543
v -0.885318 0.081635 0.428439
v -0.862480 0.081635 0.428439
v -0.776356 0.081635 0.428439
v -0.753517 0.081635 0.428439
v -0.818394 0.081635 0.646893
v -0.818394 0.081635 0.590335
v -0.818394 0.000003 0.209985
v -0.819418 0.000003 0.428439
v -0.818394 0.000003 0.646893
vn 0.0000 0.0000 1.0000
vn 0.0000 -1.0000 0.0000
vn 1.0000 0.0000 0.0000
vn -0.0256 0.9997 0.0019
vn -0.0370 0.9993 0.0034
vn -0.0805 0.9967 0.0084
vn 0.0000 0.0000 -1.0000
vn 0.0063 0.9993 0.0365
vn -0.6576 0.0000 0.7534
vn -0.9999 0.0000 0.0119
vn -0.9999 0.0000 -0.0146
vn 0.0014 1.0000 0.0028
vn 0.0000 1.0000 0.0000
vn -0.0039 1.0000 0.0006
vn -0.0018 1.0000 -0.0003
vn -0.0130 0.9999 -0.0038
vn -0.0305 0.9995 -0.0054
vn 0.0018 1.0000 -0.0043
vn 0.0047 0.9999 -0.0115
vn -1.0000 0.0000 0.0000
vn -0.9998 0.0000 -0.0205
vn -0.9998 0.0000 -0.0206
vn 0.0087 0.9977 0.0679
usemtl Gris
s 1
f 16//1 11//1 8//1
f 9//2 18//2 24//2
f 3//2 10//2 11//2
f 16//3 9//3 7//3
f 12//4 13//5 1//6
f 15//7 6//7 4//7
f 10//2 22//2 18//2
f 12//4 7//8 13//5
f 1//9 11//9 12//9
f 8//2 10//2 9//2
f 14//10 21//11 28//11
f 14//7 6//7 2//7
f 13//5 19//12 26//13
f 7//3 24//3 19//3
f 27//14 13//5 26//13
f 28//15 4//16 14//17
f 28//15 26//13 25//13
f 15//3 23//3 5//3
f 19//3 23//3 20//3
f 4//16 20//18 15//19
f 26//13 20//18 25//13
f 1//20 22//21 3//20
f 28//11 22//21 27//22
f 6//2 21//2 2//2
f 18//2 21//2 17//2
f 23//2 6//2 5//2
f 24//2 17//2 23//2
f 16//1 12//1 11//1
f 9//2 10//2 18//2
f 16//3 8//3 9//3
f 15//7 5//7 6//7
f 10//2 3//2 22//2
f 12//4 16//23 7//8
f 1//9 3//9 11//9
f 8//2 11//2 10//2
f 14//10 2//10 21//11
f 14//7 4//7 6//7
f 13//5 7//8 19//12
f 7//3 9//3 24//3
f 27//14 1//6 13//5
f 28//15 25//13 4//16
f 28//15 27//14 26//13
f 15//3 20//3 23//3
f 19//3 24//3 23//3
f 4//16 25//13 20//18
f 26//13 19//12 20//18
f 1//20 27//22 22//21
f 28//11 21//11 22//21
f 6//2 17//2 21//2
f 18//2 22//2 21//2
f 23//2 17//2 6//2
f 24//2 18//2 17//2
usemtl White
f 44//13 76//13 68//13
f 37//13 79//13 53//13
f 55//13 43//13 41//13
f 54//13 77//13 55//13
f 53//13 78//13 54//13
f 70//13 32//13 45//13
f 69//13 74//13 70//13
f 68//13 75//13 69//13
f 95//13 100//13 96//13
f 100//13 98//13 97//13
f 95//13 94//13 93//13
f 94//13 98//13 93//13
f 44//13 51//13 76//13
f 37//13 52//13 79//13
f 55//13 77//13 43//13
f 54//13 78//13 77//13
f 53//13 79//13 78//13
f 70//13 74//13 32//13
f 69//13 75//13 74//13
f 68//13 76//13 75//13
f 95//13 99//13 100//13
f 100//13 99//13 98//13
f 95//13 96//13 94//13
f 94//13 97//13 98//13
usemtl Route
f 29//13 53//13 59//13
f 45//7 91//7 90//7
f 38//2 67//2 83//2
f 89//1 49//1 92//1
f 43//7 46//7 41//7
f 41//7 30//7 40//7
f 103//2 49//2 64//2
f 32//7 48//7 45//7
f 35//7 34//7 32//7
f 36//2 58//2 88//2
f 37//1 49//1 52//1
f 39//2 82//2 58//2
f 44//1 39//1 51//1
f 42//3 88//3 73//3
f 29//1 38//1 37//1
f 49//2 83//2 64//2
f 51//13 73//13 76//13
f 51//1 36//1 42//1
f 40//20 65//20 61//20
f 99//13 44//13 68//13
f 93//13 45//13 90//13
f 98//13 70//13 93//13
f 98//13 68//13 69//13
f 59//20 31//20 29//20
f 60//20 67//20 59//20
f 61//20 66//20 60//20
f 74//13 35//13 32//13
f 75//13 71//13 74//13
f 76//13 72//13 75//13
f 62//2 46//2 47//2
f 62//2 84//2 85//2
f 63//2 83//2 84//2
f 71//3 33//3 35//3
f 72//3 86//3 71//3
f 73//3 87//3 72//3
f 56//2 48//2 34//2
f 57//2 80//2 56//2
f 58//2 81//2 57//2
f 86//2 34//2 33//2
f 87//2 56//2 86//2
f 88//2 57//2 87//2
f 91//2 62//2 47//2
f 102//2 62//2 101//2
f 102//2 64//2 63//2
f 85//2 30//2 46//2
f 84//2 65//2 85//2
f 83//2 66//2 84//2
f 61//13 41//13 40//13
f 60//13 55//13 61//13
f 59//13 54//13 60//13
f 81//2 103//2 102//2
f 81//2 101//2 80//2
f 80//2 91//2 48//2
f 79//13 95//13 78//13
f 96//13 100//13 97//13
f 77//13 95//13 93//13
f 94//13 96//13 97//13
f 77//13 90//13 43//13
f 52//13 99//13 79//13
f 82//2 92//2 103//2
f 44//1 92//1 50//1
f 90//7 47//7 43//7
f 29//13 37//13 53//13
f 45//7 48//7 91//7
f 38//2 31//2 67//2
f 89//1 52//1 49//1
f 43//7 47//7 46//7
f 41//7 46//7 30//7
f 103//2 92//2 49//2
f 32//7 34//7 48//7
f 35//7 33//7 34//7
f 36//2 39//2 58//2
f 37//1 38//1 49//1
f 39//2 50//2 82//2
f 44//1 50//1 39//1
f 42//3 36//3 88//3
f 29//1 31//1 38//1
f 49//2 38//2 83//2
f 51//13 42//13 73//13
f 51//1 39//1 36//1
f 40//20 30//20 65//20
f 99//13 89//13 44//13
f 93//13 70//13 45//13
f 98//13 69//13 70//13
f 98//13 99//13 68//13
f 59//20 67//20 31//20
f 60//20 66//20 67//20
f 61//20 65//20 66//20
f 74//13 71//13 35//13
f 75//13 72//13 71//13
f 76//13 73//13 72//13
f 62//2 85//2 46//2
f 62//2 63//2 84//2
f 63//2 64//2 83//2
f 71//3 86//3 33//3
f 72//3 87//3 86//3
f 73//3 88//3 87//3
f 56//2 80//2 48//2
f 57//2 81//2 80//2
f 58//2 82//2 81//2
f 86//2 56//2 34//2
f 87//2 57//2 56//2
f 88//2 58//2 57//2
f 91//2 101//2 62//2
f 102//2 63//2 62//2
f 102//2 103//2 64//2
f 85//2 65//2 30//2
f 84//2 66//2 65//2
f 83//2 67//2 66//2
f 61//13 55//13 41//13
f 60//13 54//13 55//13
f 59//13 53//13 54//13
f 81//2 82//2 103//2
f 81//2 102//2 101//2
f 80//2 101//2 91//2
f 79//13 99//13 95//13
f 77//13 78//13 95//13
f 77//13 93//13 90//13
f 52//13 89//13 99//13
f 82//2 50//2 92//2
f 44//1 89//1 92//1
f 90//7 91//7 47//7
