{
    "asset" : {
        "generator" : "Khronos glTF Blender I/O v1.2.75",
        "version" : "2.0"
    },
    "scene" : 0,
    "scenes" : [
        {
            "name" : "Scene",
            "nodes" : [
                0,
                1,
                2,
                3,
                4,
                5,
                6,
                7,
                8
            ]
        }
    ],
    "nodes" : [
        {
            "mesh" : 0,
            "name" : "main",
            "scale" : [
                0.19999998807907104,
                0.19999998807907104,
                0.19999998807907104
            ],
            "translation" : [
                0,
                -0.029798563569784164,
                0.002345263957977295
            ]
        },
        {
            "name" : "Light",
            "rotation" : [
                -0.6456544399261475,
                0.42786911129951477,
                0.43609875440597534,
                0.4581225514411926
            ],
            "translation" : [
                -1.9496183395385742,
                2.7679531574249268,
                -1.0054543018341064
            ]
        },
        {
            "name" : "Camera",
            "rotation" : [
                0.5,
                0.5,
                -0.4999999701976776,
                0.5
            ],
            "scale" : [
                1.2599999904632568,
                0.6000000238418579,
                0.7100000381469727
            ],
            "translation" : [
                2,
                0,
                0
            ]
        },
        {
            "mesh" : 1,
            "name" : "aileron",
            "rotation" : [
                0,
                1,
                0,
                -1.6292068494294654e-07
            ],
            "scale" : [
                0.009143704548478127,
                0.052545491605997086,
                0.0928250402212143
            ],
            "translation" : [
                0,
                0.042011067271232605,
                -0.4550020098686218
            ]
        },
        {
            "name" : "Light2",
            "rotation" : [
                -0.02723425067961216,
                0.7740800976753235,
                -0.11921067535877228,
                0.6211659908294678
            ],
            "translation" : [
                2.2623376846313477,
                3.3367209434509277,
                -1.005454182624817
            ]
        },
        {
            "mesh" : 2,
            "name" : "aile1",
            "translation" : [
                0.04712599888443947,
                -0.06744319200515747,
                -0.4442586302757263
            ]
        },
        {
            "mesh" : 3,
            "name" : "aile2",
            "translation" : [
                -0.04712599888443947,
                -0.06744319200515747,
                -0.4442874491214752
            ]
        },
        {
            "mesh" : 4,
            "name" : "trail1",
            "translation" : [
                -0.10440099984407425,
                -0.019214730709791183,
                -0.3980327248573303
            ]
        },
        {
            "mesh" : 4,
            "name" : "trail2",
            "translation" : [
                0.10440099984407425,
                -0.019214730709791183,
                -0.3980327248573303
            ]
        }
    ],
    "animations" : [
        {
            "channels" : [
                {
                    "sampler" : 0,
                    "target" : {
                        "node" : 5,
                        "path" : "rotation"
                    }
                }
            ],
            "name" : "aile1Action",
            "samplers" : [
                {
                    "input" : 35,
                    "interpolation" : "LINEAR",
                    "output" : 36
                }
            ]
        },
        {
            "channels" : [
                {
                    "sampler" : 0,
                    "target" : {
                        "node" : 6,
                        "path" : "rotation"
                    }
                }
            ],
            "name" : "aile2Action",
            "samplers" : [
                {
                    "input" : 35,
                    "interpolation" : "LINEAR",
                    "output" : 37
                }
            ]
        },
        {
            "channels" : [
                {
                    "sampler" : 0,
                    "target" : {
                        "node" : 7,
                        "path" : "scale"
                    }
                }
            ],
            "name" : "trail1Action",
            "samplers" : [
                {
                    "input" : 35,
                    "interpolation" : "LINEAR",
                    "output" : 38
                }
            ]
        },
        {
            "channels" : [
                {
                    "sampler" : 0,
                    "target" : {
                        "node" : 8,
                        "path" : "scale"
                    }
                }
            ],
            "name" : "trail2Action",
            "samplers" : [
                {
                    "input" : 35,
                    "interpolation" : "LINEAR",
                    "output" : 39
                }
            ]
        }
    ],
    "materials" : [
        {
            "doubleSided" : true,
            "emissiveFactor" : [
                0,
                0,
                0
            ],
            "name" : "DarkBlue",
            "pbrMetallicRoughness" : {
                "baseColorFactor" : [
                    0.006995410658419132,
                    0.021219007670879364,
                    0.022173885256052017,
                    1
                ],
                "metallicFactor" : 0,
                "roughnessFactor" : 0.4000000059604645
            }
        },
        {
            "doubleSided" : true,
            "emissiveFactor" : [
                0,
                0,
                0
            ],
            "name" : "Brown",
            "pbrMetallicRoughness" : {
                "baseColorFactor" : [
                    0.08228270709514618,
                    0.024157628417015076,
                    0.012983035296201706,
                    1
                ],
                "metallicFactor" : 0,
                "roughnessFactor" : 0.5
            }
        },
        {
            "doubleSided" : true,
            "emissiveFactor" : [
                0,
                0,
                0
            ],
            "name" : "LightBrown",
            "pbrMetallicRoughness" : {
                "baseColorFactor" : [
                    0.3185468018054962,
                    0.18782080709934235,
                    0.14126330614089966,
                    1
                ],
                "metallicFactor" : 0,
                "roughnessFactor" : 0.5
            }
        },
        {
            "doubleSided" : true,
            "emissiveFactor" : [
                0,
                0,
                0
            ],
            "name" : "LightBlue",
            "pbrMetallicRoughness" : {
                "baseColorFactor" : [
                    0.11953846365213394,
                    0.5209956765174866,
                    0.5332764983177185,
                    1
                ],
                "metallicFactor" : 0,
                "roughnessFactor" : 0.5
            }
        },
        {
            "doubleSided" : true,
            "emissiveFactor" : [
                0,
                0,
                0
            ],
            "name" : "Orange",
            "pbrMetallicRoughness" : {
                "baseColorFactor" : [
                    1,
                    0.3702201843261719,
                    0.01196227129548788,
                    1
                ],
                "metallicFactor" : 0,
                "roughnessFactor" : 0.5
            }
        }
    ],
    "meshes" : [
        {
            "name" : "main",
            "primitives" : [
                {
                    "attributes" : {
                        "POSITION" : 0,
                        "NORMAL" : 1,
                        "TEXCOORD_0" : 2
                    },
                    "indices" : 3,
                    "material" : 0
                },
                {
                    "attributes" : {
                        "POSITION" : 4,
                        "NORMAL" : 5,
                        "TEXCOORD_0" : 6
                    },
                    "indices" : 7,
                    "material" : 1
                },
                {
                    "attributes" : {
                        "POSITION" : 8,
                        "NORMAL" : 9,
                        "TEXCOORD_0" : 10
                    },
                    "indices" : 11,
                    "material" : 2
                },
                {
                    "attributes" : {
                        "POSITION" : 12,
                        "NORMAL" : 13,
                        "TEXCOORD_0" : 14
                    },
                    "indices" : 15,
                    "material" : 3
                },
                {
                    "attributes" : {
                        "POSITION" : 16,
                        "NORMAL" : 17,
                        "TEXCOORD_0" : 18
                    },
                    "indices" : 19,
                    "material" : 4
                }
            ]
        },
        {
            "name" : "Cube.001",
            "primitives" : [
                {
                    "attributes" : {
                        "POSITION" : 20,
                        "NORMAL" : 21,
                        "TEXCOORD_0" : 22
                    },
                    "indices" : 23,
                    "material" : 1
                }
            ]
        },
        {
            "name" : "aile",
            "primitives" : [
                {
                    "attributes" : {
                        "POSITION" : 24,
                        "NORMAL" : 25,
                        "TEXCOORD_0" : 26
                    },
                    "indices" : 27,
                    "material" : 1
                }
            ]
        },
        {
            "name" : "aile.001",
            "primitives" : [
                {
                    "attributes" : {
                        "POSITION" : 28,
                        "NORMAL" : 29,
                        "TEXCOORD_0" : 30
                    },
                    "indices" : 27,
                    "material" : 1
                }
            ]
        },
        {
            "name" : "trail",
            "primitives" : [
                {
                    "attributes" : {
                        "POSITION" : 31,
                        "NORMAL" : 32,
                        "TEXCOORD_0" : 33
                    },
                    "indices" : 34,
                    "material" : 3
                }
            ]
        }
    ],
    "accessors" : [
        {
            "bufferView" : 0,
            "componentType" : 5126,
            "count" : 324,
            "max" : [
                0.9775645732879639,
                0.322124719619751,
                2.1563844680786133
            ],
            "min" : [
                -0.9775645732879639,
                -0.322124719619751,
                -2.008594036102295
            ],
            "type" : "VEC3"
        },
        {
            "bufferView" : 1,
            "componentType" : 5126,
            "count" : 324,
            "type" : "VEC3"
        },
        {
            "bufferView" : 2,
            "componentType" : 5126,
            "count" : 324,
            "type" : "VEC2"
        },
        {
            "bufferView" : 3,
            "componentType" : 5123,
            "count" : 396,
            "type" : "SCALAR"
        },
        {
            "bufferView" : 4,
            "componentType" : 5126,
            "count" : 442,
            "max" : [
                0.4381530284881592,
                0.6015235781669617,
                2.2560744285583496
            ],
            "min" : [
                -0.4381530284881592,
                -0.43235790729522705,
                -2.571950912475586
            ],
            "type" : "VEC3"
        },
        {
            "bufferView" : 5,
            "componentType" : 5126,
            "count" : 442,
            "type" : "VEC3"
        },
        {
            "bufferView" : 6,
            "componentType" : 5126,
            "count" : 442,
            "type" : "VEC2"
        },
        {
            "bufferView" : 7,
            "componentType" : 5123,
            "count" : 660,
            "type" : "SCALAR"
        },
        {
            "bufferView" : 8,
            "componentType" : 5126,
            "count" : 24,
            "max" : [
                0.30541136860847473,
                0.5774129033088684,
                -0.7134856581687927
            ],
            "min" : [
                -0.30541136860847473,
                0.4497602880001068,
                -1.3545269966125488
            ],
            "type" : "VEC3"
        },
        {
            "bufferView" : 9,
            "componentType" : 5126,
            "count" : 24,
            "type" : "VEC3"
        },
        {
            "bufferView" : 10,
            "componentType" : 5126,
            "count" : 24,
            "type" : "VEC2"
        },
        {
            "bufferView" : 11,
            "componentType" : 5123,
            "count" : 36,
            "type" : "SCALAR"
        },
        {
            "bufferView" : 12,
            "componentType" : 5126,
            "count" : 42,
            "max" : [
                0.9174382090568542,
                0.10623052716255188,
                2.093648672103882
            ],
            "min" : [
                -0.9174382090568542,
                0.025832273066043854,
                -1.9691004753112793
            ],
            "type" : "VEC3"
        },
        {
            "bufferView" : 13,
            "componentType" : 5126,
            "count" : 42,
            "type" : "VEC3"
        },
        {
            "bufferView" : 14,
            "componentType" : 5126,
            "count" : 42,
            "type" : "VEC2"
        },
        {
            "bufferView" : 15,
            "componentType" : 5123,
            "count" : 48,
            "type" : "SCALAR"
        },
        {
            "bufferView" : 16,
            "componentType" : 5126,
            "count" : 58,
            "max" : [
                0.31474432349205017,
                0.4973687529563904,
                2.2560744285583496
            ],
            "min" : [
                -0.31474432349205017,
                -0.058344438672065735,
                -2.538846492767334
            ],
            "type" : "VEC3"
        },
        {
            "bufferView" : 17,
            "componentType" : 5126,
            "count" : 58,
            "type" : "VEC3"
        },
        {
            "bufferView" : 18,
            "componentType" : 5126,
            "count" : 58,
            "type" : "VEC2"
        },
        {
            "bufferView" : 19,
            "componentType" : 5123,
            "count" : 84,
            "type" : "SCALAR"
        },
        {
            "bufferView" : 20,
            "componentType" : 5126,
            "count" : 54,
            "max" : [
                0.9442784786224365,
                1.0626945495605469,
                0.6596702337265015
            ],
            "min" : [
                -0.9442784786224365,
                -1.9391984939575195,
                -1.2821063995361328
            ],
            "type" : "VEC3"
        },
        {
            "bufferView" : 21,
            "componentType" : 5126,
            "count" : 54,
            "type" : "VEC3"
        },
        {
            "bufferView" : 22,
            "componentType" : 5126,
            "count" : 54,
            "type" : "VEC2"
        },
        {
            "bufferView" : 23,
            "componentType" : 5123,
            "count" : 78,
            "type" : "SCALAR"
        },
        {
            "bufferView" : 24,
            "componentType" : 5126,
            "count" : 40,
            "max" : [
                0.22524072229862213,
                0.004098071716725826,
                0.040046289563179016
            ],
            "min" : [
                1.192092824453539e-08,
                -0.003982845228165388,
                -0.05634618178009987
            ],
            "type" : "VEC3"
        },
        {
            "bufferView" : 25,
            "componentType" : 5126,
            "count" : 40,
            "type" : "VEC3"
        },
        {
            "bufferView" : 26,
            "componentType" : 5126,
            "count" : 40,
            "type" : "VEC2"
        },
        {
            "bufferView" : 27,
            "componentType" : 5123,
            "count" : 60,
            "type" : "SCALAR"
        },
        {
            "bufferView" : 28,
            "componentType" : 5126,
            "count" : 40,
            "max" : [
                -1.192092824453539e-08,
                0.004098071716725826,
                0.040046289563179016
            ],
            "min" : [
                -0.22524072229862213,
                -0.003982845228165388,
                -0.05634618178009987
            ],
            "type" : "VEC3"
        },
        {
            "bufferView" : 29,
            "componentType" : 5126,
            "count" : 40,
            "type" : "VEC3"
        },
        {
            "bufferView" : 30,
            "componentType" : 5126,
            "count" : 40,
            "type" : "VEC2"
        },
        {
            "bufferView" : 31,
            "componentType" : 5126,
            "count" : 24,
            "max" : [
                0.0438268817961216,
                0.00237521855160594,
                -2.2224153894967458e-07
            ],
            "min" : [
                -0.04389307275414467,
                -0.002002452500164509,
                -0.0007507444242946804
            ],
            "type" : "VEC3"
        },
        {
            "bufferView" : 32,
            "componentType" : 5126,
            "count" : 24,
            "type" : "VEC3"
        },
        {
            "bufferView" : 33,
            "componentType" : 5126,
            "count" : 24,
            "type" : "VEC2"
        },
        {
            "bufferView" : 34,
            "componentType" : 5123,
            "count" : 36,
            "type" : "SCALAR"
        },
        {
            "bufferView" : 35,
            "componentType" : 5126,
            "count" : 10,
            "max" : [
                0.4166666666666667
            ],
            "min" : [
                0.041666666666666664
            ],
            "type" : "SCALAR"
        },
        {
            "bufferView" : 36,
            "componentType" : 5126,
            "count" : 10,
            "type" : "VEC4"
        },
        {
            "bufferView" : 37,
            "componentType" : 5126,
            "count" : 10,
            "type" : "VEC4"
        },
        {
            "bufferView" : 38,
            "componentType" : 5126,
            "count" : 10,
            "type" : "VEC3"
        },
        {
            "bufferView" : 39,
            "componentType" : 5126,
            "count" : 10,
            "type" : "VEC3"
        }
    ],
    "bufferViews" : [
        {
            "buffer" : 0,
            "byteLength" : 3888,
            "byteOffset" : 0
        },
        {
            "buffer" : 0,
            "byteLength" : 3888,
            "byteOffset" : 3888
        },
        {
            "buffer" : 0,
            "byteLength" : 2592,
            "byteOffset" : 7776
        },
        {
            "buffer" : 0,
            "byteLength" : 792,
            "byteOffset" : 10368
        },
        {
            "buffer" : 0,
            "byteLength" : 5304,
            "byteOffset" : 11160
        },
        {
            "buffer" : 0,
            "byteLength" : 5304,
            "byteOffset" : 16464
        },
        {
            "buffer" : 0,
            "byteLength" : 3536,
            "byteOffset" : 21768
        },
        {
            "buffer" : 0,
            "byteLength" : 1320,
            "byteOffset" : 25304
        },
        {
            "buffer" : 0,
            "byteLength" : 288,
            "byteOffset" : 26624
        },
        {
            "buffer" : 0,
            "byteLength" : 288,
            "byteOffset" : 26912
        },
        {
            "buffer" : 0,
            "byteLength" : 192,
            "byteOffset" : 27200
        },
        {
            "buffer" : 0,
            "byteLength" : 72,
            "byteOffset" : 27392
        },
        {
            "buffer" : 0,
            "byteLength" : 504,
            "byteOffset" : 27464
        },
        {
            "buffer" : 0,
            "byteLength" : 504,
            "byteOffset" : 27968
        },
        {
            "buffer" : 0,
            "byteLength" : 336,
            "byteOffset" : 28472
        },
        {
            "buffer" : 0,
            "byteLength" : 96,
            "byteOffset" : 28808
        },
        {
            "buffer" : 0,
            "byteLength" : 696,
            "byteOffset" : 28904
        },
        {
            "buffer" : 0,
            "byteLength" : 696,
            "byteOffset" : 29600
        },
        {
            "buffer" : 0,
            "byteLength" : 464,
            "byteOffset" : 30296
        },
        {
            "buffer" : 0,
            "byteLength" : 168,
            "byteOffset" : 30760
        },
        {
            "buffer" : 0,
            "byteLength" : 648,
            "byteOffset" : 30928
        },
        {
            "buffer" : 0,
            "byteLength" : 648,
            "byteOffset" : 31576
        },
        {
            "buffer" : 0,
            "byteLength" : 432,
            "byteOffset" : 32224
        },
        {
            "buffer" : 0,
            "byteLength" : 156,
            "byteOffset" : 32656
        },
        {
            "buffer" : 0,
            "byteLength" : 480,
            "byteOffset" : 32812
        },
        {
            "buffer" : 0,
            "byteLength" : 480,
            "byteOffset" : 33292
        },
        {
            "buffer" : 0,
            "byteLength" : 320,
            "byteOffset" : 33772
        },
        {
            "buffer" : 0,
            "byteLength" : 120,
            "byteOffset" : 34092
        },
        {
            "buffer" : 0,
            "byteLength" : 480,
            "byteOffset" : 34212
        },
        {
            "buffer" : 0,
            "byteLength" : 480,
            "byteOffset" : 34692
        },
        {
            "buffer" : 0,
            "byteLength" : 320,
            "byteOffset" : 35172
        },
        {
            "buffer" : 0,
            "byteLength" : 288,
            "byteOffset" : 35492
        },
        {
            "buffer" : 0,
            "byteLength" : 288,
            "byteOffset" : 35780
        },
        {
            "buffer" : 0,
            "byteLength" : 192,
            "byteOffset" : 36068
        },
        {
            "buffer" : 0,
            "byteLength" : 72,
            "byteOffset" : 36260
        },
        {
            "buffer" : 0,
            "byteLength" : 40,
            "byteOffset" : 36332
        },
        {
            "buffer" : 0,
            "byteLength" : 160,
            "byteOffset" : 36372
        },
        {
            "buffer" : 0,
            "byteLength" : 160,
            "byteOffset" : 36532
        },
        {
            "buffer" : 0,
            "byteLength" : 120,
            "byteOffset" : 36692
        },
        {
            "buffer" : 0,
            "byteLength" : 120,
            "byteOffset" : 36812
        }
    ],
    "buffers" : [
        {
            "byteLength" : 36932,
            "uri" : "data:application/octet-stream;base64,"
        }
    ]
}
