{
    "asset" : {
        "generator" : "Khronos glTF Blender I/O v1.2.75",
        "version" : "2.0"
    },
    "scene" : 0,
    "scenes" : [
        {
            "name" : "Scene",
            "nodes" : [
                0,
                1,
                2
            ]
        }
    ],
    "nodes" : [
        {
            "mesh" : 0,
            "name" : "main",
            "rotation" : [
                0,
                1,
                0,
                -1.6292068494294654e-07
            ],
            "scale" : [
                0.19999998807907104,
                0.19999998807907104,
                0.19999998807907104
            ],
            "translation" : [
                0.005334041081368923,
                -0.029798563569784164,
                0.002345263957977295
            ]
        },
        {
            "mesh" : 1,
            "name" : "aileron",
            "rotation" : [
                0,
                1,
                0,
                -1.6292068494294654e-07
            ],
            "scale" : [
                0.009143704548478127,
                0.052545491605997086,
                0.0928250402212143
            ],
            "translation" : [
                0.0002424377016723156,
                0.042011067271232605,
                -0.4550020098686218
            ]
        },
        {
            "mesh" : 2,
            "name" : "ailes",
            "rotation" : [
                0,
                1,
                0,
                -1.6292068494294654e-07
            ],
            "scale" : [
                0.19999998807907104,
                0.012074517086148262,
                0.19999998807907104
            ],
            "translation" : [
                0.0024245488457381725,
                -0.07900460064411163,
                -0.3131449818611145
            ]
        }
    ],
    "materials" : [
        {
            "doubleSided" : true,
            "emissiveFactor" : [
                0,
                0,
                0
            ],
            "name" : "DarkBlue",
            "pbrMetallicRoughness" : {
                "baseColorFactor" : [
                    0.006995410658419132,
                    0.021219007670879364,
                    0.022173885256052017,
                    1
                ],
                "metallicFactor" : 0,
                "roughnessFactor" : 0.4000000059604645
            }
        },
        {
            "doubleSided" : true,
            "emissiveFactor" : [
                0,
                0,
                0
            ],
            "name" : "Brown",
            "pbrMetallicRoughness" : {
                "baseColorFactor" : [
                    0.08228270709514618,
                    0.024157628417015076,
                    0.012983035296201706,
                    1
                ],
                "metallicFactor" : 0,
                "roughnessFactor" : 0.5
            }
        },
        {
            "doubleSided" : true,
            "emissiveFactor" : [
                0,
                0,
                0
            ],
            "name" : "LightBrown",
            "pbrMetallicRoughness" : {
                "baseColorFactor" : [
                    0.3185468018054962,
                    0.18782080709934235,
                    0.14126330614089966,
                    1
                ],
                "metallicFactor" : 0,
                "roughnessFactor" : 0.5
            }
        },
        {
            "doubleSided" : true,
            "emissiveFactor" : [
                0,
                0,
                0
            ],
            "name" : "LightBlue",
            "pbrMetallicRoughness" : {
                "baseColorFactor" : [
                    0.11953846365213394,
                    0.5209956765174866,
                    0.5332764983177185,
                    1
                ],
                "metallicFactor" : 0,
                "roughnessFactor" : 0.5
            }
        },
        {
            "doubleSided" : true,
            "emissiveFactor" : [
                0,
                0,
                0
            ],
            "name" : "Orange",
            "pbrMetallicRoughness" : {
                "baseColorFactor" : [
                    1,
                    0.3702201843261719,
                    0.01196227129548788,
                    1
                ],
                "metallicFactor" : 0,
                "roughnessFactor" : 0.5
            }
        }
    ],
    "meshes" : [
        {
            "name" : "Cube",
            "primitives" : [
                {
                    "attributes" : {
                        "POSITION" : 0,
                        "NORMAL" : 1,
                        "TEXCOORD_0" : 2
                    },
                    "indices" : 3,
                    "material" : 0
                },
                {
                    "attributes" : {
                        "POSITION" : 4,
                        "NORMAL" : 5,
                        "TEXCOORD_0" : 6
                    },
                    "indices" : 7,
                    "material" : 1
                },
                {
                    "attributes" : {
                        "POSITION" : 8,
                        "NORMAL" : 9,
                        "TEXCOORD_0" : 10
                    },
                    "indices" : 11,
                    "material" : 2
                },
                {
                    "attributes" : {
                        "POSITION" : 12,
                        "NORMAL" : 13,
                        "TEXCOORD_0" : 14
                    },
                    "indices" : 15,
                    "material" : 3
                },
                {
                    "attributes" : {
                        "POSITION" : 16,
                        "NORMAL" : 17,
                        "TEXCOORD_0" : 18
                    },
                    "indices" : 19,
                    "material" : 4
                }
            ]
        },
        {
            "name" : "Cube.001",
            "primitives" : [
                {
                    "attributes" : {
                        "POSITION" : 20,
                        "NORMAL" : 21,
                        "TEXCOORD_0" : 22
                    },
                    "indices" : 23,
                    "material" : 1
                }
            ]
        },
        {
            "name" : "Cube.002",
            "primitives" : [
                {
                    "attributes" : {
                        "POSITION" : 24,
                        "NORMAL" : 25,
                        "TEXCOORD_0" : 26
                    },
                    "indices" : 27,
                    "material" : 1
                }
            ]
        }
    ],
    "accessors" : [
        {
            "bufferView" : 0,
            "componentType" : 5126,
            "count" : 324,
            "max" : [
                0.9775650501251221,
                0.322124719619751,
                2.008593797683716
            ],
            "min" : [
                -0.9775650501251221,
                -0.322124719619751,
                -2.1563844680786133
            ],
            "type" : "VEC3"
        },
        {
            "bufferView" : 1,
            "componentType" : 5126,
            "count" : 324,
            "type" : "VEC3"
        },
        {
            "bufferView" : 2,
            "componentType" : 5126,
            "count" : 324,
            "type" : "VEC2"
        },
        {
            "bufferView" : 3,
            "componentType" : 5123,
            "count" : 396,
            "type" : "SCALAR"
        },
        {
            "bufferView" : 4,
            "componentType" : 5126,
            "count" : 442,
            "max" : [
                0.4381535053253174,
                0.6015235781669617,
                2.571950912475586
            ],
            "min" : [
                -0.4381535053253174,
                -0.43235790729522705,
                -2.2560744285583496
            ],
            "type" : "VEC3"
        },
        {
            "bufferView" : 5,
            "componentType" : 5126,
            "count" : 442,
            "type" : "VEC3"
        },
        {
            "bufferView" : 6,
            "componentType" : 5126,
            "count" : 442,
            "type" : "VEC2"
        },
        {
            "bufferView" : 7,
            "componentType" : 5123,
            "count" : 660,
            "type" : "SCALAR"
        },
        {
            "bufferView" : 8,
            "componentType" : 5126,
            "count" : 24,
            "max" : [
                0.30541181564331055,
                0.5774129033088684,
                1.3545268774032593
            ],
            "min" : [
                -0.30541181564331055,
                0.4497602880001068,
                0.7134856581687927
            ],
            "type" : "VEC3"
        },
        {
            "bufferView" : 9,
            "componentType" : 5126,
            "count" : 24,
            "type" : "VEC3"
        },
        {
            "bufferView" : 10,
            "componentType" : 5126,
            "count" : 24,
            "type" : "VEC2"
        },
        {
            "bufferView" : 11,
            "componentType" : 5123,
            "count" : 36,
            "type" : "SCALAR"
        },
        {
            "bufferView" : 12,
            "componentType" : 5126,
            "count" : 42,
            "max" : [
                0.9174386858940125,
                0.10623052716255188,
                1.9691002368927002
            ],
            "min" : [
                -0.9174386858940125,
                0.025832273066043854,
                -2.093648672103882
            ],
            "type" : "VEC3"
        },
        {
            "bufferView" : 13,
            "componentType" : 5126,
            "count" : 42,
            "type" : "VEC3"
        },
        {
            "bufferView" : 14,
            "componentType" : 5126,
            "count" : 42,
            "type" : "VEC2"
        },
        {
            "bufferView" : 15,
            "componentType" : 5123,
            "count" : 48,
            "type" : "SCALAR"
        },
        {
            "bufferView" : 16,
            "componentType" : 5126,
            "count" : 58,
            "max" : [
                0.3147448003292084,
                0.4973687529563904,
                2.538846492767334
            ],
            "min" : [
                -0.3147448003292084,
                -0.058344438672065735,
                -2.2560744285583496
            ],
            "type" : "VEC3"
        },
        {
            "bufferView" : 17,
            "componentType" : 5126,
            "count" : 58,
            "type" : "VEC3"
        },
        {
            "bufferView" : 18,
            "componentType" : 5126,
            "count" : 58,
            "type" : "VEC2"
        },
        {
            "bufferView" : 19,
            "componentType" : 5123,
            "count" : 84,
            "type" : "SCALAR"
        },
        {
            "bufferView" : 20,
            "componentType" : 5126,
            "count" : 54,
            "max" : [
                0.9442784786224365,
                1.0626945495605469,
                0.6596702337265015
            ],
            "min" : [
                -0.9442784786224365,
                -1.9391984939575195,
                -1.2821063995361328
            ],
            "type" : "VEC3"
        },
        {
            "bufferView" : 21,
            "componentType" : 5126,
            "count" : 54,
            "type" : "VEC3"
        },
        {
            "bufferView" : 22,
            "componentType" : 5126,
            "count" : 54,
            "type" : "VEC2"
        },
        {
            "bufferView" : 23,
            "componentType" : 5123,
            "count" : 78,
            "type" : "SCALAR"
        },
        {
            "bufferView" : 24,
            "componentType" : 5126,
            "count" : 80,
            "max" : [
                1.4056918621063232,
                1.0403589010238647,
                0.9372987151145935
            ],
            "min" : [
                -1.4056918621063232,
                0.3711051642894745,
                0.45533663034439087
            ],
            "type" : "VEC3"
        },
        {
            "bufferView" : 25,
            "componentType" : 5126,
            "count" : 80,
            "type" : "VEC3"
        },
        {
            "bufferView" : 26,
            "componentType" : 5126,
            "count" : 80,
            "type" : "VEC2"
        },
        {
            "bufferView" : 27,
            "componentType" : 5123,
            "count" : 120,
            "type" : "SCALAR"
        }
    ],
    "bufferViews" : [
        {
            "buffer" : 0,
            "byteLength" : 3888,
            "byteOffset" : 0
        },
        {
            "buffer" : 0,
            "byteLength" : 3888,
            "byteOffset" : 3888
        },
        {
            "buffer" : 0,
            "byteLength" : 2592,
            "byteOffset" : 7776
        },
        {
            "buffer" : 0,
            "byteLength" : 792,
            "byteOffset" : 10368
        },
        {
            "buffer" : 0,
            "byteLength" : 5304,
            "byteOffset" : 11160
        },
        {
            "buffer" : 0,
            "byteLength" : 5304,
            "byteOffset" : 16464
        },
        {
            "buffer" : 0,
            "byteLength" : 3536,
            "byteOffset" : 21768
        },
        {
            "buffer" : 0,
            "byteLength" : 1320,
            "byteOffset" : 25304
        },
        {
            "buffer" : 0,
            "byteLength" : 288,
            "byteOffset" : 26624
        },
        {
            "buffer" : 0,
            "byteLength" : 288,
            "byteOffset" : 26912
        },
        {
            "buffer" : 0,
            "byteLength" : 192,
            "byteOffset" : 27200
        },
        {
            "buffer" : 0,
            "byteLength" : 72,
            "byteOffset" : 27392
        },
        {
            "buffer" : 0,
            "byteLength" : 504,
            "byteOffset" : 27464
        },
        {
            "buffer" : 0,
            "byteLength" : 504,
            "byteOffset" : 27968
        },
        {
            "buffer" : 0,
            "byteLength" : 336,
            "byteOffset" : 28472
        },
        {
            "buffer" : 0,
            "byteLength" : 96,
            "byteOffset" : 28808
        },
        {
            "buffer" : 0,
            "byteLength" : 696,
            "byteOffset" : 28904
        },
        {
            "buffer" : 0,
            "byteLength" : 696,
            "byteOffset" : 29600
        },
        {
            "buffer" : 0,
            "byteLength" : 464,
            "byteOffset" : 30296
        },
        {
            "buffer" : 0,
            "byteLength" : 168,
            "byteOffset" : 30760
        },
        {
            "buffer" : 0,
            "byteLength" : 648,
            "byteOffset" : 30928
        },
        {
            "buffer" : 0,
            "byteLength" : 648,
            "byteOffset" : 31576
        },
        {
            "buffer" : 0,
            "byteLength" : 432,
            "byteOffset" : 32224
        },
        {
            "buffer" : 0,
            "byteLength" : 156,
            "byteOffset" : 32656
        },
        {
            "buffer" : 0,
            "byteLength" : 960,
            "byteOffset" : 32812
        },
        {
            "buffer" : 0,
            "byteLength" : 960,
            "byteOffset" : 33772
        },
        {
            "buffer" : 0,
            "byteLength" : 640,
            "byteOffset" : 34732
        },
        {
            "buffer" : 0,
            "byteLength" : 240,
            "byteOffset" : 35372
        }
    ],
    "buffers" : [
        {
            "byteLength" : 35612,
            "uri" : "data:application/octet-stream;base64,"
        }
    ]
}
