<svg version="1.1" viewBox="50 20 160 210" xmlns="http://www.w3.org/2000/svg">
 <g>
  <ellipse class="mode" cx="127" cy="63.5" rx="26.02" ry="25.93"/>
  <ellipse class="mode" cx="126" cy="208" rx="60" ry="20"/>
  <ellipse cx="139.4" cy="146.4" rx="70.11" ry="26.33" style="fill:#e6e6e6;"/>
  <path d="m164.3 121.8-37.83 50.48a70.11 26.33 0 0 0 12.97 0.462 70.11 26.33 0 0 0 70.11-26.33 70.11 26.33 0 0 0-45.26-24.62z" style="fill:#ccc;stroke-width:1.855"/>
  <path d="m139.4 133.6c-29.7 4.8e-4 -56.18 11.44-66.09 19.84 9.894 8.406 36.38 19.85 66.09 19.85 29.72-3e-3 56.2-11.45 66.09-19.85-9.915-8.398-36.39-19.83-66.09-19.83z" style="fill:#fff;stroke-width:1.855"/>
</g>
<g class="hashi2">
  <path d="m72.97 63.25 1.133-3.959 1.594-0.9496 110.6 35.78-0.463 1.429z" style="fill:#fff"/>
  <path d="m75.69 58.34-1.594 0.9498 5.901 1.832-1.096 3.827 1.188 0.34 1.088-3.8 1.967 0.6108-1.019 3.558 1.188 0.34 1.011-3.532 101.9 31.66-0.1085-0.5814z"/>
 </g>
 <g transform="translate(44.05 6.234)">
  <path class="hair" d="m124.5 82.14s0 6.615 1.323 6.615c1.323 0 1.323-6.615 1.323-6.615z"/>
  <path d="m117.7 114.6c2.646 10.58-1.323 18.52 1e-5 23.81 0.5454 2.181 6.615 1.323 6.615 1.323l-1.323-24.87z" style="fill:#b3b3b3;stroke-width:.2646"/>
  <path d="m135.7 101.2c-1.917 0.0307-3.928 0.5704-6.555 1.223-1.071 0.268-4.29 1.743-5.48 2.368-5.175 2.733-5.405 5.049-5.405 9.719 1.471 7.597 3.305 18.35 3.305 18.35l-0.3194 3.905c-0.409 1.14-0.1711 2.175 0.461 3.27 5.896 10.2 25.22 12.06 31.06 9.265 1.531-0.73 3.16-1.616 3.182-3.321 0.1413-8.743 0.3082-23.04-0.5839-27.49-0.4686-2.353-1.562-5.369-5.301-8.49-1.94-1.616-3.844-2.942-6.483-4.856 8e-5 -2e-4 4.3e-4 -3.1e-4 5.1e-4 -5.1e-4 -0.1074-0.079-0.2279-0.1672-0.338-0.248-0.697-0.5122-1.43-1.051-2.249-1.659-0.0327-0.0243-0.057-0.0417-0.0899-0.0662-1.9-1.417-3.516-1.995-5.207-1.968z" style="fill:#808080;stroke-width:.2646"/>
  <path d="m150.1 114.8c-3.294-0.2313-1.942 28.58-1.942 28.58l6.224-0.2463s0.2402-35.63-4.282-28.33z" style="fill:#666"/>
  <path d="m142.8 97.04v7.392c0 0.2252-0.0672 0.4411-0.1982 0.6242-0.7141 0.9985-3.269 4.396-6.183 6.185-2.522 1.549-5.723 0.3212-5.723-2.481v-6.879s0.1831-0.4974 0.3553-0.6911l4.812-5.414c0.2318-0.2606 0.5747-0.3932 0.9213-0.3559l5.053 0.545c0.5477 0.05953 0.9631 0.5228 0.9631 1.074z" style="fill:#b3b3b3;stroke-width:.2646"/>
  <path d="m136.6 96.9c-1.717 2.186-5.961 5.773-5.961 5.773v3.704h5.197c3.419 0 5.185-5.112 6.445-7.673-4.477-2.348-5.68-1.804-5.68-1.804z" style="fill:#999;stroke-width:.2646"/>
  <path d="m145 90.67 0.1585-1.27c0.5292-4.357-0.8427-9.922-8.202-11.76-4.438-1.112-10.05 3.175-11.11 5.556-0.717 1.616-0.7136 4.062-0.5292 5.821l0.049 4.717c0.5228 7.016 3.689 10.91 7.632 11.41 4.912 0.6257 6.969-1.434 9.458-5.336 0.2577-0.4037 0.9462-1.496 1.457-2.736 0.9718-0.7467 1.827-3.275 1.992-4.678 0.0979-0.8337-0.3373-1.442-0.902-1.722z" style="fill:#b3b3b3;stroke-width:.2646"/>
  <path d="m120.7 106.7c-3.385 2.18-4.337 5.736-3.219 15.68 0.5538 1.803 2.769 2.08 2.769 2.08z" style="fill:#808080;stroke-width:.2646"/>
  <path d="m149.5 125.2v17.99l-14.02 1.852 2.117 3.704s16.04 2.216 17.36 2.216c1.323 0 3.008-1.687 3.008-1.687v-25.4z" style="fill:#b3b3b3;stroke-width:.2646"/>
  <path d="m149.2 134.1c0.9692 0.9705 5.937 3.403 9.952 0.9073 0 0-0.6474-9.346-1.761-13.8-1.323-6.615-4.881-9.46-7.294-11.19-1.902-1.368-3.53 10.83-3.038 12.35 0.4913 1.517 2.141 11.73 2.141 11.73z" style="fill:#808080;stroke-width:.2646"/>
  <polygon transform="matrix(.6648 0 0 .6648 -198.4 -11.55)" points="504.9 248 497.8 247.5 476.5 240.5 440 242.4 440 244.9 477.3 266.5 500.9 252.8 504.9 250.5" style="fill:#ececec"/>
  <polygon transform="matrix(.6648 0 0 .6648 -198.4 -11.55)" points="440 242.4 477.3 264 500.9 250.3 504.9 248 467.6 226.5" style="fill:#ccc"/>
  <polygon transform="matrix(.6648 0 0 .6648 -198.4 -11.55)" points="495.2 248.9 497.8 247.4 468.7 230.6 466.1 232.1" style="fill:#808080"/>
  <polygon transform="matrix(.6648 0 0 .6648 -198.4 -11.55)" points="463.6 233.6 447.2 243.1 476.3 259.8 492.7 250.4" style="fill:#808080"/>
  <polygon transform="matrix(.6648 0 0 .6648 -198.4 -11.55)" points="475.2 236.7 477.3 264 475.4 265.3 473.3 238" style="fill:#e6e6e6"/>
  <polygon transform="matrix(.6648 0 0 .6648 -198.4 -11.55)" points="473.3 238 475.4 265.3 438.1 243.8 436 216.5" style="fill:#808080"/>
  <polygon transform="matrix(.6648 0 0 .6648 -198.4 -11.55)" points="475.2 236.7 473.3 238 436 216.5 437.9 215.1" style="fill:#ccc"/>
  <path class="hand" d="m134.5 144.8c-0.3933-0.0721-5.678 0.6139-6.183 0.7435-0.5052 0.1296-3.832 1.646-3.912 1.726-0.0795 0.0803-1.771 1.575-2.28 1.921-0.5079 0.3454-0.0567 0.9107 0.602 0.9579 0.6587 0.0471 2.42-1.468 2.42-1.468l1.966-0.6151-1.928 1.017s-1.822 1.443-2.191 1.635c-0.3689 0.1916-0.1453 0.7881 0.5427 0.8783 0.6879 0.0905 2.307-1.058 2.307-1.058l2.245-1.144-2.011 1.335s-1.364 0.716-1.824 1.001c-0.4601 0.2848 0.1489 0.8036 0.6705 0.7887 0.5216-0.015 2.115-1.019 2.115-1.019l2.046-0.8468s-1.087 0.8378-1.397 0.9289c-0.3096 0.0911-1.388 0.7164-1.593 0.8228s0.1704 0.3142 0.7263 0.4818c0.5566 0.1677 1.602-0.6131 1.602-0.6131s2.71-0.5653 4.143-1.159c1.434-0.5939 2.152-1.367 2.699-1.525 0.3731-0.1078 0.9127-0.5764 1.496-0.5847 0.6033-9e-3 1.346-0.5793 1.313-0.9383-0.1602-1.723-1.352-3.515-3.573-3.264z" style="fill:#b3b3b3;stroke-width:.835"/>
  <path class="hair" d="m146.2 78.96c1.16-0.6731 2.381-0.5292 2.381-0.5292s-1.588-1.852-4.762-1.058c-10.05-9.79-20.64 4.762-20.64 4.762s1.323 2.646 5.556 2.381c-0.2646 0.7938-2.117 1.588-2.117 1.588s5.522 2.6 11.88 1.664c0.539 0.9004 2.264 3.133 2.264 3.133l0.3953 2.989s1.653-3.782 3.808-3.026c2.156 0.7564-0.1796 4.574-0.6466 5.006l4e-3 2.121s4.483-5.759 5.048-11.36c0.2113-5.585-1.058-6.35-3.175-7.673z"/>
  <path d="m122.9 90.12c-0.0767-0.0012-0.1368 0.07286-0.1333 0.1752l0.0217 0.4873c-3e-3 0.1937 0.102 0.3844 0.2491 0.4651l0.1287 0.06821 0.2279 2.544c0.105 1.191 0.8638 2.252 1.8 2.524l2.344 0.6832c0.6895 0.2008 1.341-0.1376 1.642-0.8589l0.8118-2.35c0.0429-0.1204 0.1172-0.2145 0.2114-0.2687 0.0971-0.05557 0.207-0.06507 0.3147-0.03411 0.1077 0.03149 0.2127 0.1039 0.2987 0.2124 0.0875 0.1074 0.1487 0.2414 0.1736 0.3819l0.5209 2.738c0.2064 0.8694 0.7977 1.571 1.49 1.773l2.341 0.6826c0.9361 0.2733 1.79-0.3173 2.029-1.408l0.51-2.329 0.1292 0.0072c0.1446 7e-3 0.2598-0.1037 0.2914-0.2729l3.408-2.359 1.588-1.852-5.417 3.354-5.837-1.701c-0.2386-0.06985-0.4775-0.08867-0.7085-0.05374-0.2506 0.03969-0.5097 0.02035-0.7653-0.05426-0.2558-0.07435-0.5084-0.2043-0.7462-0.386-0.2193-0.1664-0.4554-0.2867-0.694-0.356l-6.195-1.806c-0.0115-0.0034-0.0232-0.0055-0.0341-0.0057z" style="fill:#4d4d4d;stroke-width:.2646"/>
  <path class="glasses" d="m132.4 94.04c0.0617-9.57e-4 0.1261 0.0076 0.1922 0.02687l4.127 1.203c0.3202 0.0937 0.538 0.5258 0.448 0.8919l-0.3664 1.52c-0.1651 0.7541-0.7546 1.163-1.4 0.9746l-2.341-0.6832c-0.4424-0.1286-0.8117-0.5643-0.9508-1.117l-0.3328-1.745c-0.1109-0.5876 0.1922-1.065 0.6243-1.072z" />
  <path class="glasses" d="m124.3 91.65c0.0376 1.17e-4 0.0763 0.0059 0.1163 0.01757l4.127 1.204c0.5318 0.155 0.8695 0.9019 0.6708 1.478l-0.5168 1.498c-0.1974 0.454-0.607 0.6621-1.046 0.5338l-2.345-0.6832c-0.6458-0.1881-1.169-0.9212-1.243-1.745l-0.1819-1.681c-0.0377-0.3542 0.155-0.6235 0.4181-0.6227z" />
 </g>
 <g class="egg">
 <path transform="rotate(-12 104.6 85.32)" d="m119.1 153.6a11.82 6.982 0 0 1-5.912 6.046 11.82 6.982 0 0 1-11.82 0 11.82 6.982 0 0 1-5.912-6.046h11.82z" style="fill:#ccc"/>
 <ellipse transform="rotate(-12 104.6 85.32)" cx="107.3" cy="153.5" rx="11.81" ry="5.774" style="fill:#fff"/>
 <ellipse transform="rotate(-12 104.6 85.32)" cx="110.9" cy="153.2" rx="4.46" ry="3.499" style="fill:#666"/>
 </g>
 <g class="roll">
 <path transform="matrix(.2868 0 0 .1331 93.66 138.6)" d="m26.46 97.9c-2.661 4.257-5.485 0.1139-9.572 3.029-4.087 2.915-1.09 6.935-5.982 8.064-4.891 1.129-3.959-3.798-8.91-4.627-4.951-0.829-5.675 4.133-9.932 1.472-4.257-2.661-0.1139-5.485-3.029-9.572-2.915-4.087-6.935-1.09-8.064-5.982-1.129-4.891 3.798-3.959 4.627-8.91 0.829-4.951-4.133-5.675-1.472-9.932s5.485-0.1139 9.572-3.029c4.087-2.915 1.09-6.935 5.982-8.064 4.891-1.129 3.959 3.798 8.91 4.627 4.951 0.829 5.675-4.133 9.932-1.472 4.257 2.661 0.1139 5.485 3.029 9.572s6.935 1.09 8.064 5.982c1.129 4.891-3.798 3.959-4.627 8.91-0.829 4.951 4.133 5.675 1.472 9.932z" style="fill:#999"/>
 <path transform="matrix(.2868 0 0 .1331 93.66 137.8)" d="m26.46 97.9c-2.661 4.257-5.485 0.1139-9.572 3.029-4.087 2.915-1.09 6.935-5.982 8.064-4.891 1.129-3.959-3.798-8.91-4.627-4.951-0.829-5.675 4.133-9.932 1.472-4.257-2.661-0.1139-5.485-3.029-9.572-2.915-4.087-6.935-1.09-8.064-5.982-1.129-4.891 3.798-3.959 4.627-8.91 0.829-4.951-4.133-5.675-1.472-9.932s5.485-0.1139 9.572-3.029c4.087-2.915 1.09-6.935 5.982-8.064 4.891-1.129 3.959 3.798 8.91 4.627 4.951 0.829 5.675-4.133 9.932-1.472 4.257 2.661 0.1139 5.485 3.029 9.572s6.935 1.09 8.064 5.982c1.129 4.891-3.798 3.959-4.627 8.91-0.829 4.951 4.133 5.675 1.472 9.932z" style="fill:#ccc"/>
 <path d="m94.79 147.3c-1.101 0.0452-2.148 0.3841-2.703 0.9833-0.747 0.8068-0.2951 1.879 1.167 2.307 1.19 0.3481 2.766 0.12 3.36-0.6044 0.4605-0.5614 0.1191-1.303-0.9362-1.555-0.3778-0.0902-0.808-0.0937-1.186-0.0147-0.378 0.0789-0.708 0.2472-0.8405 0.4935-0.08209 0.1526-0.06215 0.3252 0.05806 0.4743 0.1202 0.149 0.369 0.2775 0.7043 0.2878 0.2042 6e-3 0.3702-0.0455 0.5033-0.1278 0.06656-0.0412 0.128-0.0973 0.1261-0.1706-0.0018-0.0733-0.08454-0.1441-0.1938-0.186l-0.222 0.1916c-3.07e-4 -5.3e-4 0.0031-4e-3 -0.01041 4e-3 -0.04187 0.0259-0.1754 0.0531-0.1812 0.0529-0.1756-5e-3 -0.2809-0.0605-0.3544-0.1515-0.07345-0.0911-0.08673-0.2153-0.03844-0.3051 0.09207-0.1712 0.3106-0.2834 0.5888-0.3415 0.2782-0.0581 0.6118-0.0553 0.8891 0.0109 0.818 0.1953 1.09 0.7876 0.7223 1.236-0.4879 0.5948-1.808 0.7858-2.803 0.4947-1.245-0.364-1.635-1.29-0.9914-1.985 0.7743-0.8362 2.671-1.094 4.088-0.6447 0.9337 0.2961 1.564 0.855 1.689 1.464l0.407-0.0279c-0.141-0.6839-0.8425-1.308-1.898-1.643-0.6038-0.1915-1.284-0.2701-1.944-0.243z" style="-inkscape-stroke:none;color:#000000;fill-rule:evenodd;fill:#999;stroke-width:.07776"/>
 </g>
 <path class="motif motif1" d="m89.48 96.38-1.637 1.637-1.637-1.637-0.4677 0.4677 1.637 1.637-1.637 1.637 0.4677 0.4677 1.637-1.637 1.637 1.637 0.4677-0.4677-1.637-1.637 1.637-1.637z" style="fill:#666"/>
 <path class="motif motif2" d="m140.1 105.8v2.315h-2.315v0.6615h2.315v2.315h0.6615v-2.315h2.315v-0.6615h-2.315v-2.315z" style="fill:#808080"/>
 <g class="motif motif3">
 <path d="m97.91 119.5a1.352 1.352 0 0 1-1.352 1.352 1.352 1.352 0 0 1-1.352-1.352 1.352 1.352 0 0 1 1.352-1.352 1.352 1.352 0 0 1 1.352 1.352z" style="fill:none;stroke-width:.1792;stroke:#4d4d4d"/>
 <path d="m97.1 119.5a0.5407 0.5407 0 0 1-0.5407 0.5407 0.5407 0.5407 0 0 1-0.5407-0.5407 0.5407 0.5407 0 0 1 0.5407-0.5407 0.5407 0.5407 0 0 1 0.5407 0.5407z" style="fill:#808080;stroke-width:.1792"/>
 </g>
 <path class="smoke smoke1" d="m104.4 141c-2.028-1.521-4.057-3.043-4.057-6.085 0-6.085 8.114-6.085 8.114-12.17s-8.114-6.085-8.114-12.17c-1e-5 -6.085 8.114-6.085 8.114-12.17 0-6.085-8.114-6.085-8.114-12.17" style="fill:none;stroke-linecap:round;stroke-linejoin:round;stroke-width:.6722;stroke:#999"/>
 <path class="smoke smoke2" d="m112.5 141c-2.028-1.521-4.057-3.043-4.057-6.085 0-6.085 8.114-6.085 8.114-12.17s-8.114-6.085-8.114-12.17c-1e-5 -6.085 8.114-6.085 8.114-12.17 0-6.085-8.114-6.085-8.114-12.17" style="fill:none;stroke-linecap:round;stroke-linejoin:round;stroke-width:.6722;stroke:#ccc"/>
 <path class="smoke smoke3" d="m120.7 141c-2.028-1.521-4.057-3.043-4.057-6.085 0-6.085 8.114-6.085 8.114-12.17 0-6.085-8.114-6.085-8.114-12.17s8.114-6.085 8.114-12.17c0-3.043-2.028-4.564-4.057-6.085" style="fill:none;stroke-linecap:round;stroke-linejoin:round;stroke-width:.6722;stroke:#999"/>
 <path class="smoke smoke4" d="m128.8 141c-2.028-1.521-4.057-3.043-4.057-6.085 0-6.085 8.114-6.085 8.114-12.17 0-6.085-8.114-6.085-8.114-12.17-2e-5 -6.085 8.114-6.085 8.114-12.17" style="fill:none;stroke-linecap:round;stroke-linejoin:round;stroke-width:.6722;stroke:#ccc"/>
 <g class="hashi">
 <path d="m89.29 30.71 2.242-3.454 1.802-0.4417 95.27 66.57-0.8608 1.231z" style="fill:#fff"/>
 <path d="m93.33 26.81-1.802 0.4418 5.107 3.479-2.167 3.339 1.037 0.6728 2.152-3.316 1.702 1.16-2.015 3.104 1.036 0.6728 2-3.081 88.22 60.1 0.0661-0.5881z"/>
 </g>
 <path d="m159.4 143.7c-0.4754-0.6183-0.9948-1.295-0.9444-2.126 0.0324-0.5358 0.2547-0.8378 0.4943-1.306 0.413-0.5669 0.4254-0.6507 0.9403-1.107 0.1439-0.1275 0.3056-0.2334 0.4583-0.3501 0.027-0.0269-0.3532-0.4082-0.3802-0.3813-0.1685 0.1303-0.3473 0.2483-0.5054 0.391-0.5584 0.5036-0.578 0.6071-1.02 1.231-0.287 0.6028-0.5018 0.8885-0.5284 1.568-0.0365 0.9358 0.4844 1.667 1.042 2.351 0.0191 0.0315 0.4633-0.2392 0.4442-0.2706z" style="fill:#ccc"/>
 <path d="m114.2 167.9c-0.7948-1.612-1.726-3.152-2.687-4.669-0.7098-1.12-1.425-2.222-2.237-3.272-0.3398-0.4395-0.7135-0.8517-1.07-1.278-0.7456-0.8007-1.547-1.528-2.601-1.884-0.8721-0.2944-1.791-0.3384-2.7-0.3798-1.688-0.0372-3.357 0.2387-5.028 0.4279-2.462 0.2037-4.938 0.4121-7.41 0.2864-0.7151-0.0363-1.432-0.0755-2.14-0.1831-0.6579-0.1001-1.298-0.2924-1.948-0.4386-0.551-0.2235-1.12-0.4061-1.653-0.6705-1.078-0.5355-2.183-1.319-2.669-2.468-0.222-0.5249-0.1693-0.8164-0.1601-1.344 0.02008-0.2648 0.08832-0.5216 0.1216-0.7842 0.0059-0.0352-0.4925-0.1186-0.4984-0.0834-0.0776 0.2817-0.1262 0.5699-0.1643 0.8595-0.01143 0.641-0.07372 0.9553 0.1908 1.597 0.5169 1.254 1.673 2.136 2.842 2.738 0.5534 0.2853 1.148 0.4827 1.722 0.7241 0.6709 0.158 1.332 0.3649 2.013 0.4741 0.7203 0.1156 1.451 0.165 2.179 0.1989 2.595 0.1208 5.195-0.1064 7.774-0.3684 1.55-0.2094 3.102-0.4551 4.672-0.4334 0.85 0.0315 1.727 0.0544 2.548 0.3065 1.012 0.3106 1.696 1.001 2.404 1.757 0.3457 0.4184 0.7071 0.8242 1.037 1.255 0.863 1.127 1.441 2.046 2.208 3.248 0.9561 1.5 1.891 3.013 2.753 4.569 0.0132 0.0354 0.5142-0.1511 0.501-0.1865z" style="fill:#808080"/>
 <path d="m79.82 154.4c-0.01418 1e-3 -0.02252 4e-3 -0.02325 8e-3 -0.0776 0.2817-0.1263 0.5698-0.1643 0.8594-0.01143 0.641-0.0738 0.9552 0.1907 1.597 0.01329 0.0323 0.02876 0.0633 0.04289 0.0951 0.3782 0.2407 0.7645 0.4802 1.162 0.7183-0.2866-0.3131-0.5277-0.6633-0.6945-1.058-0.222-0.5249-0.1695-0.8164-0.1602-1.344 0.02008-0.2648 0.08872-0.5219 0.122-0.7844 0.0052-0.0308-0.3761-0.0986-0.4754-0.0915zm21.05 5.263c-1.58 3.6e-4 -3.145 0.2542-4.711 0.4315-2.462 0.2037-4.937 0.4119-7.41 0.2863-0.7151-0.0363-1.433-0.0753-2.14-0.1829-0.55-0.0836-1.088-0.2305-1.629-0.3622 0.724 0.3626 1.484 0.7171 2.253 1.07 0.4496 0.0449 0.9012 0.0741 1.352 0.0951 2.595 0.1208 5.195-0.1064 7.774-0.3684 1.55-0.2094 3.102-0.4552 4.672-0.4336 0.85 0.0315 1.727 0.0543 2.549 0.3064 1.012 0.3106 1.696 1.001 2.404 1.758 0.3457 0.4184 0.7073 0.8243 1.037 1.255 0.863 1.127 1.442 2.045 2.208 3.248 0.2964 0.4648 0.5893 0.9321 0.88 1.4 0.2727 0.0568 0.5527 0.1079 0.8274 0.1633-0.3709-0.6225-0.7529-1.238-1.141-1.85-0.7098-1.12-1.425-2.222-2.237-3.272-0.3398-0.4395-0.7135-0.8516-1.07-1.277-0.7456-0.8007-1.547-1.528-2.601-1.884-0.8721-0.2944-1.791-0.3384-2.7-0.3798-0.1055-2e-3 -0.2109-4e-3 -0.3163-4e-3z" style="fill:#b3b3b3"/>
 <path d="m98.41 162.3c-1.58 3.5e-4 -3.145 0.2542-4.711 0.4315-0.5735 0.0475-1.148 0.0948-1.722 0.1385 0.4046 0.1566 0.8012 0.3156 1.215 0.4692 0.2358-0.0231 0.4715-0.0464 0.7069-0.0703 1.55-0.2094 3.102-0.4552 4.672-0.4336 0.85 0.0315 1.727 0.0543 2.549 0.3064 1.012 0.3106 1.696 1.001 2.404 1.758 0.3457 0.4184 0.7073 0.8243 1.037 1.255 0.2251 0.2941 0.4305 0.5736 0.6253 0.848 0.3043 0.0757 0.6076 0.1518 0.9147 0.2258-0.3214-0.469-0.6521-0.9313-1.002-1.384-0.3398-0.4395-0.714-0.8516-1.071-1.277-0.7456-0.8007-1.547-1.528-2.6-1.884-0.8721-0.2944-1.791-0.3384-2.7-0.3798-0.1055-2e-3 -0.2109-4e-3 -0.3163-4e-3z" style="fill:#808080"/>
 <path d="m154.4 168.8c-4.484-2.117-8.953-4.273-13.53-6.188-1.124-0.4703-2.248-0.9444-3.393-1.359-1.009-0.3652-2.044-0.6528-3.065-0.9792-0.959-0.1694-1.908-0.4137-2.877-0.5083-2.404-0.2346-4.895 0.0993-7.108 1.084-1.18 0.525-1.72 1.019-2.719 1.778-1.078 0.8111-1.894 1.938-3.087 2.599-0.5343 0.2958-0.6599 0.2998-1.211 0.4539-0.5146 0.0466-0.3033 0.0702-0.6378 4e-3 -0.0348-0.0125-0.2117 0.4798-0.1769 0.4923 0.7174 0.0592 0.3616 0.067 1.067-0.0206 0.6042-0.1801 0.751-0.1897 1.331-0.5205 1.19-0.6787 2.047-1.78 3.137-2.59 0.9871-0.7304 1.449-1.157 2.615-1.652 1.185-0.5033 2.751-0.9151 4.032-1.014 2.303-0.1787 2.969 0.0986 5.29 0.506 1.004 0.3269 2.023 0.614 3.013 0.9808 1.136 0.4205 2.246 0.9066 3.361 1.379 4.574 1.939 9.059 4.079 13.63 6.027 0.0334 0.0234 0.3637-0.4486 0.3303-0.4719z" style="fill:#b3b3b3"/>
 <path d="m130.9 163.7c-1.969-0.015-3.951 0.3558-5.748 1.156-1.18 0.525-1.72 1.019-2.72 1.778-1.078 0.8111-1.894 1.939-3.087 2.599-0.5343 0.2958-0.6598 0.2996-1.211 0.4537-0.5146 0.0466-0.3032 0.0703-0.6377 4e-3 -0.0173-6e-3 -0.0697 0.112-0.1137 0.2341 0.3981 0.0617 0.7976 0.1221 1.199 0.1809 0.4378-0.1261 0.6304-0.1755 1.136-0.4641 1.19-0.6787 2.047-1.779 3.137-2.59 0.9871-0.7304 1.449-1.157 2.614-1.652 1.185-0.5033 2.751-0.9151 4.032-1.014 2.303-0.1787 2.969 0.0985 5.29 0.5059 1.004 0.3269 2.023 0.614 3.013 0.9808 1.136 0.4205 2.246 0.9065 3.361 1.379 3.112 1.32 6.184 2.731 9.269 4.113 0.4779-0.0313 0.9541-0.0647 1.429-0.1002-3.397-1.606-6.801-3.195-10.27-4.646-1.124-0.4703-2.247-0.9443-3.393-1.359-1.009-0.3652-2.044-0.6529-3.065-0.9793-0.959-0.1694-1.908-0.4134-2.877-0.508-0.4508-0.044-0.9046-0.0684-1.359-0.0718z" style="fill:#808080"/>
 <path d="m131.2 167.9c-1.969-0.015-3.951 0.3558-5.748 1.156-1.121 0.4987-1.675 0.9768-2.583 1.673 0.2843 0.033 0.5711 0.0626 0.8568 0.094 0.6415-0.4836 1.13-0.8352 2.044-1.223 1.185-0.5033 2.751-0.9151 4.032-1.014 2.303-0.1787 2.969 0.0985 5.29 0.5059 1.004 0.3269 2.023 0.614 3.013 0.9808 1.136 0.4205 2.246 0.9065 3.361 1.379 0.214 0.0908 0.4271 0.1838 0.6408 0.2754 0.6143-7e-3 1.227-0.0168 1.837-0.031-0.6808-0.2966-1.363-0.5907-2.048-0.8775-1.124-0.4703-2.247-0.9443-3.393-1.359-1.009-0.3652-2.044-0.6529-3.065-0.9793-0.959-0.1694-1.908-0.4134-2.877-0.508-0.4508-0.044-0.9051-0.0684-1.36-0.0718z" style="fill:#b3b3b3"/>
 <g>
  <path d="m69.32 146.4c2.34e-4 25.05 13.36 48.2 35.06 60.72 21.69 12.52 48.42 12.52 70.11 0 21.69-12.52 35.06-35.67 35.06-60.72 1e-5 11.62-31.39 26.33-70.11 26.33-38.72-1e-5 -70.11-14.71-70.11-26.33z" style="fill:#ececec;stroke-width:18.91"/>
  <path d="m69.38 146.3c2.34e-4 25.05 13.36 48.2 35.06 60.72 5.202 3.003 10.69 5.281 16.33 6.843-0.5835-0.3152-1.165-0.635-1.742-0.9679-18.99-10.96-31.6-30.07-34.44-51.47-9.512-4.689-15.21-10.19-15.21-15.13z" style="fill:#ccc;stroke-width:18.91"/>
  <path d="m69.32 146.4c0.01063 5.63 0.6996 11.24 2.052 16.7 7.557 9.17 35.16 21.26 68.06 21.26 32.9 0 60.51-12.09 68.06-21.26 1.352-5.466 2.04-11.07 2.051-16.7 1e-5 11.62-31.39 26.33-70.11 26.33-38.72 0-70.11-14.71-70.11-26.33zm1.22 10.45c5.951 10.74 34.57 22.35 68.98 22.35 34.41 0 63.02-11.61 68.98-22.35-0.2605 1.429-0.5633 2.851-0.9126 4.263-7.557 9.17-35.16 21.26-68.06 21.26-32.9 0-60.51-12.09-68.06-21.26-0.3493-1.412-0.6521-2.834-0.9126-4.263z" style="fill:#666;stroke-width:18.91"/>
  <path d="m87.29 185.7c-0.6197 1e-3 -1.223 0.0582-1.791 0.1648-1.299 0.2438-2.414 0.7479-3.131 1.445-0.1054 0.1017-0.1082 0.2696-0.0062 0.3747 0.1015 0.1044 0.2682 0.1073 0.3731 6e-3 1.212-1.18 4.132-1.845 6.865-1.193 2.6 0.62 5.027 2.359 5.813 5.859-2.546 0.8085-4.472 2.068-5.249 3.956l0.816 0.7204c0.7989-1.94 3.952-3.918 7.354-4.17 3.401-0.252 6.964 1.06 8.867 5.5 0.0285 0.0631 0.069 0.12 0.1194 0.1674-0.2538 0.1096-0.502 0.234-0.7426 0.3757-1.951 1.149-3.403 3.357-3.977 6.749-1.215-0.7536-2.408-1.541-3.575-2.367l2.791 8.37s6.771 10.49 37.62 10.49c30.85 0 37.62-10.49 37.62-10.49l2.791-8.37c-1.732 1.227-3.519 2.375-5.355 3.44-0.9925 0.573-1.995 1.119-3.008 1.64-0.5471-1.773-1.428-3.309-2.556-4.564 0.0655-0.071 0.1104-0.1586 0.1297-0.2532 1.286-6.43 5.193-8.649 9.07-8.869 1.939-0.1103 3.87 0.3126 5.406 1.024 1.536 0.7111 2.654 1.724 3.037 2.653l0.8222-0.7793c-0.5435-1.32-1.718-2.049-3.414-2.834-1.594-0.7379-3.532-1.184-5.526-1.134-1e-3 -7e-3 -3e-3 -0.0145-5e-3 -0.0217-0.4297-1.655-1.643-2.967-3.24-3.846-1.547-0.8509-3.462-1.31-5.457-1.308h-5.2e-4c-0.0642 6e-5 -0.1284 1e-3 -0.1928 2e-3 -4.109 0.0642-8.549 2.115-10.61 6.849-2.271-1.599-4.877-2.343-7.433-2.346-4.56-4e-3 -8.958 2.351-10.99 6.42-0.0656 0.1311-0.012 0.2906 0.1194 0.3555 0.1304 0.0659 0.2896 0.0137 0.3555-0.1168 3.776-7.553 16.19-9.027 21.63 0.5964-0.2114-0.0442-0.4245-0.0832-0.6392-0.1163-1.111-0.1709-2.263-0.1917-3.43-0.0527-3.499 0.4169-7.129 2.27-10.16 5.809-0.1429 0.1666-0.1235 0.4176 0.0434 0.5602 0.1665 0.1431 0.4174 0.1239 0.5602-0.0429 3.893-4.542 8.712-6.127 12.87-5.488 4.119 0.6337 7.592 3.447 8.902 7.867-6.426 3.211-13.22 5.377-20.15 6.495 0.0103-6.865-4.218-12.69-9.79-15.39-1.493-0.7254-3.088-1.225-4.725-1.459-0.5185-0.0741-1.041-0.1197-1.566-0.1395 0.0156-0.0778 7e-3 -0.1584-0.0233-0.2315-2.059-4.804-6.893-6.533-11.47-6.193-4.582 0.3394-9.016 2.678-10.43 6.201-0.0271 0.0704-0.0336 0.1472-0.0186 0.2212-0.7627-0.1829-1.518-0.281-2.251-0.2858-0.7353-5e-3 -1.449 0.0845-2.129 0.2728 0.0105-0.0915-3e-3 -0.1841-0.0393-0.2687-1.016-2.37-2.526-3.96-4.243-4.933 9e-3 -0.0102 0.0167-0.0211 0.0238-0.0326 2.551-5.102 10.2-5.102 12.76 0 0.0657 0.1306 0.225 0.1832 0.3555 0.1173 0.1302-0.0649 0.1836-0.2229 0.1194-0.3535-1.37-2.74-4.111-4.111-6.852-4.111-2.741 0-5.482 1.371-6.852 4.111-3e-3 9e-3 -6e-3 0.0178-8e-3 0.0269-1.657-0.8181-3.478-1.095-5.218-0.9664-0.7979 0.0591-1.583 0.1963-2.334 0.4-0.841-3.665-3.457-5.57-6.197-6.224-0.8126-0.1938-1.637-0.2839-2.433-0.2822zm99.06 1.567c-0.2935 1e-3 -0.5871 0.0122-0.88 0.0331-3.124 0.2225-6.18 1.571-7.885 4.092-0.0817 0.1208-0.0502 0.2848 0.0703 0.3669 0.1208 0.0817 0.2848 0.0502 0.3669-0.0703 1.589-2.35 4.487-3.648 7.484-3.861 2.997-0.2135 6.071 0.6627 7.985 2.576 0.1034 0.104 0.2717 0.104 0.3752 0 0.1026-0.1032 0.1026-0.2699 0-0.3731-1.863-1.863-4.679-2.774-7.516-2.763zm-16.41 1.962c1.807 0.0261 3.53 0.4577 4.894 1.208 1.409 0.775 2.424 1.877 2.817 3.219-4.047 0.3841-8.149 3.009-9.545 9.314-1.365-1.238-3.001-2.126-4.783-2.611-1.014-1.923-2.295-3.445-3.735-4.597 0.0252-0.0296 0.0459-0.0626 0.0615-0.0982 1.919-4.477 6.052-6.375 9.928-6.435 0.1211-2e-3 0.2418-2e-3 0.3622-5.1e-4zm-45.62 3.328c3.903 0.0389 7.674 1.691 9.422 5.664-4.2 0.0675-8.489 1.936-11.91 6.218-0.0294 0.0382-0.0534 0.0803-0.0713 0.1251-2.09-2.644-4.647-4.615-7.218-5.694-0.4197-0.1761-0.8406-0.3277-1.26-0.4553 0.0296-0.0333 0.0534-0.0714 0.0703-0.1126 1.237-3.091 5.4-5.383 9.748-5.705 0.4076-0.0302 0.8163-0.0438 1.223-0.0398zm-13.97 5.915c1.271 9e-3 2.623 0.3146 3.985 0.8862 5.028 2.11 10.1 7.855 11.37 15.4-7.392-1.475-14.6-4.153-21.32-8.035-0.4337-0.2516-0.8638-0.5087-1.292-0.7695 0.5264-3.405 1.924-5.517 3.759-6.598 1.038-0.6112 2.228-0.8977 3.499-0.8883zm23.31 0.7808c2.315-0.0463 4.606 0.5073 6.707 1.528 5.27 2.56 9.269 8.096 9.192 14.61-7.732 1.127-15.61 0.9533-23.3-0.5168-0.5809-3.668-2.033-6.927-3.957-9.582 0.137-0.0146 0.2629-0.0821 0.3509-0.1881 3.222-4.027 7.146-5.771 11-5.848z" style="fill:#666;stroke-width:15.82"/>
 </g>
 <path d="m190.7 162.3 2.022-0.9384c0.164-0.6528 0.6874-1.616 1.502-1.872 0.815-0.2565 1.887-0.2269 2.922 0.2207 2.07 0.8953 4.107 3.407 3.742 8.803-0.4297 6.363 0.3868 8.146 0.9005 9.902l1.396-0.7539c-0.4598-1.594-1.13-2.898-0.715-9.043 0.3945-5.843-1.951-9.179-4.693-10.37-3.501-1.343-5.997-0.1594-7.077 4.047z" style="-inkscape-stroke:none;color:#000000;fill:#ccc;stroke-linejoin:round"/>
 <path d="m188.6 163.4 2.178-1.103c0.164-0.6528 0.6259-1.7 1.441-1.956 0.815-0.2565 1.887-0.2269 2.922 0.2207 2.07 0.8953 4.107 3.407 3.742 8.803-0.4297 6.363 0.5472 11.61 2.984 16.12l1.396-0.7539c-2.723-5.716-3.214-9.119-2.799-15.26 0.3945-5.843-1.951-9.179-4.693-10.37-3.501-1.343-6.091 0.0891-7.171 4.295z" style="-inkscape-stroke:none;color:#000000;fill:#b3b3b3;stroke-linejoin:round"/>
 <path transform="translate(11.11 1.058)" d="m133.2 136.6 2.682-1.613v0.4673l-2.048 1.255 2.048 1.248v0.4801l-2.682-1.6z" style="fill:#ccc;stroke-linejoin:round;stroke-width:.7202"/>
 <path transform="rotate(-62.99 6.42 -8.54)" d="m-89.14 153.9v-0.6914h4.262v0.6914zm0-1.623v-0.6914h4.262v0.6914z" style="fill:#ccc;stroke-linejoin:round;stroke-width:1.588"/>
 <path transform="translate(13.87 1.295)" d="m140.6 139.7q0-0.3958 0.0854-0.7761 0.0854-0.3881 0.2328-0.7606 0.1475-0.3803 0.3415-0.7528 0.2018-0.3803 0.4269-0.7606l0.4036 0.194q-0.1552 0.2328-0.3337 0.5743-0.1707 0.3415-0.3182 0.7296-0.1475 0.388-0.2484 0.7994-0.0931 0.4036-0.0931 0.7761 0 0.6054 0.2639 1.327 0.2639 0.714 0.7218 1.413l-0.3958 0.2096q-0.489-0.7296-0.7916-1.475-0.2949-0.7528-0.2949-1.498z" style="fill:#666;stroke-linejoin:round;stroke-width:1.588"/>
 <path transform="rotate(30 3.581 21.27)" d="m231.3 50.65q0 0.3334-0.096 0.6163-0.096 0.2778-0.2677 0.4849-0.1718 0.2021-0.4092 0.3182-0.2324 0.1111-0.5052 0.1111-0.2778 0-0.5153-0.1111-0.2324-0.1162-0.4041-0.3182-0.1667-0.2071-0.2627-0.4849-0.096-0.2829-0.096-0.6163 0-0.3334 0.096-0.6112 0.096-0.2829 0.2627-0.4849 0.1718-0.2071 0.4041-0.3233 0.2374-0.1162 0.5153-0.1162 0.2728 0 0.5052 0.1162 0.2374 0.1162 0.4092 0.3233 0.1718 0.2021 0.2677 0.4849 0.096 0.2778 0.096 0.6112zm-0.4496 0q0-0.2475-0.0606-0.4546t-0.1718-0.3536q-0.1111-0.1515-0.2627-0.2324-0.1516-0.08082-0.3334-0.08082-0.1869 0-0.3435 0.08082-0.1515 0.08083-0.2627 0.2324-0.1061 0.1465-0.1667 0.3536-0.0606 0.2071-0.0606 0.4546 0 0.2526 0.0606 0.4597 0.0606 0.2021 0.1667 0.3486 0.1111 0.1465 0.2627 0.2273 0.1566 0.08083 0.3435 0.08083 0.1818 0 0.3334-0.08083 0.1515-0.08082 0.2627-0.2273 0.1111-0.1465 0.1718-0.3486 0.0606-0.2071 0.0606-0.4597z" style="fill:#808080;stroke-linejoin:round;stroke-width:.8119"/>
 <path transform="rotate(45 4.279 13.94)" d="m182.5 11.93v-5.337h0.8143v0.39h-0.3763v4.557h0.3763v0.39z" style="fill:#666;stroke-linejoin:round;stroke-width:.7698"/>
 <defs>
      <linearGradient id="Gradient1" x1="0" y1="0.5" x2="0.5" y2="0">
        <stop offset="0%" stop-color="#a5ffd4"/>
        <stop offset="100%" stop-color="#fff" stop-opacity="0"/>
      </linearGradient>
  </defs>
 <path class="blinked" transform="translate(44.05 6.234)" d="m92.74 131.6 4.762-18.79 51.59 26.46-11.91 14.02-18.26 10.58-1.323-17.99z" fill="url(#Gradient1)"/>
</svg>
