<svg fill="currentColor" version="1.1" viewBox="0 0 384 514" xmlns="http://www.w3.org/2000/svg">
 <path d="m258.1 13.62h-132.3l-24.2 24.2 24.2 24.2h132.3l24.2-24.2z" style="fill:#a5ffd4"/>
 <path transform="translate(-64.1,1.03)" d="m310.7 283.3v-222.3h-109.4v222.3l-63.5 75.3h236.4z" style="fill:#ccc"/>
 <path d="m308.1 357.6h-232.4l-65.99 78.64 29.94 64.21h304.5l29.94-64.21-66-78.64z" style="fill:#a5ffd4"/>
 <path d="m125.83 0.92969-36.801 36.801 35.631 36.77v205.2l-124.5 148.4 39.59 84.91h304.5l39.59-84.9-0.0391-0.01-124.5-148.4v-205.2l35.629-36.77-36.799-36.801zm-0.0195 25.26h132.3l11.611 11.611-11.611 11.609h-132.3l-11.611-11.609zm24.016 48.414h84.301v209.7l2.9473 8.0957 127.56 151.88-20.291 43.521h-304.56l-20.289-43.521s70.929-84.583 127.39-151.88h-4e-3l2.9453-8.0957v-33.391h29.061l12.59-12.59-12.59-12.59h-29.061v-20.24h29.061l12.59-12.59-12.59-12.59h-29.061v-20.24h29.061l12.59-12.59-12.59-12.59h-29.061z" style="fill:#58595b"/>
 <path d="m253.1 391-38 38 38 38 38-38zm0 50.82-12.81-12.81 12.81-12.81 12.81 12.81z" style="fill:#58595b"/>
</svg>
