<svg fill="currentColor" version="1.1" viewBox="0 0 384 514" xmlns="http://www.w3.org/2000/svg">
 <path d="m258.1 13.62h-132.3l-24.2 24.2 24.2 24.2h132.3l24.2-24.2z" style="fill:#a5ffd4"/>
 <polygon transform="translate(-64.1 1.03)" points="310.7 283.3 310.7 61 201.3 61 201.3 283.3 139.8 356.6 372.2 356.6" style="fill:#ccc"/>
 <path d="m308.1 357.6h-232.4l-65.99 78.64 29.94 64.21h304.5l29.94-64.21-66-78.64z" style="fill:#a5ffd4"/>
 <path d="m383.8 428.1-124.5-148.4v-205.2l35.63-36.77-36.8-36.8h-132.3l-36.8 36.8 35.63 36.77v205.2l-124.5 148.4 39.59 84.91h304.5l39.59-84.9zm-269.6-390.3 11.61-11.61h132.3l11.61 11.61-11.61 11.61h-132.3zm32.68 254.6 2.947-8.096v-33.39h29.06l12.59-12.59-12.59-12.59h-29.06v-20.24h29.06l12.59-12.59-12.59-12.59h-29.06v-20.24h29.06l12.59-12.59-12.59-12.59h-29.06v-60.29h84.3v209.7l2.947 8.096 44.11 52.56h-178.4l44.1-52.56zm197.4 195.4h-304.5l-20.29-43.52 62.22-74.14h220.7l62.22 74.14-20.29 43.52z" style="fill:#58595b"/>
 <path d="m253.1 391-38 38 38 38 38-38zm0 50.82-12.81-12.81 12.81-12.81 12.81 12.81z" style="fill:#58595b"/>
</svg>
