<?xml version="1.0" encoding="UTF-8" standalone="no"?>
<svg xmlns:svg="http://www.w3.org/2000/svg" xmlns="http://www.w3.org/2000/svg" version="1.1" width="1190.6" height="623.62" viewBox="0 0 1190.55 623.62">
<path d="m 575.39,167.16 -146.67,-47.023 13.235,-0.904 61.937,16.907 61.322,20.127 22.269,6.66 91.228,-22.775 -92.942,-25.195 -61.866,-13.832 21.857,-2.175 81.273,17.196 71.535,15.345 12.359,-0.562 28.337,-7.365 12.88,2.013 -32.175,10.391 -15.695,7.393 -53.32,10.808 c 0,0 -20.286,4.9917 -46.187,14.006 l 19.055,5.783 c 11.88,13.196 7.0117,26.745 6.92,44.333 l 52.856,-14.644 46.818,-17.2 47.292,-17.05 c 8.0805,4.1887 2.9535,6.2519 -1.078,14.264 l -27.114,10.143 -36.911,15.491 -51.344,20.378 -30.728,16.813 -0.563,66.734 -0.724,70.555 24.362,-9.672 39.644,-23.526 25.23,-16.452 46.183,-27.462 25.229,-14.965 5.316,2.841 -0.629,15.961 -3.682,5.816 -45.479,30.082 -28.418,18.52 -62.022,40.308 -25.935,22.748 -0.575,47.277 -12.06,8.724 0.043,-29.742 -0.615,-19.373 -14.663,4.765 0.425,-34.034 11.618,-7.972 4.479,-100.02 0.496,-45.39 -32.901,2.657 -24.695,-5.168 -0.655,67.892 -0.655,67.892 -0.511,47.296 -0.511,47.296 -4.633,8.762 -7.397,-12.808 0.58,-72.1 0.58,-72.1 -1.2245,-47.22 -1.2245,-47.22 -46.309,-19.562 -19.742,-8.942 -19.459,-6.872 -3.8702,49.678 -1.3214,58.577 -1.3214,58.577 -1.038,55.274 -13.71838,-4.61618 -7.34962,-11.74382 0.513,-50.725 0.2098,-66.821 -2.3099,-50.643 -2.3099,-50.643 -26.842,-11.882 -5.589,-14.544 c 11.669,3.8808 23.424,7.4686 34.839,12.047 l 9.654,-22.442 10.281,2.866 11.43,31.042 33.559,13.523 49.886,19.924 4.747,-36.782 m 66.222,-3.328 -49.843,4.4828 -4.2842,37.807 25.617,14.845 c 9.2701,1.7999 22.841,-7.7749 31.717,-11.894" style="fill-rule:evenodd"/>
</svg>