<?xml version="1.0" encoding="UTF-8" standalone="no"?>
<svg
   fill="currentColor"
   version="1.1"
   viewBox="0 0 158.8 158.8"
   id="svg1120"
   sodipodi:docname="jidouhanbaiki2.svg"
   inkscape:version="1.2.1 (9c6d41e410, 2022-07-14)"
   xmlns:inkscape="http://www.inkscape.org/namespaces/inkscape"
   xmlns:sodipodi="http://sodipodi.sourceforge.net/DTD/sodipodi-0.dtd"
   xmlns="http://www.w3.org/2000/svg"
   xmlns:svg="http://www.w3.org/2000/svg">
  <defs
     id="defs1124" />
  <sodipodi:namedview
     id="namedview1122"
     pagecolor="#505050"
     bordercolor="#ffffff"
     borderopacity="1"
     inkscape:showpageshadow="0"
     inkscape:pageopacity="0"
     inkscape:pagecheckerboard="1"
     inkscape:deskcolor="#505050"
     showgrid="false"
     inkscape:zoom="2.6353904"
     inkscape:cx="79.305139"
     inkscape:cy="79.305139"
     inkscape:window-width="1920"
     inkscape:window-height="1017"
     inkscape:window-x="-8"
     inkscape:window-y="-8"
     inkscape:window-maximized="1"
     inkscape:current-layer="svg1120" />
  <path
     d="m 35.72,135.2 -30.43,11.91 21.17,10.58 117.7,-24.34 z"
     style="fill:#1a1a1a"
     id="path928"
     sodipodi:nodetypes="ccccc" />
  <path
     d="m 123.7,91.55 9.26,-1.323 9.26,1.323 1.323,7.937 h -21.17 z"
     style="fill:#808080"
     id="path930"
     sodipodi:nodetypes="cccccc" />
  <path
     d="m 125,95.12 3.307,-3.307 3.307,3.307 -3.307,3.307 z"
     style="fill:#1a1a1a"
     id="path932"
     sodipodi:nodetypes="ccccc" />
  <path
     d="m 134.3,94.72 3.307,-3.307 3.307,3.307 -3.307,3.307 z"
     style="fill:#1a1a1a"
     id="path934"
     sodipodi:nodetypes="ccccc" />
  <path
     d="m 134.4,94.06 -0.0786,0.6615 3.307,3.307 3.307,-3.307 -0.0785,-0.6615 -3.229,2.646 -3.229,-2.646 z"
     style="fill:#b3b3b3"
     id="path936"
     sodipodi:nodetypes="cccccccc" />
  <path
     d="m 125.1,94.46 -0.0786,0.6615 3.307,3.307 3.307,-3.307 -0.0785,-0.6615 -3.229,2.646 -3.229,-2.646 z"
     style="fill:#b3b3b3"
     id="path938"
     sodipodi:nodetypes="cccccccc" />
  <path
     d="m 123.7,91.55 -5.292,2.646 -1.323,6.615 5.292,-1.323 z"
     style="fill:#333333"
     id="path940"
     sodipodi:nodetypes="ccccc" />
  <path
     d="m 122.4,99.48 -3.969,7.938 -5.292,-1.323 3.969,-5.292 z"
     style="fill:#1a1a1a"
     id="path942"
     sodipodi:nodetypes="ccccc" />
  <path
     d="m 122.4,99.48 h 21.17 l 2.646,7.938 h -27.78 z"
     style="fill:#999999"
     id="path944"
     sodipodi:nodetypes="ccccc" />
  <path
     d="m 118.4,107.4 h 27.78 l -1.984,25.93 -24.47,1.852 z"
     style="fill:#808080"
     id="path946"
     sodipodi:nodetypes="ccccc" />
  <path
     d="m 118.4,107.4 -5.292,-1.323 1.323,26.46 5.292,2.646 z"
     style="fill:#333333"
     id="path948"
     sodipodi:nodetypes="ccccc" />
  <path
     d="m 55.56,139.2 62.18,-3.969 v -123 L 55.56,0.321 Z"
     style="fill:#4d4d4d"
     id="path950"
     sodipodi:nodetypes="ccccc" />
  <path
     d="m 35.06,11.24 v 124.4 l 19.84,3.969 1e-6,-138.9 z"
     id="path952"
     sodipodi:nodetypes="ccccc" />
  <path
     d="m 64.82,102.1 1.323,-1.323 h 39.69 l 1.323,1.323 v 11.91 h -42.33 z"
     style="fill:#808080"
     id="path954"
     sodipodi:nodetypes="ccccccc" />
  <path
     d="m 64.82,111.4 1.323,-1.323 h 39.69 l 1.323,1.323 v 2.91 h -42.33 z"
     style="fill:#666666"
     id="path956"
     sodipodi:nodetypes="ccccccc" />
  <path
     d="m 62.18,73.02 1.323,-1.323 23.81,0.5292 1.323,1.323 -10e-7,20.64 -1.323,1.323 h -23.81 l -1.323,-1.323 z"
     style="fill:#808080"
     id="path958"
     sodipodi:nodetypes="ccccccccc" />
  <path
     d="m 63.5,71.7 -1.292,1.059 23.78,0.5286 1.323,1.323 v 20.64 l -0.03204,0.2646 H 87.311 l 1.323,-1.323 v -20.64 l -1.323,-1.323 z"
     style="fill:#333333"
     id="path960"
     sodipodi:nodetypes="ccccccccccc" />
  <path
     d="m 60.85,7.408 v 60.32 l 52.92,2.646 v -53.71 l -0.5292,-0.5292 -51.86,-9.26 z"
     style="fill:#808080"
     id="path962"
     sodipodi:nodetypes="ccccccc" />
  <path
     d="m 55.56,134.9 11.91,-0.5291 5.292,-3.175 30.43,-1.323 5.292,2.646 8.202,-0.2646 1.058,0.5292 -62.18,2.646 z"
     style="fill:#1a1a1a"
     id="path964"
     sodipodi:nodetypes="ccccccccc" />
  <path
     d="m 110.6,109.5 h 3.704 v 4.762 H 110.6 Z"
     style="fill:#808080"
     id="path966"
     sodipodi:nodetypes="ccccc" />
  <path
     d="m 114.3,109.5 h 0.2646 v 4.762 H 114.3 Z"
     id="path968"
     sodipodi:nodetypes="ccccc" />
  <path
     d="m 66.15,100.8 -1.323,1.323 v 0.5292 l 1.323,-1.323 38.36,0.2646 1.323,1.058 v 11.38 h 1.323 v -11.91 l -1.323,-1.323 z"
     style="fill:#1a1a1a"
     id="path970"
     sodipodi:nodetypes="ccccccccccc" />
  <path
     d="m 111.7,74.88 1.323,-1.323 1.323,1.323 v 5.292 l -1.323,1.323 -1.323,-1.323 z"
     style="fill:#333333"
     id="path972"
     sodipodi:nodetypes="ccccccc" />
  <path
     d="m 108.5,71.17 -2.119,1.058 h -4.495 l -0.7938,0.7938 v 5.292 l 0.7938,0.7938 h 7.144 l 0.7938,-0.7938 v -2.465 l 1.191,-2.165 -2.514,-2.514 z"
     style="fill:#666666"
     id="path974"
     sodipodi:nodetypes="cccccccccccc" />
  <path
     d="m 108.5,72.23 1.323,1.323 -1.323,1.323 -1.323,-1.323 z"
     style="fill:#4d4d4d"
     id="path976"
     sodipodi:nodetypes="ccccc" />
  <path
     d="m 103.2,75.94 -0.7938,0.7938 -0.7938,-0.7938 0.7938,-0.7938 h 1.852 l 0.5292,-0.5292 h 1.058 l -1.323,1.323 z"
     style="fill:#66ffcc"
     id="path978"
     sodipodi:nodetypes="ccccccccc" />
  <path
     d="m 94.19,79.9 0.2646,-0.2646 h 5.821 l 0.2646,0.2646 v 6.085 l -0.2646,0.2646 h -5.821 L 94.19,85.985 Z"
     style="fill:#999999"
     id="path980"
     sodipodi:nodetypes="ccccccccc" />
  <path
     d="m 94.72,82.55 h 5.292 v 3.175 H 94.72 Z"
     style="fill:#4d4d4d"
     id="path982"
     sodipodi:nodetypes="ccccc" />
  <path
     d="m 100,13.89 13.23,2.381 0.5292,0.5292 v 53.71 l -13.76,-0.5292 z"
     style="fill:#333333"
     id="path984"
     sodipodi:nodetypes="cccccc" />
  <path
     d="m 93.93,76.46 v -3.175 l 0.2646,-0.2646 h 6.085 l 0.2646,0.2646 v 3.175 l -0.2646,0.2646 h -6.085 z"
     style="fill:#333333"
     id="path986"
     sodipodi:nodetypes="ccccccccc" />
  <path
     d="m 66.67,100.8 h -4.301 l -7.072,7.076 -0.0049,1.516 6.824,6.824 h 1.521 v -5.56 l 1.264,-1.264 v -6.824 z"
     style="fill:#1a1a1a;stroke-width:3.796"
     id="path988"
     sodipodi:nodetypes="cccccccccc" />
  <path
     d="m 62.04,118.1 -3.852,3.729 7.458,7.704 1.541,-1.492 0.01645,-1.011 3.082,-2.983 7.581,0.1233 2.983,3.082 -0.01645,1.011 1.492,1.541 7.704,-7.458 -3.729,-3.852 z"
     style="fill:#1a1a1a;stroke-width:3.796"
     id="path990"
     sodipodi:nodetypes="ccccccccccccc" />
  <path
     d="m 70.25,92.19 -0.7165,0.793 2.716,3.919 -5.771,6.346 0.07185,1.515 2.644,2.405 -0.1557,-3.282 1.678,-1.851 1.591,1.443 3.534,-0.1677 1.438,-1.586 1.856,1.683 0.1557,3.282 2.405,-2.644 -0.07185,-1.515 -6.346,-5.771 2.333,-4.159 -0.7982,-0.7212 -3.126,3.438 z"
     style="fill:#1a1a1a;stroke-width:3.796"
     id="path992"
     sodipodi:nodetypes="cccccccccccccccccccc" />
  <path
     d="m 81.83,101 h 4.291 l 7.081,7.076 -0.0049,1.516 -6.824,6.824 h -1.511 v -5.56 l -1.264,-1.264 v -6.824 z"
     style="fill:#1a1a1a;stroke-width:3.796"
     id="path994"
     sodipodi:nodetypes="cccccccccc" />
  <circle
     cx="133.3"
     cy="120.5"
     r="8.9630003"
     style="fill:#66ffcc;paint-order:stroke markers fill"
     id="circle996" />
  <path
     d="m 131.2,115.2 -0.481,0.4856 1.619,2.581 -3.879,3.879 v 0.9697 l 1.619,1.619 v -2.107 l 1.129,-1.132 0.9728,0.9697 h 2.26 l 0.9666,-0.9697 1.135,1.132 v 2.107 l 1.619,-1.619 v -0.9697 l -3.879,-3.879 1.619,-2.581 -0.4887,-0.4856 -2.107,2.107 z"
     style="fill:#4d4d4d"
     id="path998"
     sodipodi:nodetypes="cccccccccccccccccccc" />
  <rect
     x="131.7"
     y="125"
     width="3.2320001"
     height="0.64889997"
     style="fill:#4d4d4d;paint-order:stroke markers fill"
     id="rect1000" />
  <path
     d="m 54.23,94.89 -2.589,-2.385 5.7e-5,-56.37 -2.133,-2.158 -9.867,1.658 -1.531,2.133 v 60.97 l 1.631,1.882 9.767,0.3988 2.133,-2.071 v -4.061 z"
     style="fill:#4d4d4d"
     id="path1002"
     sodipodi:nodetypes="cccccccccccc" />
  <path
     d="m 47.949,47.036 -3.836,-1.588 v 4.586 h -1.014 v -8.819 h 0.8819 l 0.1323,0.3528 v 2.778 l 4.366,1.676 z m -0.08819,-3.881 -1.499,-1.499 0.5733,-0.441 1.499,1.499 z m 1.058,-0.8378 -1.455,-1.455 0.5733,-0.441 1.455,1.455 z"
     id="path1004"
     style="stroke-width:0.1;stroke-linecap:round;stroke-linejoin:round"
     sodipodi:nodetypes="cccccccccccccccccccc" />
  <path
     d="m 47.289,60.706 -3.087,4.763 -0.8819,-0.7497 2.955,-4.057 v -4.41 h 0.926 l 0.08819,0.3528 z m -4.542,0.9701 h -1.014 v -4.983 h 0.9701 l 0.0441,0.3528 z"
     id="path1006"
     style="stroke-width:0.1;stroke-linecap:round;stroke-linejoin:round"
     sodipodi:nodetypes="cccccccccccccc" />
  <path
     d="m 44.899,75.046 -2.866,5.203 -0.7497,-0.8378 2.602,-3.969 v -1.896 h 0.926 l 0.08819,0.3087 v 1.147 l 2.425,-2.337 -7.188,0.2646 -0.08819,-1.014 8.026,-0.2205 0.3087,-0.08819 0.6615,0.7938 -0.2205,0.1323 -3.175,3.219 z"
     id="path1008"
     style="stroke-width:0.1;stroke-linecap:round;stroke-linejoin:round"
     sodipodi:nodetypes="ccccccccccccccccc" />
  <path
     d="m 49.399,89.376 -7.849,5.115 -0.441,0.08819 -0.3528,-1.147 7.717,-4.718 z m -6.218,0 -2.249,-1.808 0.7497,-0.926 2.337,1.896 z"
     id="path1010"
     style="stroke-width:0.1;stroke-linecap:round;stroke-linejoin:round"
     sodipodi:nodetypes="ccccccccccc" />
  <path
     d="m 65.6,46.91 3.578,-1.073 3.578,1.789 v 15.03 l -0.7156,0.7156 -6.082,-0.3578 -0.3578,-0.7156 z"
     style="fill:#333333"
     id="path1014"
     sodipodi:nodetypes="cccccccc" />
  <path
     d="m 68.11,45.87 -2.505,1.035 v 15.38 l 0.3578,0.7156 2.147,0.1265 -1.431,-1.2 v -14.67 z"
     id="path1016"
     sodipodi:nodetypes="cccccccc" />
  <path
     d="m 79,64.08 -0.3881,-0.3881 1.5e-5,-15.14 1.94,-2.329 v -2.717 l 1.94,-0.3881 1.552,0.3881 v 2.717 l 1.94,2.717 -0.3881,15.14 -0.7762,0.7762 z"
     style="fill:#b3b3b3"
     id="path1018"
     sodipodi:nodetypes="cccccccccccc" />
  <path
     d="m 81.22,43.19 -0.7762,0.2562 v 2.717 l -1.94,2.329 v 15.14 l 0.3881,0.3881 0.9937,0.1326 -0.6056,-0.9088 v -13.97 l 1.94,-2.329 z"
     style="fill:#666666"
     id="path1020"
     sodipodi:nodetypes="ccccccccccc" />
  <path
     d="m 98.27,65.48 0.9449,-0.4725 v -8.977 l -1.89,-2.835 v -3.307 l -2.362,-0.4725 -2.362,0.4725 v 2.835 l -1.89,2.835 v 9.449 z"
     id="path1022"
     sodipodi:nodetypes="ccccccccccc" />
  <path
     d="m 62.18,62.84 -1.588,0.5292 v 4.233 l 1.588,-0.2646 z"
     style="fill:#1a1a1a"
     id="path1024"
     sodipodi:nodetypes="ccccc" />
  <path
     d="m 62.18,62.84 v 4.498 l 51.59,2.778 v -3.969 z"
     style="fill:#666666"
     id="path1026"
     sodipodi:nodetypes="ccccc" />
  <path
     d="m 62.71,65.22 0.5292,-0.5292 49.21,2.778 0.5292,0.5292 v 1.323 l -0.5292,0.5292 -49.21,-2.778 L 62.71,66.543 Z"
     style="fill:#4d4d4d"
     id="path1028"
     sodipodi:nodetypes="ccccccccc" />
  <path
     d="m 62.44,63.9 v 0.5292 l 51.06,2.778 V 66.678 Z"
     style="fill:#808080"
     id="path1030"
     sodipodi:nodetypes="ccccc" />
  <path
     d="m 61.12,67.6 1.588,-0.2646 51.06,2.778 -0.5292,0.2646 z"
     id="path1032"
     sodipodi:nodetypes="ccccc" />
  <path
     d="m 64.83,65.41 -0.5648,0.491 0.491,0.5648 2.112,0.1477 0.5648,-0.491 -0.491,-0.5648 z"
     style="fill:#999999"
     id="path1034"
     sodipodi:nodetypes="ccccccc" />
  <path
     d="m 70.64,65.75 -0.5648,0.491 0.491,0.5648 2.112,0.1477 0.5648,-0.491 -0.491,-0.5648 z"
     style="fill:#999999"
     id="path1036"
     sodipodi:nodetypes="ccccccc" />
  <path
     d="m 77.29,66.32 -0.5648,0.491 0.491,0.5648 2.112,0.1477 0.5648,-0.491 -0.491,-0.5648 z"
     style="fill:#999999"
     id="path1038"
     sodipodi:nodetypes="ccccccc" />
  <path
     d="m 83.42,66.74 -0.5648,0.491 0.491,0.5648 2.112,0.1477 0.5648,-0.491 -0.491,-0.5648 z"
     style="fill:#999999"
     id="path1040"
     sodipodi:nodetypes="ccccccc" />
  <path
     d="m 89.16,66.94 -0.5648,0.491 0.491,0.5648 2.112,0.1477 0.5648,-0.491 -0.491,-0.5648 z"
     style="fill:#999999"
     id="path1042"
     sodipodi:nodetypes="ccccccc" />
  <path
     d="m 94.8,67.13 -0.5648,0.491 0.491,0.5648 2.112,0.1477 0.5648,-0.491 -0.491,-0.5648 z"
     style="fill:#999999"
     id="path1044"
     sodipodi:nodetypes="ccccccc" />
  <path
     d="m 101.1,67.66 -0.5648,0.491 0.491,0.5648 2.112,0.1477 0.5648,-0.491 -0.491,-0.5648 z"
     style="fill:#999999"
     id="path1046"
     sodipodi:nodetypes="ccccccc" />
  <path
     d="m 107.7,67.92 -0.5648,0.491 0.491,0.5648 2.112,0.1477 0.5648,-0.491 -0.491,-0.5648 z"
     style="fill:#999999"
     id="path1048"
     sodipodi:nodetypes="ccccccc" />
  <path
     d="m 65.93,19.92 3.417,-1.025 3.417,1.708 v 14.35 l -0.6834,0.6834 -5.809,-0.3417 -0.3417,-0.6834 z"
     style="fill:#999999"
     id="path1050"
     sodipodi:nodetypes="cccccccc" />
  <path
     d="m 68.32,18.93 -2.392,0.9884 v 14.69 l 0.3417,0.6834 2.05,0.1208 -1.367,-1.146 v -14.01 z"
     style="fill:#666666"
     id="path1052"
     sodipodi:nodetypes="cccccccc" />
  <path
     d="m 78.59,35.83 -0.411,-0.411 1.6e-5,-16.03 2.055,-2.466 v -2.877 l 2.055,-0.411 1.644,0.411 v 2.877 l 2.055,2.877 0.004,15.91 -0.8219,0.822 z"
     style="fill:#666666"
     id="path1054"
     sodipodi:nodetypes="cccccccccccc" />
  <path
     d="m 80.94,13.71 -0.822,0.2713 v 2.877 l -2.055,2.466 v 16.03 l 0.411,0.411 1.052,0.1405 -0.6414,-0.9624 v -14.8 l 2.055,-2.466 z"
     style="fill:#1a1a1a"
     id="path1056"
     sodipodi:nodetypes="ccccccccccc" />
  <path
     d="m 98.02,37.38 0.9297,-0.4648 v -8.832 l -1.859,-2.789 v -3.254 l -2.324,-0.4648 -2.324,0.4648 v 2.789 l -1.859,2.789 v 9.297 z"
     style="fill:#333333"
     id="path1058"
     sodipodi:nodetypes="ccccccccccc" />
  <path
     d="m 94.77,21.17 -2.557,0.5113 v 3.068 l 2.557,-0.5113 2.557,0.5113 v -3.068 z"
     style="fill:#4d4d4d"
     id="path1060"
     sodipodi:nodetypes="ccccccc" />
  <path
     d="m 95.07,49.28 -2.557,0.5113 v 3.068 l 2.557,-0.5113 2.557,0.5113 v -3.068 z"
     style="fill:#4d4d4d"
     id="path1062"
     sodipodi:nodetypes="ccccccc" />
  <path
     d="m 61.91,34.73 -1.588,0.5292 v 4.233 l 1.588,-0.2646 z"
     style="fill:#1a1a1a"
     id="path1064"
     sodipodi:nodetypes="ccccc" />
  <path
     d="m 61.91,34.73 v 4.498 l 52.13,3.63 v -3.969 z"
     style="fill:#666666"
     id="path1066"
     sodipodi:nodetypes="ccccc" />
  <path
     d="m 62.44,37.12 0.5292,-0.5292 50.01,3.63 0.5292,0.5292 v 1.323 l -0.5292,0.5292 -50.01,-3.63 L 62.44,38.443 Z"
     style="fill:#4d4d4d"
     id="path1068"
     sodipodi:nodetypes="ccccccccc" />
  <path
     d="m 62.17,35.79 v 0.5292 l 51.6,3.63 V 39.42 Z"
     style="fill:#808080"
     id="path1070"
     sodipodi:nodetypes="ccccc" />
  <path
     d="m 60.85,39.5 1.588,-0.2646 51.6,3.63 -0.5292,0.2646 z"
     id="path1072"
     sodipodi:nodetypes="ccccc" />
  <path
     d="m 64.56,37.31 -0.5648,0.491 0.491,0.5648 2.112,0.1477 0.5648,-0.491 -0.491,-0.5648 z"
     style="fill:#999999"
     id="path1074"
     sodipodi:nodetypes="ccccccc" />
  <path
     d="m 76.81,38.22 -0.5648,0.491 0.491,0.5648 2.112,0.1477 0.5648,-0.491 -0.491,-0.5648 z"
     style="fill:#999999"
     id="path1076"
     sodipodi:nodetypes="ccccccc" />
  <path
     d="m 70.72,37.69 -0.5648,0.491 0.491,0.5648 2.112,0.1477 0.5648,-0.491 -0.491,-0.5648 z"
     style="fill:#999999"
     id="path1078"
     sodipodi:nodetypes="ccccccc" />
  <path
     d="m 83.12,38.71 -0.5648,0.491 0.491,0.5648 2.112,0.1477 0.5648,-0.491 -0.491,-0.5648 z"
     style="fill:#999999"
     id="path1080"
     sodipodi:nodetypes="ccccccc" />
  <path
     d="m 88.98,39.09 -0.5648,0.491 0.491,0.5648 2.112,0.1477 0.5648,-0.491 -0.491,-0.5648 z"
     style="fill:#999999"
     id="path1082"
     sodipodi:nodetypes="ccccccc" />
  <path
     d="m 94.79,39.43 -0.5648,0.491 0.491,0.5648 2.112,0.1477 0.5648,-0.491 -0.491,-0.5648 z"
     style="fill:#999999"
     id="path1084"
     sodipodi:nodetypes="ccccccc" />
  <path
     d="m 100.9,39.95 -0.5648,0.491 0.491,0.5648 2.112,0.1477 0.5648,-0.491 -0.491,-0.5648 z"
     style="fill:#999999"
     id="path1086"
     sodipodi:nodetypes="ccccccc" />
  <path
     d="m 106.6,40.29 -0.5648,0.491 0.491,0.5648 2.112,0.1477 0.5648,-0.491 -0.491,-0.5648 z"
     style="fill:#999999"
     id="path1088"
     sodipodi:nodetypes="ccccccc" />
  <path
     d="m 78.04,22.25 v 7.95 h 7.95 v -7.95 l -4.11,-0.5014 z m 6.057,3.609 1.062,0.5981 -0.5817,0.3735 -0.4808,-0.3205 -0.3571,0.3205 0.4593,0.453 0.1868,0.08 0.9931,1.174 -1.238,1.041 -1.363,-0.7634 0.607,-0.3533 0.7369,0.4543 0.5073,-0.3685 -0.5439,-0.4959 -0.1868,-0.08012 -0.8972,-1.126 1.094,-0.9868 z m -2.473,0.04266 h 0.747 v 2.549 l -1.115,1.126 -1.121,-0.6827 0.6082,-0.3685 0.4808,0.3836 0.4,-0.4694 v -2.536 z"
     style="stroke-width:0.01262"
     id="path1090"
     sodipodi:nodetypes="cccccccccccccccccccccccccccccccccc" />
  <path
     d="m 72.50145,26.55082 -1.223651,-0.978809 -0.239951,-1.544237 -0.266084,-0.06652 v 0.264911 l 0.135418,0.03088 0.177007,0.899152 -0.06059,0.349375 -0.754371,-0.129493 -0.494156,-0.593937 0.997815,-0.557044 v -0.26491 L 69.58613,24.596889 68.399373,23.96494 v 0.26491 l 0.997815,0.553689 -0.490522,0.59282 -0.755489,0.130666 -0.06177,-0.344623 0.173429,-0.900549 0.13662,-0.03089 v -0.26491 l -0.26846,0.06652 -0.236401,1.544237 -1.223651,0.977691 1.223651,0.978809 0.239951,1.544238 0.267286,0.06652 1.186757,-0.636701 1.186757,0.631949 0.26846,-0.06652 0.236401,-1.544237 1.211632,-0.977691 z m -1.544238,-0.792383 -0.160377,0.469281 -0.155625,-0.28509 -0.171054,-0.277963 0.487168,0.09386 z m -0.544186,1.259148 -0.286208,0.453908 -0.536919,0.02376 -0.534684,-0.02257 -0.287606,-0.451393 -0.247077,-0.472914 0.245904,-0.474032 0.286208,-0.453908 0.536919,-0.02376 0.534684,0.02257 0.287605,0.451392 0.247078,0.472914 -0.245904,0.474032 z m 0.383753,-0.154424 0.163927,0.472914 -0.489404,0.09503 0.171054,-0.281456 0.154423,-0.286208 z m -1.199893,1.271166 -0.330369,-0.38012 0.326736,0.0083 0.330368,-0.0083 z m -0.883779,-0.699588 -0.487169,-0.09386 0.160378,-0.469281 0.155625,0.28509 0.171054,0.277963 z m 0.877909,-2.47078 0.330369,0.38012 -0.326735,-0.0083 -0.330369,0.0083 z m -0.879027,0.699588 -0.171054,0.281457 -0.154424,0.28509 -0.163927,-0.472914 0.489405,-0.09386 z m -1.074957,1.484984 -0.692601,-0.601205 0.692601,-0.601204 0.328971,-0.11999 0.267286,0.723346 -0.263708,0.719992 -0.332605,-0.121163 z m 0.639216,1.698801 -0.177007,-0.899152 0.0606,-0.349375 0.75437,0.129493 0.494156,0.593937 -0.997815,0.557044 -0.134244,-0.03209 z m 2.814565,-0.905301 -0.173429,0.900549 -0.13662,0.03088 -0.997815,-0.553689 0.490523,-0.59282 0.755488,-0.130666 0.06177,0.345741 z m 0.457262,-0.792382 -0.328971,0.119989 -0.267286,-0.723346 0.263708,-0.719992 0.333723,0.121163 0.692601,0.601205 -0.693719,0.601204 z"
     style="stroke-width:0.0118788"
     id="path1092"
     sodipodi:nodetypes="cccccccccccccccccccccccccccccccccccccccccccccccccccccccccccccccccccccccccccccccccccccccccccccccccccccccccccccccccc" />
  <circle
     cx="69.566704"
     cy="26.550819"
     r="0.54278898"
     style="stroke-width:0.0118788"
     id="circle1094" />
  <path
     d="m 67.460743,58.403319 -0.09301,-0.445454 0.122378,-0.641258 0.342657,-0.47972 0.513985,-0.298601 0.636363,-0.102797 0.646153,0.102797 0.518881,0.298601 0.347552,0.47972 0.127273,0.641258 -0.07343,0.460139 -0.210489,0.406294 -0.812587,0.440559 v -0.651049 l 0.391608,-0.234964 0.132168,-0.420979 -0.08811,-0.391608 -0.23986,-0.25944 -0.342657,-0.146853 -0.396503,-0.04406 -0.381818,0.04406 -0.332867,0.146853 -0.234964,0.25944 -0.08811,0.391608 0.171328,0.523776 0.494405,0.215384 v -0.685314 h 0.513986 v 1.302097 h -1.679019 v -0.435664 l 0.352447,-0.06853 -0.337762,-0.406293 z"
     style="fill:#cccccc;stroke-width:0.048951"
     id="path1098"
     sodipodi:nodetypes="cccccccccccccccccccccccccccccccccc" />
  <polygon
     transform="matrix(0,0.048951,-0.048951,0,81.215974,41.936203)"
     points="409,270 409,281 364,281 364,218 378,218 378,270 "
     style="fill:#cccccc"
     id="polygon1100" />
  <polygon
     transform="matrix(0,0.048951,-0.048951,0,81.215974,41.936203)"
     points="207,213 195,213 183,266 168,213 157,213 142,266 130,213 118,213 136,282 147,282 162,228 178,282 188,282 "
     style="fill:#cccccc"
     id="polygon1102" />
  <path
     d="m 69.350252,53.55717 0.26923,-0.308391 0.09301,-0.430769 -0.0979,-0.484615 -0.269231,-0.337762 -0.881118,-0.25944 -0.445454,0.06853 -0.357342,0.195804 -0.323077,0.748951 0.05385,0.406293 0.102797,0.210489 0.161538,0.186014 0.176224,0.122377 0.27902,0.102798 0.03916,0.0049 V 53.34179 l -0.02937,-0.0049 -0.401398,-0.533566 0.651049,-0.602098 v 1.605593 h 0.03426 l 0.533566,-0.05874 0.411189,-0.190909 z m -0.03427,-0.793006 -0.582517,0.577622 v -1.145454 z"
     style="fill:#cccccc;stroke-width:0.048951"
     id="path1104"
     sodipodi:nodetypes="cccccccccccccccccccccccccccc" />
  <path
     d="m 69.027175,56.053671 0.357342,-0.186014 0.23986,-0.303496 0.08811,-0.406293 -0.08811,-0.372028 -0.195804,-0.23986 h 1.037761 v -0.440559 h -3.069227 v 0.416084 h 0.210489 l -0.141958,0.146853 -0.127273,0.435664 0.122378,0.484614 0.308391,0.313287 0.406294,0.166433 0.420978,0.04895 0.430769,-0.06364 z m -0.4993,-0.396503 -0.582517,-0.141958 -0.225175,-0.420979 0.7,-0.567831 0.582516,0.09301 0.308392,0.469929 -0.283916,0.484615 -0.4993,0.08322 z"
     style="fill:#cccccc;stroke-width:0.048951"
     id="path1106"
     sodipodi:nodetypes="cccccccccccccccccccccccccccc" />
  <path
     d="m 95.09,28.04 -2.871,1.623 1.018,0.5879 0.01468,-0.0082 1.834,-1.009 z m 0.2458,0 v 1.192 l 1.834,1.009 0.01468,0.0083 1.018,-0.587 z m -0.1229,1.403 -1.724,0.9447 1.724,0.9998 1.724,-0.9998 z m -3.109,0.4329 v 3.311 l 1.027,-0.5907 v -2.128 z m 6.228,0 -1.027,0.5916 v 2.128 l 1.027,0.5907 z m -4.953,0.7329 v 1.871 l 1.724,0.9447 v -1.825 z m 3.687,0 -1.724,0.9906 v 1.825 l 1.724,-0.9447 z m -3.715,2.146 -1.055,0.609 2.798,1.587 v -1.229 z m 3.733,0 -1.743,0.9631 v 1.229 l 2.798,-1.587 z"
     style="fill:#cccccc;stroke-width:0.009172"
     id="path1112"
     sodipodi:nodetypes="ccccccccccccccccccccccccccccccccccccccccccccccc" />
  <path
     d="m 81.75,52.51 0.7639,2.249 -0.2122,1.256 -0.3331,0.3926 -0.6706,0.4308 -0.2398,-0.696 0.0082,-0.01948 0.01571,-0.03735 -0.07443,-1.319881 -0.634272,1.159881 -0.07218,0.1496 -0.2971,0.8064 0.4477,1.339 0.713,0.2271 1.358,-0.4499 0.9846,-0.4074 0.382,-0.06748 0.7809,-0.2186 0.5284,-0.7491 -0.1466,-0.766 0.1008,-0.3586 -0.5602,-0.6769 0.7639,-2.249 h -3.607 z m 0.3777,0.2695 h 2.843 l -0.6727,1.986 -0.08487,0.02653 -0.6642,-1.358 -0.6663,1.35 -0.08914,-0.0244 -0.6705,-1.98 z m 1.426,1.267 0.4371,0.8912 0.8679,1.061 0.07531,0.5135 4.19e-4,-4.22e-4 -0.3968,0.5623 -0.6833,0.1844 -0.4074,0.07258 -1.04,0.4265 -1.797,0.2419 -0.3353,-1.072 0.2716,-0.7321 0.05727,-0.119 0.1778,0.04477 0.4456,0.9867 0.05221,0.02694 0.05517,-0.01948 0.8233,-0.5093 0.4074,-0.4923 0.5602,-1.195 0.4329,-0.8743 z m -0.8891,0.9697 -0.418,0.418 z m 1.797,0 h 0.0048 l 0.418,0.418 -0.4223,-0.418 z m -3.607,0.0029 v 0.0013 l -0.418,0.4159 0.418,-0.418 z"
     style="stroke-width:0.2122"
     id="path1114"
     sodipodi:nodetypes="ccccccccccccccccccccccccccccccccccccccccccccccccccccccccccccccccccccc" />
  <path
     d="m 91.95,56.22 0.5787,6.49 2.593,0.7208 2.608,-0.7208 0.5787,-6.49 -3.179,-0.4803 -3.179,0.4803 z m 1.15,1.22 4.073,2.9e-5 -0.0083,1.861 -0.0023,0.2901 -0.0068,1.449 -2.036,0.7222 -2.022,-0.7222 0.0037,-0.9625 h 0.8028 l -9.78e-4,0.397 1.225,0.4366 1.232,-0.4366 0.0042,-0.9156 h -3.267 l 0.0023,-0.8028 h 3.267 l 9.78e-4,-0.5186 h -3.267 l 0.0046,-0.8028 z"
     style="fill:#cccccc;stroke-width:0.01465"
     id="path1116"
     sodipodi:nodetypes="cccccccccccccccccccccccccccc" />
</svg>
