<svg fill="currentColor" version="1.1" viewBox="0 0 500 400" xmlns="http://www.w3.org/2000/svg">
 <path d="m60 50-60 60v198l60 52h380l60-52v-198l-60-60z" style="fill:#58595b;stroke-width:1.8898"/>
 <path d="m76.522 61.304-54.783 54.783v127.83l54.783 54.783h346.96l54.783-54.783v-127.83l-54.783-54.783z" style="fill:#ccc;stroke-width:1.7254"/>
 <path d="m115.99 94.736v61.258h-61.258v49.006h61.258v61.258h49.006v-61.258h61.258v-49.006h-61.258v-61.258z" style="fill:#a5ffd4;stroke-width:1.9618"/>
 <path d="m350 90-38 38 38 38 38-38zm0 50.82-12.81-12.81 12.81-12.81 12.81 12.81z" style="fill:#58595b"/>
 <path d="m300 142-38 38 38 38 38-38z" style="fill:#58595b"/>
 <path d="m401 141-38 38 38 38 38-38z" style="fill:#58595b"/>
 <path d="m348 192-38 38 38 38 38-38zm0 50.82-12.81-12.81 12.81-12.81 12.81 12.81z" style="fill:#58595b"/>
</svg>
