<svg fill="currentColor" version="1.1" viewBox="0 0 464 512" xmlns="http://www.w3.org/2000/svg">
 <path d="m232.77 66.537-232.06 81.767v326.1l36.64 36.64h199.87z" style="fill:#b3b3b3;stroke-width:.9961"/>
 <path d="m463.3 148.3-230.5-81.767-3.4195 444.49h197.2l36.64-36.64z" style="fill:#808080;stroke-width:.9961"/>
 <path d="m368.62 0.968-273.22 0.077 136.7 175.42z" style="fill:#ccc;stroke-width:.9961"/>
 <path d="m229.4 244.29 0.00196 0.00781v-0.00781h-0.00196zm0.00196 0.00781v0.00586h0.00195l-0.00195-0.00586zm0 0.00586h-23.938l-30.131 139.3 45.396 50.26h0.00782l0.00781 0.10156h11.23 11.23l45.396-50.262-32.404-139.3h-26.795l-0.00195-0.09961z" style="fill:#a5ffd4;stroke-width:.9961"/>
 <path d="m237.2 263.4h-15.33l-37.09-37.09v-4.304l44.75-44.75 42.6 42.6v8.61l-34.93 34.93z" style="fill:#a5ffd4;stroke-width:.9961"/>
 <path d="m239.1 178.4-6e-3 -46.96-143.69-130.4-33.28 106.59 49.199 132.85 54.608 11.426 73.2-73.52z" style="fill:#808080;stroke-width:.9961"/>
 <path d="m368.62 0.968-143.69 130.4-6e-3 46.96 73.2 73.52 54.608-11.426 49.038-127.93z" style="fill:#666;stroke-width:.9961"/>
 <path d="m429.04 472.2 0.00449-93.933h-89.85v61.47l32.76 32.76z" style="fill:#93a1ab;stroke-width:.9961"/>
 <path d="m438.85 384.27-110.34-8e-3v-11.975l110.69 0.0365z" style="fill:#666;stroke-width:.65155"/>
</svg>
