<svg width="60" height="16" version="1.1" viewBox="0 0 60 16" xmlns="http://www.w3.org/2000/svg">
 <path d="m1.1259 10.649 6.5676-5.5825 11.306-3.706 22.846 0.14074 11.353 4.1751 5.301 4.8788z" style="fill:#6fc"/>
 <path d="m20.8 0.254c-6.02 0-11.9 2.11-16.5 5.95-2.4 1.98-4.42 3.91-4.41 4.72-0.00112 2.02 4.57 3.7 6.59 3.7l3.08 8.18e-4c0.38 0.727 1.13 1.22 2.01 1.22 0.874 0 1.63-0.5 2.01-1.22h5.17c0.38 0.727 1.13 1.22 2.01 1.22 0.874 0 1.63-0.5 2.01-1.22h5.17c0.38 0.727 1.13 1.22 2.01 1.22 0.874 0 1.63-0.5 2.01-1.22h5.23c0.38 0.727 1.13 1.22 2.01 1.22 0.874 0 1.63-0.5 2.01-1.22h5.17c0.38 0.727 1.13 1.22 2.01 1.22s1.63-0.5 2.01-1.22l3.08-8.18e-4c2.03 0 6.59-1.68 6.59-3.7 4.89e-4 -0.825-2.02-2.74-4.41-4.72-4.63-3.84-10.5-5.95-16.5-5.95zm-17.1 9.43c0.507-0.467 1.15-1.03 1.99-1.73 0.208-0.172 0.43-0.324 0.643-0.488h7.48c0.985 0 1.78-0.797 1.78-1.78v-2.57c1.68-0.379 3.41-0.597 5.16-0.597h18.4c1.75 0 3.47 0.217 5.16 0.597v2.57c0 0.985 0.797 1.78 1.78 1.78h7.48c0.212 0.165 0.435 0.316 0.643 0.488 0.839 0.698 1.49 1.26 1.99 1.73z" style="fill:#fff6d5;stroke-width:.0699"/>
 <path d="m28.8 7.59h2.45c0.116 0 0.21-0.0943 0.21-0.21v-2.45c0-0.116-0.0943-0.21-0.21-0.21h-2.45c-0.116 0-0.21 0.0943-0.21 0.21v2.45c-7.1e-5 0.116 0.0936 0.21 0.21 0.21z" style="fill:#fff6d5;stroke-width:.0699"/>
 <path d="m34.1 7.59h2.45c0.116 0 0.21-0.0943 0.21-0.21v-2.45c0-0.116-0.0944-0.21-0.21-0.21h-2.45c-0.116 0-0.21 0.0943-0.21 0.21v2.45c0 0.116 0.0944 0.21 0.21 0.21z" style="fill:#fff6d5;stroke-width:.0699"/>
 <path d="m39.5 7.59h2.45c0.116 0 0.21-0.0943 0.21-0.21v-2.45c0-0.116-0.0944-0.21-0.21-0.21h-2.45c-0.116 0-0.21 0.0943-0.21 0.21v2.45c0 0.116 0.0944 0.21 0.21 0.21z" style="fill:#fff6d5;stroke-width:.0699"/>
 <path d="m20.5 7.59h-2.45c-0.116 0-0.21-0.0943-0.21-0.21v-2.45c0-0.116 0.0943-0.21 0.21-0.21h2.45c0.116 0 0.21 0.0943 0.21 0.21v2.45c0 0.116-0.0944 0.21-0.21 0.21z" style="fill:#fff6d5;stroke-width:.0699"/>
 <path d="m25.9 7.59h-2.45c-0.116 0-0.21-0.0943-0.21-0.21v-2.45c0-0.116 0.0943-0.21 0.21-0.21h2.45c0.116 0 0.21 0.0943 0.21 0.21v2.45c0 0.116-0.0944 0.21-0.21 0.21z" style="fill:#fff6d5;stroke-width:.0699"/>
</svg>
