<svg version="1.1" viewBox="50 20 160 210" xmlns="http://www.w3.org/2000/svg">
 <ellipse class="mode" cx="127" cy="63.5" rx="26.02" ry="25.93"/>
 <ellipse class="mode" cx="126" cy="208" rx="60" ry="20"/>
 <ellipse cx="139.4" cy="146.4" rx="70.11" ry="26.33" style="fill:#e6e6e6"/>
 <path d="m164.3 121.8-37.83 50.48a70.11 26.33 0 0 0 12.97 0.462 70.11 26.33 0 0 0 70.11-26.33 70.11 26.33 0 0 0-45.26-24.62z" style="fill:#ccc;stroke-width:1.855"/>
 <path d="m139.4 133.6c-29.7 4.8e-4 -56.18 11.44-66.09 19.84 9.894 8.406 36.38 19.85 66.09 19.85 29.72-3e-3 56.2-11.45 66.09-19.85-9.915-8.398-36.39-19.83-66.09-19.83z" style="fill:#fff;stroke-width:1.855"/>
 <g class="hashi2">
  <path d="m72.97 63.25 1.133-3.959 1.594-0.9496 110.6 35.78-0.463 1.429z" style="fill:#fff"/>
  <path d="m75.69 58.34-1.594 0.9498 5.901 1.832-1.096 3.827 1.188 0.34 1.088-3.8 1.967 0.6108-1.019 3.558 1.188 0.34 1.011-3.532 101.9 31.66-0.1085-0.5814z"/>
 </g>
 <polygon transform="matrix(.6648 0 0 .6648 -154.4 -5.316)" points="476.5 240.5 440 242.4 440 244.9 477.3 266.5 500.9 252.8 504.9 250.5 504.9 248 497.8 247.5" style="fill:#ececec"/>
 <polygon transform="matrix(.6648 0 0 .6648 -154.4 -5.316)" points="500.9 250.3 504.9 248 467.6 226.5 440 242.4 477.3 264" style="fill:#ccc"/>
 <polygon transform="matrix(.6648 0 0 .6648 -154.4 -5.316)" points="476.3 259.8 492.7 250.4 463.6 233.6 447.2 243.1" style="fill:#808080"/>
 <polygon transform="matrix(.6648 0 0 .6648 -154.4 -5.316)" points="475.4 265.3 473.3 238 475.2 236.7 477.3 264" style="fill:#e6e6e6"/>
 <polygon transform="matrix(.6648 0 0 .6648 -154.4 -5.316)" points="438.1 243.8 436 216.5 473.3 238 475.4 265.3" style="fill:#808080"/>
 <polygon transform="matrix(.6648 0 0 .6648 -154.4 -5.316)" points="436 216.5 437.9 215.1 475.2 236.7 473.3 238" style="fill:#ccc"/>
 <g class="egg">
  <path transform="rotate(-12 104.6 85.32)" d="m119.1 153.6a11.82 6.982 0 0 1-5.912 6.046 11.82 6.982 0 0 1-11.82 0 11.82 6.982 0 0 1-5.912-6.046h11.82z" style="fill:#ccc"/>
  <ellipse transform="rotate(-12 104.6 85.32)" cx="107.3" cy="153.5" rx="11.81" ry="5.774" style="fill:#fff"/>
  <ellipse transform="rotate(-12 104.6 85.32)" cx="110.9" cy="153.2" rx="4.46" ry="3.499" style="fill:#666"/>
 </g>
 <path d="m101.2 151.6-2.745 0.4032-1.716 1.073-2.555-0.6159-2.848 0.1959-0.8687-1.274-2.313-0.7962v-0.8l13.95-1.494v0.8l-1.327 1.186z" style="fill:#999;stroke-width:.1954"/>
 <path d="m101.2 150.8-2.745 0.4032-1.716 1.073-2.555-0.6159-2.848 0.1959-0.8687-1.274-2.313-0.7962 1.327-1.186-0.4222-1.322 2.745-0.4032 1.716-1.073 2.555 0.6159 2.848-0.1959 0.8687 1.274 2.313 0.7962-1.327 1.186z" style="fill:#ccc;stroke-width:.1954"/>
 <path d="m94.79 147.3-2.703 0.9833 1.167 2.307 3.36-0.6044-0.9362-1.555-1.186-0.0147-0.8405 0.4935 0.05806 0.4743 0.7043 0.2878 0.6294-0.2984-0.1938-0.186-0.4136 0.2485-0.3544-0.1515-0.03844-0.3051 0.5888-0.3415 0.8891 0.0109 0.7223 1.236-2.803 0.4947-0.9914-1.985 3.539-0.6447 2.238 1.464 0.407-0.0279-1.898-1.643-1.944-0.243z" style="-inkscape-stroke:none;color:#000000;fill-rule:evenodd;fill:#999;stroke-width:.07776"/>
 <path class="motif motif1" d="m89.48 96.38-1.637 1.637-1.637-1.637-0.4677 0.4677 1.637 1.637-1.637 1.637 0.4677 0.4677 1.637-1.637 1.637 1.637 0.4677-0.4677-1.637-1.637 1.637-1.637z" style="fill:#666"/>
 <path class="motif motif2" d="m140.1 105.8v2.315h-2.315v0.6615h2.315v2.315h0.6615v-2.315h2.315v-0.6615h-2.315v-2.315z" style="fill:#808080"/>
 <g class="motif motif3">
  <path d="m97.91 119.5a1.352 1.352 0 0 1-1.352 1.352 1.352 1.352 0 0 1-1.352-1.352 1.352 1.352 0 0 1 1.352-1.352 1.352 1.352 0 0 1 1.352 1.352z" style="fill:none;stroke-width:.1792;stroke:#4d4d4d"/>
  <path d="m97.1 119.5a0.5407 0.5407 0 0 1-0.5407 0.5407 0.5407 0.5407 0 0 1-0.5407-0.5407 0.5407 0.5407 0 0 1 0.5407-0.5407 0.5407 0.5407 0 0 1 0.5407 0.5407z" style="fill:#808080;stroke-width:.1792"/>
 </g>
 <path class="smoke smoke1" d="m104.4 141-4.057-6.085 8.114-12.17-8.114-12.17 8.114-12.17-8.114-12.17" style="fill:none;stroke-linecap:round;stroke-linejoin:round;stroke-width:.6722;stroke:#999"/>
 <path class="smoke smoke2" d="m112.5 141-4.057-6.085 8.114-12.17-8.114-12.17 8.114-12.17-8.114-12.17" style="fill:none;stroke-linecap:round;stroke-linejoin:round;stroke-width:.6722;stroke:#ccc"/>
 <path class="smoke smoke3" d="m120.7 141-4.057-6.085 8.114-12.17-8.114-12.17 8.114-12.17-4.057-6.085" style="fill:none;stroke-linecap:round;stroke-linejoin:round;stroke-width:.6722;stroke:#999"/>
 <path class="smoke smoke4" d="m128.8 141-4.057-6.085 8.114-12.17-8.114-12.17 8.114-12.17" style="fill:none;stroke-linecap:round;stroke-linejoin:round;stroke-width:.6722;stroke:#ccc"/>
 <path d="m114.2 167.9-2.687-4.669-2.237-3.272-1.07-1.278-2.601-1.884-2.7-0.3798-5.028 0.4279-7.41 0.2864-2.14-0.1831-1.948-0.4386-1.653-0.6705-2.669-2.468-0.1601-1.344 0.1216-0.7842-0.4984-0.0834-0.1643 0.8595 0.1908 1.597 2.842 2.738 1.722 0.7241 2.013 0.4741 2.179 0.1989 7.774-0.3684 4.672-0.4334 2.548 0.3065 2.404 1.757 1.037 1.255 2.208 3.248 2.753 4.569 0.501-0.1865z" style="fill:#808080"/>
 <path d="m79.82 154.4-0.02325 8e-3 -0.1643 0.8594 0.1907 1.597 0.04289 0.0951 1.162 0.7183-0.6945-1.058-0.1602-1.344 0.122-0.7844-0.4754-0.0915zm21.05 5.263-4.711 0.4315-7.41 0.2863-2.14-0.1829-1.629-0.3622 2.253 1.07 1.352 0.0951 7.774-0.3684 4.672-0.4336 2.549 0.3064 2.404 1.758 1.037 1.255 2.208 3.248 0.88 1.4 0.8274 0.1633-1.141-1.85-2.237-3.272-1.07-1.277-2.601-1.884-2.7-0.3798-0.3163-4e-3z" style="fill:#b3b3b3"/>
 <path d="m98.41 162.3-4.711 0.4315-1.722 0.1385 1.215 0.4692 0.7069-0.0703 4.672-0.4336 2.549 0.3064 2.404 1.758 1.037 1.255 0.6253 0.848 0.9147 0.2258-1.002-1.384-1.071-1.277-2.6-1.884-2.7-0.3798-0.3163-4e-3z" style="fill:#808080"/>
 <path d="m154.4 168.8-13.53-6.188-3.393-1.359-3.065-0.9792-5.263-0.5083-4.722 1.084-2.719 1.778-3.087 2.599-1.211 0.4539-0.6378 4e-3 -0.1769 0.4923 1.067-0.0206 1.331-0.5205 3.137-2.59 2.615-1.652 4.032-1.014 5.29 0.506 3.013 0.9808 3.361 1.379 13.63 6.027 0.3303-0.4719z" style="fill:#b3b3b3"/>
 <path d="m125.2 164.9-2.72 1.778-3.087 2.599-1.211 0.4537-0.6377 4e-3 -0.1137 0.2341 1.199 0.1809 1.136-0.4641 3.137-2.59 2.614-1.652 4.032-1.014 5.29 0.5059 3.013 0.9808 3.361 1.379 9.269 4.113 1.429-0.1002-10.27-4.646-3.393-1.359-3.065-0.9793-2.877-0.508-3.359-0.0718z" style="fill:#808080"/>
 <path d="m125.5 169.1-2.583 1.673 0.8568 0.094 2.044-1.223 4.032-1.014 5.29 0.5059 3.013 0.9808 4.002 1.654 1.837-0.031-2.048-0.8775-3.393-1.359-3.065-0.9793-4.877-0.508z" style="fill:#b3b3b3"/>
 <path d="m69.32 146.4c2.34e-4 25.05 13.36 48.2 35.06 60.72 21.69 12.52 48.42 12.52 70.11 0s35.06-35.67 35.06-60.72c1e-5 11.62-31.39 26.33-70.11 26.33-38.72-1e-5 -70.11-14.71-70.11-26.33z" style="fill:#ececec;stroke-width:18.91"/>
 <path d="m69.38 146.3c2.34e-4 25.05 13.36 48.2 35.06 60.72 5.202 3.003 10.69 5.281 16.33 6.843-0.5835-0.3152-1.165-0.635-1.742-0.9679-18.99-10.96-31.6-30.07-34.44-51.47-9.512-4.689-15.21-10.19-15.21-15.13z" style="fill:#ccc;stroke-width:18.91"/>
 <path d="m69.32 146.4c0.01063 5.63 0.6996 11.24 2.052 16.7 7.557 9.17 35.16 21.26 68.06 21.26s60.51-12.09 68.06-21.26c1.352-5.466 2.04-11.07 2.051-16.7 1e-5 11.62-31.39 26.33-70.11 26.33s-70.11-14.71-70.11-26.33zm1.22 10.45c5.951 10.74 34.57 22.35 68.98 22.35s63.02-11.61 68.98-22.35c-0.2605 1.429-0.5633 2.851-0.9126 4.263-7.557 9.17-35.16 21.26-68.06 21.26s-60.51-12.09-68.06-21.26c-0.3493-1.412-0.6521-2.834-0.9126-4.263z" style="fill:#666;stroke-width:18.91"/>
 <path d="m87.29 185.7c-0.6197 1e-3 -1.223 0.0582-1.791 0.1648-1.299 0.2438-2.414 0.7479-3.131 1.445-0.1054 0.1017-0.1082 0.2696-0.0062 0.3747 0.1015 0.1044 0.2682 0.1073 0.3731 6e-3 1.212-1.18 4.132-1.845 6.865-1.193 2.6 0.62 5.027 2.359 5.813 5.859-2.546 0.8085-4.472 2.068-5.249 3.956l0.816 0.7204c0.7989-1.94 3.952-3.918 7.354-4.17 3.401-0.252 6.964 1.06 8.867 5.5 0.0285 0.0631 0.069 0.12 0.1194 0.1674-0.2538 0.1096-0.502 0.234-0.7426 0.3757-1.951 1.149-3.403 3.357-3.977 6.749-1.215-0.7536-2.408-1.541-3.575-2.367l2.791 8.37s6.771 10.49 37.62 10.49c30.85 0 37.62-10.49 37.62-10.49l2.791-8.37c-1.732 1.227-3.519 2.375-5.355 3.44-0.9925 0.573-1.995 1.119-3.008 1.64-0.5471-1.773-1.428-3.309-2.556-4.564 0.0655-0.071 0.1104-0.1586 0.1297-0.2532 1.286-6.43 5.193-8.649 9.07-8.869 1.939-0.1103 3.87 0.3126 5.406 1.024 1.536 0.7111 2.654 1.724 3.037 2.653l0.8222-0.7793c-0.5435-1.32-1.718-2.049-3.414-2.834-1.594-0.7379-3.532-1.184-5.526-1.134-1e-3 -7e-3 -3e-3 -0.0145-5e-3 -0.0217-0.4297-1.655-1.643-2.967-3.24-3.846-1.547-0.8509-3.462-1.31-5.457-1.308h-5.2e-4c-0.0642 6e-5 -0.1284 1e-3 -0.1928 2e-3 -4.109 0.0642-8.549 2.115-10.61 6.849-2.271-1.599-4.877-2.343-7.433-2.346-4.56-4e-3 -8.958 2.351-10.99 6.42-0.0656 0.1311-0.012 0.2906 0.1194 0.3555 0.1304 0.0659 0.2896 0.0137 0.3555-0.1168 3.776-7.553 16.19-9.027 21.63 0.5964-0.2114-0.0442-0.4245-0.0832-0.6392-0.1163-1.111-0.1709-2.263-0.1917-3.43-0.0527-3.499 0.4169-7.129 2.27-10.16 5.809-0.1429 0.1666-0.1235 0.4176 0.0434 0.5602 0.1665 0.1431 0.4174 0.1239 0.5602-0.0429 3.893-4.542 8.712-6.127 12.87-5.488 4.119 0.6337 7.592 3.447 8.902 7.867-6.426 3.211-13.22 5.377-20.15 6.495 0.0103-6.865-4.218-12.69-9.79-15.39-1.493-0.7254-3.088-1.225-4.725-1.459-0.5185-0.0741-1.041-0.1197-1.566-0.1395 0.0156-0.0778 7e-3 -0.1584-0.0233-0.2315-2.059-4.804-6.893-6.533-11.47-6.193-4.582 0.3394-9.016 2.678-10.43 6.201-0.0271 0.0704-0.0336 0.1472-0.0186 0.2212-0.7627-0.1829-1.518-0.281-2.251-0.2858-0.7353-5e-3 -1.449 0.0845-2.129 0.2728 0.0105-0.0915-3e-3 -0.1841-0.0393-0.2687-1.016-2.37-2.526-3.96-4.243-4.933 9e-3 -0.0102 0.0167-0.0211 0.0238-0.0326 2.551-5.102 10.2-5.102 12.76 0 0.0657 0.1306 0.225 0.1832 0.3555 0.1173 0.1302-0.0649 0.1836-0.2229 0.1194-0.3535-1.37-2.74-4.111-4.111-6.852-4.111s-5.482 1.371-6.852 4.111c-3e-3 9e-3 -6e-3 0.0178-8e-3 0.0269-1.657-0.8181-3.478-1.095-5.218-0.9664-0.7979 0.0591-1.583 0.1963-2.334 0.4-0.841-3.665-3.457-5.57-6.197-6.224-0.8126-0.1938-1.637-0.2839-2.433-0.2822zm99.06 1.567c-0.2935 1e-3 -0.5871 0.0122-0.88 0.0331-3.124 0.2225-6.18 1.571-7.885 4.092-0.0817 0.1208-0.0502 0.2848 0.0703 0.3669 0.1208 0.0817 0.2848 0.0502 0.3669-0.0703 1.589-2.35 4.487-3.648 7.484-3.861 2.997-0.2135 6.071 0.6627 7.985 2.576 0.1034 0.104 0.2717 0.104 0.3752 0 0.1026-0.1032 0.1026-0.2699 0-0.3731-1.863-1.863-4.679-2.774-7.516-2.763zm-16.41 1.962c1.807 0.0261 3.53 0.4577 4.894 1.208 1.409 0.775 2.424 1.877 2.817 3.219-4.047 0.3841-8.149 3.009-9.545 9.314-1.365-1.238-3.001-2.126-4.783-2.611-1.014-1.923-2.295-3.445-3.735-4.597 0.0252-0.0296 0.0459-0.0626 0.0615-0.0982 1.919-4.477 6.052-6.375 9.928-6.435 0.1211-2e-3 0.2418-2e-3 0.3622-5.1e-4zm-45.62 3.328c3.903 0.0389 7.674 1.691 9.422 5.664-4.2 0.0675-8.489 1.936-11.91 6.218-0.0294 0.0382-0.0534 0.0803-0.0713 0.1251-2.09-2.644-4.647-4.615-7.218-5.694-0.4197-0.1761-0.8406-0.3277-1.26-0.4553 0.0296-0.0333 0.0534-0.0714 0.0703-0.1126 1.237-3.091 5.4-5.383 9.748-5.705 0.4076-0.0302 0.8163-0.0438 1.223-0.0398zm-13.97 5.915c1.271 9e-3 2.623 0.3146 3.985 0.8862 5.028 2.11 10.1 7.855 11.37 15.4-7.392-1.475-14.6-4.153-21.32-8.035-0.4337-0.2516-0.8638-0.5087-1.292-0.7695 0.5264-3.405 1.924-5.517 3.759-6.598 1.038-0.6112 2.228-0.8977 3.499-0.8883zm23.31 0.7808c2.315-0.0463 4.606 0.5073 6.707 1.528 5.27 2.56 9.269 8.096 9.192 14.61-7.732 1.127-15.61 0.9533-23.3-0.5168-0.5809-3.668-2.033-6.927-3.957-9.582 0.137-0.0146 0.2629-0.0821 0.3509-0.1881 3.222-4.027 7.146-5.771 11-5.848z" style="fill:#666;stroke-width:15.82"/>
 <path d="m190.7 162.3 2.022-0.9384c0.164-0.6528 0.6874-1.616 1.502-1.872 0.815-0.2565 1.887-0.2269 2.922 0.2207 2.07 0.8953 4.107 3.407 3.742 8.803-0.4297 6.363 0.3868 8.146 0.9005 9.902l1.396-0.7539c-0.4598-1.594-1.13-2.898-0.715-9.043 0.3945-5.843-1.951-9.179-4.693-10.37-3.501-1.343-5.997-0.1594-7.077 4.047z" style="-inkscape-stroke:none;color:#000000;fill:#ccc;stroke-linejoin:round"/>
 <path d="m188.6 163.4 2.178-1.103c0.164-0.6528 0.6259-1.7 1.441-1.956 0.815-0.2565 1.887-0.2269 2.922 0.2207 2.07 0.8953 4.107 3.407 3.742 8.803-0.4297 6.363 0.5472 11.61 2.984 16.12l1.396-0.7539c-2.723-5.716-3.214-9.119-2.799-15.26 0.3945-5.843-1.951-9.179-4.693-10.37-3.501-1.343-6.091 0.0891-7.171 4.295z" style="-inkscape-stroke:none;color:#000000;fill:#b3b3b3;stroke-linejoin:round"/>
 <path transform="translate(11.11 1.058)" d="m133.2 136.6 2.682-1.613v0.4673l-2.048 1.255 2.048 1.248v0.4801l-2.682-1.6z" style="fill:#ccc;stroke-linejoin:round;stroke-width:.7202"/>
 <path transform="rotate(-62.99 6.42 -8.54)" d="m-89.14 153.9v-0.6914h4.262v0.6914zm0-1.623v-0.6914h4.262v0.6914z" style="fill:#ccc;stroke-linejoin:round;stroke-width:1.588"/>
 <path transform="rotate(45 4.279 13.94)" d="m182.5 11.93v-5.337h0.8143v0.39h-0.3763v4.557h0.3763v0.39z" style="fill:#666;stroke-linejoin:round;stroke-width:.7698"/>
 <defs>
  <linearGradient id="Gradient1" x2=".5" y1=".5">
   <stop stop-color="#a5ffd4" offset="0"/>
   <stop stop-color="#fff" stop-opacity="0" offset="1"/>
  </linearGradient>
 </defs>
 <path d="m182.2 154.3-7.523 0.9046-4.76 2.101-2.775 2.338 0.7325 1.165 2.944-1.786 2.392-0.7484-2.346 1.238-2.665 1.989 0.6603 1.069 2.807-1.287 2.731-1.392-2.447 1.624-2.219 1.218 0.8158 0.9596 2.573-1.241 2.488-1.03-1.7 1.13-1.937 1.001 0.8836 0.5862 1.949-0.7459 8.325-3.266 4.885-2.663-2.497-2.629-3.318-0.5312z" style="fill:#b3b3b3;stroke-width:1.016"/>
 <path d="m163.7 94.83 1.549 7.743 1.549-7.743z" style="stroke-width:.9947"/>
 <path d="m177.5 112.2-7.674 1.432-10.75 4.745-2.912 18.64 3.46 2.494 0.1127 2.957 18.11 9.36 15.01 1.104 3.725-3.887 3.945-16.61-6.206-9.938-7.588-5.684h-6e-4l-0.395-0.2903-2.633-1.943-0.1052-0.0781-6.096-2.304z" style="fill:#808080;stroke-width:.3097"/>
 <path d="m191.6 133.9-0.2776 19.14 1.93-0.4446z" style="fill:#666;stroke-width:.9947"/>
 <path d="m185.7 107.9v8.653c0 0.2636-0.0787 0.5163-0.232 0.7307-0.8359 1.169-3.826 5.145-7.238 7.24-2.952 1.813-6.699 0.376-6.699-2.904v-8.053s0.2144-0.5823 0.416-0.809l5.633-6.338c0.2713-0.3051 0.6727-0.4602 1.078-0.4166l5.915 0.638c0.6412 0.0696 1.127 0.612 1.127 1.258z" style="fill:#b3b3b3;stroke-width:.3097"/>
 <path d="m178.5 107.7c-2.009 2.559-6.978 6.758-6.978 6.758v4.336h6.083c4.002 0 6.069-5.984 7.544-8.982-5.241-2.748-6.649-2.112-6.649-2.112z" style="fill:#999;stroke-width:.3097"/>
 <path class="face" d="m188.3 102.1 0.1855-3.364s-0.9865-9.902-9.601-12.08c-5.195-1.318-11.77 3.763-13.01 6.586-0.8393 1.915-0.8353 2.956-0.6195 5.041l0.0574 5.591c-1.606 8.585 4.319 12.93 8.934 13.53 5.75 0.7417 8.157 0.159 11.07-4.467 0.3017-0.4785 1.706-3.243 1.706-3.243l2.331-5.545s-0.3949-1.71-1.056-2.041z" style="fill:#b3b3b3;stroke-width:.3116"/>
 <path d="m193.2 152.4 11.78 1.169-1.557-18.2-9.043-12.91-3.557 14.46 2.379 15.49z" style="fill:#808080;stroke-width:.3097"/>
 <path d="m189.7 86.77 2.787-0.6195-5.575-1.239-13.49-1.789-10.55 10.46-3.214 5.575 9.747-1.019-2.594 1.858 13.91 1.948 2.621 1.899 0.4627 3.499 4.458-3.542s-0.3738 1.794-0.8282 3.238-1.763 2.954-1.763 2.954l5e-3 2.483 7.743-13.63-3.717-12.08z" style="fill:#1a1a1a;stroke-width:.3097"/>
 <path d="m162.4 102.9-0.1561 0.2051 0.0254 0.5704 0.4421 0.6243 0.2668 2.978 2.107 2.955 2.744 0.7997 1.922-1.006 0.9503-2.751 0.6158-0.3544 0.5529 0.6957 0.6097 3.205 1.744 2.075 2.741 0.7991 2.375-1.648 0.5971-2.726 0.4924-0.3114 3.989-2.761 1.858-2.168-6.341 3.926-3.416-1.566-3.416-0.4256-1.725-0.1265-1.686-0.8686-2.962-1.289-3.555-0.4907zm1.626 1.783 4.967 1.429 0.7852 1.731-0.605 1.753-1.225 0.6248-2.744-0.7997-1.455-2.042-0.213-1.967 0.4894-0.7289zm9.546 2.798 5.056 1.44 0.5245 1.044-0.4289 1.779-1.639 1.141-2.741-0.7997-1.113-1.307-0.3896-2.043 0.7308-1.254z" style="fill:#4d4d4d;stroke-width:.3097"/>
 <ellipse cx="167.4" cy="106.4" rx=".9291" ry="1.084" style="fill:#4d4d4d;stroke-width:.9947"/>
 <ellipse cx="175.8" cy="108.7" rx=".9291" ry="1.084" style="fill:#4d4d4d;stroke-width:.9947"/>
 <path d="m173.6 107.5s2.098 0.0822 2.949 0.3436c0.8515 0.2614 2.107 1.096 2.107 1.096l0.5245 1.044-0.4289 1.779s-0.841 1.01-1.639 1.141-2.741-0.7997-2.741-0.7997l-1.113-1.307-0.3896-2.043z" style="fill:#f9f9f9;stroke-width:.9947"/>
 <path class="blinked" d="m173.6 107.5s2.098 0.0822 2.949 0.3436c0.8515 0.2614 2.107 1.096 2.107 1.096l0.5245 1.044-0.4289 1.779s-0.841 1.01-1.639 1.141-2.741-0.7997-2.741-0.7997l-1.113-1.307-0.3896-2.043z" style="fill:#a5ffd4;stroke-width:.9947"/>
 <path d="m164 104.7s1.717 0.0879 2.555 0.327c0.8379 0.239 2.412 1.102 2.412 1.102l0.7852 1.731-0.6049 1.753-1.225 0.6248s-2.015-0.2818-2.744-0.7997-1.455-2.042-1.455-2.042l-0.213-1.967 0.4894-0.7289z" style="fill:#f9f9f9;stroke-width:.9947"/>
 <path class="blinked" d="m164 104.7s1.717 0.0879 2.555 0.327c0.8379 0.239 2.412 1.102 2.412 1.102l0.7852 1.731-0.6049 1.753-1.225 0.6248s-2.015-0.2818-2.744-0.7997-1.455-2.042-1.455-2.042l-0.213-1.967 0.4894-0.7289z" style="fill:#a5ffd4;stroke-width:.9947"/>
 <path d="m169.9 110-0.9292 2.168 0.3097 0.9292 2.787 0.3097-0.9292 0.3097-2.787 1e-5 -0.3097-0.9292z" style="fill:#999;stroke-linejoin:round;stroke-width:.9291"/>
 <path class="blinked" transform="translate(44.05,6.234)" d="m92.74 131.6 4.762-18.79 51.59 26.46-11.91 14.02-18.26 10.58-1.323-17.99z" fill="url(#Gradient1)"/>
 <g class="hashi">
  <path d="m89.29 30.71 2.242-3.454 1.802-0.4417 95.27 66.57-0.8608 1.231z" style="fill:#fff"/>
  <path d="m93.33 26.81-1.802 0.4418 5.107 3.479-2.167 3.339 1.037 0.6728 2.152-3.316 1.702 1.16-2.015 3.104 1.036 0.6728 2-3.081 88.22 60.1 0.0661-0.5881z"/>
 </g>
</svg>
