<svg width="1e3" height="1e3" version="1.1" viewBox="0 0 264.6 264.6" xmlns="http://www.w3.org/2000/svg">
 <g>
  <ellipse cx="128.2" cy="61.12" rx="26.02" ry="25.93" style="fill:#f2f2f2"/>
  <ellipse cx="125.7" cy="207.9" rx="70.11" ry="21.03" style="fill:#e6e6e6;stroke-width:1.402"/>
  <ellipse cx="139.4" cy="146.4" rx="70.11" ry="26.33" style="fill:#e6e6e6;stroke-width:1.855"/>
  <path d="m164.3 121.8-37.83 50.48a70.11 26.33 0 0 0 12.97 0.462 70.11 26.33 0 0 0 70.11-26.33 70.11 26.33 0 0 0-45.26-24.62z" style="fill:#ccc;stroke-width:1.855"/>
  <path d="m139.4 133.6c-29.7 4.8e-4 -56.18 11.44-66.09 19.84 9.894 8.406 36.38 19.85 66.09 19.85 29.72-3e-3 56.2-11.45 66.09-19.85-9.915-8.398-36.39-19.83-66.09-19.83z" style="fill:#fff;stroke-width:1.855"/>
  <path d="m72.97 63.25 1.133-3.959 1.594-0.9496 110.6 35.78-0.463 1.429z" style="fill:#f9f9f9"/>
  <path d="m76.54 58.93-1.594 0.9498 5.901 1.832-1.096 3.827 1.188 0.34 1.088-3.8 1.967 0.6108-1.019 3.558 1.188 0.34 1.011-3.532 101.9 31.66-0.1085-0.5814z"/>
 </g>
 <g transform="translate(44.05 6.234)">
  <path d="m118.6 88.23s0 7.785 1.557 7.785c1.557 0 1.557-7.785 1.557-7.785z"/>
  <path class="st4" d="m132.4 105.7c-2.256 0.0361-4.623 0.6719-7.715 1.44-5.168 1.01-7.695 2.591-10.81 4.771-3.114 2.18-4.244 7.045-2.928 18.74 0.4361 1.42 3.479 2.507 3.479 2.507s0.1133 0.3273 0.1133 2.973c11.91 11.91 25.14 11.91 33.3 10.52 1.802-0.8591 3.718-1.901 3.745-3.908 0.1663-10.29 5.016-11.46 3.966-16.7-0.5515-2.769-1.838-6.319-6.239-9.991-2.284-1.902-4.523-3.463-7.629-5.715h-6.1e-4c-0.1263-0.0929-0.2677-0.1968-0.3971-0.2919-0.8203-0.6028-1.683-1.236-2.647-1.953-0.0385-0.0286-0.0671-0.0497-0.1058-0.0785-2.236-1.668-4.138-2.348-6.129-2.316z" style="fill:#808080;stroke-width:.3114"/>
  <path class="st6" d="m148.2 127.5c-3.876-0.2722-1.838 19.24-1.838 19.24l7.938-1.323s-0.7776-26.5-6.1-17.91z" style="fill:#666"/>
  <path class="st5" d="m140.7 101.4v8.7c0 0.265-0.0791 0.5191-0.2332 0.7346-0.8404 1.175-3.847 5.173-7.277 7.279-2.968 1.823-6.735 0.378-6.735-2.92v-8.096s0.2155-0.5854 0.4182-0.8133l5.663-6.372c0.2728-0.3067 0.6763-0.4627 1.084-0.4188l5.947 0.6414c0.6446 0.07 1.133 0.6153 1.133 1.265z" style="fill:#b3b3b3;stroke-width:.3114"/>
  <path class="st5" d="m133.5 101.2c-2.02 2.573-7.016 6.794-7.016 6.794v4.359h6.116c4.024 0 6.102-6.016 7.585-9.03-5.269-2.763-6.685-2.123-6.685-2.123z" style="fill:#999;stroke-width:.3114"/>
  <path class="st5" d="m143.3 95.57 0.1865-3.382c0.6228-5.192-0.9918-9.955-9.653-12.15-5.223-1.325-11.83 3.783-13.08 6.621-0.8438 1.925-0.8398 2.972-0.6228 5.068l0.0577 5.621c-1.615 8.631 4.342 13 8.982 13.6 5.781 0.7457 8.201 0.1598 11.13-4.491 0.3033-0.4811 1.114-1.783 1.715-3.26 1.144-0.8898 2.15-3.903 2.344-5.575 0.1152-0.9935-0.397-1.719-1.062-2.052z" style="fill:#b3b3b3;stroke-width:.3133"/>
  <path class="st4" d="m148.2 146.1c1.141 1.142 7.116 4.113 11.84 1.175 0 0-0.2545-13.06-1.565-18.3-1.557-7.785-6.252-10.94-9.092-12.98-2.239-1.61-4.154 12.75-3.576 14.54 0.5782 1.786 2.392 15.57 2.392 15.57z" style="fill:#808080;stroke-width:.3114"/>
  <polygon class="st81" transform="matrix(.7823 0 0 .7823 -256.7 -40.1)" points="476.5 240.5 440 242.4 440 244.9 477.3 266.5 500.9 252.8 504.9 250.5 504.9 248 497.8 247.5" style="fill:#ececec"/>
  <polygon class="st82" transform="matrix(.7823 0 0 .7823 -256.7 -40.1)" points="500.9 250.3 504.9 248 467.6 226.5 440 242.4 477.3 264" style="fill:#ccc"/>
  <polygon class="st83" transform="matrix(.7823 0 0 .7823 -256.7 -40.1)" points="468.7 230.6 466.1 232.1 495.2 248.9 497.8 247.4" style="fill:#808080"/>
  <polygon class="st83" transform="matrix(.7823 0 0 .7823 -256.7 -40.1)" points="476.3 259.8 492.7 250.4 463.6 233.6 447.2 243.1" style="fill:#808080"/>
  <polygon class="st81" transform="matrix(.7823 0 0 .7823 -256.7 -40.1)" points="475.4 265.3 473.3 238 475.2 236.7 477.3 264" style="fill:#e6e6e6"/>
  <polygon class="st85" transform="matrix(.7823 0 0 .7823 -256.7 -40.1)" points="438.1 243.8 436 216.5 473.3 238 475.4 265.3" style="fill:#808080"/>
  <polygon class="st82" transform="matrix(.7823 0 0 .7823 -256.7 -40.1)" points="436 216.5 437.9 215.1 475.2 236.7 473.3 238" style="fill:#ccc"/>
  <path class="st78" d="m137.6 146.9c-0.4629-0.0849-6.682 0.7225-7.277 0.875-0.5946 0.1525-4.51 1.937-4.604 2.032-0.0936 0.0945-2.085 1.853-2.684 2.261-0.5977 0.4066-0.0667 1.072 0.7085 1.127 0.7752 0.0554 2.848-1.728 2.848-1.728l2.314-0.7239-2.269 1.197s-2.144 1.699-2.578 1.924c-0.4342 0.2255-0.171 0.9275 0.6387 1.034 0.8096 0.1065 2.715-1.245 2.715-1.245l2.642-1.346-2.367 1.571s-1.605 0.8426-2.146 1.178c-0.5415 0.3352 0.1753 0.9458 0.7891 0.9282 0.6139-0.0177 2.489-1.2 2.489-1.2l2.407-0.9966s-1.28 0.986-1.644 1.093-1.634 0.8431-1.874 0.9683c-0.2409 0.1252 0.2006 0.3698 0.8547 0.567 0.6551 0.1973 1.885-0.7215 1.885-0.7215s3.189-0.6653 4.876-1.364c1.687-0.699 2.532-1.609 3.176-1.795 0.439-0.1269 1.074-0.6784 1.76-0.6881 0.71-0.0106 1.584-0.6818 1.546-1.104-0.1886-2.027-1.592-4.137-4.205-3.841z" style="fill:#b3b3b3;stroke-width:.9826"/>
  <path class="st8" d="m144.7 80.13c1.366-0.7922 2.802-0.6228 2.802-0.6228s-1.868-2.18-5.605-1.246c-10.9-6.85-17.21-0.8539-24.17 8.719-2.491 3.425-3.231 5.605-3.231 5.605s5.294-2.491 9.799-1.024c-0.3114 0.9341-2.608 1.868-2.608 1.868s6.499 3.06 13.98 1.958c0.6343 1.06 2.635 1.909 2.635 1.909l0.4652 3.518s1.945-4.451 4.482-3.561c2.537 0.8902-2.055 5.716-2.605 6.225l5e-3 2.496s7.119-7.111 7.785-13.7c0.2486-6.573-1.246-10.59-3.737-12.14z" style="fill:#1a1a1a;stroke-width:.3114"/>
  <path class="st70" d="m117.3 96.38c-0.0903-0.0014-0.161 0.08575-0.1569 0.2062l0.0255 0.5735c-4e-3 0.2279 0.12 0.4524 0.2931 0.5474l0.1514 0.08028 0.2682 2.994c0.1236 1.401 1.017 2.65 2.118 2.971l2.759 0.804c0.8115 0.2363 1.578-0.162 1.932-1.011l0.9554-2.766c0.0505-0.1417 0.1379-0.2524 0.2487-0.3162 0.1143-0.0654 0.2436-0.0766 0.3704-0.0401 0.1267 0.0371 0.2503 0.1223 0.3515 0.25 0.103 0.1264 0.175 0.2841 0.2044 0.4494l0.613 3.222c0.2428 1.023 0.9388 1.849 1.753 2.086l2.756 0.8034c1.102 0.3216 2.106-0.3734 2.388-1.657l0.6003-2.741 0.152 8e-3c0.1702 8e-3 0.3058-0.1221 0.343-0.3211l4.01-2.776 1.868-2.18-6.375 3.947-6.869-2.002c-0.2809-0.08226-0.562-0.1044-0.8338-0.0632-0.2949 0.04672-0.5999 0.02401-0.9007-0.0639-0.3011-0.08744-0.5983-0.2404-0.8782-0.4543-0.2581-0.1959-0.5359-0.3374-0.8168-0.419l-7.291-2.126c-0.0135-4e-3 -0.0273-0.0065-0.0401-0.0067zm1.635 1.793c0.0443 1.38e-4 0.0898 0.0069 0.1368 0.02068l4.857 1.416c0.6259 0.1825 1.023 1.061 0.7894 1.74l-0.6082 1.762c-0.2323 0.5343-0.7143 0.7793-1.232 0.6282l-2.759-0.804c-0.7601-0.2214-1.376-1.084-1.463-2.053l-0.2141-1.978c-0.0444-0.4169 0.1824-0.7338 0.492-0.7328zm9.597 2.813c0.0726-1e-3 0.1484 9e-3 0.2262 0.0317l4.857 1.416c0.3768 0.1103 0.6332 0.6188 0.5273 1.05l-0.4312 1.789c-0.1943 0.8874-0.888 1.368-1.648 1.147l-2.756-0.804c-0.5206-0.1513-0.9552-0.6641-1.119-1.314l-0.3917-2.054c-0.1305-0.6915 0.2262-1.253 0.7347-1.261z" style="fill:#4d4d4d;stroke-width:.3114"/>
  <ellipse cx="122.3" cy="99.9" rx=".9341" ry="1.09" style="fill:#4d4d4d"/>
  <ellipse cx="130.7" cy="102.2" rx=".9341" ry="1.09" style="fill:#4d4d4d"/>
  <path class="st70" d="m128.5 101c0.0726-1e-3 0.1484 9e-3 0.2262 0.0317l4.857 1.416c0.3768 0.1103 0.6332 0.6187 0.5273 1.05l-0.4312 1.789c-0.1943 0.8874-0.888 1.368-1.648 1.147l-2.756-0.804c-0.5206-0.1513-0.9552-0.6641-1.119-1.314l-0.3917-2.054c-0.1305-0.6915 0.2262-1.253 0.7347-1.261z" style="fill:#f9f9f9"/>
  <path class="st70" d="m118.9 98.18c0.0443 1.41e-4 0.0898 0.0071 0.1368 0.02071l4.857 1.416c0.6259 0.1825 1.023 1.061 0.7894 1.74l-0.6082 1.762c-0.2323 0.5343-0.7143 0.7793-1.232 0.6282l-2.759-0.804c-0.7601-0.2214-1.376-1.084-1.463-2.053l-0.2141-1.978c-0.0444-0.4169 0.1824-0.7338 0.492-0.7328z" style="fill:#f9f9f9"/>
  <path d="m124.8 103.5-0.9342 2.18 0.3114 0.9342 2.802 0.3114-0.9342 0.3114-2.802 1e-5 -0.3114-0.9342z" style="fill:#999;stroke-linejoin:round;stroke-width:.9341"/>
 </g>
 <path transform="rotate(8.039)" d="m158 140.2a11.82 6.982 0 0 1-5.912 6.046 11.82 6.982 0 0 1-11.82 0 11.82 6.982 0 0 1-5.912-6.046h11.82z" style="fill:#ccc"/>
 <ellipse transform="rotate(8.039)" cx="146.1" cy="140.1" rx="11.81" ry="5.774" style="fill:#fff"/>
 <ellipse transform="rotate(8.039)" cx="149.8" cy="139.8" rx="4.46" ry="3.499" style="fill:#666"/>
 <path transform="matrix(.2868 0 0 .1331 93.66 138.6)" d="m26.46 97.9c-2.661 4.257-5.485 0.1139-9.572 3.029-4.087 2.915-1.09 6.935-5.982 8.064-4.891 1.129-3.959-3.798-8.91-4.627-4.951-0.829-5.675 4.133-9.932 1.472-4.257-2.661-0.1139-5.485-3.029-9.572-2.915-4.087-6.935-1.09-8.064-5.982-1.129-4.891 3.798-3.959 4.627-8.91 0.829-4.951-4.133-5.675-1.472-9.932s5.485-0.1139 9.572-3.029c4.087-2.915 1.09-6.935 5.982-8.064 4.891-1.129 3.959 3.798 8.91 4.627 4.951 0.829 5.675-4.133 9.932-1.472 4.257 2.661 0.1139 5.485 3.029 9.572s6.935 1.09 8.064 5.982c1.129 4.891-3.798 3.959-4.627 8.91-0.829 4.951 4.133 5.675 1.472 9.932z" style="fill:#999"/>
 <path transform="matrix(.2868 0 0 .1331 93.66 137.8)" d="m26.46 97.9c-2.661 4.257-5.485 0.1139-9.572 3.029-4.087 2.915-1.09 6.935-5.982 8.064-4.891 1.129-3.959-3.798-8.91-4.627-4.951-0.829-5.675 4.133-9.932 1.472-4.257-2.661-0.1139-5.485-3.029-9.572-2.915-4.087-6.935-1.09-8.064-5.982-1.129-4.891 3.798-3.959 4.627-8.91 0.829-4.951-4.133-5.675-1.472-9.932s5.485-0.1139 9.572-3.029c4.087-2.915 1.09-6.935 5.982-8.064 4.891-1.129 3.959 3.798 8.91 4.627 4.951 0.829 5.675-4.133 9.932-1.472 4.257 2.661 0.1139 5.485 3.029 9.572s6.935 1.09 8.064 5.982c1.129 4.891-3.798 3.959-4.627 8.91-0.829 4.951 4.133 5.675 1.472 9.932z" style="fill:#ccc"/>
 <path d="m94.79 147.3c-1.101 0.0452-2.148 0.3841-2.703 0.9833-0.747 0.8068-0.2951 1.879 1.167 2.307 1.19 0.3481 2.766 0.12 3.36-0.6044 0.4605-0.5614 0.1191-1.303-0.9362-1.555-0.3778-0.0902-0.808-0.0937-1.186-0.0147-0.378 0.0789-0.708 0.2472-0.8405 0.4935-0.08209 0.1526-0.06215 0.3252 0.05806 0.4743 0.1202 0.149 0.369 0.2775 0.7043 0.2878 0.2042 6e-3 0.3702-0.0455 0.5033-0.1278 0.06656-0.0412 0.128-0.0973 0.1261-0.1706-0.0018-0.0733-0.08454-0.1441-0.1938-0.186l-0.222 0.1916c-3.07e-4 -5.3e-4 0.0031-4e-3 -0.01041 4e-3 -0.04187 0.0259-0.1754 0.0531-0.1812 0.0529-0.1756-5e-3 -0.2809-0.0605-0.3544-0.1515-0.07345-0.0911-0.08673-0.2153-0.03844-0.3051 0.09207-0.1712 0.3106-0.2834 0.5888-0.3415 0.2782-0.0581 0.6118-0.0553 0.8891 0.0109 0.818 0.1953 1.09 0.7876 0.7223 1.236-0.4879 0.5948-1.808 0.7858-2.803 0.4947-1.245-0.364-1.635-1.29-0.9914-1.985 0.7743-0.8362 2.671-1.094 4.088-0.6447 0.9337 0.2961 1.564 0.855 1.689 1.464l0.407-0.0279c-0.141-0.6839-0.8425-1.308-1.898-1.643-0.6038-0.1915-1.284-0.2701-1.944-0.243z" style="-inkscape-stroke:none;color:#000000;fill-rule:evenodd;fill:#999;stroke-width:.07776"/>
 <path d="m89.48 96.38-1.637 1.637-1.637-1.637-0.4677 0.4677 1.637 1.637-1.637 1.637 0.4677 0.4677 1.637-1.637 1.637 1.637 0.4677-0.4677-1.637-1.637 1.637-1.637z" style="fill:#666"/>
 <path d="m133.9 96.94v2.725h-2.725v0.7785h2.725v2.725h0.7785v-2.725h2.725v-0.7785h-2.725v-2.725z" style="fill:#808080"/>
 <path d="m97.91 119.5a1.352 1.352 0 0 1-1.352 1.352 1.352 1.352 0 0 1-1.352-1.352 1.352 1.352 0 0 1 1.352-1.352 1.352 1.352 0 0 1 1.352 1.352z" style="fill:none;stroke-width:.1792;stroke:#4d4d4d"/>
 <path d="m97.1 119.5a0.5407 0.5407 0 0 1-0.5407 0.5407 0.5407 0.5407 0 0 1-0.5407-0.5407 0.5407 0.5407 0 0 1 0.5407-0.5407 0.5407 0.5407 0 0 1 0.5407 0.5407z" style="fill:#808080;stroke-width:.1792"/>
 <path d="m104.4 141c-2.028-1.521-4.057-3.043-4.057-6.085 0-6.085 8.114-6.085 8.114-12.17s-8.114-6.085-8.114-12.17c-1e-5 -6.085 8.114-6.085 8.114-12.17 0-6.085-8.114-6.085-8.114-12.17" style="fill:none;stroke-linecap:round;stroke-linejoin:round;stroke-width:.6722;stroke:#999"/>
 <path d="m112.5 141c-2.028-1.521-4.057-3.043-4.057-6.085 0-6.085 8.114-6.085 8.114-12.17s-8.114-6.085-8.114-12.17c-1e-5 -6.085 8.114-6.085 8.114-12.17 0-6.085-8.114-6.085-8.114-12.17" style="fill:none;stroke-linecap:round;stroke-linejoin:round;stroke-width:.6722;stroke:#ccc"/>
 <path d="m120.7 141c-2.028-1.521-4.057-3.043-4.057-6.085 0-6.085 8.114-6.085 8.114-12.17 0-6.085-8.114-6.085-8.114-12.17s8.114-6.085 8.114-12.17c0-3.043-2.028-4.564-4.057-6.085" style="fill:none;stroke-linecap:round;stroke-linejoin:round;stroke-width:.6722;stroke:#999"/>
 <path d="m89.29 30.71 2.242-3.454 1.802-0.4417 95.27 66.57-0.8608 1.231z" style="fill:#fff"/>
 <path d="m93.85 26.62-1.802 0.4418 5.107 3.479-2.167 3.339 1.037 0.6728 2.152-3.316 1.702 1.16-2.015 3.104 1.036 0.6728 2-3.081 88.22 60.1 0.0661-0.5881z"/>
 <path d="m151 141.6c-0.5594-0.7277-1.171-1.524-1.111-2.503 0.0381-0.6306 0.2997-0.986 0.5817-1.537 0.4861-0.6672 0.5006-0.7658 1.107-1.303 0.1694-0.15 0.3596-0.2747 0.5394-0.412 0.0318-0.0317-0.4157-0.4804-0.4474-0.4488-0.1983 0.1534-0.4087 0.2922-0.5948 0.4601-0.6571 0.5927-0.6803 0.7145-1.201 1.449-0.3377 0.7094-0.5906 1.046-0.6218 1.846-0.043 1.101 0.5701 1.961 1.226 2.766 0.0225 0.0371 0.5453-0.2815 0.5228-0.3185z" style="fill:#ccc"/>
 <path d="m114.2 167.9c-0.7948-1.612-1.726-3.152-2.687-4.669-0.7098-1.12-1.425-2.222-2.237-3.272-0.3398-0.4395-0.7135-0.8517-1.07-1.278-0.7456-0.8007-1.547-1.528-2.601-1.884-0.8721-0.2944-1.791-0.3384-2.7-0.3798-1.688-0.0372-3.357 0.2387-5.028 0.4279-2.462 0.2037-4.938 0.4121-7.41 0.2864-0.7151-0.0363-1.432-0.0755-2.14-0.1831-0.6579-0.1001-1.298-0.2924-1.948-0.4386-0.551-0.2235-1.12-0.4061-1.653-0.6705-1.078-0.5355-2.183-1.319-2.669-2.468-0.222-0.5249-0.1693-0.8164-0.1601-1.344 0.02008-0.2648 0.08832-0.5216 0.1216-0.7842 0.0059-0.0352-0.4925-0.1186-0.4984-0.0834-0.0776 0.2817-0.1262 0.5699-0.1643 0.8595-0.01143 0.641-0.07372 0.9553 0.1908 1.597 0.5169 1.254 1.673 2.136 2.842 2.738 0.5534 0.2853 1.148 0.4827 1.722 0.7241 0.6709 0.158 1.332 0.3649 2.013 0.4741 0.7203 0.1156 1.451 0.165 2.179 0.1989 2.595 0.1208 5.195-0.1064 7.774-0.3684 1.55-0.2094 3.102-0.4551 4.672-0.4334 0.85 0.0315 1.727 0.0544 2.548 0.3065 1.012 0.3106 1.696 1.001 2.404 1.757 0.3457 0.4184 0.7071 0.8242 1.037 1.255 0.863 1.127 1.441 2.046 2.208 3.248 0.9561 1.5 1.891 3.013 2.753 4.569 0.0132 0.0354 0.5142-0.1511 0.501-0.1865z" style="fill:#808080"/>
 <path d="m79.82 154.4c-0.01418 1e-3 -0.02252 4e-3 -0.02325 8e-3 -0.0776 0.2817-0.1263 0.5698-0.1643 0.8594-0.01143 0.641-0.0738 0.9552 0.1907 1.597 0.01329 0.0323 0.02876 0.0633 0.04289 0.0951 0.3782 0.2407 0.7645 0.4802 1.162 0.7183-0.2866-0.3131-0.5277-0.6633-0.6945-1.058-0.222-0.5249-0.1695-0.8164-0.1602-1.344 0.02008-0.2648 0.08872-0.5219 0.122-0.7844 0.0052-0.0308-0.3761-0.0986-0.4754-0.0915zm21.05 5.263c-1.58 3.6e-4 -3.145 0.2542-4.711 0.4315-2.462 0.2037-4.937 0.4119-7.41 0.2863-0.7151-0.0363-1.433-0.0753-2.14-0.1829-0.55-0.0836-1.088-0.2305-1.629-0.3622 0.724 0.3626 1.484 0.7171 2.253 1.07 0.4496 0.0449 0.9012 0.0741 1.352 0.0951 2.595 0.1208 5.195-0.1064 7.774-0.3684 1.55-0.2094 3.102-0.4552 4.672-0.4336 0.85 0.0315 1.727 0.0543 2.549 0.3064 1.012 0.3106 1.696 1.001 2.404 1.758 0.3457 0.4184 0.7073 0.8243 1.037 1.255 0.863 1.127 1.442 2.045 2.208 3.248 0.2964 0.4648 0.5893 0.9321 0.88 1.4 0.2727 0.0568 0.5527 0.1079 0.8274 0.1633-0.3709-0.6225-0.7529-1.238-1.141-1.85-0.7098-1.12-1.425-2.222-2.237-3.272-0.3398-0.4395-0.7135-0.8516-1.07-1.277-0.7456-0.8007-1.547-1.528-2.601-1.884-0.8721-0.2944-1.791-0.3384-2.7-0.3798-0.1055-2e-3 -0.2109-4e-3 -0.3163-4e-3z" style="fill:#b3b3b3"/>
 <path d="m98.41 162.3c-1.58 3.5e-4 -3.145 0.2542-4.711 0.4315-0.5735 0.0475-1.148 0.0948-1.722 0.1385 0.4046 0.1566 0.8012 0.3156 1.215 0.4692 0.2358-0.0231 0.4715-0.0464 0.7069-0.0703 1.55-0.2094 3.102-0.4552 4.672-0.4336 0.85 0.0315 1.727 0.0543 2.549 0.3064 1.012 0.3106 1.696 1.001 2.404 1.758 0.3457 0.4184 0.7073 0.8243 1.037 1.255 0.2251 0.2941 0.4305 0.5736 0.6253 0.848 0.3043 0.0757 0.6076 0.1518 0.9147 0.2258-0.3214-0.469-0.6521-0.9313-1.002-1.384-0.3398-0.4395-0.714-0.8516-1.071-1.277-0.7456-0.8007-1.547-1.528-2.6-1.884-0.8721-0.2944-1.791-0.3384-2.7-0.3798-0.1055-2e-3 -0.2109-4e-3 -0.3163-4e-3z" style="fill:#808080"/>
 <g>
  <path d="m69.32 146.4c2.34e-4 25.05 13.36 48.2 35.06 60.72 21.69 12.52 48.42 12.52 70.11 0 21.69-12.52 35.06-35.67 35.06-60.72 1e-5 11.62-31.39 26.33-70.11 26.33-38.72-1e-5 -70.11-14.71-70.11-26.33z" style="fill:#ececec;stroke-width:18.91"/>
  <path d="m69.38 146.3c2.34e-4 25.05 13.36 48.2 35.06 60.72 5.202 3.003 10.69 5.281 16.33 6.843-0.5835-0.3152-1.165-0.635-1.742-0.9679-18.99-10.96-31.6-30.07-34.44-51.47-9.512-4.689-15.21-10.19-15.21-15.13z" style="fill:#ccc;stroke-width:18.91"/>
  <path d="m69.32 146.4c0.01063 5.63 0.6996 11.24 2.052 16.7 7.557 9.17 35.16 21.26 68.06 21.26 32.9 0 60.51-12.09 68.06-21.26 1.352-5.466 2.04-11.07 2.051-16.7 1e-5 11.62-31.39 26.33-70.11 26.33-38.72 0-70.11-14.71-70.11-26.33zm1.22 10.45c5.951 10.74 34.57 22.35 68.98 22.35 34.41 0 63.02-11.61 68.98-22.35-0.2605 1.429-0.5633 2.851-0.9126 4.263-7.557 9.17-35.16 21.26-68.06 21.26-32.9 0-60.51-12.09-68.06-21.26-0.3493-1.412-0.6521-2.834-0.9126-4.263z" style="fill:#666;stroke-width:18.91"/>
  <path d="m87.29 185.7c-0.6197 1e-3 -1.223 0.0582-1.791 0.1648-1.299 0.2438-2.414 0.7479-3.131 1.445-0.1054 0.1017-0.1082 0.2696-0.0062 0.3747 0.1015 0.1044 0.2682 0.1073 0.3731 6e-3 1.212-1.18 4.132-1.845 6.865-1.193 2.6 0.62 5.027 2.359 5.813 5.859-2.546 0.8085-4.472 2.068-5.249 3.956l0.816 0.7204c0.7989-1.94 3.952-3.918 7.354-4.17 3.401-0.252 6.964 1.06 8.867 5.5 0.0285 0.0631 0.069 0.12 0.1194 0.1674-0.2538 0.1096-0.502 0.234-0.7426 0.3757-1.951 1.149-3.403 3.357-3.977 6.749-1.215-0.7536-2.408-1.541-3.575-2.367l2.791 8.37s6.771 10.49 37.62 10.49c30.85 0 37.62-10.49 37.62-10.49l2.791-8.37c-1.732 1.227-3.519 2.375-5.355 3.44-0.9925 0.573-1.995 1.119-3.008 1.64-0.5471-1.773-1.428-3.309-2.556-4.564 0.0655-0.071 0.1104-0.1586 0.1297-0.2532 1.286-6.43 5.193-8.649 9.07-8.869 1.939-0.1103 3.87 0.3126 5.406 1.024 1.536 0.7111 2.654 1.724 3.037 2.653l0.8222-0.7793c-0.5435-1.32-1.718-2.049-3.414-2.834-1.594-0.7379-3.532-1.184-5.526-1.134-1e-3 -7e-3 -3e-3 -0.0145-5e-3 -0.0217-0.4297-1.655-1.643-2.967-3.24-3.846-1.547-0.8509-3.462-1.31-5.457-1.308h-5.2e-4c-0.0642 6e-5 -0.1284 1e-3 -0.1928 2e-3 -4.109 0.0642-8.549 2.115-10.61 6.849-2.271-1.599-4.877-2.343-7.433-2.346-4.56-4e-3 -8.958 2.351-10.99 6.42-0.0656 0.1311-0.012 0.2906 0.1194 0.3555 0.1304 0.0659 0.2896 0.0137 0.3555-0.1168 3.776-7.553 16.19-9.027 21.63 0.5964-0.2114-0.0442-0.4245-0.0832-0.6392-0.1163-1.111-0.1709-2.263-0.1917-3.43-0.0527-3.499 0.4169-7.129 2.27-10.16 5.809-0.1429 0.1666-0.1235 0.4176 0.0434 0.5602 0.1665 0.1431 0.4174 0.1239 0.5602-0.0429 3.893-4.542 8.712-6.127 12.87-5.488 4.119 0.6337 7.592 3.447 8.902 7.867-6.426 3.211-13.22 5.377-20.15 6.495 0.0103-6.865-4.218-12.69-9.79-15.39-1.493-0.7254-3.088-1.225-4.725-1.459-0.5185-0.0741-1.041-0.1197-1.566-0.1395 0.0156-0.0778 7e-3 -0.1584-0.0233-0.2315-2.059-4.804-6.893-6.533-11.47-6.193-4.582 0.3394-9.016 2.678-10.43 6.201-0.0271 0.0704-0.0336 0.1472-0.0186 0.2212-0.7627-0.1829-1.518-0.281-2.251-0.2858-0.7353-5e-3 -1.449 0.0845-2.129 0.2728 0.0105-0.0915-3e-3 -0.1841-0.0393-0.2687-1.016-2.37-2.526-3.96-4.243-4.933 9e-3 -0.0102 0.0167-0.0211 0.0238-0.0326 2.551-5.102 10.2-5.102 12.76 0 0.0657 0.1306 0.225 0.1832 0.3555 0.1173 0.1302-0.0649 0.1836-0.2229 0.1194-0.3535-1.37-2.74-4.111-4.111-6.852-4.111-2.741 0-5.482 1.371-6.852 4.111-3e-3 9e-3 -6e-3 0.0178-8e-3 0.0269-1.657-0.8181-3.478-1.095-5.218-0.9664-0.7979 0.0591-1.583 0.1963-2.334 0.4-0.841-3.665-3.457-5.57-6.197-6.224-0.8126-0.1938-1.637-0.2839-2.433-0.2822zm99.06 1.567c-0.2935 1e-3 -0.5871 0.0122-0.88 0.0331-3.124 0.2225-6.18 1.571-7.885 4.092-0.0817 0.1208-0.0502 0.2848 0.0703 0.3669 0.1208 0.0817 0.2848 0.0502 0.3669-0.0703 1.589-2.35 4.487-3.648 7.484-3.861 2.997-0.2135 6.071 0.6627 7.985 2.576 0.1034 0.104 0.2717 0.104 0.3752 0 0.1026-0.1032 0.1026-0.2699 0-0.3731-1.863-1.863-4.679-2.774-7.516-2.763zm-16.41 1.962c1.807 0.0261 3.53 0.4577 4.894 1.208 1.409 0.775 2.424 1.877 2.817 3.219-4.047 0.3841-8.149 3.009-9.545 9.314-1.365-1.238-3.001-2.126-4.783-2.611-1.014-1.923-2.295-3.445-3.735-4.597 0.0252-0.0296 0.0459-0.0626 0.0615-0.0982 1.919-4.477 6.052-6.375 9.928-6.435 0.1211-2e-3 0.2418-2e-3 0.3622-5.1e-4zm-45.62 3.328c3.903 0.0389 7.674 1.691 9.422 5.664-4.2 0.0675-8.489 1.936-11.91 6.218-0.0294 0.0382-0.0534 0.0803-0.0713 0.1251-2.09-2.644-4.647-4.615-7.218-5.694-0.4197-0.1761-0.8406-0.3277-1.26-0.4553 0.0296-0.0333 0.0534-0.0714 0.0703-0.1126 1.237-3.091 5.4-5.383 9.748-5.705 0.4076-0.0302 0.8163-0.0438 1.223-0.0398zm-13.97 5.915c1.271 9e-3 2.623 0.3146 3.985 0.8862 5.028 2.11 10.1 7.855 11.37 15.4-7.392-1.475-14.6-4.153-21.32-8.035-0.4337-0.2516-0.8638-0.5087-1.292-0.7695 0.5264-3.405 1.924-5.517 3.759-6.598 1.038-0.6112 2.228-0.8977 3.499-0.8883zm23.31 0.7808c2.315-0.0463 4.606 0.5073 6.707 1.528 5.27 2.56 9.269 8.096 9.192 14.61-7.732 1.127-15.61 0.9533-23.3-0.5168-0.5809-3.668-2.033-6.927-3.957-9.582 0.137-0.0146 0.2629-0.0821 0.3509-0.1881 3.222-4.027 7.146-5.771 11-5.848z" style="fill:#666;stroke-width:15.82"/>
 </g>
 <style type="text/css">.st0{fill:#A86436;}
	.st1{fill:#00A296;}
	.st2{fill:#452700;}
	.st3{fill:#CB804F;}
	.st4{fill:#A18BFF;}
	.st5{fill:#F3A66F;}
	.st6{fill:#9781F5;}
	.st7{fill:#E49656;}
	.st8{fill:#5F5F5F;}
	.st9{clip-path:url(#SVGID_1_);fill:#092737;}
	.st10{clip-path:url(#SVGID_1_);fill:#092837;}
	.st11{clip-path:url(#SVGID_1_);fill:#092838;}
	.st12{fill:#0B2A39;}
	.st13{clip-path:url(#SVGID_2_);fill:#0B2939;}
	.st14{clip-path:url(#SVGID_2_);fill:#0B2A39;}
	.st15{clip-path:url(#SVGID_2_);fill:#0A2939;}
	.st16{clip-path:url(#SVGID_2_);fill:#0A2938;}
	.st17{clip-path:url(#SVGID_2_);fill:#0A2838;}
	.st18{clip-path:url(#SVGID_2_);fill:#092838;}
	.st19{clip-path:url(#SVGID_3_);fill:#092737;}
	.st20{clip-path:url(#SVGID_3_);fill:#092837;}
	.st21{clip-path:url(#SVGID_3_);fill:#092838;}
	.st22{clip-path:url(#SVGID_3_);fill:#0A2838;}
	.st23{clip-path:url(#SVGID_3_);fill:#0A2938;}
	.st24{clip-path:url(#SVGID_3_);fill:#0A2939;}
	.st25{clip-path:url(#SVGID_3_);fill:#0B2939;}
	.st26{fill:#0A2838;}
	.st27{clip-path:url(#SVGID_4_);fill:#092838;}
	.st28{clip-path:url(#SVGID_4_);fill:#092837;}
	.st29{clip-path:url(#SVGID_4_);fill:#092737;}
	.st30{clip-path:url(#SVGID_5_);fill:#092838;}
	.st31{clip-path:url(#SVGID_5_);fill:#092837;}
	.st32{clip-path:url(#SVGID_5_);fill:#092737;}
	.st33{clip-path:url(#SVGID_6_);fill:#092737;}
	.st34{clip-path:url(#SVGID_6_);fill:#092837;}
	.st35{clip-path:url(#SVGID_6_);fill:#092838;}
	.st36{clip-path:url(#SVGID_7_);fill:#0B2A39;}
	.st37{clip-path:url(#SVGID_7_);fill:#0B2939;}
	.st38{clip-path:url(#SVGID_7_);fill:#0A2939;}
	.st39{clip-path:url(#SVGID_7_);fill:#0A2938;}
	.st40{clip-path:url(#SVGID_7_);fill:#0A2838;}
	.st41{clip-path:url(#SVGID_7_);fill:#092838;}
	.st42{clip-path:url(#SVGID_8_);fill:#092737;}
	.st43{clip-path:url(#SVGID_8_);fill:#092837;}
	.st44{clip-path:url(#SVGID_8_);fill:#092838;}
	.st45{clip-path:url(#SVGID_8_);fill:#0A2838;}
	.st46{clip-path:url(#SVGID_8_);fill:#0A2938;}
	.st47{clip-path:url(#SVGID_8_);fill:#0A2939;}
	.st48{clip-path:url(#SVGID_8_);fill:#0B2939;}
	.st49{clip-path:url(#SVGID_8_);fill:#0B2A39;}
	.st50{clip-path:url(#SVGID_9_);fill:#092838;}
	.st51{clip-path:url(#SVGID_9_);fill:#0A2838;}
	.st52{clip-path:url(#SVGID_9_);fill:#0A2938;}
	.st53{clip-path:url(#SVGID_9_);fill:#0A2939;}
	.st54{clip-path:url(#SVGID_9_);fill:#092837;}
	.st55{clip-path:url(#SVGID_9_);fill:#092737;}
	.st56{clip-path:url(#SVGID_10_);fill:#092838;}
	.st57{clip-path:url(#SVGID_10_);fill:#092837;}
	.st58{clip-path:url(#SVGID_10_);fill:#092737;}
	.st59{clip-path:url(#SVGID_11_);fill:#0A2838;}
	.st60{clip-path:url(#SVGID_11_);fill:#092838;}
	.st61{clip-path:url(#SVGID_11_);fill:#092837;}
	.st62{clip-path:url(#SVGID_11_);fill:#092737;}
	.st63{fill:#0A2938;}
	.st64{clip-path:url(#SVGID_12_);fill:#0A2938;}
	.st65{clip-path:url(#SVGID_12_);fill:#0A2838;}
	.st66{clip-path:url(#SVGID_12_);fill:#092838;}
	.st67{clip-path:url(#SVGID_12_);fill:#092837;}
	.st68{clip-path:url(#SVGID_12_);fill:#092737;}
	.st69{fill:#0A2939;}
	.st70{fill:#092838;}
	.st71{clip-path:url(#SVGID_13_);fill:#092838;}
	.st72{clip-path:url(#SVGID_13_);fill:#0A2838;}
	.st73{clip-path:url(#SVGID_13_);fill:#0A2938;}
	.st74{clip-path:url(#SVGID_13_);fill:#0A2939;}
	.st75{clip-path:url(#SVGID_13_);fill:#0B2939;}
	.st76{clip-path:url(#SVGID_13_);fill:#0B2A39;}</style>
 <style type="text/css">.st0{fill:#F3F3F3;}
	.st1{fill:#E0E0E0;}
	.st2{fill:#FFB95B;}
	.st3{fill:#F2836B;}
	.st4{fill:#D96A52;}
	.st5{fill:#7C5A66;}
	.st6{fill:#FFC975;}
	.st7{fill:#906E66;}
	.st8{fill:#E17D55;}
	.st9{fill:#E6E6E6;}
	.st10{fill:#FDFDFD;}
	.st11{fill:#C3C3C3;}
	.st12{fill:#D7D7D7;}
	.st13{fill:#CDCDCD;}
	.st14{fill:#734D2B;}
	.st15{fill:#8C6644;}
	.st16{clip-path:url(#SVGID_1_);fill:#109F94;}
	.st17{clip-path:url(#SVGID_1_);fill:#13A194;}
	.st18{clip-path:url(#SVGID_1_);fill:#004F82;}
	.st19{clip-path:url(#SVGID_1_);fill:#005182;}
	.st20{clip-path:url(#SVGID_1_);fill:#005382;}
	.st21{clip-path:url(#SVGID_1_);fill:#088F94;}
	.st22{clip-path:url(#SVGID_1_);fill:#0A9094;}
	.st23{clip-path:url(#SVGID_1_);fill:#0F9E94;}
	.st24{clip-path:url(#SVGID_1_);fill:#0D9D94;}
	.st25{fill:#001D51;}
	.st26{clip-path:url(#SVGID_2_);fill:#109F94;}
	.st27{clip-path:url(#SVGID_2_);fill:#13A194;}
	.st28{clip-path:url(#SVGID_2_);fill:#004F82;}
	.st29{clip-path:url(#SVGID_2_);fill:#005182;}
	.st30{clip-path:url(#SVGID_2_);fill:#005382;}
	.st31{clip-path:url(#SVGID_2_);fill:#088F94;}
	.st32{clip-path:url(#SVGID_2_);fill:#0A9094;}
	.st33{clip-path:url(#SVGID_2_);fill:#0F9E94;}
	.st34{clip-path:url(#SVGID_2_);fill:#0D9D94;}
	.st35{clip-path:url(#SVGID_3_);fill:#109F94;}
	.st36{clip-path:url(#SVGID_3_);fill:#13A194;}
	.st37{clip-path:url(#SVGID_3_);fill:#004F82;}
	.st38{clip-path:url(#SVGID_3_);fill:#005182;}
	.st39{clip-path:url(#SVGID_3_);fill:#005382;}
	.st40{clip-path:url(#SVGID_3_);fill:#088F94;}
	.st41{clip-path:url(#SVGID_3_);fill:#0A9094;}
	.st42{clip-path:url(#SVGID_3_);fill:#0F9E94;}
	.st43{clip-path:url(#SVGID_3_);fill:#0D9D94;}
	.st44{clip-path:url(#SVGID_4_);fill:#109F94;}
	.st45{clip-path:url(#SVGID_4_);fill:#13A194;}
	.st46{clip-path:url(#SVGID_4_);fill:#004F82;}
	.st47{clip-path:url(#SVGID_4_);fill:#005182;}
	.st48{clip-path:url(#SVGID_4_);fill:#005382;}
	.st49{clip-path:url(#SVGID_4_);fill:#088F94;}
	.st50{clip-path:url(#SVGID_4_);fill:#0A9094;}
	.st51{clip-path:url(#SVGID_4_);fill:#0F9E94;}
	.st52{clip-path:url(#SVGID_4_);fill:#0D9D94;}
	.st53{fill:#000635;}
	.st54{fill:#02BF94;}
	.st55{fill:#009B94;}
	.st56{fill:#02587B;}
	.st57{fill:#A8FF94;}
	.st58{fill:#001B50;}
	.st59{fill:#005382;}
	.st60{fill:#3B3939;}
	.st61{fill:#545252;}
	.st62{fill:#4A4848;}
	.st63{fill:#403E3E;}
	.st64{fill:#5E5C5C;}
	.st65{fill:#312F2F;}
	.st66{fill:#46313D;}
	.st67{fill:#321D29;}
	.st68{fill:#5F4A56;}
	.st69{fill:#412C38;}
	.st70{fill:#F0A178;}
	.st71{fill:#00C688;}
	.st72{fill:#00B274;}
	.st73{fill:#572A14;}
	.st74{fill:#4A5796;}
	.st75{fill:#4F5C9B;}
	.st76{fill:#3F4D80;}
	.st77{fill:#E4E4E4;}
	.st78{fill:#F3A66F;}
	.st79{fill:#663923;}
	.st80{fill:#E62722;}
	.st81{fill:#A2ABA5;}
	.st82{fill:#CAE6E8;}
	.st83{fill:#595855;}
	.st84{fill:#6370AF;}
	.st85{fill:#8E9791;}</style>
 <style type="text/css">.st0{fill:#A86436;}
	.st1{fill:#00A296;}
	.st2{fill:#452700;}
	.st3{fill:#CB804F;}
	.st4{fill:#A18BFF;}
	.st5{fill:#F3A66F;}
	.st6{fill:#9781F5;}
	.st7{fill:#E49656;}
	.st8{fill:#663923;}</style>
 <path d="m190.7 162.3 2.022-0.9384c0.164-0.6528 0.6874-1.616 1.502-1.872 0.815-0.2565 1.887-0.2269 2.922 0.2207 2.07 0.8953 4.107 3.407 3.742 8.803-0.4297 6.363 0.3868 8.146 0.9005 9.902l1.396-0.7539c-0.4598-1.594-1.13-2.898-0.715-9.043 0.3945-5.843-1.951-9.179-4.693-10.37-3.501-1.343-5.997-0.1594-7.077 4.047z" style="-inkscape-stroke:none;color:#000000;fill:#ccc;stroke-linejoin:round"/>
 <path d="m188.6 163.4 2.178-1.103c0.164-0.6528 0.6259-1.7 1.441-1.956 0.815-0.2565 1.887-0.2269 2.922 0.2207 2.07 0.8953 4.107 3.407 3.742 8.803-0.4297 6.363 0.5472 11.61 2.984 16.12l1.396-0.7539c-2.723-5.716-3.214-9.119-2.799-15.26 0.3945-5.843-1.951-9.179-4.693-10.37-3.501-1.343-6.091 0.0891-7.171 4.295z" style="-inkscape-stroke:none;color:#000000;fill:#b3b3b3;stroke-linejoin:round"/>
 <path d="m135.9 168.5 2.682-1.613v0.4673l-2.048 1.255 2.048 1.248v0.4801l-2.682-1.6z" style="fill:#ccc;stroke-linejoin:round;stroke-width:.7202"/>
 <path d="m114.1 151.4-0.616-0.3141 1.936-3.797 0.616 0.3141zm-1.446-0.7371-0.616-0.3141 1.936-3.797 0.616 0.3141z" style="fill:#ccc;stroke-linejoin:round;stroke-width:1.588"/>
 <path d="m145.1 138.4q0-0.4658 0.1005-0.9134 0.1005-0.4567 0.274-0.8951 0.1735-0.4476 0.4019-0.886 0.2375-0.4476 0.5024-0.8951l0.475 0.2284q-0.1827 0.274-0.3928 0.6759-0.2009 0.4019-0.3745 0.8586-0.1736 0.4567-0.2923 0.9408-0.1096 0.475-0.1096 0.9134 0 0.7124 0.3105 1.562 0.3106 0.8403 0.8495 1.662l-0.4658 0.2466q-0.5754-0.8586-0.9316-1.735-0.3471-0.886-0.3471-1.763z" style="fill:#666;stroke-linejoin:round;stroke-width:1.868"/>
 <path d="m129.9 134.4 4.762-18.79 58.47 31.22-10.58 13.23-18.52 10.58-3.44 0.5292-1.323-19.84z" style="fill:#f00;stroke-linejoin:round;stroke-width:.7938"/>
</svg>
