<?xml version="1.0" encoding="UTF-8" standalone="no"?>
<svg
   version="1.1"
   viewBox="50 20 160 210"
   id="svg575"
   sodipodi:docname="bol3.svg"
   inkscape:version="1.2 (dc2aedaf03, 2022-05-15)"
   xmlns:inkscape="http://www.inkscape.org/namespaces/inkscape"
   xmlns:sodipodi="http://sodipodi.sourceforge.net/DTD/sodipodi-0.dtd"
   xmlns="http://www.w3.org/2000/svg"
   xmlns:svg="http://www.w3.org/2000/svg">
  <sodipodi:namedview
     id="namedview577"
     pagecolor="#505050"
     bordercolor="#eeeeee"
     borderopacity="1"
     inkscape:showpageshadow="0"
     inkscape:pageopacity="0"
     inkscape:pagecheckerboard="0"
     inkscape:deskcolor="#505050"
     showgrid="false"
     inkscape:zoom="15.504762"
     inkscape:cx="120.83384"
     inkscape:cy="87.940724"
     inkscape:window-width="1920"
     inkscape:window-height="1001"
     inkscape:window-x="-9"
     inkscape:window-y="-9"
     inkscape:window-maximized="1"
     inkscape:current-layer="svg575" />
  <g
     id="g434">
    <ellipse
       class="mode"
       cx="127"
       cy="63.5"
       rx="26.02"
       ry="25.93"
       id="ellipse424" />
    <ellipse
       class="mode"
       cx="126"
       cy="208"
       rx="60"
       ry="20"
       id="ellipse426" />
    <ellipse
       cx="139.4"
       cy="146.4"
       rx="70.11"
       ry="26.33"
       style="fill:#e6e6e6"
       id="ellipse428" />
    <path
       d="m164.3 121.8-37.83 50.48a70.11 26.33 0 0 0 12.97 0.462 70.11 26.33 0 0 0 70.11-26.33 70.11 26.33 0 0 0-45.26-24.62z"
       style="fill:#ccc;stroke-width:1.855"
       id="path430" />
    <path
       d="m139.4 133.6c-29.7 4.8e-4 -56.18 11.44-66.09 19.84 9.894 8.406 36.38 19.85 66.09 19.85 29.72-3e-3 56.2-11.45 66.09-19.85-9.915-8.398-36.39-19.83-66.09-19.83z"
       style="fill:#fff;stroke-width:1.855"
       id="path432" />
  </g>
  <g
     class="hashi2"
     id="g440">
    <path
       d="m72.97 63.25 1.133-3.959 1.594-0.9496 110.6 35.78-0.463 1.429z"
       style="fill:#fff"
       id="path436" />
    <path
       d="m75.69 58.34-1.594 0.9498 5.901 1.832-1.096 3.827 1.188 0.34 1.088-3.8 1.967 0.6108-1.019 3.558 1.188 0.34 1.011-3.532 101.9 31.66-0.1085-0.5814z"
       id="path438" />
  </g>
  <polygon
     transform="matrix(0.6648,0,0,0.6648,-154.35,-5.316)"
     points="476.5,240.5 440,242.4 440,244.9 477.3,266.5 500.9,252.8 504.9,250.5 504.9,248 497.8,247.5 "
     style="fill:#ececec"
     id="polygon462" />
  <polygon
     transform="matrix(0.6648,0,0,0.6648,-154.35,-5.316)"
     points="500.9,250.3 504.9,248 467.6,226.5 440,242.4 477.3,264 "
     style="fill:#cccccc"
     id="polygon464" />
  <polygon
     transform="matrix(0.6648,0,0,0.6648,-154.35,-5.316)"
     points="476.3,259.8 492.7,250.4 463.6,233.6 447.2,243.1 "
     style="fill:#808080"
     id="polygon468" />
  <polygon
     transform="matrix(0.6648,0,0,0.6648,-154.35,-5.316)"
     points="475.4,265.3 473.3,238 475.2,236.7 477.3,264 "
     style="fill:#e6e6e6"
     id="polygon470" />
  <polygon
     transform="matrix(0.6648,0,0,0.6648,-154.35,-5.316)"
     points="438.1,243.8 436,216.5 473.3,238 475.4,265.3 "
     style="fill:#808080"
     id="polygon472" />
  <polygon
     transform="matrix(0.6648,0,0,0.6648,-154.35,-5.316)"
     points="436,216.5 437.9,215.1 475.2,236.7 473.3,238 "
     style="fill:#cccccc"
     id="polygon474" />
  <g
     class="egg"
     id="g494">
    <path
       transform="rotate(-12 104.6 85.32)"
       d="m119.1 153.6a11.82 6.982 0 0 1-5.912 6.046 11.82 6.982 0 0 1-11.82 0 11.82 6.982 0 0 1-5.912-6.046h11.82z"
       style="fill:#ccc"
       id="path488" />
    <ellipse
       transform="rotate(-12 104.6 85.32)"
       cx="107.3"
       cy="153.5"
       rx="11.81"
       ry="5.774"
       style="fill:#fff"
       id="ellipse490" />
    <ellipse
       transform="rotate(-12 104.6 85.32)"
       cx="110.9"
       cy="153.2"
       rx="4.46"
       ry="3.499"
       style="fill:#666"
       id="ellipse492" />
  </g>
  <path
     d="m 101.24873,151.63049 -2.745252,0.40316 -1.715637,1.07332 -2.555388,-0.61586 -2.848498,0.19593 -0.868717,-1.27404 -2.312755,-0.7962 v -0.8 l 13.951097,-1.49418 v 0.8 l -1.32702,1.18592 z"
     style="fill:#999999;stroke-width:0.195379"
     id="path496"
     sodipodi:nodetypes="cccccccccccc" />
  <path
     d="m 101.24873,150.83049 -2.745252,0.40316 -1.715637,1.07332 -2.555388,-0.61586 -2.848498,0.19593 -0.868717,-1.27404 -2.312755,-0.7962 1.327023,-1.18592 -0.422169,-1.32195 2.745249,-0.40316 1.715638,-1.07332 2.555388,0.61586 2.848498,-0.19593 0.868717,1.27404 2.312753,0.7962 -1.32702,1.18592 z"
     style="fill:#cccccc;stroke-width:0.195379"
     id="path498"
     sodipodi:nodetypes="ccccccccccccccccc" />
  <path
     d="m 94.79,147.3 -2.703,0.9833 1.167,2.307 3.36,-0.6044 -0.9362,-1.555 -1.186,-0.0147 -0.8405,0.4935 0.05806,0.4743 0.7043,0.2878 0.6294,-0.2984 -0.1938,-0.186 -0.41361,0.2485 -0.3544,-0.1515 -0.03844,-0.3051 0.5888,-0.3415 0.8891,0.0109 0.7223,1.236 -2.803,0.4947 -0.9914,-1.985 3.539167,-0.6447 2.237833,1.464 0.407,-0.0279 -1.898,-1.643 -1.944,-0.243 z"
     style="color:#000000;fill:#999999;fill-rule:evenodd;stroke-width:0.07776;-inkscape-stroke:none"
     id="path500"
     sodipodi:nodetypes="ccccccccccccccccccccccccc" />
  <path
     class="motif motif1"
     d="m89.48 96.38-1.637 1.637-1.637-1.637-0.4677 0.4677 1.637 1.637-1.637 1.637 0.4677 0.4677 1.637-1.637 1.637 1.637 0.4677-0.4677-1.637-1.637 1.637-1.637z"
     style="fill:#666"
     id="path504" />
  <path
     class="motif motif2"
     d="m140.1 105.8v2.315h-2.315v0.6615h2.315v2.315h0.6615v-2.315h2.315v-0.6615h-2.315v-2.315z"
     style="fill:#808080"
     id="path506" />
  <g
     class="motif motif3"
     id="g512">
    <path
       d="m97.91 119.5a1.352 1.352 0 0 1-1.352 1.352 1.352 1.352 0 0 1-1.352-1.352 1.352 1.352 0 0 1 1.352-1.352 1.352 1.352 0 0 1 1.352 1.352z"
       style="fill:none;stroke-width:.1792;stroke:#4d4d4d"
       id="path508" />
    <path
       d="m97.1 119.5a0.5407 0.5407 0 0 1-0.5407 0.5407 0.5407 0.5407 0 0 1-0.5407-0.5407 0.5407 0.5407 0 0 1 0.5407-0.5407 0.5407 0.5407 0 0 1 0.5407 0.5407z"
       style="fill:#808080;stroke-width:.1792"
       id="path510" />
  </g>
  <path
     class="smoke smoke1"
     d="m 104.4,141 -4.057,-6.085 8.114,-12.17 -8.114,-12.17 8.114,-12.17 -8.114,-12.17"
     style="fill:none;stroke:#999999;stroke-width:0.6722;stroke-linecap:round;stroke-linejoin:round"
     id="path514"
     sodipodi:nodetypes="cccccc" />
  <path
     class="smoke smoke2"
     d="m 112.5,141 -4.057,-6.085 8.114,-12.17 -8.114,-12.17 8.114,-12.17 -8.114,-12.17"
     style="fill:none;stroke:#cccccc;stroke-width:0.6722;stroke-linecap:round;stroke-linejoin:round"
     id="path516"
     sodipodi:nodetypes="cccccc" />
  <path
     class="smoke smoke3"
     d="m 120.7,141 -4.057,-6.085 8.114,-12.17 -8.114,-12.17 8.114,-12.17 -4.057,-6.085"
     style="fill:none;stroke:#999999;stroke-width:0.6722;stroke-linecap:round;stroke-linejoin:round"
     id="path518"
     sodipodi:nodetypes="cccccc" />
  <path
     class="smoke smoke4"
     d="m 128.8,141 -4.057,-6.085 8.114,-12.17 -8.114,-12.17 8.114,-12.17"
     style="fill:none;stroke:#cccccc;stroke-width:0.6722;stroke-linecap:round;stroke-linejoin:round"
     id="path520"
     sodipodi:nodetypes="ccccc" />
  <path
     d="m 114.2,167.9 -2.687,-4.669 -2.237,-3.272 -1.07,-1.278 -2.601,-1.884 -2.7,-0.3798 -5.028,0.4279 -7.41,0.2864 -2.14,-0.1831 -1.948,-0.4386 -1.653,-0.6705 -2.669,-2.468 -0.1601,-1.344 0.1216,-0.7842 -0.4984,-0.0834 -0.1643,0.8595 0.1908,1.597 2.842,2.738 1.722,0.7241 2.013,0.4741 2.179,0.1989 7.774,-0.3684 4.672,-0.4334 2.548,0.3065 2.404,1.757 1.037,1.255 2.208,3.248 2.753,4.569 0.501,-0.1865 z"
     style="fill:#808080"
     id="path530"
     sodipodi:nodetypes="cccccccccccccccccccccccccccccc" />
  <path
     d="m 79.82,154.4 -0.02325,0.008 -0.1643,0.8594 0.1907,1.597 0.04289,0.0951 1.162,0.7183 -0.6945,-1.058 -0.1602,-1.344 0.122,-0.7844 -0.4754,-0.0915 z m 21.05,5.263 -4.711,0.4315 -7.41,0.2863 -2.14,-0.1829 -1.629,-0.3622 2.253,1.07 1.352,0.0951 7.774,-0.3684 4.672,-0.4336 2.549,0.3064 2.404,1.758 1.037,1.255 2.208,3.248 0.88,1.4 0.8274,0.1633 -1.141,-1.85 -2.237,-3.272 -1.07,-1.277 -2.601,-1.884 -2.7,-0.3798 -0.3163,-0.004 z"
     style="fill:#b3b3b3"
     id="path532"
     sodipodi:nodetypes="ccccccccccccccccccccccccccccccccc" />
  <path
     d="m 98.41,162.3 -4.711,0.4315 -1.722,0.1385 1.215,0.4692 0.7069,-0.0703 4.672,-0.4336 2.549,0.3064 2.404,1.758 1.037,1.255 0.6253,0.848 0.9147,0.2258 -1.002,-1.384 -1.071,-1.277 -2.6,-1.884 -2.7,-0.3798 -0.3163,-0.004 z"
     style="fill:#808080"
     id="path534"
     sodipodi:nodetypes="ccccccccccccccccc" />
  <path
     d="m 154.4,168.8 -13.53,-6.188 -3.393,-1.359 -3.065,-0.9792 -5.26336,-0.5083 -4.72164,1.084 -2.719,1.778 -3.087,2.599 -1.211,0.4539 -0.6378,0.004 -0.1769,0.4923 1.067,-0.0206 1.331,-0.5205 3.137,-2.59 2.615,-1.652 4.032,-1.014 5.29,0.506 3.013,0.9808 3.361,1.379 13.63,6.027 0.3303,-0.4719 z"
     style="fill:#b3b3b3"
     id="path536"
     sodipodi:nodetypes="cccccccccccccccccccccc" />
  <path
     d="m 125.152,164.856 -2.72,1.778 -3.087,2.599 -1.211,0.4537 -0.6377,0.004 -0.1137,0.2341 1.199,0.1809 1.136,-0.4641 3.137,-2.59 2.614,-1.652 4.032,-1.014 5.29,0.5059 3.013,0.9808 3.361,1.379 9.269,4.113 1.429,-0.1002 -10.27,-4.646 -3.393,-1.359 -3.065,-0.9793 -2.877,-0.508 -3.359,-0.0718 z"
     style="fill:#808080"
     id="path538"
     sodipodi:nodetypes="cccccccccccccccccccccc" />
  <path
     d="m 125.452,169.056 -2.583,1.673 0.8568,0.094 2.044,-1.223 4.032,-1.014 5.29,0.5059 3.013,0.9808 4.0018,1.6544 1.837,-0.031 -2.048,-0.8775 -3.393,-1.359 -3.065,-0.9793 -4.877,-0.508 z"
     style="fill:#b3b3b3"
     id="path540"
     sodipodi:nodetypes="cccccccccccccc" />
  <path
     d="m 69.32,146.4 c 2.34e-4,25.05 13.36,48.2 35.06,60.72 21.69,12.52 48.42,12.52 70.11,0 21.69,-12.52 35.06,-35.67 35.06,-60.72 10e-6,11.62 -31.39,26.33 -70.11,26.33 -38.72,-1e-5 -70.11,-14.71 -70.11,-26.33 z"
     style="fill:#ececec;stroke-width:18.91"
     id="path542" />
  <path
     d="m 69.38,146.3 c 2.34e-4,25.05 13.36,48.2 35.06,60.72 5.202,3.003 10.69,5.281 16.33,6.843 -0.5835,-0.3152 -1.165,-0.635 -1.742,-0.9679 -18.99,-10.96 -31.6,-30.07 -34.44,-51.47 -9.512,-4.689 -15.21,-10.19 -15.21,-15.13 z"
     style="fill:#cccccc;stroke-width:18.91"
     id="path544" />
  <path
     d="m 69.32,146.4 c 0.01063,5.63 0.6996,11.24 2.052,16.7 7.557,9.17 35.16,21.26 68.06,21.26 32.9,0 60.51,-12.09 68.06,-21.26 1.352,-5.466 2.04,-11.07 2.051,-16.7 1e-5,11.62 -31.39,26.33 -70.11,26.33 -38.72,0 -70.11,-14.71 -70.11,-26.33 z m 1.22,10.45 c 5.951,10.74 34.57,22.35 68.98,22.35 34.41,0 63.02,-11.61 68.98,-22.35 -0.2605,1.429 -0.5633,2.851 -0.9126,4.263 -7.557,9.17 -35.16,21.26 -68.06,21.26 -32.9,0 -60.51,-12.09 -68.06,-21.26 -0.3493,-1.412 -0.6521,-2.834 -0.9126,-4.263 z"
     style="fill:#666666;stroke-width:18.91"
     id="path546" />
  <path
     d="m 87.29,185.7 c -0.6197,0.001 -1.223,0.0582 -1.791,0.1648 -1.299,0.2438 -2.414,0.7479 -3.131,1.445 -0.1054,0.1017 -0.1082,0.2696 -0.0062,0.3747 0.1015,0.1044 0.2682,0.1073 0.3731,0.006 1.212,-1.18 4.132,-1.845 6.865,-1.193 2.6,0.62 5.027,2.359 5.813,5.859 -2.546,0.8085 -4.472,2.068 -5.249,3.956 l 0.816,0.7204 c 0.7989,-1.94 3.952,-3.918 7.354,-4.17 3.401,-0.252 6.964,1.06 8.867,5.5 0.0285,0.0631 0.069,0.12 0.1194,0.1674 -0.2538,0.1096 -0.502,0.234 -0.7426,0.3757 -1.951,1.149 -3.403,3.357 -3.977,6.749 -1.215,-0.7536 -2.408,-1.541 -3.575,-2.367 l 2.791,8.37 c 0,0 6.771,10.49 37.62,10.49 30.85,0 37.62,-10.49 37.62,-10.49 l 2.791,-8.37 c -1.732,1.227 -3.519,2.375 -5.355,3.44 -0.9925,0.573 -1.995,1.119 -3.008,1.64 -0.5471,-1.773 -1.428,-3.309 -2.556,-4.564 0.0655,-0.071 0.1104,-0.1586 0.1297,-0.2532 1.286,-6.43 5.193,-8.649 9.07,-8.869 1.939,-0.1103 3.87,0.3126 5.406,1.024 1.536,0.7111 2.654,1.724 3.037,2.653 l 0.8222,-0.7793 c -0.5435,-1.32 -1.718,-2.049 -3.414,-2.834 -1.594,-0.7379 -3.532,-1.184 -5.526,-1.134 -0.001,-0.007 -0.003,-0.0145 -0.005,-0.0217 -0.4297,-1.655 -1.643,-2.967 -3.24,-3.846 -1.547,-0.8509 -3.462,-1.31 -5.457,-1.308 h -5.2e-4 c -0.0642,6e-5 -0.1284,0.001 -0.1928,0.002 -4.109,0.0642 -8.549,2.115 -10.61,6.849 -2.271,-1.599 -4.877,-2.343 -7.433,-2.346 -4.56,-0.004 -8.958,2.351 -10.99,6.42 -0.0656,0.1311 -0.012,0.2906 0.1194,0.3555 0.1304,0.0659 0.2896,0.0137 0.3555,-0.1168 3.776,-7.553 16.19,-9.027 21.63,0.5964 -0.2114,-0.0442 -0.4245,-0.0832 -0.6392,-0.1163 -1.111,-0.1709 -2.263,-0.1917 -3.43,-0.0527 -3.499,0.4169 -7.129,2.27 -10.16,5.809 -0.1429,0.1666 -0.1235,0.4176 0.0434,0.5602 0.1665,0.1431 0.4174,0.1239 0.5602,-0.0429 3.893,-4.542 8.712,-6.127 12.87,-5.488 4.119,0.6337 7.592,3.447 8.902,7.867 -6.426,3.211 -13.22,5.377 -20.15,6.495 0.0103,-6.865 -4.218,-12.69 -9.79,-15.39 -1.493,-0.7254 -3.088,-1.225 -4.725,-1.459 -0.5185,-0.0741 -1.041,-0.1197 -1.566,-0.1395 0.0156,-0.0778 0.007,-0.1584 -0.0233,-0.2315 -2.059,-4.804 -6.893,-6.533 -11.47,-6.193 -4.582,0.3394 -9.016,2.678 -10.43,6.201 -0.0271,0.0704 -0.0336,0.1472 -0.0186,0.2212 -0.7627,-0.1829 -1.518,-0.281 -2.251,-0.2858 -0.7353,-0.005 -1.449,0.0845 -2.129,0.2728 0.0105,-0.0915 -0.003,-0.1841 -0.0393,-0.2687 -1.016,-2.37 -2.526,-3.96 -4.243,-4.933 0.009,-0.0102 0.0167,-0.0211 0.0238,-0.0326 2.551,-5.102 10.2,-5.102 12.76,0 0.0657,0.1306 0.225,0.1832 0.3555,0.1173 0.1302,-0.0649 0.1836,-0.2229 0.1194,-0.3535 -1.37,-2.74 -4.111,-4.111 -6.852,-4.111 -2.741,0 -5.482,1.371 -6.852,4.111 -0.003,0.009 -0.006,0.0178 -0.008,0.0269 -1.657,-0.8181 -3.478,-1.095 -5.218,-0.9664 -0.7979,0.0591 -1.583,0.1963 -2.334,0.4 -0.841,-3.665 -3.457,-5.57 -6.197,-6.224 -0.8126,-0.1938 -1.637,-0.2839 -2.433,-0.2822 z m 99.06,1.567 c -0.2935,0.001 -0.5871,0.0122 -0.88,0.0331 -3.124,0.2225 -6.18,1.571 -7.885,4.092 -0.0817,0.1208 -0.0502,0.2848 0.0703,0.3669 0.1208,0.0817 0.2848,0.0502 0.3669,-0.0703 1.589,-2.35 4.487,-3.648 7.484,-3.861 2.997,-0.2135 6.071,0.6627 7.985,2.576 0.1034,0.104 0.2717,0.104 0.3752,0 0.1026,-0.1032 0.1026,-0.2699 0,-0.3731 -1.863,-1.863 -4.679,-2.774 -7.516,-2.763 z m -16.41,1.962 c 1.807,0.0261 3.53,0.4577 4.894,1.208 1.409,0.775 2.424,1.877 2.817,3.219 -4.047,0.3841 -8.149,3.009 -9.545,9.314 -1.365,-1.238 -3.001,-2.126 -4.783,-2.611 -1.014,-1.923 -2.295,-3.445 -3.735,-4.597 0.0252,-0.0296 0.0459,-0.0626 0.0615,-0.0982 1.919,-4.477 6.052,-6.375 9.928,-6.435 0.1211,-0.002 0.2418,-0.002 0.3622,-5.1e-4 z m -45.62,3.328 c 3.903,0.0389 7.674,1.691 9.422,5.664 -4.2,0.0675 -8.489,1.936 -11.91,6.218 -0.0294,0.0382 -0.0534,0.0803 -0.0713,0.1251 -2.09,-2.644 -4.647,-4.615 -7.218,-5.694 -0.4197,-0.1761 -0.8406,-0.3277 -1.26,-0.4553 0.0296,-0.0333 0.0534,-0.0714 0.0703,-0.1126 1.237,-3.091 5.4,-5.383 9.748,-5.705 0.4076,-0.0302 0.8163,-0.0438 1.223,-0.0398 z m -13.97,5.915 c 1.271,0.009 2.623,0.3146 3.985,0.8862 5.028,2.11 10.1,7.855 11.37,15.4 -7.392,-1.475 -14.6,-4.153 -21.32,-8.035 -0.4337,-0.2516 -0.8638,-0.5087 -1.292,-0.7695 0.5264,-3.405 1.924,-5.517 3.759,-6.598 1.038,-0.6112 2.228,-0.8977 3.499,-0.8883 z m 23.31,0.7808 c 2.315,-0.0463 4.606,0.5073 6.707,1.528 5.27,2.56 9.269,8.096 9.192,14.61 -7.732,1.127 -15.61,0.9533 -23.3,-0.5168 -0.5809,-3.668 -2.033,-6.927 -3.957,-9.582 0.137,-0.0146 0.2629,-0.0821 0.3509,-0.1881 3.222,-4.027 7.146,-5.771 11,-5.848 z"
     style="fill:#666666;stroke-width:15.82"
     id="path548"
     sodipodi:nodetypes="cccccccccccccccccccccccccccccccccccccccccccccccccccccccccccccccccccccccccccccccccccccccccccccccccccccccccccccccccccccc" />
  <path
     d="m190.7 162.3 2.022-0.9384c0.164-0.6528 0.6874-1.616 1.502-1.872 0.815-0.2565 1.887-0.2269 2.922 0.2207 2.07 0.8953 4.107 3.407 3.742 8.803-0.4297 6.363 0.3868 8.146 0.9005 9.902l1.396-0.7539c-0.4598-1.594-1.13-2.898-0.715-9.043 0.3945-5.843-1.951-9.179-4.693-10.37-3.501-1.343-5.997-0.1594-7.077 4.047z"
     style="-inkscape-stroke:none;color:#000000;fill:#ccc;stroke-linejoin:round"
     id="path552" />
  <path
     d="m188.6 163.4 2.178-1.103c0.164-0.6528 0.6259-1.7 1.441-1.956 0.815-0.2565 1.887-0.2269 2.922 0.2207 2.07 0.8953 4.107 3.407 3.742 8.803-0.4297 6.363 0.5472 11.61 2.984 16.12l1.396-0.7539c-2.723-5.716-3.214-9.119-2.799-15.26 0.3945-5.843-1.951-9.179-4.693-10.37-3.501-1.343-6.091 0.0891-7.171 4.295z"
     style="-inkscape-stroke:none;color:#000000;fill:#b3b3b3;stroke-linejoin:round"
     id="path554" />
  <path
     transform="translate(11.11 1.058)"
     d="m133.2 136.6 2.682-1.613v0.4673l-2.048 1.255 2.048 1.248v0.4801l-2.682-1.6z"
     style="fill:#ccc;stroke-linejoin:round;stroke-width:.7202"
     id="path556" />
  <path
     transform="rotate(-62.99 6.42 -8.54)"
     d="m-89.14 153.9v-0.6914h4.262v0.6914zm0-1.623v-0.6914h4.262v0.6914z"
     style="fill:#ccc;stroke-linejoin:round;stroke-width:1.588"
     id="path558" />
  <path
     transform="rotate(45 4.279 13.94)"
     d="m182.5 11.93v-5.337h0.8143v0.39h-0.3763v4.557h0.3763v0.39z"
     style="fill:#666;stroke-linejoin:round;stroke-width:.7698"
     id="path564" />
  <defs
     id="defs571">
    <linearGradient
       id="Gradient1"
       x1="0"
       y1="0.5"
       x2="0.5"
       y2="0">
      <stop
         offset="0%"
         stop-color="#a5ffd4"
         id="stop566" />
      <stop
         offset="100%"
         stop-color="#fff"
         stop-opacity="0"
         id="stop568" />
    </linearGradient>
  </defs>
  <path
     class="st78"
     d="m 182.24807,154.30117 -7.52332,0.90462 -4.75983,2.10077 -2.77485,2.33753 0.73248,1.16515 2.94441,-1.78649 2.39233,-0.7484 -2.34581,1.23752 -2.66526,1.98912 0.66032,1.069 2.80689,-1.28715 2.73143,-1.39155 -2.44712,1.62417 -2.21864,1.21788 0.81582,0.95961 2.57324,-1.24061 2.48847,-1.03034 -1.69964,1.13 -1.93743,1.00108 0.88362,0.58618 1.94881,-0.74591 8.32454,-3.26593 4.8852,-2.66343 -2.49686,-2.6291 -3.31776,-0.53124 z"
     style="fill:#b3b3b3;stroke-width:1.01586"
     id="path226"
     sodipodi:nodetypes="cccccccccccccccccccccccccc" />
  <path
     d="m 163.72549,94.831081 1.54867,7.743349 1.54867,-7.743349 z"
     id="path198"
     style="stroke-width:0.994652"
     sodipodi:nodetypes="cccc" />
  <path
     class="st4"
     d="m 177.45166,112.20761 -7.67372,1.4323 -10.75217,4.74547 -2.91233,18.63973 3.46038,2.49359 0.1127,2.95709 18.10882,9.35962 15.01301,1.1041 3.72496,-3.88709 3.94478,-16.61065 -6.20561,-9.93755 -7.58819,-5.68442 h -6e-4 l -0.39498,-0.29034 -2.63284,-1.94255 -0.10523,-0.0781 -6.09621,-2.30361 z"
     style="fill:#808080;stroke-width:0.309734"
     id="path200"
     sodipodi:nodetypes="cccccccccccccccccc" />
  <path
     class="st6"
     d="m 191.61652,133.89097 -0.27757,19.13706 1.92962,-0.44461 z"
     style="fill:#666666;stroke-width:0.994652"
     id="path202"
     sodipodi:nodetypes="cccc" />
  <path
     class="st5"
     d="m 185.70725,107.93062 v 8.65345 c 0,0.26358 -0.0787,0.51632 -0.23195,0.73067 -0.83591,1.16871 -3.82642,5.14532 -7.23807,7.24005 -2.95212,1.81325 -6.69897,0.37598 -6.69897,-2.90437 v -8.05269 c 0,0 0.21435,-0.58227 0.41597,-0.80895 l 5.6327,-6.3379 c 0.27134,-0.30506 0.67268,-0.46023 1.07819,-0.41656 l 5.91519,0.63797 c 0.64115,0.0696 1.12694,0.612 1.12694,1.25823 z"
     style="fill:#b3b3b3;stroke-width:0.309734"
     id="path204" />
  <path
     class="st5"
     d="m 178.54577,107.73169 c -2.00919,2.55923 -6.97846,6.75765 -6.97846,6.75765 v 4.33567 h 6.08327 c 4.00248,0 6.06936,-5.98381 7.54442,-8.98168 -5.24081,-2.74822 -6.64923,-2.11164 -6.64923,-2.11164 z"
     style="fill:#999999;stroke-width:0.309734"
     id="path206" />
  <path
     class="st5"
     d="m 188.29334,102.13181 0.1855,-3.363906 c 0,0 -0.9865,-9.901737 -9.60135,-12.084993 -5.19506,-1.317911 -11.76671,3.76276 -13.01002,6.585576 -0.83928,1.9147 -0.83531,2.956098 -0.61947,5.040884 l 0.0574,5.590929 c -1.60636,8.58482 4.31877,12.93044 8.93395,13.52723 5.75007,0.74171 8.15711,0.15895 11.07044,-4.46697 0.30168,-0.47853 1.70583,-3.24256 1.70583,-3.24256 l 2.33146,-5.54517 c 0,0 -0.39488,-1.7098 -1.05632,-2.04102 z"
     style="fill:#b3b3b3;stroke-width:0.311624"
     id="path208"
     sodipodi:nodetypes="cccccccccccc" />
  <path
     class="st4"
     d="m 193.16712,152.39146 11.77665,1.16871 -1.55662,-18.20209 -9.04336,-12.91055 -3.55687,14.4622 2.3792,15.4867 z"
     style="fill:#808080;stroke-width:0.309734"
     id="path210"
     sodipodi:nodetypes="ccccccc" />
  <path
     class="st8"
     d="m 189.68585,86.774419 2.78701,-0.619468 -5.57502,-1.239334 -13.48993,-1.789462 -5.27537,5.230906 -5.27538,5.230907 -1.60685,2.787505 -1.60686,2.787506 9.74657,-1.018521 -2.59405,1.858002 13.90521,1.94753 2.6209,1.89878 0.46271,3.49918 4.45802,-3.54195 c 0,0 -0.37375,1.79407 -0.82819,3.23803 -0.45444,1.44396 -1.76287,2.95367 -1.76287,2.95367 l 0.005,2.48264 7.74335,-13.626697 -3.717,-12.075047 z"
     style="fill:#1a1a1a;stroke-width:0.309734"
     id="path228"
     sodipodi:nodetypes="cccccccccccccczccccc" />
  <path
     class="st70"
     d="m 162.43244,102.93748 -0.15606,0.20509 0.0254,0.57043 0.44212,0.62428 0.26676,2.97798 2.10667,2.9551 2.74424,0.7997 1.92166,-1.00559 0.95029,-2.7512 0.61579,-0.35441 0.55293,0.69566 0.60972,3.20476 1.74361,2.07484 2.74126,0.7991 2.37522,-1.64813 0.59709,-2.72634 0.49235,-0.31138 3.98855,-2.76115 1.858,-2.16833 -6.34089,3.92588 -3.41612,-1.56572 -3.41613,-0.42557 -1.72522,-0.1265 -1.68593,-0.86863 -2.96185,-1.28884 -3.55474,-0.49074 z m 1.62626,1.7834 4.96708,1.42903 0.78518,1.73069 -0.60495,1.75257 -1.22541,0.62484 -2.74423,-0.7997 -1.45518,-2.04202 -0.21296,-1.96741 0.48937,-0.72888 z m 9.54565,2.79795 5.05601,1.43993 0.52447,1.04438 -0.42889,1.77943 -1.63918,1.14086 -2.74126,-0.7997 -1.11301,-1.30697 -0.3896,-2.04301 0.73076,-1.25425 z"
     style="fill:#4d4d4d;stroke-width:0.309734"
     id="path230"
     sodipodi:nodetypes="ccccccccccccccccccccccccccccccccccccccccccccccc" />
  <ellipse
     cx="167.4057"
     cy="106.43864"
     rx="0.92910218"
     ry="1.0841682"
     style="fill:#4d4d4d;stroke-width:0.994652"
     id="ellipse232" />
  <ellipse
     cx="175.76076"
     cy="108.72633"
     rx="0.92910218"
     ry="1.0841682"
     style="fill:#4d4d4d;stroke-width:0.994652"
     id="ellipse234" />
  <path
     class="st70"
     d="m 173.57252,107.53276 c 0,0 2.0978,0.0822 2.94925,0.34363 0.85146,0.26143 2.10676,1.09629 2.10676,1.09629 l 0.52447,1.04438 -0.42889,1.77943 c 0,0 -0.84101,1.01035 -1.63918,1.14087 -0.79817,0.13052 -2.74125,-0.7997 -2.74125,-0.7997 l -1.11302,-1.30697 -0.3896,-2.04301 z"
     style="fill:#f9f9f9;stroke-width:0.994652"
     id="path236"
     sodipodi:nodetypes="czccczcccc" />
  <path
     class="st70"
     d="m 164.02389,104.72785 c 0,0 1.71681,0.0879 2.55467,0.32696 0.83786,0.23903 2.41241,1.10207 2.41241,1.10207 l 0.78517,1.73069 -0.60494,1.75257 -1.22541,0.62484 c 0,0 -2.01514,-0.28182 -2.74424,-0.7997 -0.7291,-0.51788 -1.45517,-2.04202 -1.45517,-2.04202 l -0.21296,-1.96741 0.48937,-0.72888 z"
     style="fill:#f9f9f9;stroke-width:0.994652"
     id="path238"
     sodipodi:nodetypes="czcccczcccc" />
  <path
     d="m 169.89232,110.01938 -0.9292,2.16834 0.30973,0.9292 2.78701,0.30973 -0.92921,0.30974 -2.787,1e-5 -0.30973,-0.9292 z"
     style="fill:#999999;stroke-width:0.929101;stroke-linejoin:round"
     id="path240" />
  <path
     class="blinked"
     transform="translate(44.05,6.234)"
     d="m 92.74,131.6 4.762,-18.79 51.59,26.46 -11.91,14.02 -18.26,10.58 -1.323,-17.99 z"
     fill="url(#Gradient1)"
     id="path573"
     sodipodi:nodetypes="ccccccc" />
  <g
     class="hashi"
     id="g526">
    <path
       d="m89.29 30.71 2.242-3.454 1.802-0.4417 95.27 66.57-0.8608 1.231z"
       style="fill:#fff"
       id="path522" />
    <path
       d="m93.33 26.81-1.802 0.4418 5.107 3.479-2.167 3.339 1.037 0.6728 2.152-3.316 1.702 1.16-2.015 3.104 1.036 0.6728 2-3.081 88.22 60.1 0.0661-0.5881z"
       id="path524" />
  </g>
</svg>
