<svg fill="currentColor" version="1.1" version="1.1" viewBox="0 0 512 512" xmlns="http://www.w3.org/2000/svg">
 <path d="m322.2 12.59h-132.3c-13.37 0-24.2 10.84-24.2 24.2 0 13.37 10.84 24.2 24.2 24.2h132.3c13.37 0 24.2-10.84 24.2-24.2 0-13.36-10.84-24.2-24.2-24.2z" style="fill:#80D0E1"/>
 <polygon points="310.7 283.3 310.7 61 201.3 61 201.3 283.3 139.8 356.6 372.2 356.6" style="fill:#fff"/>
 <path d="m372.2 356.6h-232.4l-65.99 78.64c-21.34 25.43-3.263 64.21 29.94 64.21h304.5c33.2 0 51.29-38.78 29.94-64.21l-66-78.64z" style="fill:#FFDA79"/>
 <path d="m447.9 427.1c-12.39-14.76-112.8-134.5-124.5-148.4v-205.2c19.75-0.621 35.63-16.87 35.63-36.77-2e-3 -20.29-16.51-36.8-36.8-36.8h-132.3c-20.29 0-36.8 16.51-36.8 36.8 0 19.9 15.88 36.15 35.63 36.77v205.2c-20.27 24.15-111.4 132.8-124.5 148.4-28.24 33.65-4.281 84.91 39.59 84.91h304.5c43.93 0 67.79-51.3 39.59-84.9zm-269.6-390.3c0-6.401 5.207-11.61 11.61-11.61h132.3c6.401 0 11.61 5.207 11.61 11.61s-5.207 11.61-11.61 11.61h-132.3c-6.402 0-11.61-5.207-11.61-11.61zm32.68 254.6c1.903-2.269 2.947-5.135 2.947-8.096v-33.39h29.06c6.955 0 12.59-5.637 12.59-12.59s-5.639-12.59-12.59-12.59h-29.06v-20.24h29.06c6.955 0 12.59-5.637 12.59-12.59s-5.639-12.59-12.59-12.59h-29.06v-20.24h29.06c6.955 0 12.59-5.637 12.59-12.59s-5.639-12.59-12.59-12.59h-29.06v-60.29h84.3v209.7c0 2.962 1.043 5.829 2.947 8.096l44.11 52.56h-178.4l44.1-52.56zm197.4 195.4h-304.5c-22.56 0-34.8-26.23-20.29-43.52l62.22-74.14h220.7l62.22 74.14c14.5 17.28 2.279 43.52-20.29 43.52z" style="fill:#58595B"/>
 <path d="m317.2 390c-20.96 0-38 17.05-38 38s17.05 38 38 38 38-17.05 38-38c0-20.95-17.05-38-38-38zm0 50.82c-7.066 0-12.81-5.748-12.81-12.81 0-7.065 5.748-12.81 12.81-12.81 7.065 0 12.81 5.748 12.81 12.81 0 7.066-5.748 12.81-12.81 12.81z" style="fill:#58595B"/>
</svg>
