<svg fill="currentColor" version="1.1" viewBox="0 0 400 297" xmlns="http://www.w3.org/2000/svg">
 <path d="m360.9 228.6-7.025 22.89 6.586 20.29 7.529-19.11z" style="fill-opacity:.8;fill:#b3b3b3;stroke-linejoin:round;stroke-width:.0378;stroke:#f00"/>
 <path d="m86.59 158.7v31.19l106.1 51.12h14.4l106.1-51.12 2e-3 -31.19-108.8 52.39c-0.7191 0.3463-1.467 0.6064-2.23 0.7793-0.763 0.173-1.54 0.2598-2.318 0.2598s-1.557-0.0868-2.32-0.2598c-0.7631-0.173-1.512-0.433-2.23-0.7793z" style="fill-opacity:.8;fill:#b3b3b3;stroke-linejoin:round;stroke-width:.0378;stroke:#f00"/>
 <path d="m200 14.53-191.8 92.41 58.91 28.38c0.5183 0.1645 1.03 0.3568 1.528 0.5961l131.4 63.3 131.4-63.3c0.4989-0.2393 1.011-0.4316 1.53-0.5961l58.91-28.38z" style="fill-opacity:.8;fill:#b3b3b3;stroke-linejoin:round;stroke-width:.04164;stroke:#f00"/>
 <path d="m5.933 119.8 59.7 28.76v47.87c0 4.026 2.306 7.696 5.933 9.444l114.2 55.01c1.419 0.6826 2.974 1.037 4.549 1.037h19.19c1.576 0 3.13-0.3547 4.55-1.037l113.9-54.86c2.208-1.065 3.973-2.868 4.989-5.098 0.1434-0.3145 0.2801-0.6323 0.4168-0.9509 0.556-1.301 0.8428-2.703 0.8428-4.117v-47.3l16.28-7.844v64.92c-3.524 2.349-6.24 5.868-7.555 10.15l-9.265 30.19c-1.141 3.723-1.11 7.651 0.0914 11.36l8.592 26.48c2.45 7.553 9.43 12.79 17.37 13.04 0.0528 2e-3 0.1048 3e-3 0.1576 3e-3l0.2616 4e-3c0.0545 8.4e-4 0.109 8.4e-4 0.1644 8.4e-4 7.802 0 14.69-4.691 17.55-11.95l9.934-25.22c1.533-3.888 1.727-8.238 0.5451-12.25l-9.263-31.45c-1.291-4.385-4.03-7.985-7.617-10.37v-75l22.62-10.89c3.627-1.747 5.933-5.417 5.933-9.443v-8.348c0-4.026-2.306-7.696-5.933-9.444l-189.6-91.33c-2.875-1.384-6.224-1.384-9.098 0l-189.4 91.25c-3.627 1.747-5.933 5.417-5.933 9.444v8.508c0 4.026 2.306 7.696 5.933 9.443zm354.6 152-6.585-20.29 7.024-22.89 7.091 24.07zm-47.25-81.94-106.1 51.12h-14.41l-106.1-51.12v-31.19l108.8 52.4c1.437 0.6927 2.993 1.038 4.549 1.038s3.111-0.3455 4.549-1.038l108.8-52.4zm-113.3-167.6 174.1 83.87-53.47 25.76c-0.4713 0.1493-0.9358 0.3245-1.389 0.5417l-119.3 57.45-119.3-57.45c-0.452-0.2172-0.9166-0.3924-1.387-0.5417l-53.47-25.76z" style="stroke-width:.8386"/>
</svg>
