<svg fill="currentColor" version="1.1" viewBox="0 0 500 355" xmlns="http://www.w3.org/2000/svg">
 <path d="m114 189.1v37.4l127.2 61.29h17.26l127.2-61.29v-37.4l-130.4 62.81-2.674 0.9343-2.779 0.3115-2.782-0.3115-2.674-0.9343z" style="fill:#808080;stroke-linejoin:round;stroke-width:.04532;stroke:#f00"/>
 <path d="m114.8 190v37.4l127.2 61.29 8.792 0.0122-0.2167-34.64-2.782-0.3115-2.674-0.9344z" style="fill:#93a1ab;stroke-linejoin:round;stroke-width:.04532;stroke:#f00"/>
 <path d="m250 16.26-230 110.8 70.63 34.03 1.832 0.7147 157.5 75.89 157.5-75.89 1.834-0.7147 70.63-34.03z" style="fill:#ccc;stroke-linejoin:round;stroke-width:.04992;stroke:#f00"/>
 <path d="m442.9 262.6-18.1 37.44 17.37 35 17.63-35z" style="fill:#a5ffd4;stroke-linejoin:round;stroke-width:.06341;stroke:#f00"/>
 <path d="m399.8 80.02v90l70-40z" style="fill:#a5ffd4;stroke-linejoin:round;stroke-width:.06341;stroke:#f00"/>
 <path d="m17.3 142.5 71.58 34.48v57.39l7.113 11.32 136.9 65.95 5.454 1.243h23.01l5.455-1.243 136.6-65.77 5.982-6.112 0.4998-1.14 1.01-4.936v-56.71l19.52-9.405v77.84l-9.058 12.17-11.11 36.2 0.1091 13.62 10.3 31.75 20.83 15.63 0.1889 4e-3 0.3137 5e-3 0.1971 1e-3 21.04-14.33 11.91-30.24 0.6536-14.69-11.11-37.71-9.132-12.43v-89.92l27.12-13.06 7.113-11.32v-10.01l-7.113-11.32-227.3-109.5h-10.91l-227.1 109.4-7.113 11.32v10.2l7.113 11.32zm425.1 182.2-7.895-24.33 8.421-27.44 8.502 28.86zm-56.65-98.24-127.2 61.29h-17.28l-127.2-61.29v-37.4l130.4 62.82 5.454 1.245 5.454-1.245 130.4-62.82zm-135.8-200.9 208.7 100.6-208.8 100.4-208.8-100.4z" style="fill:#58595b;stroke-width:1.005"/>
</svg>
