<svg width="1.22e3" height="571" version="1.1" viewBox="0 0 323.85 151.12973" xmlns="http://www.w3.org/2000/svg">
 <g transform="translate(0 -146)">
  <path d="m51.3 200h-21.6c-1.49 0-2.7 1.21-2.7 2.7v10.8c0 1.49 1.21 2.7 2.7 2.7h21.6c1.49 0 2.7-1.21 2.7-2.7v-10.8c0-1.49-1.21-2.7-2.7-2.7zm-2.7 10.8h-16.2v-5.4h16.2z" style="stroke-width:.265"/>
  <path d="m83.7 200h-21.6c-1.49 0-2.7 1.21-2.7 2.7v10.8c0 1.49 1.21 2.7 2.7 2.7h21.6c1.49 0 2.7-1.21 2.7-2.7v-10.8c0-1.49-1.21-2.7-2.7-2.7zm-2.7 10.8h-16.2v-5.4h16.2z" style="stroke-width:.265"/>
  <path d="m116 200h-21.6c-1.49 0-2.7 1.21-2.7 2.7v10.8c0 1.49 1.21 2.7 2.7 2.7h21.6c1.49 0 2.7-1.21 2.7-2.7v-10.8c0-1.49-1.21-2.7-2.7-2.7zm-2.7 10.8h-16.2v-5.4h16.2z" style="stroke-width:.265"/>
  <path d="m161 209-18.9-18.9c-.506-.506-1.19-.791-1.91-.791h-39l-26.2-41.9c-.493-.789-1.36-1.27-2.29-1.27h-21.6c-1.49 0-2.7 1.21-2.7 2.7v40.5h-9.29l-20.8-33.8c-.491-.799-1.36-1.29-2.3-1.28h-13.5c-1.49 0-2.7 1.21-2.7 2.7v62.1c.0148 13.4 10.9 24.3 24.3 24.3h24.3v51.3c0 1.49 1.21 2.7 2.7 2.7h21.6c1.05 0 2.01-.612 2.45-1.57l24.2-52.4h38.1c13.4-.0148 24.3-10.9 24.3-24.3v-8.1c0-.716-.285-1.4-.791-1.91zm-5.72 1.91h-20.5v-5.4h15.1zm-101-59.4h17.4l23.6 37.8h-41zm-48.6 8.1h9.29l18.3 29.7h-27.6zm65.7 132h-17.2v-64.8h47.1zm85.4-72.9c-.0116 10.4-8.46 18.9-18.9 18.9h-35.6l5.7-12.4c.624-1.35.0339-2.96-1.32-3.58-.355-.164-.741-.248-1.13-.248h-54c-1.49 0-2.7 1.21-2.7 2.7v13.5h-24.3c-10.4-.0119-18.9-8.46-18.9-18.9v-24.3h134l5.4 5.4h-12.4c-1.49 0-2.7 1.21-2.7 2.7v10.8c0 1.49 1.21 2.7 2.7 2.7h24.3z" style="stroke-width:.265"/>
  <path d="m251 146c-.931 0-1.8.479-2.29 1.27l-26.2 41.9h-39c-.716 0-1.4.284-1.91.791l-18.9 18.9c-.506.506-.791 1.19-.791 1.91v8.1c.0148 13.4 10.9 24.3 24.3 24.3h38.1l24.2 52.4c.441.956 1.4 1.57 2.45 1.57h21.6c1.49 0 2.7-1.21 2.7-2.7v-51.3h24.3c13.4-.0148 24.3-10.9 24.3-24.3v-62.1c0-1.49-1.21-2.7-2.7-2.7h-13.5c-.937-.00053-1.81.486-2.3 1.28l-20.8 33.8h-9.29v-40.5c0-1.49-1.21-2.7-2.7-2.7zm1.5 5.4h17.4v37.8h-41zm56.7 8.1h9.29v29.7h-27.6zm-125 35.1h134v24.3c-.0119 10.4-8.46 18.9-18.9 18.9h-24.3v-13.5c0-1.49-1.21-2.7-2.7-2.7h-54c-.39 0-.776.0845-1.13.248-1.35.624-1.94 2.23-1.32 3.58l5.71 12.4h-35.6c-10.4-.0119-18.9-8.46-18.9-18.9v-2.7h24.3c1.49 0 2.7-1.21 2.7-2.7v-10.8c0-1.49-1.21-2.7-2.7-2.7h-12.4zm23.2 5.4c-1.49 0-2.7 1.21-2.7 2.7v10.8c0 1.49 1.21 2.7 2.7 2.7h21.6c1.49 0 2.7-1.21 2.7-2.7v-10.8c0-1.49-1.21-2.7-2.7-2.7zm32.4 0c-1.49 0-2.7 1.21-2.7 2.7v10.8c0 1.49 1.21 2.7 2.7 2.7h21.6c1.49 0 2.7-1.21 2.7-2.7v-10.8c0-1.49-1.21-2.7-2.7-2.7zm32.4 0c-1.49 0-2.7 1.21-2.7 2.7v10.8c0 1.49 1.21 2.7 2.7 2.7h21.6c1.49 0 2.7-1.21 2.7-2.7v-10.8c0-1.49-1.21-2.7-2.7-2.7zm-98.7 5.4h15.1v5.4h-20.5zm36.7 0h16.2v5.4h-16.2zm32.4 0h16.2v5.4h-16.2zm32.4 0h16.2v5.4h-16.2zm-52.5 21.6h47.1v64.8h-17.2z" style="stroke-width:.265"/>
 </g>
</svg>
