<svg width="322" height="150" version="1.1" viewBox="0 0 322 150" xmlns="http://www.w3.org/2000/svg">
  <path d="m50.7 0 0.0137 0.0273c0.012-1.61e-4 0.0231-0.00391 0.0352-0.00391l-0.0488-0.0234zm0.0137 0.0273c-1.46 0.0195-2.64 1.22-2.64 2.68v40h-9.17l-20.6-33.4c-0.48-0.789-1.34-1.27-2.27-1.27h-13.3c-1.49 0-2.68 1.21-2.68 2.68v61.5c0 13.2 10.7 24 24 24h24v50.6c0 1.49 1.21 2.68 2.68 2.68h21.4c1.04 0 1.98-0.603 2.42-1.55l23.9-51.7h37.6c13.2 0 24-10.7 24-24v-8c0-0.71-0.28-1.39-0.781-1.89l-18.7-18.7c-0.51-0.501-1.18-0.783-1.89-0.783h-38.4l-25.9-41.3c-0.48-0.786-1.34-1.26-2.26-1.26l-21.3-0.0781-0.105-0.205zm220-0.0273-0.0508 0.0234c0.0127 0 0.0245 0.00373 0.0371 0.00391l0.0137-0.0273zm-0.0137 0.0273-0.105 0.205-21.3 0.0781c-0.92 0-1.78 0.474-2.26 1.26l-25.9 41.3h-38.4c-0.708 0-1.38 0.282-1.89 0.783l-18.7 18.7c-0.501 0.501-0.781 1.18-0.781 1.89v8c0.0146 13.3 10.8 24 24 24h37.6l23.9 51.7c0.435 0.946 1.38 1.55 2.42 1.55h21.4c1.47 0 2.68-1.19 2.68-2.68v-50.6h24c13.3-0.0146 24-10.8 24-24v-61.5c0-1.47-1.19-2.68-2.68-2.68h-13.3c-0.925-5.25e-4 -1.79 0.481-2.27 1.27l-20.6 33.4h-9.17v-40c0-1.46-1.18-2.66-2.64-2.68zm-218 5.62h17.2l23.3 37.4h-40.5v-37.4zm198 0h17.2v37.4h-40.5l23.3-37.4zm-247 8.01h9.17 0.0273 0.00195l18.1 29.4h-27.3v-29.4zm304 0h0.00195 0.0273 9.17v29.4h-27.3l18.1-29.4zm-170 34.8 5.15 5.33h-12.2c-1.49-1e-6 -2.68 1.21-2.68 2.68v10.7c0 1.49 1.21 2.68 2.68 2.68h24v2.68c0 10.3-8.4 18.7-18.7 18.7h-35.2l5.64-12.2c0.62-1.35 0.0292-2.93-1.3-3.55-0.355-0.162-0.735-0.246-1.12-0.246h-53.3c-1.49 0-2.68 1.21-2.68 2.68v13.3h-24c-10.3 0-18.7-8.4-18.7-18.7v-24h132l0.41-0.0547zm45.5 0 0.41 0.0547h132v24c-0.0118 10.3-8.38 18.7-18.7 18.7h-24v-13.3c0-1.47-1.19-2.68-2.68-2.68h-53.3c-0.384 0-0.766 0.0845-1.12 0.246-1.33 0.617-1.92 2.2-1.3 3.55l5.64 12.2h-35.2c-10.3-0.0118-18.7-8.37-18.7-18.7v-2.68h24c1.47 0 2.68-1.19 2.68-2.68v-10.7c0-1.47-1.19-2.68-2.68-2.68h-12.2l5.15-5.33zm-154 5.38c-1.48 0-2.68 1.21-2.68 2.68v10.7c0 1.48 1.21 2.68 2.68 2.68h21.4c1.48 0 2.68-1.21 2.68-2.68v-10.7c0-1.49-1.21-2.68-2.68-2.68h-21.4zm32.1 0c-1.49 0-2.68 1.21-2.68 2.68v10.7c0 1.48 1.21 2.68 2.68 2.68h21.4c1.49 0 2.68-1.21 2.68-2.68v-10.7c0-1.49-1.21-2.68-2.68-2.68h-21.4zm32.1 0c-1.49 0-2.68 1.21-2.68 2.68v10.7c0 1.48 1.21 2.68 2.68 2.68h21.4c1.49 0 2.68-1.21 2.68-2.68v-10.7c0-1.49-1.21-2.68-2.68-2.68h-21.4zm113 0c-1.47 0-2.68 1.19-2.68 2.68v10.7c0 1.47 1.19 2.68 2.68 2.68h21.4c1.47 0 2.68-1.2 2.68-2.68v-10.7c0-1.47-1.19-2.68-2.68-2.68h-21.4zm32.1 0c-1.47 0-2.68 1.19-2.68 2.68v10.7c0 1.47 1.19 2.68 2.68 2.68h21.4c1.47 0 2.68-1.2 2.68-2.68v-10.7c0-1.47-1.19-2.68-2.68-2.68h-21.4zm32.1 0c-1.47 0-2.68 1.19-2.68 2.68v10.7c0 1.47 1.2 2.68 2.68 2.68h21.4c1.47 0 2.68-1.2 2.68-2.68v-10.7c0-1.47-1.2-2.68-2.68-2.68h-21.4zm-239 5.33h16v5.33h-16v-5.33zm32.1 0h16v5.33h-16v-5.33zm32.1 0h16v5.33h-16v-5.33zm37.4 0h14.9 0.0254 0.0449l5.33 5.33h-20.3v-5.33zm39.6 0h0.043 0.0254 14.9v5.33h-20.3l5.33-5.33zm36.3 0h16v5.33h-16v-5.33zm32.1 0h16v5.33h-16v-5.33zm32.1 0h16v5.33h-16v-5.33zm-221 21.3h46.6 0.0273 0.0723l-29.7 64.1h-17v-64.1zm169 0h0.0723 0.0273 46.6v64.1h-17l-29.7-64.1z" style="stroke-width:.265"/>
</svg>
