<svg width="120" height="24" version="1.1" viewBox="0 0 120 24" xmlns="http://www.w3.org/2000/svg">
 <path d="m11.9 0.35384c-0.259 3.72e-4 -0.509 0.0898-0.711 0.252l-10.7 8.57c-0.272 0.217-0.43 0.545-0.43 0.893v7.46c0 0.63 0.511 1.14 1.14 1.14h2.29c-0.00872-4.42 4.8-7.18 8.61-4.93 1.76 1.02 2.85 2.89 2.86 4.93h29.2c-0.0087-4.42 4.8-7.18 8.61-4.93 1.76 1.01 2.84 2.88 2.86 4.9h2.78c0.63 0 1.14-0.511 1.14-1.14v-5.3c0.0024-0.561-0.404-1.04-0.957-1.13l-16.2-2.7-7.68-7.68c-0.214-0.215-0.505-0.336-0.809-0.336h-22z" style="fill:#fff6d5"/>
 <path d="m45.55 18.648c2e-5 -0.0067-2e-3 -0.0128-0.0019-0.0195v0.041c-5.2e-5 -0.0073 2e-3 -0.0142 0.0019-0.0215z"/>
 <path d="m50.04 14.068c-2.36 0.0372-4.5 1.94-4.49 4.58-0.0107 3.52 3.81 5.73 6.86 3.95 3.04-1.75 3.04-6.15 0-7.9-0.763-0.446-1.58-0.641-2.36-0.629z" style="fill:#6fc"/>
 <path d="m4.74 18.648c2.02e-5 -0.0067-2e-3 -0.0128-0.00195-0.0195v0.041c-5.25e-5 -0.0073 0.00197-0.0142 0.00195-0.0215z"/>
 <path d="m9.24 14.488c-2.36 0.0372-4.5 1.94-4.5 4.58-0.0107 3.52 3.81 5.73 6.86 3.95 3.04-1.75 3.04-6.15 0-7.9-0.763-0.446-1.58-0.641-2.36-0.629z" style="fill:#6fc"/>
 <path d="m9.2658 16.177c-1.4897 0.02348-2.8405 1.2246-2.8405 2.891-0.00675 2.2219 2.405 3.617 4.3303 2.4934 1.9189-1.1047 1.9189-3.8821 0-4.9867-0.48163-0.28153-0.99735-0.40462-1.4897-0.39704z" style="fill:#fff6d5;stroke-width:.63123"/>
 <path d="m50.076 15.756c-1.4897 0.02348-2.8405 1.2246-2.8405 2.891-0.0068 2.2219 2.405 3.617 4.3303 2.4934 1.9189-1.1047 1.9189-3.8821 0-4.9867-0.48163-0.28153-0.99735-0.40462-1.4897-0.39704z" style="fill:#fff6d5;stroke-width:.63123"/>
 <path d="m23.24 2.1675h9.83c0.304-4.78e-4 0.596 0.121 0.811 0.336l5.53 5.53c0.0355 0.0355 0.0668 0.0756 0.0918 0.119 0.225 0.381-0.0518 0.862-0.494 0.861h-15.8l0.0312-6.85z" style="fill:#6fc"/>
 <path d="m13.4 2.1538h8.09v6.86l-12.7-0.0156c-0.0999 6e-5 -0.2-0.0132-0.297-0.0391-0.851-0.226-1.14-1.29-0.512-1.91l4.56-4.56c0.214-0.215 0.505-0.334 0.809-0.334z" style="fill:#6fc"/>
 <path d="m55.6 18.654h-0.0801l0.082 0.0293c-3.1e-5 -0.0099-0.0019-0.0194-2e-3 -0.0293z"/>
 <path d="m108.16 0.35384c0.259 3.72e-4 0.509 0.0898 0.711 0.252l10.7 8.57c0.272 0.217 0.43 0.545 0.43 0.893v7.46c0 0.63-0.511 1.14-1.14 1.14h-2.29c9e-3 -4.42-4.8-7.18-8.61-4.93-1.76 1.02-2.85 2.89-2.86 4.93h-29.2c0.0087-4.42-4.8-7.18-8.61-4.93-1.76 1.01-2.84 2.88-2.86 4.9h-2.78c-0.63 0-1.14-0.511-1.14-1.14v-5.3c-0.0024-0.561 0.404-1.04 0.957-1.13l16.2-2.7 7.68-7.68c0.214-0.215 0.505-0.336 0.809-0.336h22z" style="fill:#fff6d5"/>
 <path d="m74.512 18.648c-2e-5 -0.0067 2e-3 -0.0128 0.0019-0.0195v0.041c5.2e-5 -0.0073-2e-3 -0.0142-0.0019-0.0215z"/>
 <path d="m70.022 14.068c2.36 0.0372 4.5 1.94 4.49 4.58 0.0107 3.52-3.81 5.73-6.86 3.95-3.04-1.75-3.04-6.15 0-7.9 0.763-0.446 1.58-0.641 2.36-0.629z" style="fill:#6fc"/>
 <path d="m115.32 18.648c-2e-5 -0.0067 2e-3 -0.0128 2e-3 -0.0195v0.041c5e-5 -0.0073-2e-3 -0.0142-2e-3 -0.0215z"/>
 <path d="m110.82 14.488c2.36 0.0372 4.5 1.94 4.5 4.58 0.0107 3.52-3.81 5.73-6.86 3.95-3.04-1.75-3.04-6.15 0-7.9 0.763-0.446 1.58-0.641 2.36-0.629z" style="fill:#6fc"/>
 <path d="m110.8 16.177c1.4897 0.02348 2.8406 1.2246 2.8406 2.891 7e-3 2.2219-2.405 3.617-4.3303 2.4934-1.9189-1.1047-1.9189-3.8821 0-4.9867 0.48163-0.28153 0.99735-0.40462 1.4897-0.39704z" style="fill:#fff6d5;stroke-width:.63123"/>
 <path d="m69.986 15.756c1.4897 0.02348 2.8405 1.2246 2.8405 2.891 0.0068 2.2219-2.405 3.617-4.3303 2.4934-1.9189-1.1047-1.9189-3.8821 0-4.9867 0.48163-0.28153 0.99735-0.40462 1.4897-0.39704z" style="fill:#fff6d5;stroke-width:.63123"/>
 <path d="m96.822 2.1675h-9.83c-0.304-4.78e-4 -0.596 0.121-0.811 0.336l-5.53 5.53c-0.0355 0.0355-0.0668 0.0756-0.0918 0.119-0.225 0.381 0.0518 0.862 0.494 0.861h15.8l-0.0312-6.85z" style="fill:#6fc"/>
 <path d="m106.66 2.1538h-8.09v6.86l12.7-0.0156c0.0999 6e-5 0.2-0.0132 0.297-0.0391 0.851-0.226 1.14-1.29 0.512-1.91l-4.56-4.56c-0.214-0.215-0.505-0.334-0.809-0.334z" style="fill:#6fc"/>
 <path d="m64.462 18.654h0.0801l-0.082 0.0293c3.1e-5 -0.0099 0.0019-0.0194 2e-3 -0.0293z"/>
</svg>
