<svg width="120" height="56" version="1.1" viewBox="0 0 120 56" xmlns="http://www.w3.org/2000/svg">
  <path
    d="m19 0.089c-0.545 0.00728-0.985 0.471-0.985 1.02v14.9h-3.42l-7.69-12.5c-0.179-0.294-0.5-0.474-0.847-0.474h-4.96c-0.556 0-1 0.452-1 1v23c0 4.93 3.99 8.96 8.96 8.96h8.96v18.9c0 0.556 0.452 1 1 1h7.99c0.388 0 0.739-0.225 0.903-0.578l8.92-19.3h14c4.93 0 8.96-3.99 8.96-8.96v-2.99c0-0.265-0.104-0.519-0.291-0.705l-6.98-6.98c-0.19-0.187-0.44-0.292-0.705-0.292h-14.3l-9.67-15.4c-0.179-0.293-0.5-0.593-0.843-0.593h-5.95s-1.36-0.0102-2.04 0zm74.1 0c-0.343 0-0.664 0.298-0.843 0.591l-9.67 15.4h-14.3c-0.264 0-0.515 0.105-0.705 0.292l-6.98 6.98c-0.187 0.187-0.291 0.44-0.291 0.705v2.99c0.0055 4.96 4.03 8.96 8.96 8.96h14l8.92 19.3c0.162 0.353 0.515 0.578 0.903 0.578h7.99c0.549 0 1-0.444 1-1v-18.9h8.96c4.96-0.0055 8.96-4.03 8.96-8.96v-23c0-0.549-0.444-1-1-1h-4.96c-0.345-1.96e-4 -0.668 0.18-0.847 0.474l-7.69 12.5h-3.42v-14.9c0-0.545-0.44-1.01-0.985-1.02-2.66-2.49e-4 -5.33 5.52e-4 -7.99 1e-3zm-73.4 2.11h6.42l8.7 14h-15.1zm73.9 0h6.42v14h-15.1zm-92.2 2.99h3.43l6.76 11h-10.2v-11zm113 0h3.43v11h-10.2l6.76-11zm-63.4 13 1.92 1.99h-4.55c-0.556 0-1 0.452-1 1v3.99c0 0.556 0.452 1 1 1h8.96v1c0 3.84-3.14 6.98-6.98 6.98h-13.1l2.1-4.55c0.231-0.504 0.0109-1.09-0.485-1.32-0.132-0.0605-0.274-0.0918-0.418-0.0918h-19.9c-0.556 0-1 0.452-1 1v4.96h-8.96c-3.84 0-6.98-3.14-6.98-6.98v-8.96h49.3l0.153-0.0204zm17 0 0.153 0.0204h49.3v8.96c-4e-3 3.84-3.13 6.98-6.98 6.98h-8.96v-4.96c0-0.549-0.444-1-1-1h-19.9c-0.143 0-0.286 0.0315-0.418 0.0918-0.496 0.23-0.717 0.821-0.485 1.32l2.1 4.55h-13.1c-3.84-0.0044-6.98-3.12-6.98-6.98v-1h8.96c0.549 0 1-0.444 1-1v-3.99c0-0.549-0.444-1-1-1h-4.55l1.92-1.99zm-57.5 2.01c-0.552 0-1 0.452-1 1v3.99c0 0.552 0.452 1 1 1h7.99c0.552 0 1-0.452 1-1v-3.99c0-0.556-0.452-1-1-1zm12 0c-0.556 0-1 0.452-1 1v3.99c0 0.552 0.452 1 1 1h7.99c0.556 0 1-0.452 1-1v-3.99c0-0.556-0.452-1-1-1zm12 0c-0.556 0-1 0.452-1 1v3.99c0 0.552 0.452 1 1 1h7.99c0.556 0 1-0.452 1-1v-3.99c0-0.556-0.452-1-1-1zm42.2 0c-0.549 0-1 0.444-1 1v3.99c0 0.549 0.444 1 1 1h7.99c0.549 0 1-0.448 1-1v-3.99c0-0.549-0.444-1-1-1zm12 0c-0.549 0-1 0.444-1 1v3.99c0 0.549 0.444 1 1 1h7.99c0.549 0 1-0.448 1-1v-3.99c0-0.549-0.444-1-1-1zm12 0c-0.549 0-1 0.444-1 1v3.99c0 0.549 0.448 1 1 1h7.99c0.549 0 1-0.448 1-1v-3.99c0-0.549-0.448-1-1-1zm-89.2 1.99h5.97v1.99h-5.97zm12 0h5.97v1.99h-5.97zm12 0h5.97v1.99h-5.97zm14 0h5.59l1.99 1.99h-7.58v-1.99zm14.8 0h5.59v1.99h-7.58l1.99-1.99zm13.5 0h5.97v1.99h-5.97zm12 0h5.97v1.99h-5.97zm12 0h5.97v1.99h-5.97zm-82.5 7.95h17.4l-11.1 23.9h-6.34v-23.9zm63.1 0h17.4v23.9h-6.34l-11.1-23.9z" />
</svg>