<svg width="1.22e3" height="571" version="1.1" viewBox="0 0 323.85 151.12973" xmlns="http://www.w3.org/2000/svg">
 <path transform="matrix(.265 0 0 .265 0 -.221)" d="m1.03e3 3.38l-80.4.295c-3.47 0-6.71 1.79-8.54 4.74l-97.7 156h-145c-2.67 0-5.22 1.06-7.12 2.95l-70.5 70.5c-1.89 1.89-2.95 4.44-2.95 7.12v30.2c.055 50 40.7 90.6 90.6 90.6h142l90.3 195c1.64 3.57 5.22 5.85 9.14 5.85h80.6c5.56 0 10.1-4.51 10.1-10.1v-191h90.6c50-.0552 90.6-40.7 90.6-90.6v-232c0-5.56-4.51-10.1-10.1-10.1h-50.3c-3.49-.00198-6.75 1.81-8.58 4.77l-77.6 126h-34.6v-151c0-5.56-4.51-10.1-10.1-10.1zm-832 .82c-5.56 0-10.1 4.51-10.1 10.1v151h-34.6l-77.6-126c-1.83-2.98-5.07-4.81-8.58-4.77h-50.3c-5.56 0-10.1 4.51-10.1 10.1v232c.0552 50 40.7 90.6 90.6 90.6h90.6v191c0 5.56 4.51 10.1 10.1 10.1h80.6c3.92 0 7.5-2.28 9.14-5.86l90.3-195h142c50-.0552 90.6-40.7 90.6-90.6v-30.2c0-2.67-1.06-5.22-2.95-7.12l.117-.295-70.5-70.5c-1.89-1.89-4.44-2.95-7.12-2.95h-145l-97.7-156c-1.84-2.94-5.07-4.74-8.54-4.74h-80.6zm757 19.6h64.9v141h-153l88-141zm-745 .418h64.9l88 141h-153v-141zm957 29.8h34.6v111h-103l68.3-111zm-1.14e3.418h34.6l68.3 111h-103l.0371-111zm-.186 130h500l20.1 20.1h-46.2c-5.56 0-10.1 4.51-10.1 10.1v40.3c0 5.56 4.51 10.1 10.1 10.1h90.6l-.559 10.2c-.0433 38.8-31.6 70.5-70.5 70.5h-133l21.3-46.2c2.33-5.03.126-11-4.92-13.4-1.32-.612-2.76-.926-4.21-.926h-201c-5.56 0-10.1 4.51-10.1 10.1v50.3h-90.6c-38.8-.0444-70.5-31.6-70.5-70.5v-90.6zm672 .805h500v90.6c-.0444 38.8-31.6 70.5-70.5 70.5h-90.6v-50.3c0-5.56-4.51-10.1-10.1-10.1h-201c-1.45 0-2.89.316-4.21.926-5.03 2.33-7.23 8.32-4.92 13.4l21.3 46.2h-133c-38.8-.0444-70.5-31.6-70.5-70.5v-10.1h90.6c5.56 0 10.1-4.51 10.1-10.1v-40.3c0-5.56-4.51-10.1-10.1-10.1h-46.2l19.5-20.2zm86.5 20.1c-5.56 0-10.1 4.51-10.1 10.1v40.3c0 5.56 4.51 10.1 10.1 10.1h80.6c5.56 0 10.1-4.51 10.1-10.1v-40.3c0-5.56-4.51-10.1-10.1-10.1h-80.6zm121 0c-5.56 0-10.1 4.51-10.1 10.1v40.3c0 5.56 4.51 10.1 10.1 10.1h80.6c5.56 0 10.1-4.51 10.1-10.1v-40.3c0-5.56-4.51-10.1-10.1-10.1h-80.6zm121 0c-5.56 0-10.1 4.51-10.1 10.1v40.3c0 5.56 4.51 10.1 10.1 10.1h80.6c5.56 0 10.1-4.51 10.1-10.1v-40.3c0-5.56-4.51-10.1-10.1-10.1h-80.6zm-911 .00781c-5.56 0-10.1 4.51-10.1 10.1v40.3c0 5.56 4.51 10.1 10.1 10.1h80.6c5.56 0 10.1-4.51 10.1-10.1v-40.3c0-5.56-4.51-10.1-10.1-10.1h-80.6zm121 0c-5.56 0-10.1 4.51-10.1 10.1v40.3c0 5.56 4.51 10.1 10.1 10.1h80.6c5.56 0 10.1-4.51 10.1-10.1v-40.3c0-5.56-4.51-10.1-10.1-10.1h-80.6zm120 0c-5.56 0-10.1 4.51-10.1 10.1v40.3c0 5.56 4.51 10.1 10.1 10.1h80.6c5.56 0 10.1-4.51 10.1-10.1v-40.3c0-5.56-4.51-10.1-10.1-10.1h-80.6zm301 20.1h56.3v20.1h-76.5l20.1-20.1zm137 0h60.4v20.1h-60.4v-20.1zm121 0h60.4v20.1h-60.4v-20.1zm121 0h60.4v20.1h-60.4v-20.1zm-911 .00976h60.4v20.1h-60.4v-20.1zm121 0h60.4v20.1h-60.4v-20.1zm120 0h60.4v20.1h-60.4v-20.1zm141 .41h56.3l20.1 20.1h-76.5v-20.1zm-301 79.4h176l-112 242h-64.1v-242zm634 .701h176v242h-64.1l-112-242z" style="stroke-width:.988"/>
</svg>
