<svg fill="currentColor" version="1.1" viewBox="0 0 158.8 169.3" xmlns="http://www.w3.org/2000/svg">
 <defs>
  <linearGradient id="Gradient1" x1="-4.598" x2="-14.12" y1="261.3" y2="72.21" gradientTransform="matrix(.278 0 0 .2519 101.8 13.56)" gradientUnits="userSpaceOnUse">
   <stop stop-color="#a5ffd4" offset="0"/>
   <stop stop-color="#fff" stop-opacity="0" offset="1"/>
  </linearGradient>
 </defs>
 <g>
  <path d="m87.31 35.72-26.46 11.91-58.21 89.96 66.15 29.1 31.75-6.615z"/>
  <path d="m158.7 48.95v10.58l-47.62 92.6s-10.58 13.23-23.81 7.938c-16.48-6.592-58.21-23.81-58.21-23.81l-5.292-5.292v-7.938l63.5-97.9h2.646z" style="fill:#333"/>
  <path d="m23.81 123 63.5-97.9h2.646l68.79 23.81-47.62 92.6s-7.938 15.88-26.46 7.938c-23.07-9.888-60.85-26.46-60.85-26.46z" style="fill:#4d4d4d"/>
  <path d="m66.15 66.15 1.323 2.646 50.27 19.84s11.91 3.969 15.88-3.969c3.969-7.937 15.88-29.1 15.88-29.1l-1.323-1.323-58.21-21.17-2.646 1.323z" style="fill:#b3b3b3"/>
  <path d="m79.37 68.79 17.2-27.78 39.42 13.76-17.99 29.37z" style="fill:#6fc"/>
  <path d="m60.59 95.78-6.085-2.646 2.646-4.233 6.085 2.381 2.646-4.762 5.556 2.117-2.91 5.027 5.556 2.646-2.117 4.233-5.556-2.381-2.91 4.498-5.556-2.117z" style="fill:#1a1a1a"/>
  <path d="m54.5 93.13v2.381l5.027 2.117 1.058-1.852z" style="fill:#808080"/>
  <path d="m57.94 100.5v2.117l5.556 2.381 2.91-4.498 5.556 2.646 2.117-4.498v-2.381l-2.117 4.233-5.556-2.381-2.91 4.498z" style="fill:#808080"/>
  <path d="m71.44 88.64v2.381l-1.852 3.175-1.058-0.5292z" style="fill:#808080"/>
  <path d="m59.53 113.8s-1.323 0-1.323 1.323 1.323 1.323 1.323 1.323h7.938s1.323 0 1.323-1.323-1.323-1.323-1.323-1.323z" style="fill:#1a1a1a"/>
  <path d="m97.9 103.2s-6.615 0-6.615 6.615c0 6.615 6.615 6.615 6.615 6.615h17.2s6.615 0 6.615-6.615c0-6.615-6.615-6.615-6.615-6.615z" style="fill:#1a1a1a"/>
  <path d="m72.5 118.8s-1.323 0-1.323 1.323c0 1.323 1.323 1.323 1.323 1.323h7.938s1.323 0 1.323-1.323c0-1.323-1.323-1.323-1.323-1.323z" style="fill:#1a1a1a"/>
  <path d="m80.7 130.7s0-0.6553-0.6553-0.6553c-0.6553 0-0.6553 0.6553-0.6553 0.6553l-0.01238 13.34s0 0.6553 0.6553 0.6553c0.6553 0 0.6553-0.6553 0.6553-0.6553z" style="fill:#808080"/>
  <path d="m86 130.4s0-0.6553-0.6553-0.6553c-0.6553 0-0.6553 0.6553-0.6553 0.6553l-0.01238 13.34s0 0.6553 0.6553 0.6553c0.6553 0 0.6553-0.6553 0.6553-0.6553z" style="fill:#808080"/>
  <path d="m90.75 129.9s0-0.6553-0.6553-0.6553c-0.6553 0-0.6553 0.6553-0.6553 0.6553l-0.01238 13.34s0 0.6553 0.6553 0.6553c0.6553 0 0.6553-0.6553 0.6553-0.6553z" style="fill:#808080"/>
  <path d="m96.57 129.9s0-0.6553-0.6553-0.6553c-0.6553 0-0.6553 0.6553-0.6553 0.6553l-0.01238 13.34s0 0.6553 0.6553 0.6553c0.6553 0 0.6553-0.6553 0.6553-0.6553z" style="fill:#808080"/>
  <path d="m101.3 129.6s0-0.6553-0.6553-0.6553c-0.6553 0-0.6553 0.6553-0.6553 0.6553l-0.0124 13.34s0 0.6553 0.6553 0.6553c0.6553 0 0.6553-0.6553 0.6553-0.6553z" style="fill:#808080"/>
  <path d="m106.4 129.1s0-0.6553-0.6553-0.6553-0.6553 0.6553-0.6553 0.6553l-0.0124 13.34s0 0.6553 0.6553 0.6553 0.6553-0.6553 0.6553-0.6553z" style="fill:#808080"/>
  <path d="m94.46 109.3s0-3.969 3.969-3.969 3.969 3.969 3.969 3.969 0 3.969-3.969 3.969-3.969-3.969-3.969-3.969z" style="fill:#4d4d4d"/>
  <path d="m102.2 108.2c0.1635 0.6198 0.1638 1.093 0.1638 1.093s0 3.969-3.969 3.969c-2.058 0-3.049-1.067-3.526-2.095 0.3103 1.175 1.208 2.874 3.805 2.874 3.969 0 3.969-3.969 3.969-3.969s-5.2e-4 -0.9191-0.4429-1.873z" style="fill:#808080"/>
  <path d="m109 109.3s0-3.969 3.969-3.969 3.969 3.969 3.969 3.969 0 3.969-3.969 3.969-3.969-3.969-3.969-3.969z" style="fill:#4d4d4d"/>
  <path d="m116.8 108.2c0.1635 0.6198 0.1638 1.093 0.1638 1.093s0 3.969-3.969 3.969c-2.058 0-3.049-1.067-3.526-2.095 0.3103 1.175 1.208 2.874 3.805 2.874 3.969 0 3.969-3.969 3.969-3.969s-5.2e-4 -0.9191-0.4429-1.873z" style="fill:#808080"/>
  <g transform="matrix(.5237 0 0 .5237 82.54 59.97)">
   <path d="m19.91-80.21 2.865 14.32 2.865-14.32z" style="stroke-width:1.84"/>
   <path d="m45.44-48.08-14.2 2.649-19.89 8.778-5.387 34.48 6.401 4.614 0.2085 5.47 33.5 17.31 27.77 2.042 12.58-12.45 1.613-25.47-11.48-18.38-14.04-10.51h-0.0011l-0.7307-0.537-4.871-3.594-0.1946-0.1444-11.28-4.262z" style="fill:#808080;stroke-width:.5729"/>
   <path d="m71.52-7.933-0.5135 35.41 3.57-0.8224z" style="fill:#666;stroke-width:1.84"/>
   <path d="m60.61-56.03v16.01c0 0.4876-0.1456 0.9551-0.4291 1.352-1.546 2.162-7.078 9.518-13.39 13.39-5.461 3.354-12.39 0.6955-12.39-5.372v-14.9s0.3966-1.077 0.7695-1.497l10.42-11.72c0.5019-0.5644 1.244-0.8513 1.994-0.7707l10.94 1.18c1.186 0.1288 2.085 1.132 2.085 2.327z" style="fill:#b3b3b3;stroke-width:.5729"/>
   <path d="m47.29-56.4c-3.716 4.734-12.91 12.5-12.91 12.5v8.021h11.25c7.403 0 11.23-11.07 13.96-16.62-9.695-5.083-12.3-3.907-12.3-3.907z" style="fill:#999;stroke-width:.5729"/>
   <path d="m65.42-66.76 0.3431-6.223s-1.825-18.32-17.76-22.35c-9.61-2.438-21.77 6.961-24.07 12.18-1.553 3.542-1.545 5.468-1.146 9.325l0.1062 10.34c-2.971 15.88 7.99 23.92 16.53 25.03 10.64 1.372 15.09 0.2941 20.48-8.263 0.5581-0.8852 3.156-5.999 3.156-5.999l4.312-10.26s-0.7305-3.163-1.953-3.776z" style="fill:#b3b3b3;stroke-width:.5764"/>
   <path d="m68.01-95.12 5.156-1.146-10.31-2.292-24.95-3.309-19.52 19.35-5.945 10.31 18.03-1.885-4.799 3.437 25.73 3.604 4.849 3.513 0.8559 6.473 8.247-6.552s-0.6915 3.319-1.532 5.99c-0.8406 2.671-3.261 5.465-3.261 5.465l9e-3 4.593 14.32-25.21-6.876-22.35z" style="fill:#1a1a1a;stroke-width:.5729"/>
   <ellipse cx="28.07" cy="-58.63" rx="1.719" ry="2.005" style="fill:#4d4d4d;stroke-width:1.84"/>
   <ellipse cx="42.29" cy="-54.55" rx="1.719" ry="2.005" style="fill:#4d4d4d;stroke-width:1.84"/>
   <path d="m38.22-56.77s3.881 0.1521 5.455 0.6356c1.575 0.4835 3.898 2.027 3.898 2.027l0.9703 1.931-0.7934 3.291s-1.556 1.868-3.032 2.111c-1.476 0.2423-5.07-1.479-5.07-1.479l-2.059-2.418-0.7207-3.779z" style="fill:#f9f9f9;stroke-width:1.84"/>
   <path class="blinked" d="m38.22-56.77c1.219-0.6093 3.881 0.1521 5.455 0.6356s3.131 1.25 3.898 2.027 0.8646 1.013 0.9703 1.931-0.1276 2.317-0.7934 3.291-1.556 1.868-3.032 2.111-3.887-0.7132-5.07-1.479-1.553-1.362-2.059-2.418-0.9046-2.706-0.7207-3.779 0.1332-1.71 1.352-2.32z" style="fill:#a5ffd4;stroke-width:1.84"/>
   <path d="m20.46-61.95s3.176 0.1626 4.726 0.6049c1.55 0.4422 4.462 2.039 4.462 2.039l1.453 3.202-1.119 3.243-2.266 1.156s-3.727-0.5213-5.076-1.479c-1.349-0.958-2.692-3.777-2.692-3.777l-0.394-3.639 0.9053-1.348z" style="fill:#f9f9f9;stroke-width:1.84"/>
   <path class="blinked" d="m20.46-61.95c0.6207-0.3013 3.176 0.1627 4.726 0.6049s3.471 1.045 4.462 2.039 1.398 2.046 1.453 3.202c0.05415 1.157-0.4656 2.491-1.119 3.243s-0.9667 1.033-2.266 1.156-3.727-0.5213-5.076-1.479-2.2-2.485-2.692-3.777-0.4147-3.12-0.394-3.639c0.02061-0.5183 0.2852-1.047 0.9059-1.349z" style="fill:#a5ffd4;stroke-width:1.84"/>
   <path d="m31.38-52.14-1.719 4.011 0.5729 1.719 5.156 0.5729-1.719 0.5729-5.156 1.4e-5 -0.5729-1.719z" style="fill:#666;stroke-linejoin:round;stroke-width:1.719"/>
   <path d="m31.3-62.62 0.2646 1.058-0.5292 0.2646-7.408-2.646-0.5292-1.588 0.7938-0.7938h1.323z" style="fill:#1a1a1a;stroke-linecap:round;stroke-linejoin:round;stroke-width:.1"/>
   <path d="m38.95-60.37-0.7938 0.5292 0.7938 0.7938 7.938 1.058 2.646-0.2646 0.5292-1.588-0.7938-0.7938-2.646-0.2646z" style="fill:#1a1a1a;stroke-linecap:round;stroke-linejoin:round;stroke-width:.1"/>
   <path d="m35.72-56.89 2.646 9.26 5.292 1.323z" style="fill-opacity:.507;fill:#666;stroke-linecap:round;stroke-linejoin:round;stroke-width:.1"/>
   <path d="m17.5-65.28-0.2888 0.3794 0.04685 1.055 0.8178 1.155s-0.2146 3.595 0.4935 5.509 2.267 4.308 3.898 5.466 3.534 1.633 5.076 1.479 2.534-0.6738 3.555-1.861 1.758-5.089 1.758-5.089l1.139-0.6556 1.023 1.287s0.3377 4.265 1.128 5.929 1.789 2.901 3.226 3.838 3.322 1.763 5.07 1.478 3.419-1.593 4.393-3.049 1.105-5.043 1.105-5.043l0.9109-0.576 7.379-5.107 3.437-4.011-11.73 7.263s-4.184-2.29-6.319-2.897-4.732-0.6304-6.319-0.7873-3.191-0.234-3.191-0.234-1.691-0.9291-3.119-1.607-3.455-1.816-5.479-2.384-6.576-0.9077-6.576-0.9077zm3.008 3.298c1.588-0.134 9.188 2.643 9.188 2.643s1.398 2.046 1.453 3.202c0.05412 1.157-0.4658 2.491-1.119 3.243s-0.9667 1.033-2.266 1.156-3.727-0.5213-5.076-1.479-2.2-2.485-2.692-3.777-0.394-3.639-0.394-3.639l0.9053-1.348s-1.587 0.1336 7.69e-4 -3.7e-4zm26.58 7.476c0.5292 0.2646 1.293 1.376 1.399 2.295s-0.1276 2.317-0.7934 3.291-1.556 1.869-3.032 2.111-3.887-0.7132-5.07-1.479-1.553-1.362-2.059-2.418-0.9045-2.706-0.7207-3.779 0.5486-1.649 1.281-2.136c0.7323-0.4878 8.467 1.852 8.996 2.117z" style="fill:#4d4d4d;stroke-width:.5729"/>
   <path d="m18.79-60.99 2.381 8.07 5.292 1.323z" style="fill-opacity:.507;fill:#666;stroke-linecap:round;stroke-linejoin:round;stroke-width:.1"/>
  </g>
  <path class="blinked" d="m58.21 34.4 47.62-34.4 50.27 26.46-20.11 28.31-17.99 29.37-38.63-15.35z" fill="url(#Gradient1)" style="fill:url(#Gradient1);stroke-width:.2646"/>
  <path d="m76.73 67.47-3.969-9.26-14.55 19.84-2.646 6.615 1.323 3.969 3.969 1.323 7.673-14.02z" style="opacity:.4"/>
  <path d="m69.85 79.54-3.704 1.161-5.292-3.969 5.292-2.646z" style="fill:#1a1a1a"/>
  <path d="m67.47 79.38-3.175 6.879-2.381 3.704-0.7938 2.91-1.058-1.058 0.2646-2.381 0.7448-2.213-1.009 1.684-0.5292 2.91-1.058-0.7938-0.2646-1.852-0.5292-1.323-0.2646-1.588 0.2646-1.588 4.498-6.615 3.969-6.615 1.323 1.323 0.374 3.175-0.3781 3.439z" style="fill:#b3b3b3;stroke-width:1.046"/>
  <path d="m88.48 40.78-14.4 14.78-13.23 21.17 4.895-0.6891 4.101 3.497 12.17-16.04 7.938-2.646z" style="fill:#808080"/>
  <path d="m66.15 81.76 0.2646 3.44-1.058 2.646-1.058 1.323-0.7938-0.2646 0.5292-1.323 0.2646-1.323v-1.852z" style="fill:#b3b3b3"/>
  <path d="m115 82.55-10.05-3.969-0.7938 14.82-3.969 5.292 1.323 5.292 6.615 3.44 6.35-14.82z" style="opacity:.4"/>
  <path d="m117.5 100-2.381 0.4993-3.969-2.646-1.323-3.969 3.969 0.6615z" style="fill:#1a1a1a"/>
  <path d="m110.9 96.73-6.412 5.135v2.646l2.646 2.646 1.323 0.7937 3.086-0.564 1.249-0.6865 1.212-1.059 0.803-1.395 1.022-5.181 1.131-7.631-1.862 0.1827-2.304 2.216-1.891 2.898z" style="fill:#b3b3b3;stroke-width:1.046"/>
  <path d="m128.4 55.92-2.729 20.46-8.473 23.48-2.482-4.275-5.283-1.065 5.093-19.48-2.823-7.876z" style="fill:#808080"/>
  <path d="m111.4 96.31-3.175 1.588-1.852 2.117-0.6734 2.149 0.6734 0.4966 1.323-1.588 1.058-1.058 2.91-0.7938z" style="fill:#b3b3b3"/>
 </g>
</svg>
