<svg fill="currentColor" version="1.1" viewBox="0 0 158.8 158.8" xmlns="http://www.w3.org/2000/svg">
 <g>
  <path d="m35.72 135.2-30.43 11.91 21.17 10.58 117.7-24.34z" style="fill:#1a1a1a"/>
  <path d="m123.7 91.55s3.969-1.323 9.26-1.323 9.26 1.323 9.26 1.323l1.323 7.937h-21.17z" style="fill:#808080"/>
  <path d="m125 95.12s0-3.307 3.307-3.307 3.307 3.307 3.307 3.307 0 3.307-3.307 3.307-3.307-3.307-3.307-3.307z" style="fill:#1a1a1a"/>
  <path d="m134.3 94.72s0-3.307 3.307-3.307 3.307 3.307 3.307 3.307 0 3.307-3.307 3.307-3.307-3.307-3.307-3.307z" style="fill:#1a1a1a"/>
  <path d="m134.4 94.06c-0.0782 0.3885-0.0786 0.6615-0.0786 0.6615s1e-5 3.307 3.307 3.307c3.307 0 3.307-3.307 3.307-3.307s-3.5e-4 -0.273-0.0785-0.6615c-0.1942 0.9651-0.8707 2.646-3.229 2.646-2.358 0-3.034-1.681-3.229-2.646z" style="fill:#b3b3b3"/>
  <path d="m125.1 94.46c-0.0782 0.3885-0.0786 0.6615-0.0786 0.6615s1e-5 3.307 3.307 3.307c3.307 0 3.307-3.307 3.307-3.307s-3.5e-4 -0.273-0.0785-0.6615c-0.1942 0.9651-0.8707 2.646-3.229 2.646-2.358 0-3.034-1.681-3.229-2.646z" style="fill:#b3b3b3"/>
  <path d="m123.7 91.55-5.292 2.646-1.323 6.615 5.292-1.323z" style="fill:#333"/>
  <path d="m122.4 99.48-3.969 7.938-5.292-1.323 3.969-5.292z" style="fill:#1a1a1a"/>
  <path d="m122.4 99.48h21.17l2.646 7.938h-27.78z" style="fill:#999"/>
  <path d="m118.4 107.4h27.78l-1.984 25.93-24.47 1.852z" style="fill:#808080"/>
  <path d="m118.4 107.4-5.292-1.323 1.323 26.46 5.292 2.646z" style="fill:#333"/>
  <path d="m55.56 139.2 62.18-3.969v-123l-62.18-11.91z" style="fill:#4d4d4d"/>
  <path d="m35.06 11.24v124.4l19.84 3.969 1e-6 -138.9z"/>
  <path d="m64.82 102.1s0-1.323 1.323-1.323h39.69s1.323 0 1.323 1.323v11.91h-42.33z" style="fill:#808080"/>
  <path d="m64.82 111.4s0-1.323 1.323-1.323h39.69s1.323 0 1.323 1.323v2.91h-42.33z" style="fill:#666"/>
  <path d="m62.18 73.02s3.27e-4 -1.352 1.323-1.323l23.81 0.5292c1.323 0.02939 1.323 1.323 1.323 1.323l-1e-6 20.64s0 1.323-1.323 1.323h-23.81c-1.323 0-1.323-1.323-1.323-1.323z" style="fill:#808080"/>
  <path d="m63.5 71.7c-0.9487-0.02108-1.216 0.6671-1.292 1.059l23.78 0.5286c1.323 0.02939 1.323 1.323 1.323 1.323v20.64s-0.0011 0.11-0.03204 0.2646h0.03204c1.323 0 1.323-1.323 1.323-1.323v-20.64s-3.28e-4 -1.294-1.323-1.323z" style="fill:#333"/>
  <path d="m60.85 7.408v60.32l52.92 2.646v-53.71l-0.5292-0.5292s-34.61-5.968-51.86-9.26z" style="fill:#808080"/>
  <path d="m55.56 134.9 11.91-0.5291 5.292-3.175 30.43-1.323 5.292 2.646 8.202-0.2646 1.058 0.5292-62.18 2.646z" style="fill:#1a1a1a"/>
  <path d="m110.6 109.5h3.704v4.762h-3.704z" style="fill:#808080"/>
  <path d="m114.3 109.5h0.2646v4.762h-0.2646z"/>
  <path d="m66.15 100.8c-1.323 0-1.323 1.323-1.323 1.323v0.5292s1e-5 -1.323 1.323-1.323c1.323 0 37.04 0.2646 38.36 0.2646 1.323 0 1.323 1.058 1.323 1.058v11.38h1.323v-11.91c0-1.323-1.323-1.323-1.323-1.323z" style="fill:#1a1a1a"/>
  <path d="m111.7 74.88s0-1.323 1.323-1.323c1.323 0 1.323 1.323 1.323 1.323v5.292s0 1.323-1.323 1.323c-1.323 0-1.323-1.323-1.323-1.323z" style="fill:#333"/>
  <path d="m108.5 71.17s-1.412 9.5e-5 -2.119 1.058h-4.495s-0.7938 0-0.7938 0.7938v5.292s0 0.7938 0.7938 0.7938h7.144s0.7938 0 0.7938-0.7938v-2.465c0.6056-0.3248 1.191-0.9521 1.191-2.165 0-2.514-2.514-2.514-2.514-2.514z" style="fill:#666"/>
  <path d="m108.5 72.23s1.323 0 1.323 1.323c0 1.323-1.323 1.323-1.323 1.323s-1.323 0-1.323-1.323c0-1.323 1.323-1.323 1.323-1.323z" style="fill:#4d4d4d"/>
  <path d="m103.2 75.94s0 0.7938-0.7938 0.7938-0.7938-0.7938-0.7938-0.7938 0-0.7938 0.7938-0.7938h1.852l0.5292-0.5292h1.058l-1.323 1.323z" style="fill:#6fc"/>
  <path d="m94.19 79.9s0-0.2646 0.2646-0.2646h5.821s0.2646 0 0.2646 0.2646v6.085s0 0.2646-0.2646 0.2646h-5.821c-0.2646 0-0.2646-0.2646-0.2646-0.2646z" style="fill:#999"/>
  <path d="m94.72 82.55h5.292v3.175h-5.292z" style="fill:#4d4d4d"/>
  <path d="m100 13.89 13.23 2.381 0.5292 0.5292v53.71l-13.76-0.5292z" style="fill:#333"/>
  <path d="m93.93 76.46v-3.175l0.2646-0.2646h6.085l0.2646 0.2646v3.175l-0.2646 0.2646h-6.085z" style="fill:#333"/>
  <path d="m66.67 100.8h-4.301l-7.072 7.076-0.0049 1.516 6.824 6.824h1.521v-5.56l1.264-1.264v-6.824z" style="fill:#1a1a1a;stroke-width:3.796"/>
  <path d="m62.04 118.1-3.852 3.729 7.458 7.704 1.541-1.492 0.01645-1.011 3.082-2.983 7.581 0.1233 2.983 3.082-0.01645 1.011 1.492 1.541 7.704-7.458-3.729-3.852z" style="fill:#1a1a1a;stroke-width:3.796"/>
  <path d="m70.25 92.19-0.7165 0.793 2.716 3.919-5.771 6.346 0.07185 1.515 2.644 2.405-0.1557-3.282 1.678-1.851 1.591 1.443 3.534-0.1677 1.438-1.586 1.856 1.683 0.1557 3.282 2.405-2.644-0.07185-1.515-6.346-5.771 2.333-4.159-0.7982-0.7212-3.126 3.438z" style="fill:#1a1a1a;stroke-width:3.796"/>
  <path d="m81.83 101h4.291l7.081 7.076-0.0049 1.516-6.824 6.824h-1.511v-5.56l-1.264-1.264v-6.824z" style="fill:#1a1a1a;stroke-width:3.796"/>
  <circle cx="133.3" cy="120.5" r="8.963" style="fill:#6fc;paint-order:stroke markers fill"/>
  <path d="m131.2 115.2-0.481 0.4856 1.619 2.581-3.879 3.879v0.9697l1.619 1.619v-2.107l1.129-1.132 0.9728 0.9697h2.26l0.9666-0.9697 1.135 1.132v2.107l1.619-1.619v-0.9697l-3.879-3.879 1.619-2.581-0.4887-0.4856-2.107 2.107z" style="fill:#4d4d4d"/>
  <rect x="131.7" y="125" width="3.232" height=".6489" style="fill:#4d4d4d;paint-order:stroke markers fill"/>
  <path d="m54.23 94.89-2.589-2.385 5.7e-5 -56.37-2.133-2.158-9.867 1.658-1.531 2.133v60.97l1.631 1.882 9.767 0.3988 2.133-2.071v-4.061z" style="fill:#4d4d4d"/>
  <g transform="translate(-.781 6.026)" style="stroke-linecap:round;stroke-linejoin:round;stroke-width:.1" aria-label="ド リ ア ン">
   <path d="m48.73 41.01q-2.337-1.191-3.836-1.588v4.586h-1.014v-8.819h0.8819q0.5292 0.0441 0.1323 0.3528v2.778q2.161 0.6174 4.366 1.676zm-0.08819-3.881q-0.7497-0.926-1.499-1.499l0.5733-0.441q0.7497 0.5733 1.499 1.499zm1.058-0.8378q-0.5733-0.7497-1.455-1.455l0.5733-0.441q0.7497 0.5292 1.455 1.455z"/>
   <path d="m48.07 54.68q0 3.307-3.087 4.763l-0.8819-0.7497q2.91-1.323 2.955-4.057v-4.41h0.926q0.441 0.08819 0.08819 0.3528zm-4.542 0.9701h-1.014v-4.983h0.9701q0.441 0.0441 0.0441 0.3528z"/>
   <path d="m45.68 69.02q0.08819 3.351-2.866 5.203l-0.7497-0.8378q2.602-1.411 2.602-3.969v-1.896h0.926q0.3969 0.0441 0.08819 0.3087v1.147q1.588-1.191 2.425-2.337l-7.188 0.2646-0.08819-1.014 8.026-0.2205 0.3087-0.08819 0.6615 0.7938q0.1323 0.1764-0.2205 0.1323-1.323 1.72-3.175 3.219z"/>
   <path d="m50.18 83.35q-2.337 4.851-7.849 5.115-0.2205 0.5733-0.441 0.08819l-0.3528-1.147q5.733-0.1323 7.717-4.718zm-6.218 0q-1.191-1.102-2.249-1.808l0.7497-0.926q0.926 0.5733 2.337 1.896z"/>
  </g>
  <path d="m65.6 46.91s0-1.073 3.578-1.073c3.578 0 3.578 1.789 3.578 1.789v15.03l-0.7156 0.7156-6.082-0.3578-0.3578-0.7156z" style="fill:#333"/>
  <path d="m68.11 45.87c-2.502 0.1901-2.505 1.035-2.505 1.035v15.38l0.3578 0.7156 2.147 0.1265-1.431-1.2v-14.67z"/>
  <path d="m79 64.08-0.3881-0.3881 1.5e-5 -15.14c0-1.552 1.94-2.329 1.94-2.329v-2.717s0.7762-0.3881 1.94-0.3881 1.552 0.3881 1.552 0.3881v2.717s1.94 1.164 1.94 2.717c0 1.164-0.3881 15.14-0.3881 15.14l-0.7762 0.7762z" style="fill:#b3b3b3"/>
  <path d="m81.22 43.19c-0.4875 0.1125-0.7762 0.2562-0.7762 0.2562v2.717s-1.94 0.7762-1.94 2.329v15.14l0.3881 0.3881 0.9937 0.1326-0.6056-0.9088v-13.97c0-1.552 1.94-2.329 1.94-2.329z" style="fill:#666"/>
  <path d="m98.27 65.48 0.9449-0.4725v-8.977l-1.89-2.835v-3.307s-0.9449-0.4725-2.362-0.4725c-1.417 0-2.362 0.4725-2.362 0.4725v2.835l-1.89 2.835v9.449z"/>
  <path d="m62.18 62.84-1.588 0.5292v4.233l1.588-0.2646z" style="fill:#1a1a1a"/>
  <path d="m62.18 62.84v4.498l51.59 2.778v-3.969z" style="fill:#666"/>
  <path d="m62.71 65.22s0-0.5292 0.5292-0.5292c0.5292 0 49.21 2.778 49.21 2.778s0.5292 0 0.5292 0.5292v1.323s0 0.5292-0.5292 0.5292c-0.5292 0-48.68-2.778-49.21-2.778-0.5292-1e-6 -0.5292-0.5292-0.5292-0.5292z" style="fill:#4d4d4d"/>
  <path d="m62.44 63.9v0.5292l51.06 2.778v-0.5292z" style="fill:#808080"/>
  <path d="m61.12 67.6 1.588-0.2646 51.06 2.778-0.5292 0.2646z"/>
  <path d="m64.83 65.41s-0.5279-0.03691-0.5648 0.491c-0.0369 0.5279 0.491 0.5648 0.491 0.5648l2.112 0.1477s0.5279 0.03692 0.5648-0.491c0.0369-0.5279-0.491-0.5648-0.491-0.5648z" style="fill:#999"/>
  <path d="m70.64 65.75s-0.5279-0.03691-0.5648 0.491c-0.0369 0.5279 0.491 0.5648 0.491 0.5648l2.112 0.1477s0.5279 0.03692 0.5648-0.491c0.0369-0.5279-0.491-0.5648-0.491-0.5648z" style="fill:#999"/>
  <path d="m77.29 66.32s-0.5279-0.03691-0.5648 0.491c-0.0369 0.5279 0.491 0.5648 0.491 0.5648l2.112 0.1477s0.5279 0.03692 0.5648-0.491c0.0369-0.5279-0.491-0.5648-0.491-0.5648z" style="fill:#999"/>
  <path d="m83.42 66.74s-0.5279-0.03691-0.5648 0.491c-0.0369 0.5279 0.491 0.5648 0.491 0.5648l2.112 0.1477s0.5279 0.03692 0.5648-0.491c0.0369-0.5279-0.491-0.5648-0.491-0.5648z" style="fill:#999"/>
  <path d="m89.16 66.94s-0.5279-0.03691-0.5648 0.491c-0.0369 0.5279 0.491 0.5648 0.491 0.5648l2.112 0.1477s0.5279 0.03692 0.5648-0.491c0.0369-0.5279-0.491-0.5648-0.491-0.5648z" style="fill:#999"/>
  <path d="m94.8 67.13s-0.5279-0.03691-0.5648 0.491c-0.0369 0.5279 0.491 0.5648 0.491 0.5648l2.112 0.1477s0.5279 0.03692 0.5648-0.491c0.0369-0.5279-0.491-0.5648-0.491-0.5648z" style="fill:#999"/>
  <path d="m101.1 67.66s-0.5279-0.03691-0.5648 0.491c-0.0369 0.5279 0.491 0.5648 0.491 0.5648l2.112 0.1477s0.5279 0.03692 0.5648-0.491c0.0369-0.5279-0.491-0.5648-0.491-0.5648z" style="fill:#999"/>
  <path d="m107.7 67.92s-0.5279-0.03691-0.5648 0.491c-0.0369 0.5279 0.491 0.5648 0.491 0.5648l2.112 0.1477s0.5279 0.03692 0.5648-0.491c0.0369-0.5279-0.491-0.5648-0.491-0.5648z" style="fill:#999"/>
  <path d="m65.93 19.92s0-1.025 3.417-1.025c3.417 0 3.417 1.708 3.417 1.708v14.35l-0.6834 0.6834-5.809-0.3417-0.3417-0.6834z" style="fill:#999"/>
  <path d="m68.32 18.93c-2.39 0.1815-2.392 0.9884-2.392 0.9884v14.69l0.3417 0.6834 2.05 0.1208-1.367-1.146v-14.01z" style="fill:#666"/>
  <path d="m78.59 35.83-0.411-0.411 1.6e-5 -16.03c0-1.644 2.055-2.466 2.055-2.466v-2.877s0.822-0.411 2.055-0.411 1.644 0.411 1.644 0.411v2.877s2.055 1.233 2.055 2.877c0 1.233 4e-3 15.91 4e-3 15.91l-0.8219 0.822z" style="fill:#666"/>
  <path d="m80.94 13.71c-0.5162 0.1192-0.822 0.2713-0.822 0.2713v2.877s-2.055 0.822-2.055 2.466v16.03l0.411 0.411 1.052 0.1405-0.6414-0.9624v-14.8c0-1.644 2.055-2.466 2.055-2.466z" style="fill:#1a1a1a"/>
  <path d="m98.02 37.38 0.9297-0.4648v-8.832l-1.859-2.789v-3.254s-0.9297-0.4648-2.324-0.4648-2.324 0.4648-2.324 0.4648v2.789l-1.859 2.789v9.297z" style="fill:#333"/>
  <path d="m94.77 21.17c-1.534 0-2.557 0.5113-2.557 0.5113v3.068s1.023-0.5113 2.557-0.5113c1.534 0 2.557 0.5113 2.557 0.5113v-3.068s-1.023-0.5113-2.557-0.5113z" style="fill:#4d4d4d"/>
  <path d="m95.07 49.28c-1.534 0-2.557 0.5113-2.557 0.5113v3.068s1.023-0.5113 2.557-0.5113c1.534 0 2.557 0.5113 2.557 0.5113v-3.068s-1.023-0.5113-2.557-0.5113z" style="fill:#4d4d4d"/>
  <path d="m61.91 34.73-1.588 0.5292v4.233l1.588-0.2646z" style="fill:#1a1a1a"/>
  <path d="m61.91 34.73v4.498l52.13 3.63v-3.969z" style="fill:#666"/>
  <path d="m62.44 37.12s0-0.5292 0.5292-0.5292c0.5292 0 50.01 3.63 50.01 3.63s0.5292 0 0.5292 0.5292v1.323s0 0.5292-0.5292 0.5292c-0.5292 0-49.48-3.63-50.01-3.63-0.5292-1e-6 -0.5292-0.5292-0.5292-0.5292z" style="fill:#4d4d4d"/>
  <path d="m62.17 35.79v0.5292l51.6 3.63v-0.5292z" style="fill:#808080"/>
  <path d="m60.85 39.5 1.588-0.2646 51.6 3.63-0.5292 0.2646z"/>
  <path d="m64.56 37.31s-0.5279-0.03691-0.5648 0.491c-0.0369 0.5279 0.491 0.5648 0.491 0.5648l2.112 0.1477s0.5279 0.03692 0.5648-0.491c0.0369-0.5279-0.491-0.5648-0.491-0.5648z" style="fill:#999"/>
  <path d="m76.81 38.22s-0.5279-0.03691-0.5648 0.491c-0.0369 0.5279 0.491 0.5648 0.491 0.5648l2.112 0.1477s0.5279 0.03692 0.5648-0.491c0.0369-0.5279-0.491-0.5648-0.491-0.5648z" style="fill:#999"/>
  <path d="m70.72 37.69s-0.5279-0.03691-0.5648 0.491c-0.0369 0.5279 0.491 0.5648 0.491 0.5648l2.112 0.1477s0.5279 0.03692 0.5648-0.491c0.0369-0.5279-0.491-0.5648-0.491-0.5648z" style="fill:#999"/>
  <path d="m83.12 38.71s-0.5279-0.03691-0.5648 0.491c-0.0369 0.5279 0.491 0.5648 0.491 0.5648l2.112 0.1477s0.5279 0.03692 0.5648-0.491c0.0369-0.5279-0.491-0.5648-0.491-0.5648z" style="fill:#999"/>
  <path d="m88.98 39.09s-0.5279-0.03691-0.5648 0.491c-0.0369 0.5279 0.491 0.5648 0.491 0.5648l2.112 0.1477s0.5279 0.03692 0.5648-0.491c0.0369-0.5279-0.491-0.5648-0.491-0.5648z" style="fill:#999"/>
  <path d="m94.79 39.43s-0.5279-0.03691-0.5648 0.491c-0.0369 0.5279 0.491 0.5648 0.491 0.5648l2.112 0.1477s0.5279 0.03692 0.5648-0.491c0.0369-0.5279-0.491-0.5648-0.491-0.5648z" style="fill:#999"/>
  <path d="m100.9 39.95s-0.5279-0.03691-0.5648 0.491c-0.0369 0.5279 0.491 0.5648 0.491 0.5648l2.112 0.1477s0.5279 0.03692 0.5648-0.491c0.0369-0.5279-0.491-0.5648-0.491-0.5648z" style="fill:#999"/>
  <path d="m106.6 40.29s-0.5279-0.03691-0.5648 0.491c-0.0369 0.5279 0.491 0.5648 0.491 0.5648l2.112 0.1477s0.5279 0.03692 0.5648-0.491c0.0369-0.5279-0.491-0.5648-0.491-0.5648z" style="fill:#999"/>
  <path d="m78.04 22.25v7.95h7.95v-7.95s-1.644-0.5014-4.11-0.5014c-2.466 0-3.84 0.5014-3.84 0.5014zm6.057 3.609c0.4745 0 0.8164 0.1653 1.062 0.5981l-0.5817 0.3735c-0.1287-0.2297-0.2662-0.3205-0.4808-0.3205-0.2183 0-0.3571 0.1388-0.3571 0.3205 0 0.2246 0.1388 0.3142 0.4593 0.453l0.1868 0.08c0.6347 0.2726 0.9931 0.5502 0.9931 1.174 0 0.6726-0.5287 1.041-1.238 1.041-0.694 0-1.142-0.3306-1.363-0.7634l0.607-0.3533c0.1603 0.2612 0.3685 0.4543 0.7369 0.4543 0.3092 0 0.5073-0.1552 0.5073-0.3685 0-0.2562-0.2032-0.347-0.5439-0.4959l-0.1868-0.08012c-0.5388-0.2297-0.8972-0.5174-0.8972-1.126 0-0.5603 0.4265-0.9868 1.094-0.9868zm-2.473 0.04266h0.747v2.549c0 0.7735-0.453 1.126-1.115 1.126-0.5981 0-0.9439-0.3092-1.121-0.6827l0.6082-0.3685c0.1174 0.2082 0.2246 0.3836 0.4808 0.3836 0.2448 0 0.4-0.09603 0.4-0.4694v-2.536z" style="stroke-width:.01262"/>
  <g transform="matrix(.2795 0 0 .2795 18.53 16.5)">
   <path d="m193.1 35.96c0-1.381-1.73-2.69-4.378-3.502 0.612-2.703 0.34-4.845-0.8585-5.525-0.2762-0.1615-0.5993-0.238-0.952-0.238v0.9478c0.1955 0 0.3528 0.03825 0.4845 0.1105 0.578 0.3315 0.8288 1.594 0.6333 3.217-0.0468 0.3995-0.1233 0.8203-0.2168 1.25-0.833-0.204-1.743-0.3613-2.699-0.4633-0.5738-0.7863-1.169-1.5-1.768-2.125 1.386-1.288 2.686-1.993 3.57-1.993v-0.9478c-1.169 0-2.699 0.833-4.246 2.278-1.547-1.437-3.077-2.261-4.246-2.261v0.9478c0.8798 0 2.185 0.7013 3.57 1.981-0.595 0.6248-1.19 1.335-1.755 2.121-0.9605 0.102-1.87 0.2593-2.703 0.4675-0.0977-0.425-0.17-0.8373-0.221-1.233-0.1998-1.624 0.0468-2.886 0.6205-3.222 0.1275-0.0765 0.2932-0.1105 0.4888-0.1105v-0.9478c-0.357 0-0.68 0.0765-0.9605 0.238-1.194 0.6885-1.462 2.835-0.8458 5.525-2.644 0.816-4.378 2.121-4.378 3.498 0 1.381 1.73 2.69 4.378 3.502-0.612 2.703-0.34 4.845 0.8585 5.525 0.2762 0.1615 0.5993 0.238 0.9563 0.238 1.169 0 2.699-0.833 4.246-2.278 1.547 1.437 3.077 2.261 4.246 2.261 0.357 0 0.68-0.0765 0.9605-0.238 1.194-0.6885 1.462-2.835 0.8458-5.525 2.635-0.8118 4.335-2.121 4.335-3.498zm-5.525-2.835c-0.1572 0.5483-0.3528 1.114-0.5738 1.679-0.1742-0.34-0.357-0.68-0.5568-1.02-0.1955-0.34-0.4038-0.6715-0.612-0.9945 0.6035 0.08925 1.186 0.1998 1.743 0.3358zm-1.947 4.505c-0.3315 0.5738-0.6715 1.118-1.024 1.624-0.6333 0.05525-1.275 0.085-1.921 0.085-0.6418 0-1.284-0.02975-1.913-0.08075-0.3528-0.5058-0.697-1.046-1.029-1.615-0.323-0.5568-0.6163-1.122-0.884-1.692 0.2635-0.5695 0.561-1.139 0.8798-1.696 0.3315-0.5738 0.6715-1.118 1.024-1.624 0.6333-0.05525 1.275-0.085 1.921-0.085 0.6418 0 1.284 0.02975 1.913 0.08075 0.3528 0.5058 0.697 1.046 1.029 1.615 0.323 0.5568 0.6163 1.122 0.884 1.692-0.2678 0.5695-0.561 1.139-0.8798 1.696zm1.373-0.5525c0.2295 0.5695 0.425 1.139 0.5865 1.692-0.5568 0.136-1.143 0.2508-1.751 0.34 0.2082-0.3273 0.4165-0.663 0.612-1.007 0.1955-0.34 0.3783-0.6843 0.5525-1.024zm-4.293 4.548c-0.3952-0.408-0.7905-0.8628-1.182-1.36 0.3825 0.017 0.7735 0.02975 1.169 0.02975 0.3995 0 0.7948-0.0085 1.182-0.02975-0.3825 0.4973-0.7778 0.952-1.169 1.36zm-3.162-2.503c-0.6035-0.08925-1.186-0.1998-1.743-0.3358 0.1572-0.5483 0.3528-1.114 0.5738-1.679 0.1742 0.34 0.357 0.68 0.5568 1.02 0.1998 0.34 0.4038 0.6715 0.612 0.9945zm3.141-8.84c0.3953 0.408 0.7905 0.8628 1.182 1.36-0.3825-0.017-0.7735-0.02975-1.169-0.02975-0.3995 0-0.7948 0.0085-1.182 0.02975 0.3825-0.4973 0.7778-0.952 1.169-1.36zm-3.145 2.503c-0.2082 0.3273-0.4165 0.663-0.612 1.007-0.1955 0.34-0.3782 0.68-0.5525 1.02-0.2295-0.5695-0.425-1.139-0.5865-1.692 0.5568-0.1318 1.143-0.2465 1.751-0.3358zm-3.846 5.313c-1.505-0.6418-2.478-1.483-2.478-2.151 0-0.6673 0.9733-1.513 2.478-2.151 0.3655-0.1573 0.765-0.2975 1.177-0.4293 0.2422 0.833 0.561 1.7 0.9563 2.588-0.391 0.884-0.7055 1.747-0.9435 2.576-0.4208-0.1318-0.8203-0.2763-1.19-0.4335zm2.287 6.078c-0.578-0.3315-0.8288-1.594-0.6333-3.217 0.0468-0.3995 0.1232-0.8203 0.2168-1.25 0.833 0.204 1.743 0.3613 2.699 0.4633 0.5738 0.7863 1.169 1.5 1.768 2.125-1.386 1.288-2.686 1.993-3.57 1.993-0.1913-0.0043-0.3528-0.0425-0.4803-0.1148zm10.07-3.239c0.1998 1.624-0.0468 2.886-0.6205 3.222-0.1275 0.0765-0.2933 0.1105-0.4888 0.1105-0.8798 0-2.185-0.7013-3.57-1.981 0.595-0.6248 1.19-1.335 1.755-2.121 0.9605-0.102 1.87-0.2593 2.703-0.4675 0.0978 0.4293 0.1743 0.8415 0.221 1.237zm1.636-2.835c-0.3655 0.1573-0.765 0.2975-1.177 0.4293-0.2422-0.833-0.561-1.7-0.9563-2.588 0.391-0.884 0.7055-1.747 0.9435-2.576 0.4208 0.1318 0.8203 0.2763 1.194 0.4335 1.505 0.6418 2.478 1.483 2.478 2.151-4e-3 0.6673-0.9775 1.513-2.482 2.151z" style="stroke-width:.0425"/>
   <circle cx="182.6" cy="35.96" r="1.942" style="stroke-width:.0425"/>
  </g>
  <g transform="matrix(-.185 0 0 -.185 100.8 66.27)" style="fill:#ccc">
   <g transform="matrix(0 -.2646 .2646 0 151.9 113.7)" style="fill:#ccc">
    <path d="m269 107c-2.9 1.3-6 1.9-9.1 1.9-4.9 0-9.2-0.8-13.1-2.5-3.7-1.6-7.1-4-9.8-7s-4.8-6.6-6.1-10.5c-1.4-4.2-2.2-8.5-2.1-13 0-4.5 0.7-9 2.1-13.2 1.3-3.9 3.4-7.5 6.1-10.6s6.1-5.5 9.8-7.1c3.9-1.7 8.2-2.6 13.1-2.6 3.2 0 6.4 0.5 9.4 1.5 3 0.9 5.8 2.4 8.3 4.3 5.2 4 8.5 10.1 9 16.6h-13.3c-0.8-3.6-2.4-6.2-4.8-8s-5.2-2.7-8.6-2.7c-3.1 0-5.8 0.6-8 1.8-2.1 1.2-4 2.9-5.3 4.9-1.4 2.1-2.4 4.5-3 7-0.6 2.7-0.9 5.4-0.9 8.1 0 2.6 0.3 5.2 0.9 7.8 0.6 2.4 1.6 4.7 3 6.8 1.4 2 3.2 3.7 5.3 4.8 2.2 1.2 4.9 1.8 8 1.8 4.6 0 8.2-1.2 10.7-3.5s4-5.7 4.4-10.1h-14v-10.5h26.6v34.3h-8.9l-1.4-7.2c-2.5 3.4-5.3 5.6-8.3 6.9z" style="fill:#ccc"/>
    <polygon transform="translate(-67.4,-174)" points="409 270 409 281 364 281 364 218 378 218 378 270" style="fill:#ccc"/>
    <polygon transform="translate(-67.4,-174)" points="118 213 136 282 147 282 162 228 178 282 188 282 207 213 195 213 183 266 168 213 157 213 142 266 130 213" style="fill:#ccc"/>
    <path d="m170 68.4c-1.6-2.3-3.8-4.2-6.3-5.5-2.8-1.3-5.8-2-8.8-1.9-3.7 0-7.1 0.7-9.9 2-2.7 1.2-5.1 3.1-6.9 5.5-3.5 4.4-5.3 10.7-5.3 18 0 3.1 0.5 6.2 1.4 9.1 0.9 2.7 2.2 5.2 4 7.3 3.7 4.3 9 6.6 15.3 6.6 3.3 0 6-0.3 8.3-1.1 1.5-0.5 3-1.2 4.3-2.1 1.4-0.9 2.7-2 3.8-3.3 1-1.1 1.8-2.3 2.5-3.6 1.3-2.4 1.9-4.6 2.1-5.7l0.1-0.8h-9l-0.1 0.6c-0.2 2.9-4.1 8.2-10.9 8.2-9.8 0-12.1-7.1-12.3-13.3h32.8v-0.7c0-3.7-0.4-7.3-1.2-10.9-0.9-3-2.2-5.8-3.9-8.4zm-16.2 0.7c7.3 0 11.1 3.9 11.8 11.9h-23.4c0.3-6.5 5.5-11.9 11.6-11.9z" style="fill:#ccc"/>
    <path d="m221 75c-0.8-2.7-2.1-5.1-3.8-7.3-1.7-2.1-3.8-3.8-6.2-4.9-2.6-1.2-5.4-1.8-8.3-1.8-2.6 0-5.2 0.6-7.6 1.8-1.9 1-3.6 2.3-4.9 4v-21.2h-9v62.7h8.5v-4.3c0.8 1.1 1.9 2.1 3 2.9 2.4 1.7 5.4 2.6 8.9 2.6 3.8 0 7.1-0.8 9.9-2.5 2.6-1.5 4.8-3.7 6.4-6.3s2.7-5.4 3.4-8.3c0.7-2.8 1-5.7 1-8.6 0-2.8-0.4-5.8-1.3-8.8zm-8.1 10.2c0 4.9-1 9-2.9 11.9-2 3.1-4.9 4.6-8.6 4.6-5.4 0-11.6-3.8-11.6-14.3 0-5.1 0.6-9 1.9-11.9 1.9-4.3 5-6.3 9.6-6.3 4.9 0 8.1 1.9 9.9 5.8 1.5 3.2 1.7 7.2 1.7 10.2z" style="fill:#ccc"/>
   </g>
  </g>
  <path d="m95.09 28.04-2.871 1.623 1.018 0.5879 0.01468-0.0082 1.834-1.009zm0.2458 0v1.192l1.834 1.009 0.01468 0.0083 1.018-0.587zm-0.1229 1.403-1.724 0.9447 1.724 0.9998 1.724-0.9998zm-3.109 0.4329v3.311l1.027-0.5907v-2.128zm6.228 0-1.027 0.5916v2.128l1.027 0.5907zm-4.953 0.7329v1.871l1.724 0.9447v-1.825zm3.687 0-1.724 0.9906v1.825l1.724-0.9447zm-3.715 2.146-1.055 0.609 2.798 1.587v-1.229zm3.733 0-1.743 0.9631v1.229l2.798-1.587z" style="fill:#ccc;stroke-width:.009172"/>
  <path d="m81.75 52.51 0.7639 2.249a0.6875 0.6875 0 0 0-0.2122 1.256 2.313 2.313 0 0 1-0.3331 0.3926 2.086 2.086 0 0 1-0.6706 0.4308 0.5644 0.5644 0 0 1-0.2398-0.696l0.0082-0.01948 0.01571-0.03735a0.6875 0.6875 0 1 0-0.7087-0.16c-0.02293 0.04902-0.04731 0.09845-0.07218 0.1496a2.971 2.971 0 0 0-0.2971 0.8064c-0.09868 0.5942 0.06007 1.069 0.4477 1.339a1.22 1.22 0 0 0 0.713 0.2271c0.452 0 0.9103-0.2271 1.358-0.4499a5.029 5.029 0 0 1 0.9846-0.4074c0.1224-0.03012 0.2483-0.04817 0.382-0.06748a2.118 2.118 0 0 0 0.7809-0.2186 1.08 1.08 0 0 0 0.5284-0.7491 1.116 1.116 0 0 0-0.1466-0.766 0.6833 0.6833 0 0 0 0.1008-0.3586 0.6896 0.6896 0 0 0-0.5602-0.6769l0.7639-2.249h-3.607zm0.3777 0.2695h2.843l-0.6727 1.986a0.679 0.679 0 0 0-0.08487 0.02653l-0.6642-1.358-0.6663 1.35a0.679 0.679 0 0 0-0.08914-0.0244l-0.6705-1.98zm1.426 1.267 0.4371 0.8912a0.6875 0.6875 0 0 0 0.8679 1.061 0.8403 0.8403 0 0 1 0.07531 0.5135l4.19e-4 -4.22e-4a0.8106 0.8106 0 0 1-0.3968 0.5623 1.889 1.889 0 0 1-0.6833 0.1844c-0.1341 0.01931-0.2716 0.03903-0.4074 0.07258a5.22 5.22 0 0 0-1.04 0.4265c-0.6705 0.3332-1.252 0.6217-1.797 0.2419-0.401-0.278-0.382-0.7915-0.3353-1.072a2.716 2.716 0 0 1 0.2716-0.7321c0.01949-0.04011 0.03866-0.08 0.05727-0.119a0.6833 0.6833 0 0 0 0.1778 0.04477 0.8403 0.8403 0 0 0 0.4456 0.9867l0.05221 0.02694 0.05517-0.01948a2.334 2.334 0 0 0 0.8233-0.5093 2.568 2.568 0 0 0 0.4074-0.4923 0.6875 0.6875 0 0 0 0.5602-1.195l0.4329-0.8743zm-0.8891 0.9697a0.418 0.418 0 1 1-0.418 0.418 0.418 0.418 0 0 1 0.418-0.418zm1.797 0a0.418 0.418 0 0 1 0.0048 0 0.418 0.418 0 0 1 0.418 0.418 0.418 0.418 0 1 1-0.4223-0.418zm-3.607 0.0029v0.0013a0.418 0.418 0 1 1-0.418 0.4159 0.418 0.418 0 0 1 0.418-0.418z" style="stroke-width:.2122"/>
  <path d="m91.95 56.22 0.5787 6.49 2.593 0.7208 2.608-0.7208 0.5787-6.49s-1.773-0.4803-3.179-0.4803-3.179 0.4803-3.179 0.4803zm1.15 1.22 4.073 2.9e-5 -0.0083 1.861-0.0023 0.2901-0.0068 1.449-2.036 0.7222-2.022-0.7222 0.0037-0.9625h0.8028l-9.78e-4 0.397 1.225 0.4366 1.232-0.4366 0.0042-0.9156h-3.267l0.0023-0.8028h3.267l9.78e-4 -0.5186h-3.267l0.0046-0.8028z" style="fill:#ccc;stroke-width:.01465"/>
 </g>
</svg>
