<svg class="si-glyph si-glyph-leaf" width="800px" height="800px" version="1.1" viewBox="0 0 16 16" xmlns="http://www.w3.org/2000/svg">
 <title>97</title>
 <g fill="none" fill-rule="evenodd" style="fill:#000">
  <g fill="#434343" style="fill:#000">
   <path class="si-glyph-fill" d="m0.29156-0.0053906 0.84772 5.5387 4.0047 7.7557 3.4163 1.8246 3.4359-0.68269 0.81762 0.3936 0.98617 0.45046 1.5187 0.48125 0.56024 0.14376 0.04876-0.76475-0.0049-0.43862-0.0048-0.43862-0.96054 0.08128-2.293-0.48058 0.0116-0.012-1.3325-0.73815-1.3325-0.73834-2.1931-1.6313-2.3651-0.34287-1.7899-1.1341 1.846 0.5565 1.228 0.0285-3.8906-4.7272-1.0114-2.1278 2.013 2.7565 2.046 2.1595-0.33136-1.958 0.047693-0.571 0.047693-0.571 1.0245 3.446 0.13949 0.54799 1.3765 1.0457 1.3105 0.89125-0.35562-1.3027-0.11637-2.0662 0.50276 1.8906 1.3533 2.5484 1.2646 0.69627 1.0494 0.53577 0.55751-3.4099-1.9685-3.4871-4.9789-2.0415-4.8942-3.0809z" style="fill:#000"/>
  </g>
 </g>
</svg>
