<?xml version="1.0" encoding="UTF-8" standalone="no"?>
<!-- Uploaded to: SVG Repo, www.svgrepo.com, Generator: SVG Repo Mixer Tools -->

<svg
   fill="#000000"
   height="800px"
   width="800px"
   version="1.1"
   id="Layer_1"
   viewBox="0 0 512 512"
   xml:space="preserve"
   sodipodi:docname="leaf3.svg"
   inkscape:version="1.2.1 (9c6d41e410, 2022-07-14)"
   xmlns:inkscape="http://www.inkscape.org/namespaces/inkscape"
   xmlns:sodipodi="http://sodipodi.sourceforge.net/DTD/sodipodi-0.dtd"
   xmlns="http://www.w3.org/2000/svg"
   xmlns:svg="http://www.w3.org/2000/svg"><defs
   id="defs636" /><sodipodi:namedview
   id="namedview634"
   pagecolor="#505050"
   bordercolor="#ffffff"
   borderopacity="1"
   inkscape:showpageshadow="0"
   inkscape:pageopacity="0"
   inkscape:pagecheckerboard="1"
   inkscape:deskcolor="#505050"
   showgrid="false"
   inkscape:zoom="0.539375"
   inkscape:cx="745.30707"
   inkscape:cy="207.64774"
   inkscape:window-width="1920"
   inkscape:window-height="1017"
   inkscape:window-x="-8"
   inkscape:window-y="-8"
   inkscape:window-maximized="1"
   inkscape:current-layer="Layer_1" />
<g
   id="g631">
	<g
   id="g629">
		<path
   id="path627"
   d="M 376.57875,0 268.01063,21.152865 148.5022,102.14192 68.7025,220.87375 48.615649,329.68988 64.9875,425.315 0,490.3025 21.6975,512 86.685,447.0125 185.22333,463.36037 292.36112,442.47712 411.8678,361.48808 491.6675,242.75625 511.72318,133.94581 490.58214,26.775202 462.58932,16.664229 Z m -0.001,30.68375 72.78,10.2625 -123.43,123.43 V 35.62875 Z m -81.335,12.9375 V 195.0625 L 192.344,297.96 V 102.8725 l 90.7801,-54.927097 z m 175.81,19.0225 9.97147,77.01815 -4.64647,46.4106 H 347.624 Z M 161.66,132.345 v 196.29875 l -72.3425,72.3425 -9.982893,-75.55789 19.072824,-95.45622 z m 155.28,84.4125 h 151.4425 l -59.255,102.89875 H 214.04125 Z M 183.3575,350.34125 h 196.3 l -101.10405,64.64102 -96.19292,17.76178 -71.34603,-10.0603 z"
   sodipodi:nodetypes="cccccccccccccccccccccccccccccccccccccccccccccccccc" />
	</g>
</g>
</svg>
