<svg fill="currentColor" version="1.1" viewBox="0 0 32 25" xmlns="http://www.w3.org/2000/svg">
 <style type="text/css">.isometric_een{fill:#F8F7C5;}
	.isometric_vier{fill:#AD9A74;}
	.isometric_vijf{fill:#F29227;}
	.isometric_zes{fill:#F28103;}
	.isometric_zeven{fill:#FF7344;}
	.isometric_acht{fill:#F05A28;}
	.isometric_tien{fill:#7BD6C4;}
	.isometric_twaalf{fill:#569080;}
	.isometric_dertien{fill:#225B49;}
	.st0{fill:#72C0AB;}
	.st1{fill:#BE1E2D;}
	.st2{fill:#F5DF89;}
	.st3{fill:#F2D76C;}
	.st4{fill:#F28103;}
	.st5{fill:#7BD6C4;}</style>
 <g transform="translate(-.8153 -2.829)">
  <path class="isometric_een" d="m29.34 12.31-10.25-6.982c-4.441-2.618-10.84-3.267-14.75-1.395-4.587 2.197-3.825 6.306 0.3712 9.18l9.444 6.469c4.196 2.874 11.12 4.032 15.71 1.835 4.117-1.956 3.89-6.04-0.5231-9.107z" style="stroke-width:1.406"/>
  <path class="isometric_dertien" d="m14.48 8.446c-0.8775-0.5077-1.114-0.6525-1.356-0.8001l1.34-0.7734c0.3403-0.1969 0.4852-0.4627 0.4331-0.72v-1.138c0.08578-0.6989-1.446-1.385-2.596-0.7214-1.966 1.135-1.44 0.8311-2.452 1.416l-2.468-1.425c-1.183-0.6834-2.79 0.02391-2.599 0.7495 0 0.3305-0.00141 1.005 0 1.198 0.00141 0.225 0.1505 0.4514 0.45 0.623l1.371 0.7917c-0.02531 0.01406-1.498 0.8508-1.645 1.036-0.1252 0.1561-0.1687 0.3052-0.1519 0.4444 0.00141 0.3023 0.00281 1.042 0 1.245-0.01266 0.8325 1.732 1.142 2.606 0.637l2.454-1.416 2.468 1.425c1.097 0.6328 2.46 0.1097 2.587-0.5091 0.0084-0.907 7e-3 -1.249 0.0056-1.368 0.04641-0.232-0.07594-0.4795-0.4472-0.6947zm7.601 5.024c-0.02109 0.2855-0.2503 1.627-0.3052 1.884-0.04781 0.2236-0.2419 0.4317-0.5737 0.5906-0.7397 0.3544-1.745 0.2728-2.422-0.1912-0.315-0.2152-0.4711-0.4542-0.4739-0.682-0.0028-0.263 0.2236-1.731 0.3305-2.014 0.01688-0.045 0.06187-0.08719 0.09281-0.1308-0.1898 0.308-0.09422 0.6609 0.36 0.9717 0.6778 0.4641 1.682 0.5456 2.422 0.1912 0.3445-0.1645 0.533-0.3853 0.5695-0.6201z" style="stroke-width:1.406"/>
  <path class="isometric_acht" d="m27.14 18.31c-0.7397 0.3544-1.745 0.2728-2.422-0.1912-0.4542-0.3108-0.5498-0.6637-0.36-0.9717-0.02953 0.04359-0.07453 0.08437-0.09281 0.1308-0.1069 0.2827-0.3333 1.751-0.3305 2.014 0.0028 0.2292 0.1589 0.4669 0.4739 0.682 0.6778 0.4641 1.682 0.5456 2.422 0.1912 0.3319-0.1589 0.5273-0.367 0.5737-0.5906 0.05484-0.2573 0.2841-1.599 0.3052-1.884-0.03516 0.2334-0.2236 0.4542-0.5695 0.6201z" style="stroke-width:1.406"/>
  <path class="isometric_zeven" d="m27.24 16.96c-0.7158-0.4908-1.702-0.5372-2.422-0.1927-0.6497 0.3108-0.7945 0.8845-0.1069 1.356 0.6778 0.4641 1.682 0.5456 2.422 0.1912 0.7298-0.3487 0.7594-0.907 0.1069-1.354z" style="stroke-width:1.406"/>
  <path class="isometric_twaalf" d="m12.33 9.687-2.468-1.425-2.454 1.416c-1.133 0.6539-3.191-0.07453-2.452-0.9956 0.1491-0.1856 2.769-1.655 2.744-1.669l-2.469-1.489c-1.408-0.8128 0.6933-2.081 2.15-1.24l2.468 1.425c1.014-0.585 0.4866-0.2812 2.452-1.416 1.45-0.8367 3.507 0.4711 2.163 1.249l-2.452 1.448c0.07031 0.04078 0.07031-0.04078 0 0 1.441 0.8325 0.8128 0.5006 2.468 1.457 1.391 0.803-0.7256 2.062-2.149 1.24zm9.284 3.05c-0.7158-0.4908-1.702-0.5372-2.422-0.1927-0.6497 0.3108-0.7945 0.8845-0.1069 1.356 0.6778 0.4641 1.682 0.5456 2.422 0.1912 0.4148-0.1983 0.5625-0.4627 0.5723-0.6398 0.01406-0.2391-0.1378-0.4908-0.4655-0.7144z" style="stroke-width:1.406"/>
  <path class="isometric_twaalf" d="m27.14 14.09c-0.7397 0.3544-1.745 0.2728-2.422-0.1912-0.4542-0.3108-0.5498-0.6637-0.36-0.9717-0.02953 0.04359-0.07453 0.08437-0.09281 0.1308-0.1069 0.2827-0.3333 1.751-0.3305 2.014 0.0028 0.2292 0.1589 0.4669 0.4739 0.682 0.6778 0.4641 1.682 0.5456 2.422 0.1912 0.3319-0.1589 0.5273-0.367 0.5737-0.5906 0.05484-0.2573 0.2841-1.599 0.3052-1.884-0.03516 0.2334-0.2236 0.4542-0.5695 0.6201z" style="stroke-width:1.406"/>
  <path class="isometric_tien" d="m27.24 12.74c-0.7158-0.4908-1.702-0.5372-2.422-0.1927-0.6497 0.3108-0.7945 0.8845-0.1069 1.356 0.6778 0.4641 1.682 0.5456 2.422 0.1912 0.4148-0.1983 0.5625-0.4627 0.5723-0.6398 0.01406-0.2391-0.1378-0.4908-0.4655-0.7144z" style="stroke-width:1.406"/>
  <path class="isometric_zes" d="m21.51 18.31c-0.7397 0.3544-1.745 0.2728-2.422-0.1912-0.4542-0.3108-0.5498-0.6637-0.36-0.9717-0.02953 0.04359-0.07453 0.08437-0.09281 0.1308-0.1069 0.2827-0.3333 1.751-0.3305 2.014 0.0028 0.2292 0.1589 0.4669 0.4739 0.682 0.6778 0.4641 1.682 0.5456 2.422 0.1912 0.3319-0.1589 0.5273-0.367 0.5737-0.5906 0.05484-0.2573 0.2841-1.599 0.3052-1.884-0.03516 0.2334-0.2236 0.4542-0.5695 0.6201z" style="stroke-width:1.406"/>
  <path class="isometric_vijf" d="m21.62 16.96c-0.7158-0.4908-1.702-0.5372-2.422-0.1927-0.6497 0.3108-0.7945 0.8845-0.1069 1.356 0.6778 0.4641 1.682 0.5456 2.422 0.1912 0.4148-0.1983 0.5625-0.4627 0.5723-0.6398 0.01406-0.2391-0.1378-0.4908-0.4655-0.7144z" style="stroke-width:1.406"/>
  <path class="isometric_vier" d="m32.8 17.64c-0.06187 1.503-1.035 2.863-2.94 3.769-4.587 2.198-11.51 1.041-15.71-1.835l-9.444-6.469c-2.153-1.475-3.402-3.275-3.487-4.975v0.00703c-0.2166 1.544-0.3122 4.009-0.3839 4.632-0.2081 1.815 0.9576 3.862 3.465 5.58l9.444 6.469c4.186 2.867 11.11 4.036 15.71 1.835 1.73-0.8283 2.694-2.019 2.912-3.347 0.1308-0.8156 0.4458-3.961 0.4458-5.352 0-0.09562-0.0028-0.2011-0.01125-0.3136z" style="stroke-width:1.406"/>
 </g>
</svg>
