<svg fill="currentColor" version="1.1" viewBox="0 0 500 390" xmlns="http://www.w3.org/2000/svg">
 <path d="m439.4 148.8-157-106.9c-34-20.04-75.5-32.55-116-36.46-40.48-3.912-79.94 0.7694-109.9 15.1-17.56 8.41-29.82 18.33-37.68 29.28s-11.35 22.91-11.35 35.41 5.647 25.97 15.31 39.06 23.34 25.81 39.4 36.81l144.6 99.06c32.13 22 74.69 37.44 118 43.17 43.32 5.729 87.4 1.751 122.5-15.07 31.52-14.98 46.41-38.1 44.98-63.34s-19.2-52.62-52.99-76.1h-0.0161z" style="fill:#ccc;stroke-width:21.53"/>
 <path d="m326.2 158.5c-0.3229 4.372-3.833 24.91-4.673 28.85-0.7321 3.424-3.704 6.61-8.785 9.043-11.33 5.427-26.72 4.177-37.09-2.928-4.823-3.295-7.214-6.955-7.256-10.44-0.0429-4.027 3.424-26.51 5.061-30.84 0.2585-0.689 0.9474-1.335 1.421-2.003-2.906 4.716-1.443 10.12 5.512 14.88 10.38 7.106 25.76 8.354 37.09 2.928 5.275-2.519 8.161-5.9 8.72-9.495z" style="fill:#7bd6c4;stroke-width:21.53"/>
 <path d="m217.8 93.6c-13.44-7.774-17.06-9.991-20.76-12.25l20.52-11.84c5.211-3.015 7.43-7.085 6.632-11.02v-17.43c1.313-10.7-22.14-21.21-39.75-11.05-30.1 17.38-22.05 12.73-37.55 21.68l-37.79-21.82c-18.11-10.46-42.72 0.3661-39.8 11.48 0 5.061-0.0216 15.39 0 18.34 0.0216 3.445 2.304 6.912 6.891 9.54l20.99 12.12c-0.3876 0.2153-22.94 13.03-25.19 15.86-1.917 2.39-2.583 4.673-2.326 6.805 0.0216 4.629 0.043 15.96 0 19.06-0.1938 12.75 26.52 17.49 39.9 9.754l37.58-21.68 37.79 21.82c16.8 9.69 37.67 1.68 39.61-7.795 0.1286-13.89 0.1072-19.13 0.0857-20.95 0.7106-3.552-1.163-7.342-6.848-10.64z" style="fill:#7bd6c4;stroke-width:21.53"/>
 <path d="m403.7 232.6c-11.33 5.427-26.72 4.177-37.09-2.928-6.955-4.759-8.419-10.16-5.512-14.88-0.4522 0.6675-1.141 1.292-1.421 2.003-1.637 4.329-5.104 26.81-5.061 30.84 0.0429 3.51 2.433 7.149 7.256 10.44 10.38 7.106 25.76 8.354 37.09 2.928 5.082-2.433 8.074-5.62 8.785-9.043 0.8397-3.94 4.35-24.48 4.673-28.85-0.5384 3.574-3.424 6.955-8.72 9.495z" style="fill:#a5ffd4;stroke-width:21.53"/>
 <path d="m405.2 212c-10.96-7.515-26.06-8.226-37.09-2.951-9.948 4.759-12.17 13.54-1.637 20.76 10.38 7.106 25.76 8.354 37.09 2.928 11.17-5.339 11.63-13.89 1.637-20.73z" style="fill:#7bd6c4;stroke-width:21.53"/>
 <path d="m319.1 147.3c-10.96-7.515-26.06-8.226-37.09-2.951-9.948 4.759-12.17 13.54-1.637 20.76 10.38 7.106 25.76 8.354 37.09 2.928 6.352-3.036 8.613-7.085 8.763-9.797 0.2153-3.661-2.11-7.515-7.128-10.94z" style="fill:#a5ffd4;stroke-width:21.53"/>
 <path d="m184.9 112.6-37.79-21.82-37.58 21.68c-17.35 10.01-48.86-1.141-37.55-15.24 2.283-2.842 42.4-25.34 42.02-25.56l-37.81-22.8c-21.56-12.45 10.62-31.86 32.92-18.99l37.79 21.82c15.53-8.958 7.451-4.306 37.55-21.68 22.2-12.81 53.7 7.214 33.12 19.13l-37.55 22.17c1.077 0.6244 1.077-0.6244 0 0 22.06 12.75 12.45 7.665 37.79 22.31 21.3 12.3-11.11 31.57-32.91 18.99z" style="fill:#a5ffd4;stroke-width:21.53"/>
 <path d="m403.7 168c-11.33 5.427-26.72 4.177-37.09-2.928-6.955-4.759-8.419-10.16-5.512-14.88-0.4522 0.6675-1.141 1.292-1.421 2.003-1.637 4.329-5.104 26.81-5.061 30.84 0.0429 3.51 2.433 7.149 7.256 10.44 10.38 7.106 25.76 8.354 37.09 2.928 5.082-2.433 8.074-5.62 8.785-9.043 0.8397-3.94 4.35-24.48 4.673-28.85-0.5384 3.574-3.424 6.955-8.72 9.495z" style="fill:#808080;stroke-width:21.53"/>
 <path d="m405.2 147.4c-10.96-7.515-26.06-8.226-37.09-2.951-9.948 4.759-12.17 13.54-1.637 20.76 10.38 7.106 25.76 8.354 37.09 2.928 6.352-3.036 8.613-7.085 8.763-9.797 0.2153-3.661-2.11-7.515-7.128-10.94z" style="fill:#93a1ab;stroke-width:21.53"/>
 <path d="m317.5 232.6c-11.33 5.427-26.72 4.177-37.09-2.928-6.955-4.759-8.419-10.16-5.512-14.88-0.4522 0.6675-1.141 1.292-1.421 2.003-1.637 4.329-5.104 26.81-5.061 30.84 0.0429 3.51 2.433 7.149 7.256 10.44 10.38 7.106 25.76 8.354 37.09 2.928 5.082-2.433 8.074-5.62 8.785-9.043 0.8397-3.94 4.35-24.48 4.673-28.85-0.5384 3.574-3.424 6.955-8.72 9.495z" style="fill:#808080;stroke-width:21.53"/>
 <path d="m319.2 212c-10.96-7.515-26.06-8.226-37.09-2.951-9.948 4.759-12.17 13.54-1.637 20.76 10.38 7.106 25.76 8.354 37.09 2.928 6.352-3.036 8.613-7.085 8.763-9.797 0.2153-3.661-2.11-7.515-7.128-10.94z" style="fill:#93a1ab;stroke-width:21.53"/>
 <path d="m492.3 230.4c-0.4737 11.51-4.436 22.47-11.93 32.28-7.49 9.817-18.51 18.49-33.09 25.43-35.12 16.83-79.18 20.81-122.5 15.09s-85.9-21.17-118.1-43.18l-144.2-99.81c-16.48-11.29-30.23-26.29-39.86-40.34-9.629-14.05-15.14-27.16-15.14-34.66v70c0 12.5 2.506 27.44 9.812 42.54 7.306 15.1 19.41 30.36 38.61 43.52l144.6 99.06c32.05 21.95 74.58 37.4 117.9 43.15 43.32 5.75 87.44 1.799 122.7-15.05 13.25-6.342 24.85-14.64 33.14-23.86 8.293-9.216 13.27-19.35 13.27-29.35 2.5-37.5 3.75-56.25 4.353-66.85 0.6035-10.6 0.5604-13.05 0.4743-17.95l-5e-3 -3e-3z" style="fill:#93a1ab;stroke-width:21.53"/>
</svg>
