<svg fill="currentColor" version="1.1" viewBox="0 0 500 500" xmlns="http://www.w3.org/2000/svg">
 <path d="m80 50-80 50v100l35 75 225.78 160.54 119.22 34.455 70-20 50-60v-100l-30-80-255-160z" style="fill:#58595b;stroke-width:21.53"/>
 <path d="m460 220-250-160h-125l-75 50v50l40 50 210 150 120 20 70-30 30-60z" style="fill:#ccc;stroke-width:21.53"/>
 <path d="m227.8 159.6-20.76-12.25 20.52-11.84 0.01-20.37-33.128-19.13-37.55 21.68-37.79-21.82-32.912 18.99 3e-3 20.37 20.99 12.12-25.19 15.86-2.326 18.196 39.9 17.423 37.58-21.68 37.79 23.82 36.414-20.021-3.5668-21.364z" style="fill:#a5ffd4;stroke-width:21.53"/>
 <path d="m194.9 178.6-37.79-21.82-37.58 21.68-37.55-15.24 42.02-25.56-37.81-22.8 32.92-18.99 37.79 21.82 37.55-21.68 33.12 19.13-37.55 22.17 37.79 22.31-32.91 18.99z" style="fill:#a5ffd4;stroke-width:21.53"/>
 <path d="m272.66 279.11 53.662 3.8306-0.0655 33.255-13.218 7.7534-36.928-5.6971-3.3579-6.6784z" style="fill:#58595b;stroke-width:1.8898"/>
 <path d="m319.2 272-37.09-2.951-9.4464 10.06 7.8094 14.7 37.09 2.928 8.763-13.797-7.128-10.94z" style="fill:#93a1ab;stroke-width:21.53"/>
 <path d="m356.15 214.2 53.662 3.8306-0.0655 33.255-13.218 7.7534-36.928-5.6971-3.3579-6.6784z" style="fill:#58595b;stroke-width:1.8898"/>
 <path d="m402.69 207.09-37.09-2.951-9.4464 10.06 7.8094 14.7 37.09 2.928 8.763-13.797-7.128-10.94z" style="fill:#93a1ab;stroke-width:21.53"/>
 <path d="m273.78 213.94 53.662 3.8306-0.0655 33.255-13.218 7.7534-36.928-5.6971-3.3579-6.6784z" style="fill:#a5ffd4;stroke-width:1.8898"/>
 <path d="m320.31 206.83-37.09-2.951-9.4464 10.06 7.8094 14.7 37.09 2.928 8.763-13.797-7.128-10.94z" style="fill:#a5ffd4;stroke-width:21.53"/>
 <path d="m370.06 280.03 53.662 3.8306-0.0655 33.255-13.218 7.7534-36.928-5.6971-3.3579-6.6784z" style="fill:#a5ffd4;stroke-width:1.8898"/>
 <path d="m416.59 272.93-37.09-2.951-9.4464 10.06 7.8094 14.7 37.09 2.928 8.763-13.797-7.128-10.94z" style="fill:#a5ffd4;stroke-width:21.53"/>
 <path d="m320 120 90-90h90v30h-60l-80 85z" style="fill:#58595b;stroke-width:1.8898"/>
</svg>
