<svg width="612" height="571" version="1.1" viewBox="0 0 161.925 151.12973" xmlns="http://www.w3.org/2000/svg">
 <g transform="translate(0 -146)">
  <path d="m51.3 200h-21.6c-1.49 0-2.7 1.21-2.7 2.7v10.8c0 1.49 1.21 2.7 2.7 2.7h21.6c1.49 0 2.7-1.21 2.7-2.7v-10.8c0-1.49-1.21-2.7-2.7-2.7zm-2.7 10.8h-16.2v-5.4h16.2z" style="stroke-width:.265"/>
  <path d="m83.7 200h-21.6c-1.49 0-2.7 1.21-2.7 2.7v10.8c0 1.49 1.21 2.7 2.7 2.7h21.6c1.49 0 2.7-1.21 2.7-2.7v-10.8c0-1.49-1.21-2.7-2.7-2.7zm-2.7 10.8h-16.2v-5.4h16.2z" style="stroke-width:.265"/>
  <path d="m116 200h-21.6c-1.49 0-2.7 1.21-2.7 2.7v10.8c0 1.49 1.21 2.7 2.7 2.7h21.6c1.49 0 2.7-1.21 2.7-2.7v-10.8c0-1.49-1.21-2.7-2.7-2.7zm-2.7 10.8h-16.2v-5.4h16.2z" style="stroke-width:.265"/>
  <path d="m161 209-18.9-18.9c-.506-.506-1.19-.791-1.91-.791h-39l-26.2-41.9c-.493-.789-1.36-1.27-2.29-1.27h-21.6c-1.49 0-2.7 1.21-2.7 2.7v40.5h-9.29l-20.8-33.8c-.491-.799-1.36-1.29-2.3-1.28h-13.5c-1.49 0-2.7 1.21-2.7 2.7v62.1c.0148 13.4 10.9 24.3 24.3 24.3h24.3v51.3c0 1.49 1.21 2.7 2.7 2.7h21.6c1.05 0 2.01-.612 2.45-1.57l24.2-52.4h38.1c13.4-.0148 24.3-10.9 24.3-24.3v-8.1c0-.716-.285-1.4-.791-1.91zm-5.72 1.91h-20.5v-5.4h15.1zm-101-59.4h17.4l23.6 37.8h-41zm-48.6 8.1h9.29l18.3 29.7h-27.6zm65.7 132h-17.2v-64.8h47.1zm85.4-72.9c-.0116 10.4-8.46 18.9-18.9 18.9h-35.6l5.7-12.4c.624-1.35.0339-2.96-1.32-3.58-.355-.164-.741-.248-1.13-.248h-54c-1.49 0-2.7 1.21-2.7 2.7v13.5h-24.3c-10.4-.0119-18.9-8.46-18.9-18.9v-24.3h134l5.4 5.4h-12.4c-1.49 0-2.7 1.21-2.7 2.7v10.8c0 1.49 1.21 2.7 2.7 2.7h24.3z" style="stroke-width:.265"/>
 </g>
</svg>
