<svg fill="currentColor" version="1.1" viewBox="0 0 503.7 503.7" xmlns="http://www.w3.org/2000/svg">
 <g transform="matrix(1.685 0 0 1.685 -174.1 0)">
  <polygon transform="translate(1,1)" points="378.8 71.75 293.5 71.75 336.2 3.48" style="fill:#ecf4f7"/>
  <polygon transform="translate(1,1)" points="378.8 293.6 336.2 293.6 293.5 293.6 293.5 71.75 378.8 71.75" style="fill:#80d6fa"/>
  <polygon transform="translate(1,1)" points="259.4 293.6 122.8 293.6 122.8 259.5 122.8 225.3 122.8 191.2 122.8 157.1 122.8 122.9 122.8 88.81 122.8 54.68 122.8 3.48 259.4 3.48" style="fill:#ffe079"/>
  <path d="m337.5 0c-1.387 0-2.881 0.6399-3.734 1.92l-42.67 68.27c-0.853 0.853-0.8535 1.708-0.8535 2.561v187.7c0 2.56 1.708 4.268 4.268 4.268 2.56 0 4.265-1.706 4.266-4.266v-186.9l38.4-61.44 34.99 56.32h-43.52c-2.56 0-4.268 1.706-4.268 4.266 0 2.56 1.708 4.268 4.268 4.268h51.2c0.853 0 2.559-0.8536 3.412-2.561s0.853-2.559 0-4.266l-42.67-68.27c-0.427-1.28-1.707-1.92-3.094-1.92zm-213.7 0.2168c-2.56 0-4.268 1.708-4.268 4.268v256c0 2.56 1.708 4.268 4.268 4.268 2.56 0 4.266-1.708 4.266-4.268v-29.87h12.8c2.56 0 4.268-1.708 4.268-4.268s-1.708-4.268-4.268-4.268h-12.8v-25.6h12.8c2.56 0 4.268-1.706 4.268-4.266 0-2.56-1.708-4.268-4.268-4.268h-12.8v-25.6h46.93c2.56 0 4.268-1.708 4.268-4.268s-1.708-4.268-4.268-4.268h-46.93v-25.6h12.8c2.56 0 4.268-1.708 4.268-4.268 0-2.56-1.708-4.266-4.268-4.266h-12.8v-25.6h12.8c2.56 0 4.268-1.706 4.268-4.266 0-2.56-1.708-4.268-4.268-4.268h-12.8v-25.6h46.93c2.56 0 4.268-1.708 4.268-4.268 0-2.56-1.708-4.268-4.268-4.268h-46.93v-42.67h128v251.7c0 2.56 1.708 4.268 4.268 4.268 2.56 0 4.267-1.706 4.266-4.262v-256c0-2.56-1.708-4.268-4.268-4.268zm213.3 102.4c-2.56 0-4.268 1.708-4.268 4.268v153.6c0 2.56 1.708 4.268 4.268 4.268s4.266-1.707 4.266-4.268v-153.6c0-2.56-1.706-4.268-4.266-4.268zm42.67 0c-2.56 0-4.268 1.708-4.268 4.268v153.6c0 2.56 1.708 4.268 4.268 4.268 2.56 0 4.268-1.707 4.268-4.268v-153.6c0-2.56-1.708-4.268-4.268-4.268zm-261 187.7v8.535h267.9v-8.535z" style="fill:#51565f"/>
 </g>
</svg>
