<svg version="1.1" viewBox="0 0 95.249998 132.29167" xmlns="http://www.w3.org/2000/svg" fill="currentColor">
 <defs>
  <linearGradient id="linearGradient4982" x1="392" x2="396" y1="110" y2="110" gradientUnits="userSpaceOnUse" xlink:href="#linearGradient5006"/>
  <linearGradient id="linearGradient5006">
   <stop style="stop-color:#196" offset="0"/>
   <stop style="stop-color:#6fc" offset="1"/>
  </linearGradient>
 </defs>
 <g transform="translate(0 -165)">
  <g transform="translate(-16.6 81.3)">
   <path d="m64.4 83.7c-3.03 0-4.26 1.08-3.31 2.92l.443.857-1.94 1.97c-1.07 1.08-2.42 2.21-3 2.51-2.19 1.11-2.44 1.8-1.32 3.46.63.928.645 1.02.248 1.63-.292.446-.396 1.1-.338 2.13l.0832 1.48-1.19.621c-2.55 1.33-10.1 4.94-11.4 5.44-3.14 1.24-7.44 3.46-8.44 4.36-1.1.99-4.24 5.42-6.44 9.08-.678 1.13-1.75 2.82-2.37 3.77-3.22 4.87-5.85 9.79-7.51 14-1.16 2.97-1.39 5.11-.921 8.72.178 1.38.372 3.23.43 4.1.0586.873.335 3.31.614 5.42.279 2.11.645 4.97.812 6.35.167 1.38.413 3.11.546 3.84.133.728.363 2.73.511 4.46.148 1.72.388 3.36.534 3.63.427.798 2.53 2.1 3.39 2.1.864 0 .95-.131 1.55-2.38.771-2.88.761-3.01-.356-4.24l-1.02-1.13.0191-2.54c.0211-2.79.82-6.37 2.28-10.2 1.21-3.18 1.68-4.49 2.75-7.62.537-1.57 1.3-3.36 1.69-3.97.915-1.42 6.05-7.33 6.37-7.33.361 0 .299.421-.469 3.18-.619 2.22-.704 3.01-.723 6.77l-.0212 4.26-.893 1.02c-1.82 2.07-2.11 4.08-.862 5.94.684 1.02.734 1.24.506 2.22-.4 1.73-.0844 3.69.861 5.34l.841 1.47-.591 2.04c-.653 2.26-.641 2.48.509 9.17.3 1.75.841 5.5 1.2 8.33.361 2.84.809 5.58.996 6.09.334.91 1.84 3.76 4.05 7.67 2.11 3.74 3.25 6.22 3.81 8.27.839 3.11.768 3.77-.537 4.96-.697.637-1.02 1.12-.888 1.33h-.00053c.294.476 4.85.11 5.46-.438.246-.222.647-1.32.891-2.43.245-1.12.783-3.28 1.2-4.82.91-3.38 1.52-7.19 1.52-9.51-.0011-1.34.204-2.25.924-4.1 1.35-3.47 2.92-6.72 3.86-8l.828-1.12 1.93.163c2.17.183 3.1-.13 4.6-1.55l.84-.797.748.525c.411.289 1.19.669 1.74.845 1.22.395 1.7 1.05 3.51 4.84 2.18 4.56 2.72 6.43 2.92 10.1.1 1.85.543 5.05 1.06 7.67.49 2.47.973 5.15 1.07 5.94.268 2.11.916 2.66 3.12 2.66 1.93 0 3.07-.333 3.07-.897 0-.21-.474-.757-1.05-1.22l-1.05-.835.522-1.02c.287-.563 1.49-2.61 2.68-4.54 3.74-6.1 6.14-11.7 6.73-15.7.216-1.46.685-4.43 1.04-6.61 1.32-8.04 1.67-13.9.967-16.4-.256-.908-.216-1.16.335-2.12.344-.598.703-1.46.799-1.92.242-1.16-.288-2.92-1.13-3.76-.569-.565-.733-1.03-.866-2.45-.111-1.19-.353-2.02-.752-2.58-.587-.824-.587-.835-.145-3 .592-2.9.346-6.28-.792-10.9-.478-1.92-.826-3.55-.774-3.61.184-.21 1.24.932 3.66 3.94 3.24 4.04 3.86 5.34 4.64 9.79.338 1.94 2.93 12.8 3.61 15.1.373 1.28.39 1.64.102 2.25-.815 1.73-1.59 3.92-1.59 4.47 0 .328.22.751.489.942.269.19.569.78.668 1.31.367 1.97 1.27 1.86 3.71-.452l1.29-1.23-.233-2.02c-.345-2.99-.227-6.87.281-9.21.246-1.14 1.09-4.69 1.87-7.89 2.85-11.7 3.08-13.7 1.92-17.1-1.04-3.02-2.5-6.19-5.82-12.6-4.92-9.46-7.62-13.2-11.5-15.9-2.77-1.94-8.62-4.91-12.1-6.17-3.22-1.16-5.53-2.03-7.28-2.75-1.27-.524-1.44-.686-1.36-1.25.266-1.82.139-2.78-.475-3.61-.575-.774-.604-.947-.324-1.88.402-1.34.393-2.55-.0233-2.9-.183-.152-.689-.359-1.12-.46-1.06-.247-2.77-1.24-3.52-2.05-.558-.597-.587-.756-.32-1.74.518-1.92-.297-2.68-2.89-2.68z" class="body" />
   <g transform="translate(443 -3.75)">
    <path d="m-381 109c0-.342.846-1.03 1.63-1.33.474-.18 1.02-.181 1.67-.001 1.23.34 1.09.924-.195.81-.52-.0464-1.31.102-1.75.331-.894.462-1.36.528-1.36.191z" class="face"/>
    <path d="m-382 104c-.364-.152-.953-.39-1.31-.529-.517-.203-.571-.301-.267-.489.43-.266 1.36-.0949 2.44.448 1.37.691.621 1.19-.86.571z" class="face"/>
    <path d="m-378 104c0-.279 2.63-1.37 3.3-1.37.867 0-.0643.658-1.63 1.15-1.58.498-1.67.51-1.67.218z" class="face"/>
    <path d="m-382 101c-.886-.73-1.09-1.3-.459-1.3.409 0 1.86 1.36 1.86 1.74 0 .556-.303.461-1.4-.442z" class="face"/>
    <path d="m-378 102c0-.392 1.64-1.9 2.07-1.9.28 0 .0764.351-.614 1.06-1 1.02-1.46 1.29-1.46.844z" class="face"/>
   </g>
   <g transform="translate(631 -2.02)">
    <path d="m-610 148c1.25-8.53 4.01-20.2 11.6-26.4 8.73-10.1 18.5-11.9 30.3-11.5 2.34-.0807-5.04-.719-5.7-2.9-1.93-2.56-2.16-4.64-5.24-3.07-5.84 3.22-12.3 5.15-17.9 8.85-5.12 6.16-9.04 13.3-13.2 20.1-2.78 5.04-5.34 10.7-3.96 16.6.844 8.93 2.15 17.8 3.31 26.7 2.98 3.83.859-1.82.842-4.78-.0169-2.95-1.07-16.2-.0978-23.6z" class="shadow"/>
    <path d="m-594 139c-.604 3.66-1.63 7.48-1.28 11.3.826 2.88-1.84 4.35-2.49 6.88 1.65 3.66.248 7.94 2.66 11.5-.0476 2.93-1.46 6.31-.193 9.46 1.31 5.83 1.18 12 3.04 17.7 2.74 5.97 7.36 11.4 7.93 18.1-1.58 2.5-2.63 3.74.191 1.63 3.69-1.13 2.45-5.15 1.51-8.02-1.65-5.9-4.93-11.4-5.55-17.5.815-6.5 2.49-12.9 2.94-19.4-1.14-8.71-2.66-17.5-5.75-25.7-.841-1.89-1.98-4.62-3.01-5.79z" class="shadow"/>
    <path d="m-553 216c2.62-3.41 1.83-8.03 1.92-12.1-.598-7.07-4.03-14.2-9.53-18.7-2.47-1.1-5.35-.498-1.3.801 3.78 3.22 5.51 8.8 6.34 13.7.304 5.51 1.51 10.9 2.58 16.3z" class="shadow"/>
    <path d="m-530 176c1.36-2.71 2.49-5.66 3.41-8.54.277-10.2-3.37-21-11.7-27.2-5.49-1.1-2.04 7.89-3.09 11.2.006 8.73-1.54 18.4 3.89 26 1.94-.825-1.13-8.34 1.44-11.2-.661-4.71-4.37-9.02-2.6-14.1.507-4.01-1.68-8.92-1.54-12.1 3.96 4.08 7.82 8.81 8.21 14.7 1.11 5.16 2.45 10.3 3.68 15.4-.316 1.92-1.87 3.71-1.7 5.68z" class="shadow"/>
   </g>
   <path d="m65.4 185c.699-.357 1.58-1.04 1.95-1.51l.68-.864-1.27-2.35c-.699-1.29-1.75-3.56-2.33-5.05-1.78-4.53-4.72-7.14-7.82-6.94-1.82.117-1.74-.566-.801 6.51.64 4.84 1.16 6.78 2.13 7.89 1.49 1.73 3.68 2.91 5.44 2.95.414.008 1.33-.277 2.02-.634z" class="belt"/>
   <path d="m75.4 184c1.2-.334 2.96-2.09 2.96-2.96 0-.296-.354-.867-.787-1.27-.433-.401-1.6-1.94-2.6-3.42-3.28-4.86-4.94-6.24-7.89-6.57-1.66-.185-3.93.137-4.42.625-.218.218-.112.597.345 1.24.362.509 1.18 2.21 1.82 3.79 1.45 3.55 3.06 6.24 4.31 7.19.954.722 3.43 1.62 4.56 1.66.331.0104 1.1-.119 1.7-.287z" class="belt"/>
   <path d="m57.5 181c.089-.144.0297-.74-.132-1.33-.162-.585-.567-3.11-.901-5.61-.722-5.4-1.38-7.13-3.43-9.06-1.63-1.52-3.12-2-4.75-1.53l-.985.282.097 2.32c.313 7.48 2.46 12.9 5.74 14.5 1.31.647 4.06.887 4.37.382z" class="belt"/>
   <path d="m83.6 180c1.43-.422 3.41-2.52 3.93-4.18.248-.786.382-1.53.299-1.66-.0829-.128-.729-.479-1.43-.78-.706-.301-1.9-1.04-2.66-1.65-1.4-1.13-2.86-2.11-4.84-3.28-1.27-.744-4.11-.898-5.87-.319-1.2.397-2.62 1.33-2.84 1.87-.083.207.631 1.28 1.59 2.38.955 1.1 2.42 2.99 3.25 4.2 2.55 3.71 4.68 4.56 8.57 3.41z" class="belt"/>
   <path d="m49.1 177c.0989-.0989-.0154-.734-.254-1.41-.506-1.43-1.22-6.3-1.47-9.94-.2-2.99-1.23-5.25-2.9-6.37-1.14-.763-2.52-.907-3.01-.313-.856 1.04-2.32 8.09-2.09 10.1.228 1.95 1.85 4.9 3.34 6.09 1.82 1.44 5.68 2.58 6.38 1.88z" class="belt"/>
   <path d="m90.9 173c1.79-.892 2.67-2.25 2.81-4.33l.0836-1.27-2.25-.0822c-1.46-.0534-3.03-.353-4.47-.856-2.77-.965-5.52-1.04-7.17-.197-1.33.679-1.97 1.37-1.69 1.82.238.385 4.33 3.35 6.51 4.72 2.02 1.26 3.9 1.32 6.17.193z" class="belt"/>
   <path d="m40 166c.353-1.75.882-3.79 1.17-4.53.718-1.82.394-2.63-1.98-4.99-2.39-2.37-2.54-2.31-3.78 1.71-1.43 4.62-.698 8.67 1.91 10.5 1.6 1.14 1.97.767 2.68-2.73z" class="belt"/>
   <path d="m93.8 168c1.73-1.06 2.35-3.33 1.47-5.43-.516-1.24-1.33-1.4-2.19-.456-.308.34-1.34.847-2.3 1.12-3.68 1.07-4.5 1.37-5.81 2.14-.743.436-1.35.963-1.35 1.17 0 .536 5.38 2.02 7.44 2.05 1.2.0179 2.01-.16 2.73-.6z" class="belt"/>
   <path d="m92 163c1.42-.956 2.17-2.21 2.17-3.65.007-1.26-.603-2.88-1.09-2.88-.205 0-.864.954-1.47 2.12-.601 1.17-1.53 2.82-2.05 3.69l-.96 1.57h1.07c.59 0 1.63-.378 2.32-.84z" class="belt"/>
   <path d="m35.7 158c.267-.669.804-1.68 1.2-2.25.619-.9.653-1.21.264-2.43-.594-1.86-.942-2.19-1.68-1.58-1.19.987-2.14 3.41-1.93 4.93.188 1.4.807 2.54 1.38 2.54.156 0 .501-.547.768-1.22z" class="belt"/>
   <g transform="translate(-36.8 1.62)" class="shadow">
    <path transform="scale(.265)" d="m344 409-32.1 38.9c-3.21 3.57.00056 9.29.00056 9.29s-25.7 34.3-28.9 39.6-2.86 15.4-2.86 15.4l9.29-6.79 19.3-33.6s12.1-2.14 18.9-7.14c6.79-5 24.6-10 24.6-10-8.93 1.43-22.5 3.93-26.8 3.21-4.29-.714-4.29-6.07-4.29-6.07s2.5-12.5 6.07-19.3c3.57-6.79 16.8-23.6 16.8-23.6z" class="shadow"/>
    <path d="m120 121s-1.61.756-3.31.0945c-1.7-.661-3.02-2.36-4.63-2.74-1.61-.378 3.69.945 3.69.945s1.32.472 2.08.283.756-.567.756-.567z" class="shadow"/>
   </g>
   <path d="m64.4 83.7c-3.03 0-4.26 1.08-3.31 2.92l.443.857-1.94 1.97c-1.07 1.08-2.42 2.21-3 2.51-2.19 1.11-2.44 1.8-1.32 3.46.13.191.227.34.306.472.649.704 1.62 1.83 2.52 3.13-.04-.326-.0716-.652-.0925-.975-.0127-1.62.108-2.18.738-3.43 1.01-1.99 1.37-2.19 2.73-1.42 1.56.876 3.05.853 4.99-.077 1.36-.652 1.72-.725 2.27-.472 1.13.639 1.79 2.34 2.02 4.39.33-1.5 3.97-4.87 1.5-6.39-.183-.152-.689-.359-1.12-.461-1.06-.247-2.77-1.24-3.52-2.05-.558-.597-.587-.756-.321-1.74.518-1.92-.297-2.68-2.89-2.68z" class="hair"/>
  </g>
 </g>
</svg>
