<svg fill="currentColor" version="1.1" viewBox="0 0 464 512" xmlns="http://www.w3.org/2000/svg">
 <path d="m463.3 128.3-13.18-16.28-213.9-45.48-6.899-6e-3 -215.4 45.48-13.21 16.29v366.1l16.64 16.64h429.3l16.64-16.64v-366.1z" style="fill:#155a8e;stroke-width:.9961"/>
 <path d="m463.3 128.3-13.18-16.28-213.9-45.48-6.899-6e-3 -215.4 45.48-13.21 16.29v366.1l16.64 16.64h429.3l16.64-16.64v-366.1z" style="fill-opacity:.8;fill:#b3b3b3;stroke-width:.9961"/>
 <path d="m463.3 128.3-13.18-16.28-213.9-45.48-6.839-0.0139v444.5h217.2l16.64-16.64v-366.1z" style="fill:#808080;stroke-width:.9961"/>
 <path d="m366.1 0.967h-268.1l134.1 175.5z" style="fill:#ccc;stroke-width:.9961"/>
 <path d="m288.6 383.7-5.517 13.39-39.88 36.87-11.23 3.799-11.23-3.799-39.88-36.87-5.517-13.39 30.13-139.3h52.98l30.14 139.3z" style="fill:#00ffb7;stroke-width:.9961"/>
 <path d="m229.4 244.3h-23.94l-30.13 139.3 5.517 13.39 39.88 36.87 8.672 3.628v-193.2h-2e-3z" style="fill:#a5ffd4;stroke-width:.9961"/>
 <path d="m237.2 263.4h-15.33l-37.09-37.09v-4.304l44.75-44.75 42.6 42.6v8.61l-34.93 34.93z" style="fill:#00ffb7;stroke-width:.9961"/>
 <path d="m272.1 219.9-42.6-42.6v89.33l7.666-3.174 34.93-34.94v-8.61z" style="fill:#a5ffd4;stroke-width:.9961"/>
 <path d="m239.1 178.4-6e-3 -46.96-120.1-120.6-23.59-9.795-12.7 2.521-20.58 30.76v73.31l2.259 12.05 46.94 120.8 24.2 20.52 6.818 0.7062 23.59-9.8 73.2-73.52z" style="fill:#808080;stroke-width:.9961"/>
 <path d="m401.9 34.25-20.58-30.76-12.7-2.522-23.59 9.795-120.1 120.6-6e-3 46.96 73.2 73.52 23.59 9.8 6.818-0.7062 24.2-20.52 46.94-120.8 2.259-12.05v-73.31z" style="fill:#666;stroke-width:.9961"/>
 <path d="m416.3 486.5h-64.35l-12.76-12.76v-87.47h89.85v87.47l-12.76 12.76z" style="fill:#93a1ab;stroke-width:.9961"/>
 <path d="m433.2 408.3h-98.28l-6.417-6.417v-31.09l6.417-6.417h98.28l6.417 6.417v31.09z" style="fill:#666;stroke-width:.9961"/>
</svg>
