<svg fill="currentColor" version="1.1" viewBox="0 0 512 512" xmlns="http://www.w3.org/2000/svg">
 <path d="m488.2 127.8c0-7.887-5.516-14.7-13.23-16.34l-214.7-45.66c-2.283-0.486-4.642-0.487-6.926-6e-3l-216.3 45.66c-7.726 1.63-13.26 8.449-13.26 16.35v367.5c0 9.226 7.48 16.71 16.71 16.71h431c9.226 0 16.71-7.48 16.71-16.71v-367.5z" style="fill:#155A8E"/>
 <path d="m488.2 127.8c0-7.887-5.516-14.7-13.23-16.34l-214.7-45.66c-2.283-0.486-4.642-0.487-6.926-6e-3l-216.3 45.66c-7.726 1.63-13.26 8.449-13.26 16.35v367.5c0 9.226 7.48 16.71 16.71 16.71h431c9.226 0 16.71-7.48 16.71-16.71v-367.5z" style="fill:#155A8E"/>
 <path d="m488.2 127.8c0-7.887-5.516-14.7-13.23-16.34l-214.7-45.66c-2.263-0.481-4.601-0.483-6.866-0.014v446.3h218.1c9.226 0 16.71-7.48 16.71-16.71v-367.5z" style="fill:#124D7A"/>
 <path d="m405.2 10.31c-2.439-6.241-8.182-10.31-14.55-10.31h-269.2c-6.37 0-12.12 4.07-14.55 10.31-2.439 6.241-1.093 13.43 3.411 18.2l134.6 142.8c2.955 3.134 6.962 4.896 11.14 4.896s8.187-1.762 11.14-4.896l134.6-142.8c4.504-4.778 5.85-11.96 3.411-18.2z" style="fill:#4C6BB3"/>
 <path d="m312.8 384.2c0.652 4.769-1.312 9.533-5.539 13.44l-40.04 37.02c-2.588 2.392-6.789 3.814-11.27 3.814s-8.68-1.422-11.27-3.814l-40.04-37.02c-4.227-3.908-6.19-8.673-5.539-13.44l30.25-139.9h53.19l30.26 139.9z" style="fill:#A16125"/>
 <path d="m253.4 244.3h-24.03l-30.25 139.9c-0.652 4.769 1.312 9.533 5.539 13.44l40.04 37.02c2.085 1.928 5.224 3.211 8.706 3.642v-194h-2e-3z" style="fill:#D8800E"/>
 <path d="m261.2 263.5c-4.25 4.25-11.14 4.25-15.39 0l-37.24-37.24c-1.194-1.194-1.194-3.128 0-4.321l44.93-44.93 42.77 42.77c2.387 2.387 2.387 6.257 0 8.644l-35.07 35.07z" style="fill:#FF9711"/>
 <path d="m296.3 219.8-42.77-42.77v89.68c2.785 0 5.571-1.062 7.696-3.187l35.07-35.08c2.387-2.387 2.387-6.257 0-8.644z" style="fill:#C27526"/>
 <path d="m263.1 178.1c12.98-13.04 12.98-34.12-6e-3 -47.15l-120.6-121.1c-6.395-6.42-14.96-9.834-23.68-9.834-4.293 0-8.622 0.827-12.75 2.531-12.5 5.164-20.66 17.36-20.66 30.88v73.6c0 4.139 0.768 8.242 2.268 12.1l47.13 121.3c4.093 10.54 13.24 18.29 24.3 20.6 2.275 0.476 4.568 0.709 6.845 0.709 8.794 0 17.34-3.476 23.68-9.839l73.49-73.81z" style="fill:#AAC6E9"/>
 <path d="m426.6 33.41c0-13.53-8.155-25.72-20.66-30.88-4.125-1.705-8.455-2.532-12.75-2.532-8.718 0-17.28 3.412-23.68 9.834l-120.6 121.1c-12.98 13.04-12.99 34.11-6e-3 47.15l73.49 73.81c6.335 6.363 14.88 9.839 23.68 9.839 2.278 0 4.57-0.233 6.845-0.709 11.06-2.315 20.21-10.07 24.3-20.6l47.13-121.3c1.499-3.858 2.268-7.961 2.268-12.1v-73.6z" style="fill:#779DD2"/>
 <path d="m441 487.5h-64.6c-7.073 0-12.81-5.733-12.81-12.81v-87.82h90.21v87.82c0 7.074-5.734 12.81-12.81 12.81z" style="fill:#155A8E"/>
 <path d="m458 408.9h-98.67c-3.558 0-6.442-2.885-6.442-6.442v-31.21c0-3.558 2.885-6.442 6.442-6.442h98.67c3.558 0 6.442 2.885 6.442 6.442v31.21c1e-3 3.557-2.884 6.442-6.442 6.442z" style="fill:#1E80CD"/>
</svg>
