<svg fill="currentColor" version="1.1" viewBox="0 0 464 512" xmlns="http://www.w3.org/2000/svg">
 <path d="m232.77 74.537-220.06 81.767v308.1l24.64 36.64h199.87z" style="fill:#b3b3b3;stroke-width:.9961"/>
 <path d="m447.3 162.3-214.5-81.767-3.4195 414.49h197.2l20.64-20.64z" style="fill:#b3b3b3;stroke-width:.9961"/>
 <path d="m368.62 0.968-273.22 0.077 136.7 175.42z" style="fill:#b3b3b3;stroke-width:.9961"/>
 <path d="m237.2 263.4h-15.33l-37.09-37.09v-4.304l44.75-44.75 42.6 42.6v8.61l-34.93 34.93z" style="fill:#a5ffd4;stroke-width:.9961"/>
 <path d="m447.78 362.61-110.34-8e-3v-27.975l110.69 0.0365z" style="fill:#58595b;stroke-width:.65155"/>
 <path d="m68.359 124.47-67.648 23.836v326.1l36.641 36.639 389.23-0.0176 36.641-36.639 0.0781-326.09-66.25-23.502zm310.67 14.658 59.014 20.936-0.0684 290.47-32.639 32.639-346.72 0.0156-32.639-32.639v-290.48l60.26-21.232z" style="fill:#58595b;stroke-width:.9961"/>
 <path d="m239.1 178.4-6e-3 -46.96-143.69-130.4-33.28 106.59 49.199 132.85 54.608 11.426 73.2-73.52z" style="fill:#58595b;stroke-width:.9961"/>
 <path d="m368.62 0.968-143.69 130.4-6e-3 46.96 73.2 73.52 54.608-11.426 49.038-127.93z" style="fill:#58595b;stroke-width:.9961"/>
 <path d="m229.4 244.29 2e-3 8e-3v-8e-3zm2e-3 8e-3v6e-3h2e-3zm-23.938 6e-3 -30.131 139.3 45.396 50.26h8e-3l8e-3 0.10156h22.461l45.396-50.262-32.404-139.3z" style="fill:#a5ffd4;stroke-width:.9961"/>
</svg>
