<svg width="861" height="223" version="1.1" viewBox="0 0 861.09001 223.317" xmlns="http://www.w3.org/2000/svg"><path d="m299 0c-86.2 0-170 30.2-236 85.2-34.3 28.4-63.2 55.9-63.1 67.6-.016 28.9 65.4 52.9 94.3 52.9l44.1.0117c5.44 10.4 16.2 17.5 28.7 17.5s23.3-7.15 28.7-17.5h74c5.44 10.4 16.2 17.5 28.7 17.5 12.5 0 23.3-7.15 28.7-17.5h74c5.44 10.4 16.2 17.5 28.7 17.5 12.5 0 23.3-7.15 28.7-17.5h74.9c5.44 10.4 16.2 17.5 28.7 17.5 12.5 0 23.3-7.15 28.7-17.5h74c5.44 10.4 16.2 17.5 28.7 17.5s23.3-7.15 28.7-17.5l44.1-.0117c29 0 94.3-24 94.3-52.9.007-11.8-28.9-39.2-63.1-67.6-66.3-55-150-85.2-236-85.2zm-244 135c7.25-6.68 16.5-14.8 28.5-24.8 2.98-2.46 6.16-4.63 9.2-6.98h107c14.1 0 25.5-11.4 25.5-25.5v-36.8c24.1-5.43 48.8-8.54 73.8-8.54h263c25 0 49.7 3.11 73.8 8.54v36.8c0 14.1 11.4 25.5 25.5 25.5h107c3.04 2.36 6.23 4.52 9.2 6.98 12 9.99 21.3 18.1 28.5 24.8h-751z"/><path d="m413 105h35.1c1.66 0 3-1.35 3-3v-35.1c0-1.66-1.35-3-3-3h-35.1c-1.66 0-3 1.35-3 3v35.1c-.001 1.66 1.34 3 3 3z"/><path d="m489 105h35.1c1.66 0 3-1.35 3-3v-35.1c0-1.66-1.35-3-3-3h-35.1c-1.66 0-3 1.35-3 3v35.1c0 1.66 1.35 3 3 3z"/><path d="m566 105h35.1c1.66 0 3-1.35 3-3v-35.1c0-1.66-1.35-3-3-3h-35.1c-1.66 0-3 1.35-3 3v35.1c0 1.66 1.35 3 3 3z"/><path d="m295 105h-35.1c-1.66 0-3-1.35-3-3v-35.1c0-1.66 1.35-3 3-3h35.1c1.66 0 3 1.35 3 3v35.1c0 1.66-1.35 3-3 3z"/><path d="m372 105h-35.1c-1.66 0-3-1.35-3-3v-35.1c0-1.66 1.35-3 3-3h35.1c1.66 0 3 1.35 3 3v35.1c0 1.66-1.35 3-3 3z"/></svg>
