<svg width="482" height="223" version="1.1" viewBox="0 0 481.682 223.317" xmlns="http://www.w3.org/2000/svg">
<g transform="translate(0 -109)">
<path d="m419 195c-66.3-55-150-85.2-236-85.2h-183v206h22.9c5.44 10.4 16.2 17.5 28.7 17.5 12.5 0 23.3-7.15 28.7-17.5h74c5.44 10.4 16.2 17.5 28.7 17.5 12.5 0 23.3-7.15 28.7-17.5h74c5.44 10.4 16.2 17.5 28.7 17.5s23.3-7.15 28.7-17.5l44.1-.011c29 0 94.3-24 94.3-52.9.007-11.8-28.9-39.2-63.1-67.6zm-386-53.2h151c25 0 49.7 3.1 73.8 8.54v36.8c0 14.1 11.4 25.5 25.5 25.5h107c3.04 2.36 6.23 4.52 9.2 6.98 12 9.99 21.3 18.1 28.5 24.8h-395v-34.2z"/><path d="m60.1 214h35.1c1.66 0 3-1.35 3-3v-35.1c0-1.66-1.35-3-3-3h-35.1c-1.66 0-3 1.35-3 3v35.1c-.001 1.66 1.34 3 3 3z"/><path d="m124 214h35.1c1.66 0 3-1.35 3-3v-35.1c0-1.66-1.35-3-3-3h-35.1c-1.66 0-3 1.35-3 3v35.1c0 1.66 1.35 3 3 3z"/><path d="m188 214h35.1c1.66 0 3-1.35 3-3v-35.1c0-1.66-1.35-3-3-3h-35.1c-1.66 0-3 1.35-3 3v35.1c0 1.66 1.35 3 3 3z"/>
</g>
</svg>
