# Blender v2.81 (sub 16) OBJ File: 'paysage3.blend'
# www.blender.org
mtllib panel.mtl
o routeSigne_routeSigne_Cylinder.004
v 0.000000 0.453586 -0.015973
v 0.009047 0.000002 -0.006925
v 0.000000 0.000002 -0.015973
v 0.009047 0.453586 -0.006925
v 0.000000 0.000002 0.002122
v 0.000000 0.453586 0.002122
v -0.009048 0.000002 -0.006925
v -0.009048 0.453586 -0.006925
v -0.081663 0.504110 0.009530
v 0.081663 0.504110 -0.001421
v -0.081663 0.504110 -0.001421
v 0.000000 0.379361 -0.001421
v 0.000000 0.379361 0.008165
v 0.081663 0.504110 0.009530
v 0.000000 0.217263 0.009530
v -0.081663 0.298926 -0.001421
v 0.000000 0.217263 -0.001421
v 0.000000 0.380589 -0.001421
v 0.081663 0.298926 -0.001421
v 0.081663 0.298926 0.009530
v 0.000000 0.380589 0.009530
v -0.081663 0.298926 0.009530
vn 0.0000 -0.0000 1.0000
vn 0.0000 1.0000 0.0000
vn -0.8367 -0.5477 0.0000
vn 0.7071 -0.0000 0.7071
vn -0.7071 0.7071 0.0000
vn 0.7071 0.7071 0.0000
vn 0.0000 0.0000 -1.0000
vn 0.0000 -0.0109 0.9999
vn 0.8367 -0.5477 0.0000
vn 0.7071 0.0000 -0.7071
vn 0.0000 -1.0000 -0.0000
vn -0.7071 0.0000 -0.7071
vn -0.7071 -0.0000 0.7071
vn -0.7071 -0.7071 0.0000
vn 0.7071 -0.7071 0.0000
usemtl Gris
s 1
f 22//1 20//1 21//1
f 14//2 11//2 9//2
f 11//3 13//3 9//3
f 6//4 2//4 4//4
f 16//5 21//5 18//5
f 1//2 6//2 4//2
f 21//6 19//6 18//6
f 12//7 11//7 10//7
f 9//8 13//8 14//8
f 10//9 13//9 12//9
f 4//10 3//10 1//10
f 5//11 3//11 2//11
f 1//12 7//12 8//12
f 16//7 19//7 17//7
f 8//13 5//13 6//13
f 22//14 17//14 15//14
f 19//15 15//15 17//15
f 22//1 15//1 20//1
f 14//2 10//2 11//2
f 11//3 12//3 13//3
f 6//4 5//4 2//4
f 16//5 22//5 21//5
f 1//2 8//2 6//2
f 21//6 20//6 19//6
f 10//9 14//9 13//9
f 4//10 2//10 3//10
f 5//11 7//11 3//11
f 1//12 3//12 7//12
f 16//7 18//7 19//7
f 8//13 7//13 5//13
f 22//14 16//14 17//14
f 19//15 20//15 15//15
