<svg fill="currentColor" version="1.1" viewBox="0 0 256 192" xmlns="http://www.w3.org/2000/svg">
 <path d="m89.123 35.537c-6.7176 3.6234-15.203 7.3251-25.342 10.057-21.114 5.694-38.185 4.1832-45.307 2.9492-10.097-1.742-15.379-3.9603-14.885 3.7207 0.43 6.774 2.0432 17.277 5.7402 31.148 7.8906 29.643 33.734 86.393 82.41 74.957-4.8665-8.84-9.5814-20.077-11.344-30.008l-23.539 6.6738s2.8471-16.494 21.621-24.588c-1.0146-22.316 2.6925-44.562 6.834-60.02 1.1716-4.3854 2.4454-10.139 3.8105-14.891zm-25.137 38.938s-1.0339 13.654-14.34 17.162c-13.31 3.504-21.154-7.8125-21.154-7.8125zm20.395 33.873c-0.07571 0.0215-0.14162 0.0485-0.2168 0.0703 0.07377-0.0213 0.14263-0.0454 0.2168-0.0664 0.0013-3e-4 0-3e-3 0-4e-3z"/>
 <path d="m236.66 39.84c-9.226 1.617-31.361 3.632-58.716-3.7-27.363-7.328-45.517-20.144-52.71-26.168-10.197-8.54-14.682-14.476-19.096-5.498-3.902 7.918-8.893 20.805-13.723 38.846-10.466 39.066-18.289 121.5 46.413 138.85 64.687 17.333 99.126-57.978 109.59-97.047 4.83-18.037 6.948-31.695 7.53-40.502 0.665-9.976-6.188-7.08-19.291-4.784zm-130 32.321s10.196-15.859 27.49-10.943c17.305 4.915 18.645 24.046 18.645 24.046zm42.215 71.163c-30.419-8.91-35.11-33.167-35.11-33.167l81.714 22.846c0-4e-3 -16.494 19.12-46.604 10.32zm28.89-49.85s10.183-15.847 27.474-10.918c17.29 4.923 18.651 24.054 18.651 24.054l-46.124-13.136z"/>
</svg>
