<svg fill="currentColor" version="1.1" viewBox="0 0 512 512" xmlns="http://www.w3.org/2000/svg">
  <path d="m400.26 169c1.028-6.661 1.993-13.04 2.114-20.066-16.78-2.065-36.036-1.596-43.639 9.272-14.791 21.138 14.097 72.94 26.432 95.061 3.17 5.683 5.461 9.789 6.514 12.347 1.166 2.831 2.44 5.385 3.755 7.728 8.487-18.056 6.297-36.352 4.163-54.124-1.057-8.799-2.154-17.898-1.867-26.649 0.285-8.994 1.427-16.404 2.528-23.569zm-14.133-4.112c-1.363 1.436-4.243 3.927-8.172 4.472-0.505 0.07-1.021 0.106-1.533 0.106-5.792 0-10.79-4.52-11.205-7.45-0.476-3.535 5.292-6.224 11.245-7.053 1.303-0.181 2.598-0.273 3.84-0.273 5.144 0 8.552 1.526 8.895 3.98 0.221 1.587-0.981 4.027-3.07 6.218zm-59.092-131.17c10.601-2.196 25.097-4.245 41.328-3.889 41.125 0.91 73.651 16.294 96.683 45.725 17.667 22.573-1.782 125.29-58.099 213.9-0.553-0.706-1.121-1.42-1.706-2.15-0.233-0.294-0.472-0.593-0.714-0.895 14.553-24.032 11.705-47.806 9.173-68.887-1.041-8.652-2.021-16.824-1.771-24.498 0.259-8.14 1.335-15.115 2.376-21.863 1.278-8.313 2.581-16.915 2.219-27.055 0.27-1.063 0.379-2.319 0.237-3.812-0.915-9.728-12.02-38.829-34.651-65.174-12.376-14.407-30.429-30.529-55.075-41.405zm-155.71 258.51c1.615 1.686 3.301 3.267 5.044 4.759-6.948 7.438-22.048 23.891-38.119 43.224-11.372 13.674-19.226 11.06-21.809 10.196-16.828-5.614-36.354-41.182-53.569-97.587-14.896-48.802-23.603-97.875-24.29-111.64-2.176-43.52 8.373-73.852 31.356-90.151 37.4-26.526 98.897-10.648 123.61-2.595-0.357 0.349-0.725 0.677-1.075 1.032-40.549 40.952-39.587 110.92-39.486 115.19-6e-3 1.649 0.133 3.984 0.323 7.199 0.697 11.766 1.996 33.668-1.473 58.473-3.222 23.049 3.881 45.607 19.491 61.895zm226.6 8.857c-8.035 2.319-22.459 7.667-21.144 34.405-1.057 13.407-8.6 76.218-12.428 98.418-5.054 29.324-15.848 40.246-46.18 46.749-31.457 6.743-42.586-9.31-49.927-27.654-4.735-11.847-7.059-65.254-5.413-124.23 0.024-0.782-0.089-1.541-0.307-2.251-0.186-1.375-0.476-2.767-0.879-4.17-2.452-8.584-8.438-15.759-15.617-18.736-2.247-0.932-5.644-2.335-9.822-2.335-1.543 0-3.062 0.193-4.558 0.581 1.343-5.526 3.669-11.762 6.189-18.519l1.059-2.843c1.19-3.207 2.687-6.526 4.268-10.044 8.545-18.981 20.248-44.984 7.547-103.72-4.758-22.001-20.647-32.744-44.728-30.25-14.44 1.495-27.647 7.321-34.236 10.661-1.422 0.72-2.727 1.417-3.941 2.095 1.817-22.136 8.735-63.497 34.751-89.773 16.366-16.531 38.163-24.695 64.748-24.256 52.314 0.859 85.861 27.706 104.8 50.078 16.315 19.28 25.148 38.699 28.674 49.173-26.504-2.696-44.546 2.539-53.686 15.607-19.89 28.429 10.878 83.603 25.665 110.12 2.71 4.862 5.054 9.058 5.788 10.845 4.812 11.669 11.048 19.461 15.605 25.148 1.393 1.744 2.744 3.437 3.777 4.906zm-149.93 25.173c0.581 2.037 1.238 5.901-0.907 8.902-10.808 15.134-25.686 22.81-44.22 22.81-6.095 0-12.566-0.848-19.24-2.518-3.904-0.976-7.415-2.67-9.477-4.073 1.721-0.812 4.784-1.912 10.096-3.005 25.71-5.297 29.679-9.031 38.349-20.039 1.989-2.524 4.244-5.385 7.367-8.874 2.358-2.638 4.46-3.977 6.246-3.977 1.253 0 2.666 0.54 4.383 1.25 3.124 1.299 6.169 5.212 7.403 9.524zm221.36-8.821c0.108-0.024 0.218-0.049 0.322-0.068-3.937 3.683-10.669 8.619-20.224 13.057-8.213 3.812-21.951 6.671-35.007 7.284-14.42 0.67-21.761-1.613-23.487-3.025-0.807-16.658 5.396-18.4 11.959-20.244 1.028-0.29 2.037-0.572 3.005-0.911 0.605 0.488 1.267 0.979 1.993 1.456 11.589 7.65 32.261 8.473 61.439 2.451zm-244.82-39.061 1.055-2.823c1.357-3.658 2.948-7.188 4.633-10.931 8.163-18.14 18.326-40.719 6.614-94.891-2.265-10.464-7.708-16.544-16.642-18.591-19.575-4.485-47.027 10.223-52.95 15.475 0.055 1.186 0.144 2.69 0.244 4.404 0.728 12.258 2.081 35.077-1.583 61.281-2.616 18.712 3.098 36.972 15.676 50.093 9.895 10.325 22.902 16.037 36.275 16.077 1.538-6.308 4.016-12.946 6.678-20.094zm-18.43-109.43c-0.917-1.216-2.411-3.575-2.109-5.707 0.428-3.124 4.188-4.998 10.058-4.998 1.301 0 2.648 0.097 4.008 0.287 6.336 0.881 12.875 3.882 12.245 8.386-0.474 3.412-5.877 8.472-12.366 8.472-0.567 0-1.14-0.04-1.698-0.119-3.752-0.518-7.544-2.882-10.138-6.321zm297.08 139.28c-2.113-9.584-10.793-20.777-28.299-20.777-3.513 0-7.32 0.432-11.641 1.327-8.301 1.71-15.706 2.775-22.071 3.171 22.293-38.223 40.23-81.256 50.633-121.53 9.628-37.277 16.912-87.071-3.054-112.59-29.352-37.508-72.276-57.333-124.14-57.333-29.228 0-53.098 6.53-60.326 8.74-11.398-1.988-23.668-3.102-36.482-3.31-0.855-0.014-1.702-0.02-2.546-0.02-23.059 0-43.723 5.237-61.434 15.567-16.13-5.401-47.269-14.147-79.702-14.147-36.481 0-65.214 10.757-85.396 31.976-22.345 23.492-32.518 58.557-30.233 104.22 0.956 19.149 11.989 76.369 27.785 126.06 24.404 76.774 51.286 112.53 84.595 112.53 10.429 0 20.326-3.65 29.448-10.854 7.999 8.717 19.609 12.653 25.994 14.251 9.058 2.267 17.989 3.416 26.547 3.416 11.437 0 22.208-1.997 32.061-5.941 0.064 2.142 0.123 4.171 0.173 6.002 0.117 4.162 0.23 8.244 0.384 12.061 1.04 25.951 2.815 46.143 8.089 60.381 0.278 0.747 0.649 1.888 1.053 3.122 2.305 7.067 5.788 17.739 13.801 27.428 10.563 12.771 25.616 19.522 43.525 19.522 5.72 0 11.847-0.689 18.215-2.057 19.248-4.122 41.114-10.423 57.019-33.067 14.911-21.232 22.144-53 23.454-103.01l0.577-4.921 2.775 0.227c1.758 0.08 3.577 0.116 5.408 0.116 18.672 0 39.363-4.005 52.723-10.208 11.099-5.156 46.876-24.017 41.06-50.355zm-47.741 35.075c-11.487 5.332-29.791 8.704-45.659 8.704-7.611 0-14.649-0.782-20.119-2.484-2.59 23.806-8.096 68.198-11.302 86.801-6.002 34.785-21.503 50.564-57.204 58.22-6.078 1.299-11.604 1.88-16.622 1.884-34.212 4e-3 -45.038-27.077-49.469-38.153-5.413-13.536-7.294-57.953-6.913-103.03-12.282 11.116-27.68 16.929-45.278 16.929-7.256 0-14.888-0.988-22.685-2.94-2.255-0.565-22.035-5.873-21.771-18.519 0.239-11.572 16.753-14.977 22.969-16.259 21.854-4.502 23.266-6.292 30.056-14.912 1.373-1.746 2.986-3.787 4.953-6.119-0.022-0.258-0.051-0.512-0.066-0.77-9.8-0.263-19.379-2.876-28.1-7.556-5.899 6.28-21.91 23.564-39.055 44.191-10.323 12.411-20.244 16.058-28.337 16.058-3.3 4e-3 -6.295-0.604-8.893-1.473-22.182-7.396-43.266-43.368-62.66-106.91-14.736-48.277-24.072-98.686-24.891-115.08-2.437-48.707 10.132-83.181 37.356-102.47 48.744-34.534 127.51-8.015 144.69-1.577 16.941-11.55 37.393-17.215 61.105-16.842 12.92 0.212 24.782 1.874 35.665 4.58 5.171-2.269 31.844-10.338 63.378-9.991 45.897 0.488 83.813 18.193 109.65 51.204 17.433 22.279 5.93 76.516 0.169 98.799-11.971 46.351-34.163 96.026-61.14 137.13 4.082 3.001 16.518 7.962 51.218 0.798 11.688-2.412 18.724-0.282 20.909 6.325 4.223 12.768-19.05 27.474-31.95 33.461z"></path>
</svg>
