<svg fill="currentColor" version="1.1" viewBox="-31.5 0 319 319" xmlns="http://www.w3.org/2000/svg" xmlns:xlink="http://www.w3.org/1999/xlink">
 <path d="m240.13 0.012461c-0.54038-0.020972-1.0872-0.01499-1.6386 0.01947l-17.571 1.0981 1.2819 36.733c0.046 1.3177-0.98443 2.4236-2.3022 2.4696-0.56424 0.0197-1.1172-0.16153-1.5607-0.5109l-11.836-9.3239-14.013 10.63c-1.0505 0.79687-2.5481 0.59178-3.345-0.45872-0.33545-0.44221-0.5067-0.98748-0.48364-1.542l1.5-36.075-175.16 10.948c-8.6668 0.54168-15.321 7.8954-14.995 16.573l9.8613 262.75c0.31234 8.3224 6.9549 15.014 15.275 15.388l213.63 9.5949c0.23921 0.0111 0.47861 0.01636 0.71806 0.01636 8.839 0 16.005-7.1655 16.005-16.005v-286.31c0-0.33302-0.01036-0.66606-0.03116-0.99843-0.51689-8.2704-7.2274-14.68-15.333-14.994zm-107.56 54.153c41.663 0 64.414 22.281 64.414 64.683-5.6303 4.3738-47.573 7.3583-47.573 1.1316 0.88644-23.76-9.7507-24.801-15.66-24.801-5.6141 0-15.069 1.6974-15.069 14.426 0 31.397 80.962 29.699 80.962 93.058 0 35.64-28.958 55.327-65.893 55.327-38.117 0-71.427-15.422-67.664-68.887 1.4774-6.2783 49.936-4.7862 49.936 0-0.59096 22.063 4.432 28.551 17.138 28.551 9.7508 0 14.184-5.3738 14.184-14.425 0-32.245-79.78-33.377-79.78-92.494 0-33.942 23.343-56.57 65.006-56.57z" style="fill:#ff4785"/>
</svg>
