<svg fill="currentColor" version="1.1" viewBox="0 0 512 512" xmlns="http://www.w3.org/2000/svg">
 <path d="m50 0c-27.7 0-50 22.3-50 50v412c0 27.7 22.3 50 50 50h412c27.7 0 50-22.3 50-50v-412c0-27.7-22.3-50-50-50h-412zm354.11 238c11.685 0 22.041 0.70333 31.066 2.1113 9.025 1.408 17.347 3.5722 24.963 6.4922v46.777c-3.756-2.608-7.8512-4.9028-12.285-6.8848-4.435-1.981-9.0003-3.6237-13.695-4.9277-4.696-1.303-9.3648-2.2685-14.008-2.8945-4.643-0.625-9.0497-0.9375-13.223-0.9375-5.739 0-10.956 0.54758-15.652 1.6426-4.695 1.095-8.6576 2.6323-11.893 4.6133-3.234 1.982-5.7397 4.3551-7.5137 7.1191-1.774 2.764-2.6602 5.8676-2.6602 9.3086 0 3.755 0.99261 7.1168 2.9746 10.09 1.982 2.972 4.7992 5.7873 8.4512 8.4473 3.652 2.659 8.0857 5.2663 13.303 7.8223 5.217 2.555 11.111 5.1884 17.684 7.9004 8.973 3.754 17.035 7.7428 24.182 11.967 7.147 4.224 13.277 8.9974 18.389 14.316 5.113 5.319 9.0253 11.394 11.738 18.225s4.0684 14.783 4.0684 23.857c0 12.515-2.3741 23.021-7.1211 31.521-4.747 8.5-11.19 15.384-19.328 20.65-8.138 5.267-17.607 9.0478-28.406 11.342-10.799 2.295-22.196 3.4414-34.195 3.4414-12.312 0-24.023-1.0429-35.135-3.1289-11.112-2.086-20.737-5.2147-28.875-9.3867v-50.061c9.077 7.614 18.936 13.325 29.578 17.131 10.643 3.807 21.389 5.709 32.24 5.709 6.365 0 11.92-0.5727 16.668-1.7207 4.747-1.147 8.7125-2.7375 11.895-4.7715 3.182-2.034 5.5561-4.4313 7.1211-7.1953 1.565-2.764 2.3476-5.7631 2.3476-8.9961 0-4.381-1.2519-8.2914-3.7559-11.732-2.505-3.442-5.922-6.623-10.252-9.543-4.329-2.92-9.469-5.7353-15.416-8.4473-5.947-2.712-12.364-5.475-19.25-8.291-17.529-7.301-30.596-16.219-39.203-26.752-8.608-10.534-12.912-23.258-12.912-38.172 0-11.681 2.348-21.718 7.043-30.113 4.695-8.396 11.086-15.305 19.172-20.729 8.087-5.423 17.45-9.4138 28.092-11.969s21.91-3.832 33.805-3.832zm-286.11 5h179v41.082h-64.221v182.92h-50.873v-182.92h-63.906v-41.082z"/>
</svg>
