{
    "asset" : {
        "generator" : "Khronos glTF Blender I/O v1.0.5",
        "version" : "2.0"
    },
    "scene" : 0,
    "scenes" : [
        {
            "name" : "Scene",
            "nodes" : [
                0
            ]
        }
    ],
    "nodes" : [
        {
            "mesh" : 0,
            "name" : "Sumo",
            "rotation" : [
                -0.5004361271858215,
                0.5004361271858215,
                -0.49956345558166504,
                -0.4995634853839874
            ]
        }
    ],
    "materials" : [
        {
            "doubleSided" : true,
            "name" : "Skin",
            "pbrMetallicRoughness" : {
                "baseColorFactor" : [
                    1,
                    1,
                    1,
                    1
                ],
                "metallicFactor" : 0,
                "roughnessFactor" : 0.5
            }
        },
        {
            "doubleSided" : true,
            "name" : "Hair",
            "pbrMetallicRoughness" : {
                "baseColorFactor" : [
                    0.10247394442558289,
                    0.10247394442558289,
                    0.10247394442558289,
                    1
                ],
                "metallicFactor" : 0,
                "roughnessFactor" : 0.5
            }
        }
    ],
    "meshes" : [
        {
            "name" : "sumo",
            "primitives" : [
                {
                    "attributes" : {
                        "POSITION" : 0,
                        "NORMAL" : 1,
                        "TANGENT" : 2,
                        "TEXCOORD_0" : 3
                    },
                    "indices" : 4,
                    "material" : 0
                },
                {
                    "attributes" : {
                        "POSITION" : 5,
                        "NORMAL" : 6,
                        "TANGENT" : 7,
                        "TEXCOORD_0" : 8
                    },
                    "indices" : 9,
                    "material" : 1
                }
            ]
        }
    ],
    "accessors" : [
        {
            "bufferView" : 0,
            "componentType" : 5126,
            "count" : 344,
            "max" : [
                4.568851470947266,
                2.7429237365722656,
                2.764277458190918
            ],
            "min" : [
                -2.678227186203003,
                -2.7429237365722656,
                -1.6739921569824219
            ],
            "type" : "VEC3"
        },
        {
            "bufferView" : 1,
            "componentType" : 5126,
            "count" : 344,
            "type" : "VEC3"
        },
        {
            "bufferView" : 2,
            "componentType" : 5126,
            "count" : 344,
            "type" : "VEC4"
        },
        {
            "bufferView" : 3,
            "componentType" : 5126,
            "count" : 344,
            "type" : "VEC2"
        },
        {
            "bufferView" : 4,
            "componentType" : 5123,
            "count" : 492,
            "type" : "SCALAR"
        },
        {
            "bufferView" : 5,
            "componentType" : 5126,
            "count" : 462,
            "max" : [
                4.419779300689697,
                3.5529227256774902,
                1.141108751296997
            ],
            "min" : [
                -3.2644753456115723,
                -3.5529227256774902,
                -5.838787078857422
            ],
            "type" : "VEC3"
        },
        {
            "bufferView" : 6,
            "componentType" : 5126,
            "count" : 462,
            "type" : "VEC3"
        },
        {
            "bufferView" : 7,
            "componentType" : 5126,
            "count" : 462,
            "type" : "VEC4"
        },
        {
            "bufferView" : 8,
            "componentType" : 5126,
            "count" : 462,
            "type" : "VEC2"
        },
        {
            "bufferView" : 9,
            "componentType" : 5123,
            "count" : 678,
            "type" : "SCALAR"
        }
    ],
    "bufferViews" : [
        {
            "buffer" : 0,
            "byteLength" : 4128,
            "byteOffset" : 0
        },
        {
            "buffer" : 0,
            "byteLength" : 4128,
            "byteOffset" : 4128
        },
        {
            "buffer" : 0,
            "byteLength" : 5504,
            "byteOffset" : 8256
        },
        {
            "buffer" : 0,
            "byteLength" : 2752,
            "byteOffset" : 13760
        },
        {
            "buffer" : 0,
            "byteLength" : 984,
            "byteOffset" : 16512
        },
        {
            "buffer" : 0,
            "byteLength" : 5544,
            "byteOffset" : 17496
        },
        {
            "buffer" : 0,
            "byteLength" : 5544,
            "byteOffset" : 23040
        },
        {
            "buffer" : 0,
            "byteLength" : 7392,
            "byteOffset" : 28584
        },
        {
            "buffer" : 0,
            "byteLength" : 3696,
            "byteOffset" : 35976
        },
        {
            "buffer" : 0,
            "byteLength" : 1356,
            "byteOffset" : 39672
        }
    ],
    "buffers" : [
        {
            "byteLength" : 41028,
            "uri" : "data:application/octet-stream;base64,"
        }
    ]
}
