{
    "asset" : {
        "generator" : "Khronos glTF Blender I/O v3.2.43",
        "version" : "2.0"
    },
    "scene" : 0,
    "scenes" : [
        {
            "name" : "Scene",
            "nodes" : [
                11
            ]
        }
    ],
    "nodes" : [
        {
            "name" : "Tete",
            "rotation" : [
                -1.7022362408525282e-09,
                -0.9999845027923584,
                0.005583937745541334,
                3.139113857741904e-07
            ],
            "scale" : [
                1,
                0.9999997615814209,
                1
            ],
            "translation" : [
                1.5117196383584997e-10,
                0.06650543957948685,
                4.085891092131533e-08
            ]
        },
        {
            "children" : [
                0
            ],
            "name" : "Cou",
            "rotation" : [
                -0.09665032476186752,
                1.9810410378795495e-07,
                1.7757120218675482e-08,
                0.9953184127807617
            ],
            "scale" : [
                1,
                1,
                0.9999999403953552
            ],
            "translation" : [
                4.899969319183128e-13,
                0.05256083235144615,
                -2.9790919597871834e-07
            ]
        },
        {
            "name" : "Main.L",
            "rotation" : [
                0.05729124695062637,
                0.028223834931850433,
                0.05555900186300278,
                0.9964107275009155
            ],
            "scale" : [
                1.0000001192092896,
                0.9999999403953552,
                1
            ],
            "translation" : [
                -1.441221684217453e-07,
                0.18551631271839142,
                2.514570951461792e-08
            ]
        },
        {
            "children" : [
                2
            ],
            "name" : "AvBras.L",
            "rotation" : [
                -0.0024010357446968555,
                0.13980922102928162,
                0.271823525428772,
                0.9521342515945435
            ],
            "scale" : [
                1,
                1.0000001192092896,
                0.9999999403953552
            ],
            "translation" : [
                1.2456439435482025e-08,
                0.2445264309644699,
                -1.4487886801362038e-07
            ]
        },
        {
            "children" : [
                3
            ],
            "name" : "Bras.L",
            "rotation" : [
                0.5427148938179016,
                0.3162677586078644,
                -0.6566306948661804,
                0.4174583852291107
            ],
            "scale" : [
                0.9999998807907104,
                0.9999998807907104,
                1
            ],
            "translation" : [
                0.0880005732178688,
                -0.0009772803168743849,
                0.00019976403564214706
            ]
        },
        {
            "children" : [
                1,
                4
            ],
            "name" : "HautTorse",
            "rotation" : [
                0.0935436487197876,
                -2.085421328956727e-07,
                -1.781105574139019e-08,
                0.9956151843070984
            ],
            "scale" : [
                1,
                1.0000001192092896,
                1
            ],
            "translation" : [
                -4.440892098500626e-13,
                0.21801809966564178,
                -4.191181091073304e-08
            ]
        },
        {
            "children" : [
                5
            ],
            "name" : "Torse",
            "rotation" : [
                0.04480230435729027,
                -0.0001281644799746573,
                -0.0029126841109246016,
                0.9989917278289795
            ],
            "scale" : [
                0.9999999403953552,
                1,
                1
            ],
            "translation" : [
                0.0009999466128647327,
                0.17149092257022858,
                4.097874750641495e-08
            ]
        },
        {
            "children" : [
                6
            ],
            "name" : "Hanches",
            "rotation" : [
                0.6797754168510437,
                -0.001983615104109049,
                0.002138373674824834,
                0.7334145903587341
            ],
            "scale" : [
                1.0000001192092896,
                1,
                1.0000083446502686
            ],
            "translation" : [
                2.5549594440121837e-08,
                -1.4155200744880858e-07,
                0.6860002875328064
            ]
        },
        {
            "name" : "neutral_bone",
            "rotation" : [
                -0.7071068286895752,
                0,
                0,
                0.7071068286895752
            ]
        },
        {
            "mesh" : 0,
            "name" : "Proxy.001",
            "skin" : 0
        },
        {
            "children" : [
                9,
                7,
                8
            ],
            "name" : "Armature.001"
        },
        {
            "children" : [
                10
            ],
            "name" : "Node_0",
            "rotation" : [
                -0.7071068286895752,
                0,
                0,
                0.7071067094802856
            ]
        }
    ],
    "animations" : [
        {
            "channels" : [
                {
                    "sampler" : 0,
                    "target" : {
                        "node" : 7,
                        "path" : "translation"
                    }
                },
                {
                    "sampler" : 1,
                    "target" : {
                        "node" : 7,
                        "path" : "rotation"
                    }
                },
                {
                    "sampler" : 2,
                    "target" : {
                        "node" : 7,
                        "path" : "scale"
                    }
                },
                {
                    "sampler" : 3,
                    "target" : {
                        "node" : 6,
                        "path" : "translation"
                    }
                },
                {
                    "sampler" : 4,
                    "target" : {
                        "node" : 6,
                        "path" : "rotation"
                    }
                },
                {
                    "sampler" : 5,
                    "target" : {
                        "node" : 6,
                        "path" : "scale"
                    }
                },
                {
                    "sampler" : 6,
                    "target" : {
                        "node" : 5,
                        "path" : "translation"
                    }
                },
                {
                    "sampler" : 7,
                    "target" : {
                        "node" : 5,
                        "path" : "rotation"
                    }
                },
                {
                    "sampler" : 8,
                    "target" : {
                        "node" : 5,
                        "path" : "scale"
                    }
                },
                {
                    "sampler" : 9,
                    "target" : {
                        "node" : 1,
                        "path" : "translation"
                    }
                },
                {
                    "sampler" : 10,
                    "target" : {
                        "node" : 1,
                        "path" : "rotation"
                    }
                },
                {
                    "sampler" : 11,
                    "target" : {
                        "node" : 1,
                        "path" : "scale"
                    }
                },
                {
                    "sampler" : 12,
                    "target" : {
                        "node" : 0,
                        "path" : "translation"
                    }
                },
                {
                    "sampler" : 13,
                    "target" : {
                        "node" : 0,
                        "path" : "rotation"
                    }
                },
                {
                    "sampler" : 14,
                    "target" : {
                        "node" : 0,
                        "path" : "scale"
                    }
                },
                {
                    "sampler" : 15,
                    "target" : {
                        "node" : 4,
                        "path" : "translation"
                    }
                },
                {
                    "sampler" : 16,
                    "target" : {
                        "node" : 4,
                        "path" : "rotation"
                    }
                },
                {
                    "sampler" : 17,
                    "target" : {
                        "node" : 4,
                        "path" : "scale"
                    }
                },
                {
                    "sampler" : 18,
                    "target" : {
                        "node" : 3,
                        "path" : "translation"
                    }
                },
                {
                    "sampler" : 19,
                    "target" : {
                        "node" : 3,
                        "path" : "rotation"
                    }
                },
                {
                    "sampler" : 20,
                    "target" : {
                        "node" : 3,
                        "path" : "scale"
                    }
                },
                {
                    "sampler" : 21,
                    "target" : {
                        "node" : 2,
                        "path" : "translation"
                    }
                },
                {
                    "sampler" : 22,
                    "target" : {
                        "node" : 2,
                        "path" : "rotation"
                    }
                },
                {
                    "sampler" : 23,
                    "target" : {
                        "node" : 2,
                        "path" : "scale"
                    }
                }
            ],
            "name" : "Armature.001Action",
            "samplers" : [
                {
                    "input" : 6,
                    "interpolation" : "LINEAR",
                    "output" : 7
                },
                {
                    "input" : 6,
                    "interpolation" : "LINEAR",
                    "output" : 8
                },
                {
                    "input" : 6,
                    "interpolation" : "LINEAR",
                    "output" : 9
                },
                {
                    "input" : 6,
                    "interpolation" : "LINEAR",
                    "output" : 10
                },
                {
                    "input" : 6,
                    "interpolation" : "LINEAR",
                    "output" : 11
                },
                {
                    "input" : 6,
                    "interpolation" : "LINEAR",
                    "output" : 12
                },
                {
                    "input" : 6,
                    "interpolation" : "LINEAR",
                    "output" : 13
                },
                {
                    "input" : 6,
                    "interpolation" : "LINEAR",
                    "output" : 14
                },
                {
                    "input" : 6,
                    "interpolation" : "LINEAR",
                    "output" : 15
                },
                {
                    "input" : 6,
                    "interpolation" : "LINEAR",
                    "output" : 16
                },
                {
                    "input" : 6,
                    "interpolation" : "LINEAR",
                    "output" : 17
                },
                {
                    "input" : 6,
                    "interpolation" : "LINEAR",
                    "output" : 18
                },
                {
                    "input" : 6,
                    "interpolation" : "LINEAR",
                    "output" : 19
                },
                {
                    "input" : 6,
                    "interpolation" : "LINEAR",
                    "output" : 20
                },
                {
                    "input" : 6,
                    "interpolation" : "LINEAR",
                    "output" : 21
                },
                {
                    "input" : 6,
                    "interpolation" : "LINEAR",
                    "output" : 22
                },
                {
                    "input" : 6,
                    "interpolation" : "LINEAR",
                    "output" : 23
                },
                {
                    "input" : 6,
                    "interpolation" : "LINEAR",
                    "output" : 24
                },
                {
                    "input" : 6,
                    "interpolation" : "LINEAR",
                    "output" : 25
                },
                {
                    "input" : 6,
                    "interpolation" : "LINEAR",
                    "output" : 26
                },
                {
                    "input" : 6,
                    "interpolation" : "LINEAR",
                    "output" : 27
                },
                {
                    "input" : 6,
                    "interpolation" : "LINEAR",
                    "output" : 28
                },
                {
                    "input" : 6,
                    "interpolation" : "LINEAR",
                    "output" : 29
                },
                {
                    "input" : 6,
                    "interpolation" : "LINEAR",
                    "output" : 30
                }
            ]
        }
    ],
    "materials" : [
        {
            "name" : "Default-effect.002",
            "pbrMetallicRoughness" : {
                "baseColorFactor" : [
                    0.800000011920929,
                    0.800000011920929,
                    0.800000011920929,
                    1
                ],
                "metallicFactor" : 0
            }
        }
    ],
    "meshes" : [
        {
            "name" : "Proxy.002",
            "primitives" : [
                {
                    "attributes" : {
                        "POSITION" : 0,
                        "NORMAL" : 1,
                        "JOINTS_0" : 2,
                        "WEIGHTS_0" : 3
                    },
                    "indices" : 4,
                    "material" : 0
                }
            ]
        }
    ],
    "skins" : [
        {
            "inverseBindMatrices" : 5,
            "joints" : [
                7,
                6,
                5,
                1,
                0,
                4,
                3,
                2,
                8
            ],
            "name" : "Armature.001"
        }
    ],
    "accessors" : [
        {
            "bufferView" : 0,
            "componentType" : 5126,
            "count" : 459,
            "max" : [
                0.5894609093666077,
                1.4499202966690063,
                0.19497302174568176
            ],
            "min" : [
                -0.5894607901573181,
                -5.897278398947492e-08,
                -0.13091565668582916
            ],
            "type" : "VEC3"
        },
        {
            "bufferView" : 1,
            "componentType" : 5126,
            "count" : 459,
            "type" : "VEC3"
        },
        {
            "bufferView" : 2,
            "componentType" : 5121,
            "count" : 459,
            "type" : "VEC4"
        },
        {
            "bufferView" : 3,
            "componentType" : 5126,
            "count" : 459,
            "type" : "VEC4"
        },
        {
            "bufferView" : 4,
            "componentType" : 5123,
            "count" : 768,
            "type" : "SCALAR"
        },
        {
            "bufferView" : 5,
            "componentType" : 5126,
            "count" : 9,
            "type" : "MAT4"
        },
        {
            "bufferView" : 6,
            "componentType" : 5126,
            "count" : 101,
            "max" : [
                4.166666666666667
            ],
            "min" : [
                0
            ],
            "type" : "SCALAR"
        },
        {
            "bufferView" : 7,
            "componentType" : 5126,
            "count" : 101,
            "type" : "VEC3"
        },
        {
            "bufferView" : 8,
            "componentType" : 5126,
            "count" : 101,
            "type" : "VEC4"
        },
        {
            "bufferView" : 9,
            "componentType" : 5126,
            "count" : 101,
            "type" : "VEC3"
        },
        {
            "bufferView" : 10,
            "componentType" : 5126,
            "count" : 101,
            "type" : "VEC3"
        },
        {
            "bufferView" : 11,
            "componentType" : 5126,
            "count" : 101,
            "type" : "VEC4"
        },
        {
            "bufferView" : 12,
            "componentType" : 5126,
            "count" : 101,
            "type" : "VEC3"
        },
        {
            "bufferView" : 13,
            "componentType" : 5126,
            "count" : 101,
            "type" : "VEC3"
        },
        {
            "bufferView" : 14,
            "componentType" : 5126,
            "count" : 101,
            "type" : "VEC4"
        },
        {
            "bufferView" : 15,
            "componentType" : 5126,
            "count" : 101,
            "type" : "VEC3"
        },
        {
            "bufferView" : 16,
            "componentType" : 5126,
            "count" : 101,
            "type" : "VEC3"
        },
        {
            "bufferView" : 17,
            "componentType" : 5126,
            "count" : 101,
            "type" : "VEC4"
        },
        {
            "bufferView" : 18,
            "componentType" : 5126,
            "count" : 101,
            "type" : "VEC3"
        },
        {
            "bufferView" : 19,
            "componentType" : 5126,
            "count" : 101,
            "type" : "VEC3"
        },
        {
            "bufferView" : 20,
            "componentType" : 5126,
            "count" : 101,
            "type" : "VEC4"
        },
        {
            "bufferView" : 21,
            "componentType" : 5126,
            "count" : 101,
            "type" : "VEC3"
        },
        {
            "bufferView" : 22,
            "componentType" : 5126,
            "count" : 101,
            "type" : "VEC3"
        },
        {
            "bufferView" : 23,
            "componentType" : 5126,
            "count" : 101,
            "type" : "VEC4"
        },
        {
            "bufferView" : 24,
            "componentType" : 5126,
            "count" : 101,
            "type" : "VEC3"
        },
        {
            "bufferView" : 25,
            "componentType" : 5126,
            "count" : 101,
            "type" : "VEC3"
        },
        {
            "bufferView" : 26,
            "componentType" : 5126,
            "count" : 101,
            "type" : "VEC4"
        },
        {
            "bufferView" : 27,
            "componentType" : 5126,
            "count" : 101,
            "type" : "VEC3"
        },
        {
            "bufferView" : 28,
            "componentType" : 5126,
            "count" : 101,
            "type" : "VEC3"
        },
        {
            "bufferView" : 29,
            "componentType" : 5126,
            "count" : 101,
            "type" : "VEC4"
        },
        {
            "bufferView" : 30,
            "componentType" : 5126,
            "count" : 101,
            "type" : "VEC3"
        }
    ],
    "bufferViews" : [
        {
            "buffer" : 0,
            "byteLength" : 5508,
            "byteOffset" : 0
        },
        {
            "buffer" : 0,
            "byteLength" : 5508,
            "byteOffset" : 5508
        },
        {
            "buffer" : 0,
            "byteLength" : 1836,
            "byteOffset" : 11016
        },
        {
            "buffer" : 0,
            "byteLength" : 7344,
            "byteOffset" : 12852
        },
        {
            "buffer" : 0,
            "byteLength" : 1536,
            "byteOffset" : 20196
        },
        {
            "buffer" : 0,
            "byteLength" : 576,
            "byteOffset" : 21732
        },
        {
            "buffer" : 0,
            "byteLength" : 404,
            "byteOffset" : 22308
        },
        {
            "buffer" : 0,
            "byteLength" : 1212,
            "byteOffset" : 22712
        },
        {
            "buffer" : 0,
            "byteLength" : 1616,
            "byteOffset" : 23924
        },
        {
            "buffer" : 0,
            "byteLength" : 1212,
            "byteOffset" : 25540
        },
        {
            "buffer" : 0,
            "byteLength" : 1212,
            "byteOffset" : 26752
        },
        {
            "buffer" : 0,
            "byteLength" : 1616,
            "byteOffset" : 27964
        },
        {
            "buffer" : 0,
            "byteLength" : 1212,
            "byteOffset" : 29580
        },
        {
            "buffer" : 0,
            "byteLength" : 1212,
            "byteOffset" : 30792
        },
        {
            "buffer" : 0,
            "byteLength" : 1616,
            "byteOffset" : 32004
        },
        {
            "buffer" : 0,
            "byteLength" : 1212,
            "byteOffset" : 33620
        },
        {
            "buffer" : 0,
            "byteLength" : 1212,
            "byteOffset" : 34832
        },
        {
            "buffer" : 0,
            "byteLength" : 1616,
            "byteOffset" : 36044
        },
        {
            "buffer" : 0,
            "byteLength" : 1212,
            "byteOffset" : 37660
        },
        {
            "buffer" : 0,
            "byteLength" : 1212,
            "byteOffset" : 38872
        },
        {
            "buffer" : 0,
            "byteLength" : 1616,
            "byteOffset" : 40084
        },
        {
            "buffer" : 0,
            "byteLength" : 1212,
            "byteOffset" : 41700
        },
        {
            "buffer" : 0,
            "byteLength" : 1212,
            "byteOffset" : 42912
        },
        {
            "buffer" : 0,
            "byteLength" : 1616,
            "byteOffset" : 44124
        },
        {
            "buffer" : 0,
            "byteLength" : 1212,
            "byteOffset" : 45740
        },
        {
            "buffer" : 0,
            "byteLength" : 1212,
            "byteOffset" : 46952
        },
        {
            "buffer" : 0,
            "byteLength" : 1616,
            "byteOffset" : 48164
        },
        {
            "buffer" : 0,
            "byteLength" : 1212,
            "byteOffset" : 49780
        },
        {
            "buffer" : 0,
            "byteLength" : 1212,
            "byteOffset" : 50992
        },
        {
            "buffer" : 0,
            "byteLength" : 1616,
            "byteOffset" : 52204
        },
        {
            "buffer" : 0,
            "byteLength" : 1212,
            "byteOffset" : 53820
        }
    ],
    "buffers" : [
        {
            "byteLength" : 55032,
            "uri" : "data:application/octet-stream;base64,"
        }
    ]
}
