{
    "asset" : {
        "generator" : "Khronos glTF Blender I/O v1.3.48",
        "version" : "2.0"
    },
    "scene" : 0,
    "scenes" : [
        {
            "name" : "Scene",
            "nodes" : [
                0
            ]
        }
    ],
    "nodes" : [
        {
            "mesh" : 0,
            "name" : "TreeDiamondA",
            "scale" : [
                0.2287232130765915,
                0.2287232130765915,
                0.2287232130765915
            ]
        }
    ],
    "materials" : [
        {
            "doubleSided" : true,
            "emissiveFactor" : [
                1,
                1,
                1
            ],
            "name" : "Vtx",
            "pbrMetallicRoughness" : {}
        }
    ],
    "meshes" : [
        {
            "name" : "Circle.001",
            "primitives" : [
                {
                    "attributes" : {
                        "POSITION" : 0,
                        "NORMAL" : 1,
                        "TEXCOORD_0" : 2,
                        "COLOR_0" : 3
                    },
                    "indices" : 4,
                    "material" : 0
                }
            ]
        }
    ],
    "accessors" : [
        {
            "bufferView" : 0,
            "componentType" : 5126,
            "count" : 123,
            "max" : [
                0.896685004234314,
                4.370429515838623,
                0.9255844950675964
            ],
            "min" : [
                -1.0334378480911255,
                0,
                -1.0045384168624878
            ],
            "type" : "VEC3"
        },
        {
            "bufferView" : 1,
            "componentType" : 5126,
            "count" : 123,
            "type" : "VEC3"
        },
        {
            "bufferView" : 2,
            "componentType" : 5126,
            "count" : 123,
            "type" : "VEC2"
        },
        {
            "bufferView" : 3,
            "componentType" : 5126,
            "count" : 123,
            "type" : "VEC4"
        },
        {
            "bufferView" : 4,
            "componentType" : 5123,
            "count" : 348,
            "type" : "SCALAR"
        }
    ],
    "bufferViews" : [
        {
            "buffer" : 0,
            "byteLength" : 1476,
            "byteOffset" : 0
        },
        {
            "buffer" : 0,
            "byteLength" : 1476,
            "byteOffset" : 1476
        },
        {
            "buffer" : 0,
            "byteLength" : 984,
            "byteOffset" : 2952
        },
        {
            "buffer" : 0,
            "byteLength" : 1968,
            "byteOffset" : 3936
        },
        {
            "buffer" : 0,
            "byteLength" : 696,
            "byteOffset" : 5904
        }
    ],
    "buffers" : [
        {
            "byteLength" : 6600,
            "uri" : "data:application/octet-stream;base64,"
        }
    ]
}
