<svg fill="currentColor" version="1.1" viewBox="0 0 500 355" xmlns="http://www.w3.org/2000/svg">
 <path d="m114.15 189.06v55.4l127.2 61.29 8.792 0.0122-0.2167-52.64-5.456-1.2459z" style="fill:#93a1ab;stroke-linejoin:round;stroke-width:.04532;stroke:#f00"/>
 <path d="m385.74 189.06v55.4l-127.2 61.29-8.792 0.0122 0.2167-52.64 5.456-1.2459z" style="fill:#808080;stroke-linejoin:round;stroke-width:.04532;stroke:#f00"/>
 <path d="m250 16.26-230 110.8 229.96 110.63 157.5-75.89 1.834-0.7147 70.63-34.03z" style="fill:#ccc;stroke-linejoin:round;stroke-width:.04992;stroke:#f00"/>
 <path d="m278.46 29.973 50.252 169.77 141.09-69.725z" style="fill:#a5ffd4;stroke-linejoin:round;stroke-width:.06341;stroke:#f00"/>
 <path d="m17.3 142.5 71.58 34.48v57.39l7.113 11.32 136.9 65.95 5.454 1.243h23.01l5.455-1.243 136.6-65.77 7.4918-12.188v-56.71l19.52-9.405v77.84l-20.168 48.37 0.1091 13.62 31.13 47.38 0.1889 4e-3 0.3137 5e-3 0.1971 1e-3 32.95-44.57 0.6536-14.69-20.242-50.14v-89.92l27.12-13.06 7.113-11.32v-10.01l-7.113-11.32-227.3-109.5h-10.91l-227.1 109.4-7.113 11.32v10.2l7.113 11.32zm368.45 99.96-127.2 61.29h-17.28l-127.2-61.29v-53.4l130.4 62.82 5.454 1.245 5.454-1.245 130.4-62.82zm-135.8-216.9 208.7 100.6-208.8 100.4-208.8-100.4z" style="fill:#58595b;stroke-width:1.005"/>
 <path d="m442.9 262.6-18.1 37.44 17.37 35 17.63-35z" style="fill:#a5ffd4;stroke-linejoin:round;stroke-width:.06341;stroke:#f00"/>
</svg>
