<svg width="120" height="56" version="1.1" viewBox="0 0 120 56" xmlns="http://www.w3.org/2000/svg">
 <g style="fill:#4531d5">
  <path d="m51.006 17.419s-33.527 0.0039-49.993 0.01172c0.074051 3.4525-0.16069 7.6993 0.14258 11.136 0.65648 3.6371 4.9978 6.7408 8.5765 6.2897 10.023-0.01423 34.01 0.01067 41.677-0.07839 3.7226-0.48095 7.022-4.9511 6.5752-8.6117-1.7612-2.9071-6.9783-8.7476-6.9783-8.7476z" style="fill:#4531d5"/>
  <path d="m0.85546 4.1159v12.784h11.507c-2.5423-4.2613-5.0845-8.5226-7.6268-12.784h-3.8806z" style="fill:#4531d5;stroke-width:1.1451"/>
  <path d="m19.045 1.2446c0.0084 5.1027 0.01668 10.205 0.02503 15.308h17.593c-3.3794-5.1027-6.7588-10.205-10.138-15.308h-7.4802z" style="fill:#4531d5;stroke-width:1.1287"/>
  <path d="m69.117 17.419s33.527 0.0039 49.993 0.01172c-0.074 3.4525 0.16069 7.6993-0.14258 11.136-0.65648 3.6371-4.9978 6.7408-8.5765 6.2897-10.023-0.01423-34.01 0.01067-41.677-0.07839-3.7226-0.48095-7.022-4.9511-6.5752-8.6117 1.7612-2.9071 6.9783-8.7476 6.9783-8.7476z" style="fill:#4531d5"/>
  <path d="m119.27 4.1159v12.784h-11.507c2.5423-4.2613 5.0845-8.5226 7.6268-12.784h3.8806z" style="fill:#4531d5;stroke-width:1.1451"/>
  <path d="m101.08 1.2446c-8e-3 5.1027-0.0167 10.205-0.025 15.308h-17.593c3.3794-5.1027 6.7588-10.205 10.138-15.308h7.4802z" style="fill:#4531d5;stroke-width:1.1287"/>
 </g>
 <path d="m19.26 30.135v23.9h6.3398c3.6999-7.9668 7.3997-15.934 11.1-23.9h-17.439z" style="fill:#fea"/>
 <path d="m19.26 30.135h17.439c-3.6999 7.9668-7.3997 15.934-11.1 23.9h-6.3398c-2e-6 -7.9668-3e-6 -15.934-5e-6 -23.9z" style="fill:#fea"/>
 <path d="m35.5 22.186 0.98059 1.9902h4.9901l-0.98059-1.9902z" style="fill:#fff6d5"/>
 <path d="m18.049 0.26498-0.032975 15.742-3.5056-0.13919-7.6058-12.361-6.8066-0.98432s-0.061117 17.617 0.046875 25.422c0.36231 4.8413 5.1213 8.5713 9.8947 8.0469h7.9784v18.9l9.5254 0.84375 9.2871-19.721s10.25 0.12538 15.361-0.10339c4.653-0.59429 7.4955-3.5015 7.6-9.8381-0.10974-3.7397-4.6462-7.2607-7.5957-9.91-4.8783-0.17659-9.7889-0.02624-14.68-0.07617l-9.6699-15.4zm1.6506 1.931h6.4199l8.7012 14h-15.1c-0.0072-4.6667-0.01432-9.3333-0.02148-14zm-18.309 2.9902c1.1497 0.091603 2.5048-0.18402 3.525 0.13924l6.6742 10.861h-10.199zm49.67 12.998c0.28667 0.56086 1.7155 2.4065 1.6959 2.8246-1.5906 0.0464-4.778 0.07812-4.778 0.07812s0.0091 2.198 1.0556 3.7152c1.0465 1.5171 3.8345 1.3645 8.296 1.3645 0.4684 3.7849-2.3932 7.6464-6.2695 7.9434-4.6014 0.08034-9.2074 0.01297-13.811 0.03516 0.70911-1.6526 4.2845-5.9807 2.0725-6.0059-2.212-0.02519-21.846 0.22332-21.846 0.22332l0.11518 5.6617s-7.1332 0.27771-10.406-0.02365c-3.6372-0.65465-6.029-4.4014-5.5781-7.98v-7.8169c16.479-0.01302 32.999 0.02604 49.453-0.01953z" style="fill:#fff6d5"/>
 <path d="m23.5 22.186 0.98059 1.9902h4.9901l-0.98059-1.9902z" style="fill:#fff6d5"/>
 <path d="m11.5 22.186 0.98059 1.9902h4.9901l-0.98059-1.9902z" style="fill:#fff6d5"/>
 <path d="m51.061 18.184c-0.1317-0.05538-0.02735 0.06357 0 0z" style="fill:#fea"/>
 <path d="m100.86 30.135v23.9h-6.3398c-3.6999-7.9668-7.3997-15.934-11.1-23.9h17.439z" style="fill:#fea"/>
 <path d="m100.86 30.135h-17.439c3.6999 7.9668 7.3997 15.934 11.1 23.9h6.3398v-23.9z" style="fill:#fea"/>
 <path d="m84.623 22.186-0.98059 1.9902h-4.9901l0.98059-1.9902z" style="fill:#fff6d5"/>
 <path d="m102.07 0.26498 0.033 15.742 3.5056-0.13919 7.6058-12.361 6.8066-0.98432s0.0611 17.617-0.0469 25.422c-0.36231 4.8413-5.1213 8.5713-9.8947 8.0469h-7.9784v18.9l-9.5254 0.84375-9.2871-19.721s-10.25 0.12538-15.361-0.10339c-4.653-0.59429-7.4955-3.5015-7.6-9.8381 0.10974-3.7397 4.6462-7.2607 7.5957-9.91 4.8783-0.17659 9.7889-0.02624 14.68-0.07617l9.6699-15.4zm-1.6506 1.931h-6.4199l-8.7012 14h15.1c7e-3 -4.6667 0.0143-9.3333 0.0215-14zm18.309 2.9902c-1.1497 0.0916-2.5048-0.18402-3.525 0.13924l-6.6742 10.861h10.199zm-49.67 12.998c-0.28667 0.56086-1.7155 2.4065-1.6959 2.8246 1.5906 0.0464 4.778 0.07812 4.778 0.07812s-0.0091 2.198-1.0556 3.7152c-1.0465 1.5171-3.8345 1.3645-8.296 1.3645-0.4684 3.7849 2.3932 7.6464 6.2695 7.9434 4.6014 0.08034 9.2074 0.01297 13.811 0.03516-0.70911-1.6526-4.2845-5.9807-2.0725-6.0059 2.212-0.02519 21.846 0.22332 21.846 0.22332l-0.11519 5.6617s7.1332 0.27771 10.406-0.02365c3.6372-0.65465 6.029-4.4014 5.5781-7.98v-7.8169c-16.479-0.01302-32.999 0.02604-49.453-0.01953z" style="fill:#fff6d5"/>
 <path d="m96.623 22.186-0.98059 1.9902h-4.9901l0.98059-1.9902z" style="fill:#fff6d5"/>
 <path d="m108.62 22.186-0.98059 1.9902h-4.9901l0.98059-1.9902z" style="fill:#fff6d5"/>
 <path d="m69.062 18.184c0.1317-0.05538 0.02735 0.06357 0 0z" style="fill:#fea"/>
</svg>
