<svg  fill="#000000" version="1.1" viewBox="0 0 32 32" xmlns="http://www.w3.org/2000/svg">
 <path d="m28.082 10.014-0.04367 0.13069-0.04395 0.13106-0.04414 0.13144-0.04424 0.13181 0.32417 2.5261-0.071547 2.6371-0.51686 2.7522-1.0118 2.8715 0.13033-1.863 0.016797-1.8229-0.10227-1.7837-0.22686-1.7454-0.36538 0.66369-0.40212 0.65656-0.42838 0.65244-0.44412 0.65131-0.042766 1.8992-0.26861 1.9546-0.51367 2.0137-0.77795 2.0764 0.10462-1.4845 0.024375-1.4593-0.049125-1.4359-0.11588-1.4142-0.61842 0.67591-0.6547 0.65884-0.69239 0.63822-0.73148 0.61403-0.21838 1.1984-0.30462 1.2193-0.39838 1.2405-0.49962 1.2619 0.079047-1.0076 0.041828-0.99938 0.008641-0.98888-0.020516-0.97612-1.746 1.0722-1.9153 0.93692-2.0979 0.77961-2.2938 0.60027 1.9187-1.1414 1.7292-1.1585 1.5543-1.1748 1.3939-1.1903-0.87283-0.16575-0.8823-0.138-0.88848-0.11362-0.89139-0.092625 1.1748-0.25308 1.1647-0.16655 1.1519-0.084234 1.1366-0.006141 0.77311-0.82611 0.70702-0.83202 0.6412-0.8412 0.57567-0.85367-1.5082-0.22281-1.5171-0.12794-1.526-0.034563-1.5347 0.057313 1.7646-0.71886 1.7609-0.45852 1.7564-0.21608 1.7511 0.008453 0.41706-0.9377 0.35294-0.95167 0.29594-0.96348 0.24606-0.97314-1.3611-0.022766-1.4308 0.15489-1.5108 0.28933-1.6013 0.38055 1.517-1.1792 1.5611-0.83725 1.5891-0.5395 1.6008-0.286 0.073406-0.67803 0.054094-0.68122 0.035344-0.68684 0.017156-0.69491-5.5268-0.30942-3.714 6.435-4.7599 8.4587-8.6644 5.7616 11.009 2.5573 11.033-3.0336 6.6248-6.9909-2.2167-9.3148v-7.5e-4zm-2.294-7.688 0.49116-0.17067 0.51159-0.037453 0.50222 0.12136 0.46303 0.30577-0.029297 2.8906-0.68508 3.6778-1.4941 3.9559-2.4565 3.7248 1.7828-3.9051 0.91683-3.5605 0.24127-3.4445-0.24389-3.5569v-7.5e-4z"/>
</svg>
