<svg fill="currentColor" version="1.1" viewBox="0 0 500 500" xmlns="http://www.w3.org/2000/svg">
 <path d="m80 88-80 50v132l35 70 250 160h95l90-25 30-67v-80.005l-30-80-255-160z" style="fill:#58595b;stroke-width:21.53"/>
 <path d="m460 270-250-160h-125l-75 50v50l25 55 250 160h95l70-25 30-60z" style="fill:#ccc;stroke-width:21.53"/>
 <path d="m221.8 209.6-20.76-12.25 20.52-11.84 0.01-20.37-33.128-19.13-37.55 21.68-37.79-21.82-32.912 18.99 3e-3 20.37 20.99 12.12-25.19 15.86-2.326 18.196 39.9 17.423 37.58-21.68 37.79 23.82 36.414-20.021-3.5668-21.364z" style="fill:#a5ffd4;stroke-width:21.53"/>
 <path d="m188.9 228.6-37.79-21.82-37.58 21.68-37.55-15.24 42.02-25.56-37.81-22.8 32.92-18.99 37.79 21.82 37.55-21.68 33.12 19.13-37.55 22.17 37.79 22.31-32.91 18.99z" style="fill:#a5ffd4;stroke-width:21.53"/>
 <path d="m272.11 323.05-9.4453 10.061h-4e-3l0.0918 32.465 3.3594 6.6777 36.928 5.6973 13.217-7.7539 0.0664-33.25 4e-3 -6e-3 -7.1289-10.939z" style="fill:#58595b;stroke-width:1.8898"/>
 <path d="m355.6 258.14-9.4453 10.061h-4e-3l0.0918 32.465 3.3574 6.6777 36.93 5.6973 13.217-7.7539 0.0664-33.25 4e-3 -6e-3 -7.1289-10.939z" style="fill:#58595b;stroke-width:1.8898"/>
 <path d="m273.22 257.88-9.4473 10.061 6e-3 0.0117 0.0937 32.453 3.3574 6.6777 36.928 5.6973 13.219-7.7539 0.0645-33.254h-6e-3v-2e-3l-7.127-10.939z" style="fill:#a5ffd4;stroke-width:1.8898"/>
 <path d="m369.5 323.98-9.4375 10.051h-2e-3v2e-3l-8e-3 8e-3 8e-3 0.0156 0.0918 32.439 3.3574 6.6777 36.93 5.6973 13.217-7.7539 0.0664-33.254h-0.0117l-7.123-10.932z" style="fill:#a5ffd4;stroke-width:1.8898"/>
 <path d="m380 200 120-120v-80l-170 170z" style="fill:#58595b"/>
</svg>
