<svg version="1.1" viewBox="0 0 160 160" xmlns="http://www.w3.org/2000/svg">
 <path d="m26.51 24.295h35.66c3.1511 0 5.7056 2.558 5.7056 5.7134 0 3.1553-2.5545 5.7133-5.7056 5.7133h-35.66c-3.1511 0-5.7056-2.558-5.7056-5.7133 0-3.1554 2.5545-5.7134 5.7056-5.7134zm24.249 39.993h58.482c3.151 0 5.706 2.5579 5.706 5.7133s-2.555 5.7133-5.706 5.7133h-58.482c-3.1511 0-5.7056-2.5579-5.7056-5.7133s2.5545-5.7133 5.7056-5.7133zm11.411 59.99h-25.675c-3.1512 0-5.7056 2.558-5.7056 5.714 0 3.155 2.5544 5.713 5.7056 5.713h25.675c3.1511 0 5.7056-2.558 5.7056-5.713 0-3.156-2.5545-5.714-5.7056-5.714zm-25.675-79.986h49.924c3.1511 0 5.7055 2.5579 5.7055 5.7133s-2.5544 5.7134-5.7055 5.7134h-49.924c-3.1512 0-5.7056-2.558-5.7056-5.7134s2.5544-5.7133 5.7056-5.7133zm96.995 39.993h-82.731c-3.1511 0-5.7056 2.558-5.7056 5.7134s2.5545 5.7133 5.7056 5.7133h82.731c3.151 0 5.706-2.5579 5.706-5.7133s-2.555-5.7134-5.706-5.7134zm-82.731 19.997h19.97c3.1511 0 5.7056 2.558 5.7056 5.713s-2.5545 5.713-5.7056 5.713h-19.97c-3.1511 0-5.7056-2.558-5.7056-5.713s2.5545-5.713 5.7056-5.713zm52.777 0h-12.838c-3.1511 0-5.7056 2.558-5.7056 5.713s2.5545 5.713 5.7056 5.713h12.838c3.151 0 5.705-2.558 5.705-5.713s-2.554-5.713-5.705-5.713z" clip-rule="evenodd" fill="#fff" fill-rule="evenodd"/>
 <path d="m26.51 24.295h35.66c3.1511 0 5.7056 2.558 5.7056 5.7134 0 3.1553-2.5545 5.7133-5.7056 5.7133h-35.66c-3.1511 0-5.7056-2.558-5.7056-5.7133 0-3.1554 2.5545-5.7134 5.7056-5.7134z" clip-rule="evenodd" fill="#FC521F" fill-rule="evenodd"/>
 <path d="m50.758 64.288h58.483c3.151 0 5.705 2.5579 5.705 5.7133s-2.554 5.7134-5.705 5.7134h-58.483c-3.1511 0-5.7056-2.558-5.7056-5.7134s2.5545-5.7133 5.7056-5.7133z" clip-rule="evenodd" fill="#FFAE00" fill-rule="evenodd"/>
 <path d="m36.495 124.28h25.675c3.1511 0 5.7056 2.558 5.7056 5.713 0 3.156-2.5545 5.714-5.7056 5.714h-25.675c-3.1512 0-5.7056-2.558-5.7056-5.714 0-3.155 2.5544-5.713 5.7056-5.713z" clip-rule="evenodd" fill="#1EA7FD" fill-rule="evenodd"/>
 <path d="m36.495 44.292h49.924c3.1511 0 5.7055 2.558 5.7055 5.7133 0 3.1554-2.5544 5.7134-5.7055 5.7134h-49.924c-3.1512 0-5.7056-2.558-5.7056-5.7134 0-3.1553 2.5544-5.7133 5.7056-5.7133z" clip-rule="evenodd" fill="#1EA7FD" fill-rule="evenodd"/>
 <path d="m50.758 84.285h82.731c3.151 0 5.706 2.558 5.706 5.7133 0 3.1554-2.555 5.7134-5.706 5.7134h-82.731c-3.1511 0-5.7056-2.558-5.7056-5.7134 0-3.1553 2.5545-5.7133 5.7056-5.7133z" clip-rule="evenodd" fill="#37D5D3" fill-rule="evenodd"/>
 <path d="m50.758 104.28h19.97c3.1511 0 5.7056 2.558 5.7056 5.714 0 3.155-2.5545 5.713-5.7056 5.713h-19.97c-3.1511 0-5.7056-2.558-5.7056-5.713 0-3.156 2.5545-5.714 5.7056-5.714z" clip-rule="evenodd" fill="#66BF3C" fill-rule="evenodd"/>
 <path d="m90.698 104.28h12.837c3.151 0 5.706 2.558 5.706 5.714 0 3.155-2.555 5.713-5.706 5.713h-12.837c-3.1511 0-5.7056-2.558-5.7056-5.713 0-3.156 2.5545-5.714 5.7056-5.714z" clip-rule="evenodd" fill="#FC521F" fill-rule="evenodd"/>
</svg>
