<svg fill="currentColor" version="1.0" viewBox="0 0 364 359" xmlns="http://www.w3.org/2000/svg">
 <path d="m180-.199l-.602.199c-11.3-.0225-22.4 4.07-30.5 12.3l-134 137c-45.4 56.2 30.9 49.7 63.6 65.9 11.7 12-45 20.8-33.2 32.8 11.7 12 70.9 23.1 82.7 35.1 11.7 12-24 24.7-12.3 36.7s38.9.63 43.9 28.3c3.62 19.8 48.9 8.5 71-7.7 11.7-12-22.4-10.9-10.7-22.9 29.2-29.8 56.3-10.8 66.3-40.7 4.93-14.8-42.9-22.8-31.2-34.8 33.8-19.7 150-32.5 95.1-87.9l-139-142c-8.52-8.18-19.9-12.3-31.1-12.3zm.609 13.3c8.03.0425 16 3.05 21.8 8.89l53.1 54c5.04 5.15 4.97 15.1 2.15 18l-26.4-21.1-5.19 31.3-22-11.6-35.3 22.3-11.7-47-19 32.8h-29c-11.8 0-13.2-15-2.47-25.7 18.8-20.2 40.3-40.9 52-52.8 5.88-6.01 13.9-8.93 22-8.89l.00977-.201zm-64.2 210c3.59 2.23 57.9 13.3 71.2 15.5 4.6.97 1.34 5.71-5 8.91-14.3 3.8-83.7-24.4-66.2-24.4v-.00977zm213 37.6v.00977c-11.6-.293-23.6 5.31-26.7 16.4 0 6.82 50.2 11.3 50.2-1.61-3.36-9.71-13.3-14.6-23.5-14.8zm-232 29.5v.00977c-15.7-.146-34.2 11.4-20.6 23.1 11.9 10.3 30.3-2.56 35.8-16.9-3.24-4.31-8.99-6.15-15.2-6.21zm199 .908c-15.3 13.8 1.72 27.7 16.8 18.8 3.37-3.42-.0906-15.4-16.8-18.8z"/>
</svg>
